<svg width="91" height="80" fill="none" xmlns="http://www.w3.org/2000/svg"><path opacity=".3" d="M84.708 34.554L69.414 47.647c0-1.56.515-10.661-.589-11.765-1.103-1.103 2.149-1.764.589-1.764v-5.295c-.667-1.405-.948-3.469 0-5.234-.589-1.236-1.974-4.702-3.53-4.705H41.767L56.049 5.942a20.248 20.248 0 1128.659 28.612zM5.919 43.681l9.964-8.387c0 1.56-1.692 6.544-.589 7.647V57.06c.667 1.405-.588 1.176.589 4.117.588 1.237 6.68 1.174 8.235 1.177h14.118l5.882.588-9.54 9.352A20.248 20.248 0 015.918 43.68z" fill="#63C3D1"/><path d="M60.366 45.882h-3.894a1.176 1.176 0 010-2.353h3.953c.529.002 1.04-.19 1.435-.54a1.671 1.671 0 00.553-1.177A1.881 1.881 0 0060.366 40H50.225a2.153 2.153 0 00-1.435.541 1.671 1.671 0 00-.553 1.177 1.88 1.88 0 001.988 1.811h.459a1.177 1.177 0 010 2.353h-.459a4.247 4.247 0 01-4.341-4.117 4.07 4.07 0 011.306-2.941 4.482 4.482 0 013.035-1.177h10.141a4.247 4.247 0 014.341 4.118 4.07 4.07 0 01-1.305 2.94 4.482 4.482 0 01-3.036 1.177zm-19.188 2.353h-20A1.176 1.176 0 0120 47.06V35.294a1.176 1.176 0 011.177-1.176h20a1.176 1.176 0 011.176 1.176V47.06a1.176 1.176 0 01-1.176 1.176zm-18.824-2.353h17.648v-9.411H22.354v9.411zm17.648 7.06H22.354a1.176 1.176 0 110-2.354h17.648a1.177 1.177 0 010 2.353zm-7.06 4.705H22.355a1.177 1.177 0 010-2.353h10.589a1.176 1.176 0 010 2.353zM21.178 25.882a1.177 1.177 0 100-2.353 1.177 1.177 0 000 2.353zm5.882 0a1.177 1.177 0 100-2.353 1.177 1.177 0 000 2.353zm5.883 0a1.177 1.177 0 100-2.353 1.177 1.177 0 000 2.353z" fill="#63C3D1"/><path d="M69.413 30.588H15.297a1.176 1.176 0 010-2.353h54.117a1.177 1.177 0 010 2.353zM50.59 63.53a1.177 1.177 0 01-1.177-1.176v-4.706a1.176 1.176 0 112.353 0v4.706a1.177 1.177 0 01-1.176 1.176zm21.306 10.589a1.176 1.176 0 01.141 1.506 17.082 17.082 0 01-4.33 4.14 1.105 1.105 0 01-.646.236 1.176 1.176 0 01-.648-2.153 15.013 15.013 0 003.706-3.53 1.177 1.177 0 011.777-.2z" fill="#ADA4CD"/><path d="M75.296 59.576v6.06a16.868 16.868 0 01-.859 5.34 1.175 1.175 0 01-1.941.436 1.175 1.175 0 01-.27-1.177 15.12 15.12 0 00.717-4.6v-6.059a1.87 1.87 0 00-1.577-1.929 1.74 1.74 0 00-1.376.447 1.775 1.775 0 00-.576 1.318 1.176 1.176 0 11-2.353 0v-2.188a1.87 1.87 0 00-1.577-1.93 1.74 1.74 0 00-1.376.447 1.776 1.776 0 00-.577 1.318 1.177 1.177 0 01-2.353 0v-1.012a1.87 1.87 0 00-1.576-1.93 1.742 1.742 0 00-1.377.448 1.776 1.776 0 00-.576 1.317 1.177 1.177 0 01-2.353 0V45.294a1.765 1.765 0 00-1.953-1.765 1.87 1.87 0 00-1.577 1.93v12.188a1.177 1.177 0 11-2.352 0 3.529 3.529 0 00-3.648-3.53 1.176 1.176 0 00-1.058 1.177v10.341a14.671 14.671 0 006.529 12.212 1.177 1.177 0 01-1.294 1.953 16.977 16.977 0 01-7.588-14.118V55.294a3.53 3.53 0 013.34-3.53 5.882 5.882 0 013.718 1.177V45.46a4.247 4.247 0 013.695-4.283 4.106 4.106 0 014.54 4.118v6.87a4.223 4.223 0 012.189-.4 4.117 4.117 0 013.035 1.942 4.084 4.084 0 016.306 2.082 4.2 4.2 0 012.424-.494 4.247 4.247 0 013.694 4.282zm-60-14.87a1.176 1.176 0 01-1.177-1.177v-20a4.706 4.706 0 014.706-4.706h22.353a1.176 1.176 0 110 2.353H18.825a2.353 2.353 0 00-2.353 2.353v20a1.176 1.176 0 01-1.176 1.177z" fill="#ADA4CD"/><path d="M44.708 62.353a1.176 1.176 0 01-1.177 1.176H18.825a4.706 4.706 0 01-4.706-4.706V48.235a1.176 1.176 0 112.353 0v10.588a2.353 2.353 0 002.353 2.353h24.706a1.176 1.176 0 011.177 1.177z" fill="#ADA4CD"/><path d="M47.06 20a1.177 1.177 0 10-2.353 0 1.177 1.177 0 002.353 0z" fill="#63C3D1"/><path d="M70.59 23.53v33.529a1.176 1.176 0 11-2.353 0v-33.53a2.353 2.353 0 00-2.353-2.353H50.59a1.176 1.176 0 110-2.352h15.294a4.706 4.706 0 014.706 4.705z" fill="#ADA4CD"/></svg>