<svg width="80" height="80" fill="none" xmlns="http://www.w3.org/2000/svg"><path d="M68.742 61.23H46.265a1.249 1.249 0 00-.886.363l-.874.887h-8.966l-.874-.887a1.25 1.25 0 00-.887-.362H11.302a3.746 3.746 0 00-3.746 3.746v1.249a6.244 6.244 0 006.243 6.243h52.446a6.244 6.244 0 006.243-6.243v-1.249a3.746 3.746 0 00-3.746-3.746zm1.249 4.996a3.746 3.746 0 01-3.746 3.746H13.799a3.746 3.746 0 01-3.746-3.746v-1.249a1.249 1.249 0 011.249-1.249h21.964l.875.887a1.25 1.25 0 00.886.362h9.99c.182.003.363-.04.524-.125.137-.052.26-.133.362-.237l.874-.887h21.965a1.249 1.249 0 011.249 1.249v1.249z" fill="#ADA4CD"/><path d="M60.001 50.392v5.844H47.514a4.166 4.166 0 01-.437.5 3.743 3.743 0 01-.512.486c-.361.31-.76.575-1.186.787-.202.108-.41.205-.624.287h-.088a4.586 4.586 0 01-.587.188h-.1l-.586.1c-.288.07-.58.12-.875.15h18.73a1.249 1.249 0 001.25-1.25v-9.59L60 50.393zM17.545 28.765v3.346l4.596-4.595h-3.347a1.249 1.249 0 00-1.249 1.249zM62.5 22.52h-6.244a1.249 1.249 0 00-1.249 1.249v.15c.02.366.02.732 0 1.098v1.162c-.056.77-.177 1.535-.362 2.285a1.248 1.248 0 00.225 1.036 1.25 1.25 0 00.986.475h4.146v26.26H20.043V30.013h4.195a1.248 1.248 0 00.987-.474 1.25 1.25 0 00.225-1.074 13.027 13.027 0 01-.412-2.298 12.822 12.822 0 010-1.56 7.241 7.241 0 010-.737v-.1a1.248 1.248 0 00-1.25-1.249h-6.243a4.995 4.995 0 00-4.995 4.995v31.218c0 .246.021.493.063.736.027.225.078.447.15.662 0 .125.075.25.125.375.032.1.074.195.125.287l.124.262a.938.938 0 00.088.15c.139.262.311.505.512.724l.237.262a4.524 4.524 0 001.136.874l.175.088c.179.098.367.177.562.237a4.507 4.507 0 001.698.337h15.721l.875.887a1.248 1.248 0 00.886.362h9.99c.182.003.363-.04.524-.125.137-.052.26-.133.362-.237l.874-.887H62.5a4.558 4.558 0 001.648-.287c.23-.08.456-.176.674-.287.147-.067.285-.15.412-.25l.2-.137a4.995 4.995 0 001.91-2.785.551.551 0 000-.262c.092-.321.142-.653.15-.986V27.515A4.995 4.995 0 0062.5 22.52zm2.497 36.213c.018.145.018.291 0 .436a.285.285 0 010 .088c-.14.59-.491 1.11-.986 1.46l-.138.113h-.125l-.374.163c-.273.135-.57.216-.874.237H46.266a1.246 1.246 0 00-.887.362l-.874.887h-8.966l-.874-.887a1.247 1.247 0 00-.886-.362H17.544c-.29 0-.579-.055-.849-.163l-.324-.137h-.063l-.275-.187a1.327 1.327 0 01-.25-.212l-.174-.2a2.038 2.038 0 01-.275-.4 1.475 1.475 0 00-.1-.25v-.124a.238.238 0 010-.088v-.175a.275.275 0 010-.1v-.162a.852.852 0 01-.187-.3V27.517a2.498 2.498 0 012.497-2.497h4.995v1.336c0 .212 0 .424.075.636.075.213 0 .35 0 .525h-3.821a1.249 1.249 0 00-1.249 1.249v28.72a1.249 1.249 0 001.249 1.248H61.25a1.249 1.249 0 001.249-1.248v-28.72a1.249 1.249 0 00-1.25-1.25h-3.933c0-.386.1-.76.138-1.135.037-.375 0-.9 0-1.361h4.995a2.497 2.497 0 012.497 2.497l.05 31.218zM18.794 27.516a1.249 1.249 0 00-1.249 1.249v3.346l4.596-4.595h-3.347zm42.456 0h-3.934c-.07.521-.17 1.038-.3 1.548-.074.313-.149.625-.249.95h3.234v26.222H47.514a5.68 5.68 0 01-.437.5 3.743 3.743 0 01-.512.486c-.361.31-.76.575-1.186.787-.202.108-.41.205-.624.287h-.088a4.586 4.586 0 01-.587.188h-.1l-.586.1c-.288.07-.58.12-.875.15h18.73a1.249 1.249 0 001.25-1.25v-28.72a1.249 1.249 0 00-1.25-1.248z" fill="#ADA4CD"/><path d="M61.25 58.733H18.794a1.25 1.25 0 01-1.249-1.248v-28.72a1.249 1.249 0 011.249-1.25h5.444a1.249 1.249 0 011.249.987c.169.779.411 1.54.724 2.273a15.06 15.06 0 004.933 6.243 3.858 3.858 0 011.523 2.498l.787 2.984a.348.348 0 010 .163 1.249 1.249 0 001.248 1.086h10.614a1.249 1.249 0 001.249-1.087.35.35 0 010-.162l.812-2.972c.16-1 .707-1.897 1.523-2.497a14.984 14.984 0 004.92-6.244c.306-.746.556-1.514.75-2.297a1.249 1.249 0 011.248-.974h5.432a1.249 1.249 0 011.248 1.249v28.72a1.249 1.249 0 01-1.248 1.248zm-41.207-2.497H60V30.013h-3.234a18.049 18.049 0 01-.625 1.736 17.482 17.482 0 01-5.719 7.305 1.37 1.37 0 00-.561.874.4.4 0 010 .175l-.812 2.972a3.746 3.746 0 01-3.746 3.171H34.69a3.746 3.746 0 01-3.684-3.171l-.811-2.972a.4.4 0 010-.175 1.373 1.373 0 00-.562-.874 17.483 17.483 0 01-5.732-7.305 17.128 17.128 0 01-.624-1.736h-3.234v26.223z" fill="#ADA4CD"/><path d="M42.52 58.733h-4.995a6.244 6.244 0 01-6.244-6.243v-4.995a3.746 3.746 0 013.746-3.746h9.99a3.746 3.746 0 013.746 3.746v4.995a6.244 6.244 0 01-6.244 6.243zm-7.493-12.487a1.249 1.249 0 00-1.249 1.25v4.994a3.746 3.746 0 003.747 3.746h4.994a3.746 3.746 0 003.746-3.746v-4.995a1.248 1.248 0 00-1.248-1.249h-9.99z" fill="#63C3D1"/><path d="M45.89 33.76c-.165.02-.333.02-.499 0a2.847 2.847 0 01-1.91-1.25 5.507 5.507 0 00-4.596-2.497h-1.36a1.248 1.248 0 01-1.25-1.249v-7.492a1.249 1.249 0 011.25-1.248h1.36a5.53 5.53 0 004.608-2.498 2.823 2.823 0 011.898-1.249c.166-.02.334-.02.5 0a2.872 2.872 0 012.872 2.872v11.738a2.872 2.872 0 01-2.872 2.872zm-7.117-6.244h.112a7.98 7.98 0 016.681 3.584.349.349 0 00.262.15h.063a.374.374 0 00.374-.375V19.149a.36.36 0 00-.362-.374h-.075a.338.338 0 00-.25.137 8.005 8.005 0 01-6.693 3.609h-.112v4.995zm7.118-9.99v1.249-1.249z" fill="#ADA4CD"/><path d="M37.524 30.013h-2.497a4.994 4.994 0 110-9.99h2.497a1.249 1.249 0 011.25 1.25v7.492a1.249 1.249 0 01-1.25 1.248zm-2.497-7.492a2.497 2.497 0 000 4.995h1.249V22.52h-1.249z" fill="#ADA4CD"/><path d="M37.524 36.257a1.248 1.248 0 01-1.161-.787l-2.497-6.243a1.251 1.251 0 012.057-1.334c.114.118.204.257.265.41l2.498 6.243a1.25 1.25 0 01-1.162 1.71z" fill="#ADA4CD"/><path opacity=".3" d="M79.98 21.522a21.404 21.404 0 01-6.243 15.184l-6.243 6.244V27.516a4.995 4.995 0 00-4.995-4.995h-5.17a17.644 17.644 0 00-6.169-10.976 17.481 17.481 0 00-9.165-3.883l1.324-1.374A21.478 21.478 0 0179.98 21.522zM37.925 72.47l-1.248 1.249a21.491 21.491 0 11-30.37-30.42l6.244-6.243v21.677c0 .247.02.494.062.737.027.225.078.447.15.662 0 .125.075.25.125.375.032.099.074.195.125.287l.125.262a.934.934 0 00.087.15h-1.923a3.746 3.746 0 00-3.746 3.746V66.2a6.244 6.244 0 006.243 6.243l24.125.025z" fill="#63C3D1"/></svg>