<svg width="81" height="80" fill="none" xmlns="http://www.w3.org/2000/svg"><path d="M54.403 25.497a4.686 4.686 0 01-.3-.55 3.748 3.748 0 01-.2-.45c0-.087-.062-.175-.1-.275-.037-.1-.1-.3-.137-.45-.038-.15-.088-.375-.125-.562a6.902 6.902 0 01-.087-.712v-.725a4.122 4.122 0 01-1.112 3.136 4.186 4.186 0 01-7.297-2.861v-.812c.002.444-.04.888-.125 1.324.007.108.007.217 0 .325a2.362 2.362 0 01-.113.425 3.346 3.346 0 01-.137.425 6.01 6.01 0 01-.338.824.59.59 0 00-.062.125l-.213.375-.112.175a4.531 4.531 0 01-.275.4c-.17-.26-.32-.53-.45-.812-.062-.125-.112-.25-.162-.375a6.449 6.449 0 01-.513-1.724 5.979 5.979 0 010-.675v-.812a4.998 4.998 0 11-9.995 0v.812a6.533 6.533 0 01-.463 2.424c0 .112-.087.237-.15.35a5.803 5.803 0 01-.45.812 4.51 4.51 0 01-.274-.4l-.113-.175-.212-.375-.063-.125a5.997 5.997 0 01-.337-.824 3.33 3.33 0 01-.137-.425 2.362 2.362 0 01-.113-.425 2.48 2.48 0 010-.325 6.61 6.61 0 01-.187-1.324v.812a4.185 4.185 0 01-4.186 4.186 4.561 4.561 0 01-.925-.1l-.274-.075a2.923 2.923 0 01-.763-.325l-1.811 1.812a6.424 6.424 0 002.274 1.012l.287.062a4.917 4.917 0 001.212.075c.225.013.45.013.675 0a5 5 0 00.625-.087 6.497 6.497 0 002.436-1.025c.087 0 .175-.125.262-.187.11-.077.214-.16.313-.25.202-.163.39-.343.562-.537.125-.138.25-.275.362-.425.132-.163.253-.334.363-.512l.075.087c.11.158.231.308.362.45.279.32.584.617.912.887.175.137.338.262.512.375a7.497 7.497 0 008.397 0c.175-.113.337-.238.512-.375.336-.261.65-.55.937-.862.13-.142.252-.292.363-.45l.075-.088a6.684 6.684 0 004.323 2.962c.206.042.415.071.625.087.224.013.45.013.674 0a6.71 6.71 0 005.448-2.811 4.95 4.95 0 01-.275-.438zM43.795 52.472a1.25 1.25 0 011.25 1.1l.162 1.399h2.337v-2.5h-3.749zM55.14 35.755a1.25 1.25 0 011.15-.775h-2.5a6.247 6.247 0 00-6.246 6.248v3.748h1.249a1.25 1.25 0 001.25-1.25v-2.498a3.748 3.748 0 013.748-3.749h1.974l-.362-.362a1.25 1.25 0 01-.263-1.362zm9.234-10.246a1.25 1.25 0 00-1.25 0c-.667.44-1.45.674-2.249.675h-.724a4.185 4.185 0 01-4.174-3.911v-.725a1.252 1.252 0 00-2.498.088v.075a4.123 4.123 0 01-1.112 3.136 4.186 4.186 0 01-7.322-2.799v-.812a1.25 1.25 0 10-2.5 0 4.998 4.998 0 11-9.995 0 1.25 1.25 0 10-2.5 0v.812a4.185 4.185 0 01-4.185 4.186 4.561 4.561 0 01-.925-.1l-.274-.075a2.923 2.923 0 01-.763-.325 2.834 2.834 0 01-.55-.337l-.2-.163a4.314 4.314 0 01-.35-.325 4.123 4.123 0 01-1.111-3.136v-.075a1.25 1.25 0 00-2.371-.56 1.25 1.25 0 00-.128.473v.724a4.186 4.186 0 01-4.224 3.899h-.724a4.173 4.173 0 01-2.262-.675 1.25 1.25 0 00-1.25 0 1.25 1.25 0 00-.674 1.05v19.616a8.547 8.547 0 001.624 4.998l.238.325c.225.275.475.562.737.837l.2.175c.234.227.484.436.75.625l.224.162c.322.226.66.426 1.013.6l.162.088c.287.14.584.262.887.362.091.045.188.078.287.1.364.118.736.21 1.113.275h.274c.407.098.82.165 1.237.2h29.988a1.25 1.25 0 001.25-1.25V41.227a3.748 3.748 0 013.748-3.748h9.996a1.249 1.249 0 00.887-.362c.112-.115.201-.251.262-.4a.712.712 0 000-.175.861.861 0 00.1-.312v-9.621a1.248 1.248 0 00-.662-1.1zM53.791 34.98a6.247 6.247 0 00-6.247 6.248v11.245H18.805a6.881 6.881 0 01-.887-.075h-.225a5.336 5.336 0 01-.8-.188h-.162a3.651 3.651 0 01-.674-.275l-.138-.075-.587-.337-.275-.3-.512-.437-.1-.1a6.849 6.849 0 01-.563-.625l-.974.763.875-.9a6.16 6.16 0 01-1.225-3.699V28.52h.088c.105.037.214.062.324.075h1.962a6.483 6.483 0 002.774-.612c.146-.06.288-.132.425-.212.23-.083.455-.18.674-.288l.513-.412a6.11 6.11 0 001.05-1.15c.17.243.357.473.562.688.128.142.265.276.412.4.123.125.261.234.412.324l.288.213a6.425 6.425 0 002.274 1.012l.287.062a4.917 4.917 0 001.212.075c.225.013.45.013.675 0a5 5 0 00.625-.087 6.497 6.497 0 002.436-1.025c.087 0 .175-.125.262-.187.11-.077.214-.16.313-.25.202-.163.39-.343.562-.537.125-.138.25-.275.362-.425.132-.163.253-.334.363-.512l.075.087c.11.158.232.308.362.45.279.32.584.617.912.887.175.137.337.262.512.375a7.497 7.497 0 008.397 0c.175-.113.337-.238.512-.375a7.65 7.65 0 00.987-.862c.13-.142.252-.292.363-.45l.075-.088a6.684 6.684 0 004.323 2.962c.206.042.415.071.625.087.224.013.45.013.674 0a6.71 6.71 0 005.448-2.811c.112.162.237.312.362.462l.288.3a.762.762 0 00.2.2c.06.069.127.131.2.187l.562.4c.19.14.39.265.6.375l.512.25a6.485 6.485 0 002.736.6h1.3c.234-.021.468-.055.7-.1.11-.013.219-.038.324-.075h.075v6.447h-8.746zm.612-9.483a4.686 4.686 0 01-.3-.55 3.748 3.748 0 01-.2-.45c0-.087-.062-.175-.1-.275-.037-.1-.1-.3-.137-.45-.038-.15-.088-.375-.125-.562a6.902 6.902 0 01-.087-.712v-.725a4.122 4.122 0 01-1.112 3.136 4.186 4.186 0 01-7.297-2.861v-.812c.002.444-.04.888-.125 1.324.007.108.007.217 0 .325a2.362 2.362 0 01-.113.425 3.346 3.346 0 01-.137.425 6.01 6.01 0 01-.338.824.59.59 0 00-.062.125l-.213.375-.112.175a2.079 2.079 0 01-.275.4c-.17-.26-.32-.53-.45-.812-.062-.125-.112-.25-.162-.375a6.449 6.449 0 01-.513-1.724 5.979 5.979 0 010-.675v-.812a4.998 4.998 0 11-9.995 0v.812a6.533 6.533 0 01-.463 2.424c0 .112-.087.237-.15.35a5.803 5.803 0 01-.45.812 2.07 2.07 0 01-.274-.4l-.113-.175-.212-.375-.063-.125a5.997 5.997 0 01-.337-.824 3.33 3.33 0 01-.137-.425 2.362 2.362 0 01-.113-.425 2.48 2.48 0 010-.325 6.61 6.61 0 01-.187-1.324v.812a4.185 4.185 0 01-4.186 4.186 4.561 4.561 0 01-.925-.1l-.274-.075a2.923 2.923 0 01-.763-.325l-1.811 1.812a6.424 6.424 0 002.274 1.012l.287.062a4.917 4.917 0 001.212.075c.225.013.45.013.675 0a5 5 0 00.625-.087 6.497 6.497 0 002.436-1.025c.087 0 .175-.125.262-.187.11-.077.214-.16.313-.25.202-.163.39-.343.562-.537.125-.138.25-.275.362-.425.132-.163.253-.334.363-.512l.075.087c.11.158.231.308.362.45.279.32.584.617.912.887.175.137.338.262.512.375a7.497 7.497 0 008.397 0c.175-.113.337-.238.512-.375.336-.261.65-.55.937-.862.13-.142.252-.292.363-.45l.075-.088a6.684 6.684 0 004.323 2.962c.206.042.415.071.625.087.224.013.45.013.674 0a6.71 6.71 0 005.448-2.811 4.95 4.95 0 01-.275-.438z" fill="#ADA4CD"/><path d="M46.294 63.568l-.15-1.1-.937-7.496-.162-1.4a1.25 1.25 0 00-1.25-1.1H31.3a1.25 1.25 0 00-1.25 1.1l-.162 1.4-.937 7.497-.137 1.1a1.252 1.252 0 00.723 1.287c.161.074.337.112.514.112h14.994a1.26 1.26 0 00.512-.113 1.05 1.05 0 00.425-.312c.086-.097.158-.207.212-.325a1.15 1.15 0 00.1-.65zm-14.831-1.1l.937-7.496h10.296l.937 7.497h-12.17z" fill="#ADA4CD"/><path d="M50.042 63.718a1.25 1.25 0 01-1.25 1.25h-22.49a1.25 1.25 0 010-2.5h22.49a1.25 1.25 0 011.25 1.25zm-1.25-18.742H11.31a1.25 1.25 0 110-2.499h37.484a1.25 1.25 0 110 2.499z" fill="#ADA4CD"/><path d="M37.548 49.974a1.25 1.25 0 100-2.5 1.25 1.25 0 000 2.5zM14.97 28.733h-.725a6.697 6.697 0 01-6.684-6.685v-.275c.002-.42.044-.838.124-1.25a.652.652 0 010-.137l2.6-8.459a6.248 6.248 0 016.022-4.435h4.998a1.25 1.25 0 01.912.4 1.249 1.249 0 01.337.937l-.912 13.656a6.698 6.698 0 01-6.672 6.248zm-4.848-7.735a5.856 5.856 0 00-.063.775v.275a4.211 4.211 0 004.186 4.186h.725a4.186 4.186 0 004.173-3.911l.825-12.332h-3.661a3.748 3.748 0 00-3.574 2.661l-2.611 8.347z" fill="#63C3D1"/><path d="M25.865 28.733a6.698 6.698 0 01-6.672-7.135l.862-12.945a1.249 1.249 0 011.25-1.162H31.3a1.25 1.25 0 011.25 1.25v13.307a6.698 6.698 0 01-6.685 6.685zM22.466 9.99l-.774 11.783a4.123 4.123 0 001.111 3.136 4.185 4.185 0 007.247-2.861V9.99h-7.584z" fill="#63C3D1"/><path d="M43.795 7.491H31.3a1.25 1.25 0 00-1.25 1.25v12.495c-.002.444.04.888.126 1.324a2.48 2.48 0 000 .325c.024.145.062.287.112.425.037.144.082.286.138.425.092.283.204.558.337.824l.063.125.212.375.113.175c.084.138.176.272.274.4l.075.087c.111.158.232.308.363.45.279.32.584.617.912.887.175.138.337.263.512.375a7.497 7.497 0 008.397 0c.175-.112.337-.237.512-.375a7.64 7.64 0 00.974-.824c.131-.142.252-.292.363-.45l.075-.088c.099-.128.19-.261.275-.4l.112-.174.213-.375a.59.59 0 01.062-.125c.133-.266.245-.542.337-.825.056-.138.102-.28.138-.425.05-.137.088-.28.112-.424a2.514 2.514 0 000-.325c.112-.455.175-.92.188-1.387V8.74a1.25 1.25 0 00-1.25-1.25zm-6.247 18.743a4.998 4.998 0 01-4.998-4.998V9.99h9.996v11.246a4.998 4.998 0 01-4.998 4.998z" fill="#63C3D1"/><path d="M55.128 9.99l-.087-1.337a1.25 1.25 0 00-1.25-1.162h-9.996a1.25 1.25 0 00-1.25 1.25v13.307c-.012.225-.012.45 0 .675.058.59.197 1.17.413 1.724 0 .125.1.25.163.375.13.281.28.552.45.812a6.685 6.685 0 004.323 2.961c.206.042.414.072.624.088.225.012.45.012.675 0a6.709 6.709 0 005.448-2.812 6.735 6.735 0 001.25-4.323L55.127 9.99zm-2.836 14.92a4.185 4.185 0 01-7.247-2.862V9.99h7.584l.662 10.134.113 1.574v.075a4.123 4.123 0 01-1.112 3.136z" fill="#63C3D1"/><path d="M67.41 20.486a.657.657 0 000-.137l-2.599-8.422a6.247 6.247 0 00-6.022-4.435h-4.998a1.25 1.25 0 00-.912.4 1.25 1.25 0 00-.337.937l.075 1.162.674 10.133.113 1.574v.8a6.906 6.906 0 00.212 1.274c0 .15.088.3.138.45.05.15.062.188.1.275.056.154.123.304.2.45.087.19.187.373.3.55.084.146.175.288.274.424.113.163.238.313.363.463l.287.3a.763.763 0 00.2.2c.06.068.127.13.2.187l.612.412c.19.14.391.265.6.375l.512.25a6.486 6.486 0 002.736.6h1.3c.235-.021.468-.055.7-.1.11-.013.22-.038.325-.075h.075a6.67 6.67 0 001.924-.862 6.647 6.647 0 003.074-5.61v-.275c0-.437-.042-.872-.126-1.3zm-2.374 1.562a4.16 4.16 0 01-1.936 3.511c-.668.44-1.45.674-2.25.675h-.724a4.186 4.186 0 01-4.173-3.911v-.725l-.825-11.607h3.748a3.748 3.748 0 013.574 2.661l2.586 8.347a5.88 5.88 0 010 .774v.275z" fill="#63C3D1"/><path d="M71.908 38.504a6.247 6.247 0 00-5.622-3.524H53.79a6.247 6.247 0 00-6.247 6.247v24.99a6.247 6.247 0 006.247 6.247h12.495a6.247 6.247 0 006.247-6.247v-24.99c0-.943-.213-1.874-.625-2.723zm-1.874 27.713a3.748 3.748 0 01-3.748 3.748H53.79a3.748 3.748 0 01-3.749-3.748v-24.99a3.748 3.748 0 013.749-3.748h12.495a3.749 3.749 0 013.673 2.974c.05.255.075.514.075.774v24.99zM55.14 35.755a1.25 1.25 0 011.15-.775h-2.5a6.247 6.247 0 00-6.246 6.247V62.47h.4l2.098-2.1V41.227a3.748 3.748 0 013.749-3.748h1.974l-.362-.362a1.25 1.25 0 01-.263-1.362z" fill="#ADA4CD"/><path d="M60.038 67.466a1.25 1.25 0 100-2.498 1.25 1.25 0 000 2.498z" fill="#63C3D1"/><path d="M62.538 38.728H57.54a1.248 1.248 0 01-.887-.362l-1.25-1.25a1.25 1.25 0 01-.262-1.361 1.25 1.25 0 011.15-.775h7.496a1.249 1.249 0 011.15.775 1.25 1.25 0 01-.263 1.362l-1.25 1.25a1.25 1.25 0 01-.886.361z" fill="#ADA4CD"/><path d="M62.537 61.22H57.54a3.748 3.748 0 01-3.748-3.75v-6.247a1.25 1.25 0 011.25-1.25h9.995a1.25 1.25 0 011.25 1.25v6.248a3.748 3.748 0 01-3.749 3.748zm-6.247-8.747v4.998a1.25 1.25 0 001.25 1.25h4.997a1.25 1.25 0 001.25-1.25v-4.998H56.29z" fill="#63C3D1"/><path d="M62.537 52.31H57.54a1.087 1.087 0 01-1.087-1.087v-1.25a3.586 3.586 0 017.172 0v1.25a1.087 1.087 0 01-1.087 1.087zm-3.91-2.174h2.823v-.162a1.412 1.412 0 00-2.824 0v.162z" fill="#63C3D1"/><path opacity=".3" d="M45.445 64.968l-8.747 8.746A21.505 21.505 0 116.311 43.277l3.748-3.749v6.697a8.546 8.546 0 001.625 4.998l.237.325c.225.275.475.562.738.837l.2.175c.233.227.484.436.75.625l.224.162c.322.226.66.426 1.012.6l.162.088c.287.14.584.262.888.362.091.045.188.078.287.1.364.118.735.21 1.112.275h.275c.407.098.82.165 1.237.2h11.083l-.937 7.497h-2.65a1.25 1.25 0 100 2.498h19.143zM80.03 21.486a21.418 21.418 0 01-6.247 15.193l-1.874 1.825a6.248 6.248 0 00-5.623-3.524h-1.25v-7.734a6.647 6.647 0 002.5-5.198v-.275a6.78 6.78 0 00-.125-1.25.645.645 0 000-.137l-2.6-8.459a6.247 6.247 0 00-6.022-4.436H42.146l1.25-1.249A21.492 21.492 0 0180.03 21.486zM47.544 54.972v7.497h-1.4l-.937-7.497h2.337z" fill="#63C3D1"/></svg>