<svg width="80" height="80" fill="none" xmlns="http://www.w3.org/2000/svg"><path d="M66.229 45.006H52.496a3.746 3.746 0 01-3.745-3.745v-9.987a3.746 3.746 0 013.745-3.745h13.296a1.248 1.248 0 001.023-.525 1.25 1.25 0 00.15-1.136 6.968 6.968 0 00-.35-.836 8.738 8.738 0 00-7.877-4.994H33.77a1.249 1.249 0 00-1.248 1.248v2.872a1.06 1.06 0 010 .287 2.495 2.495 0 01-.113.437c0 .112-.075.225-.124.337-.05.112-.063.15-.088.212l-.137.25c-.223.376-.51.71-.849.986l-.25.187a3.98 3.98 0 01-.5.288l-.174.074-.337.125a1.245 1.245 0 01-.287.075c-.147.04-.298.064-.45.075l-.436.038H13.796a1.249 1.249 0 00-1.249 1.248v24.968a8.74 8.74 0 008.74 8.739h37.451a8.74 8.74 0 008.739-8.74v-7.49a1.248 1.248 0 00-1.248-1.248zm-1.249 8.739a6.242 6.242 0 01-6.242 6.242H21.286a6.242 6.242 0 01-6.242-6.242v-23.72h13.733c.224.013.45.013.674 0h.312c.156-.016.31-.045.462-.087h.162a5.8 5.8 0 00.65-.212c.23-.089.456-.193.673-.312.209-.11.41-.236.6-.375.193-.127.377-.27.549-.424l.087-.088c.122-.098.234-.207.337-.324a3.27 3.27 0 00.275-.313c.112-.124.212-.274.325-.411l.1-.15.224-.387c.062-.1.116-.205.162-.312 0-.125.113-.25.163-.375.155-.382.269-.78.337-1.186a2.22 2.22 0 00.062-.4c.057-.291.086-.588.088-.886v-1.248h23.72a6.242 6.242 0 014.993 2.497H52.496a6.242 6.242 0 00-6.242 6.242v9.987a6.242 6.242 0 006.242 6.242H64.98v6.242z" fill="#ADA4CD"/><path d="M48.601 69.974l-.91-7.278v-.212l-.188-1.399a1.248 1.248 0 00-1.249-1.098H33.77a1.248 1.248 0 00-1.248 1.098l-.162 1.399-.937 7.49-.137 1.099a1.248 1.248 0 001.236 1.398h14.98a1.25 1.25 0 001.19-.88 1.25 1.25 0 00.047-.518l-.138-1.099zm-14.668 0l.936-7.49h10.287l.3 2.497.636 4.993h-12.16z" fill="#ADA4CD"/><path d="M52.496 71.223a1.248 1.248 0 01-1.248 1.248H28.777a1.248 1.248 0 110-2.497h22.47a1.249 1.249 0 011.25 1.249zM66.23 52.497H13.796a1.249 1.249 0 010-2.497h52.433a1.249 1.249 0 010 2.497z" fill="#ADA4CD"/><path d="M40.012 57.49a1.248 1.248 0 100-2.497 1.248 1.248 0 000 2.497z" fill="#63C3D1"/><path d="M70.598 25.868a6.243 6.243 0 00-3.12-.836H52.495a6.242 6.242 0 00-6.242 6.242v9.987a6.242 6.242 0 006.242 6.242h14.981a6.242 6.242 0 006.242-6.242v-9.987a6.241 6.241 0 00-3.12-5.406zm.624 15.393a3.746 3.746 0 01-3.745 3.745h-14.98a3.745 3.745 0 01-3.746-3.745v-9.987a3.745 3.745 0 013.745-3.745h14.981a3.745 3.745 0 013.745 3.745v9.987z" fill="#ADA4CD"/><path d="M56.242 42.51a1.248 1.248 0 01-1.093-.643 1.248 1.248 0 01-.156-.606v-9.987a1.248 1.248 0 01.6-1.062 1.248 1.248 0 011.248 0l9.987 5.094a1.248 1.248 0 01.482 1.778 1.242 1.242 0 01-.507.457l-9.987 4.893c-.183.07-.38.096-.574.075zm1.248-9.201v5.954l5.942-2.92-5.942-3.035zm-24.619-5.431a1.25 1.25 0 01-.886-.362l-4.457-4.47-1.985 1.986a2.496 2.496 0 01-3.52 0L17.54 20.55l-6.953 6.978a1.262 1.262 0 11-1.786-1.785l6.979-6.953a2.497 2.497 0 013.52 0l4.482 4.481 1.985-1.985a2.497 2.497 0 013.52 0l4.482 4.457a1.249 1.249 0 010 1.785 1.248 1.248 0 01-.899.35zm-7.215-9.088a3.12 3.12 0 110-6.242 3.12 3.12 0 010 6.242zm0-3.746a.624.624 0 100 1.248.624.624 0 000-1.248zm14.356 21.223H21.286a1.249 1.249 0 110-2.497h18.726a1.248 1.248 0 010 2.497zm0 4.994H21.286a1.249 1.249 0 110-2.497h18.726a1.248 1.248 0 010 2.497zm-4.993 4.993H21.286a1.249 1.249 0 110-2.496H35.02a1.248 1.248 0 010 2.496z" fill="#63C3D1"/><path d="M28.776 7.554h-14.98a6.242 6.242 0 00-6.242 6.242v9.987a6.305 6.305 0 001.098 3.546 6.242 6.242 0 003.895 2.497c.41.086.83.127 1.249.125h14.98c.225.012.45.012.675 0h.312a2.81 2.81 0 00.462-.088h.162c.22-.057.437-.128.65-.212.23-.089.456-.193.673-.312.209-.11.41-.235.6-.375a4.59 4.59 0 00.549-.424l.087-.088.337-.324a3.39 3.39 0 00.275-.312c.112-.125.212-.275.325-.412l.1-.15.224-.387c.061-.1.116-.204.162-.312 0-.125.113-.25.163-.375.155-.381.268-.78.337-1.186.033-.13.054-.264.062-.4a4.69 4.69 0 00.088-.81v-9.988a6.242 6.242 0 00-6.242-6.242zm3.746 16.23v.374a1.06 1.06 0 010 .287 2.504 2.504 0 01-.113.437 2.7 2.7 0 01-.124.337c0 .075-.063.15-.088.212a1.691 1.691 0 01-.137.25 3.7 3.7 0 01-.85.986l-.249.188a3.96 3.96 0 01-.5.287l-.174.075c-.11.049-.222.09-.337.124a1.25 1.25 0 01-.287.075c-.147.04-.298.064-.45.075l-.437.038h-14.98a3.74 3.74 0 01-2.372-.85 3.745 3.745 0 01-1.249-2.234 3.826 3.826 0 01-.125-.662v-9.987a3.745 3.745 0 013.746-3.745h14.98a3.746 3.746 0 013.746 3.745v9.987z" fill="#ADA4CD"/><path opacity=".3" d="M37.915 72.47l-1.248 1.25A21.486 21.486 0 116.306 43.307l6.242-6.242v16.679a8.74 8.74 0 008.739 8.739H32.36l-.936 7.49h-2.647a1.248 1.248 0 100 2.497h9.138zM73.72 36.668v-5.393a6.242 6.242 0 00-6.242-6.242h-.861a8.738 8.738 0 00-7.877-4.994H35.02v-5.393l8.29-8.34a21.486 21.486 0 1130.41 30.362z" fill="#63C3D1"/></svg>