<svg width="215" height="424" fill="none" xmlns="http://www.w3.org/2000/svg"><path d="M111.989 133.72l-44.008.778 3.11-36.024h37.011l3.887 35.246z" fill="#F8BD8C"/><path d="M120.917 71.657c0 23.539-14.15 42.62-31.602 42.62-17.451 0-31.601-19.081-31.601-42.62 0-9.771-2.346-24.743 1.754-31.932 5.777-10.128 19.636-10.688 29.844-10.688 10.152 0 22.173-2.368 27.954 7.668 4.162 7.215 3.651 25.107 3.651 34.952z" fill="#1A1A1A"/><path d="M125.73 53.735s3.372-33.033-1.816-38.495c-5.185-5.462-2.295-7.023-7.888-8.585-5.593-1.562-5.673-4.423-14.892-4.423-1.589 0-2.36-1.039-11.182-1.039-2.854 0-7.52-2.342-14.132 1.3-6.611 3.643-10.825-1.429-15.587 4.714-4.766 6.147-6.578 2.829-10.726 12.453-4.148 9.624 1.298 14.305 2.335 24.71 1.037 10.404 6.49 18.728 6.49 18.728l65.924-2.118 1.474-7.245z" fill="#1A1A1A"/><path d="M120.917 64.74c0 23.539-14.15 42.621-31.602 42.621-17.451 0-31.601-19.082-31.601-42.62 0-9.772-2.346-24.743 1.754-31.933C65.245 22.68 79.104 22.12 89.312 22.12c10.152 0 22.173-2.368 27.954 7.668 4.162 7.219 3.651 25.111 3.651 34.952z" fill="#F8BD8C"/><path d="M64.145 67.134c.409 5.002-1.86 9.27-5.07 9.536-3.21.265-6.145-3.577-6.557-8.578-.408-5.002 1.86-9.27 5.071-9.536 3.21-.261 6.145 3.577 6.556 8.578zm49.797-.368c-.725 4.965 1.272 9.37 4.46 9.837 3.188.468 6.358-3.178 7.082-8.143.725-4.965-1.272-9.37-4.46-9.837-3.188-.468-6.358 3.178-7.082 8.143z" fill="#F8BD8C"/><path d="M79.931 43.4a31.41 31.41 0 00-2.14.027c-.698.026-1.393.077-2.088.143-1.39.137-2.777.328-4.156.597-1.382.28-2.761.619-4.114 1.09-1.357.483-2.692 1.09-3.942 1.893a1.647 1.647 0 00-.691 1.83 1.64 1.64 0 002.026 1.131l.084-.025a39.227 39.227 0 013.593-.825 58.833 58.833 0 013.736-.516 77.178 77.178 0 013.813-.269c.64-.033 1.28-.051 1.916-.07.629-.026 1.298-.026 1.868-.033h.07a2.486 2.486 0 002.438-2.412 2.497 2.497 0 00-2.413-2.56zm33.003 3.754c-1.25-.807-2.589-1.41-3.942-1.893-1.357-.472-2.736-.81-4.115-1.09a42.137 42.137 0 00-4.155-.597 35.943 35.943 0 00-2.088-.144c-.71-.026-1.376-.048-2.14-.026a2.486 2.486 0 00.033 4.972h.062c.57.008 1.24.008 1.868.034.636.022 1.276.04 1.916.07 1.276.059 2.552.147 3.813.268 1.261.137 2.508.306 3.736.516 1.221.228 2.42.49 3.593.825l.088.026a1.642 1.642 0 001.827-.693 1.648 1.648 0 00-.496-2.268zM75.692 60.236c0 1.58-1.03 2.862-2.302 2.862s-2.302-1.282-2.302-2.862 1.03-2.862 2.302-2.862 2.302 1.282 2.302 2.862zm30.042 0c0 1.58-1.03 2.862-2.302 2.862s-2.302-1.282-2.302-2.862 1.03-2.862 2.302-2.862 2.302 1.282 2.302 2.862z" fill="#1A1A1A"/><path d="M89.367 77.653h-.008c-.338-.015-3.316-.177-3.99-1.127a.741.741 0 01-.106-.67c.408-1.34 1.93-10.199 1.945-10.287.019-.1.11-.17.214-.151a.185.185 0 01.15.214c-.062.364-1.54 8.971-1.956 10.33a.374.374 0 00.055.35c.482.686 2.84.936 3.707.973.103.004.18.092.176.191a.189.189 0 01-.187.177z" fill="#2C2A30"/><path d="M53.842 25.763s7.071 10.194 13.668 8.404c6.593-1.79 10.344-9.35 13.466-5.93 3.125 3.422 8.542 2.87 12.77.2 4.233-2.67 2.847.758 8.399 1.631 5.553.873 8.252-.854 12.315 4.31 4.067 5.16 8.23 2.695 6.843-4.31-1.39-7.005-10.829-22.043-19.158-17.749-8.328 4.302-48.303 13.444-48.303 13.444zM120.829 50.1c-.136-.04-.273-.07-.412-.103-2.118-.493-4.446-.792-6.818-.943a63.388 63.388 0 00-7.192-.03h-.008c-4.567.236-8.689.91-11.123 1.713-1.975.652-4.302 1.58-6.284 1.58-1.979 0-4.306-.928-6.28-1.58-2.648-.873-7.285-1.594-12.33-1.764h-.011c-2.468-.08-5.034-.033-7.51.199-2.007.184-3.952.486-5.736.936-.007 0-.014 0-.018.003-.559.14-1.1.291-1.625.457l.253 4.714s.714-.154 1.332.277c.106.073.21.165.305.28.165.195.312.456.415.802.118.394.272 1.072.464 1.92.29 1.259.665 2.89 1.15 4.496.585 1.967 1.328 3.893 2.244 5.06.65.826 1.485 1.46 2.43 1.942 2.953 1.513 6.99 1.558 9.958 1.429 5.266-.229 8.718-2.575 10.19-6.552.349-.943.658-1.853.945-2.704.926-2.755 1.58-4.935 2.298-5.757.51-.581 1.08-.626 1.53-.626.452 0 1.022.045 1.533.627.695.795 1.335 2.872 2.213 5.513.31.925.651 1.915 1.03 2.947 1.47 3.973 4.924 6.323 10.189 6.552 2.95.125 6.961.084 9.903-1.404.963-.482 1.817-1.123 2.478-1.963 1.218-1.543 2.122-4.434 2.773-6.975.232-.895.43-1.75.599-2.483.203-.887.361-1.605.486-2.014.136-.453.345-.763.581-.973a.867.867 0 01.151-.117c.614-.428 1.316-.27 1.316-.27l.254-4.714a20.178 20.178 0 00-1.673-.475zM81.862 64.936c-1.416 2.67-3.795 4.032-7.362 4.485-3.563.453-7.832-.246-9.98-1.532a3.128 3.128 0 01-.35-.243c-1.183-.954-1.944-2.895-2.445-4.663a33.7 33.7 0 01-.47-1.966c-.066-.32-.144-.693-.213-1.105v-.004c-.412-2.36-.706-5.933 1.173-7.237 2.206-1.536 7.758-1.65 11.436-1.422 2.772.17 8.77.91 9.902 3.065.817 1.55.177 5.237-.673 7.988-.33 1.087-.695 2.026-1.018 2.634zm34.867-3.916l-.045.203c-.434 2.022-1.257 5.094-2.842 6.401a2.577 2.577 0 01-.379.269c-2.155 1.285-6.416 1.985-9.98 1.532-3.567-.453-5.946-1.816-7.358-4.486-.36-.677-.775-1.771-1.143-3.016-.784-2.704-1.331-6.125-.555-7.602 1.136-2.158 7.133-2.895 9.906-3.064 3.677-.229 9.229-.114 11.436 1.421 1.989 1.382 1.541 5.311 1.099 7.65-.048.247-.095.482-.139.692z" fill="#1A1A1A"/><path d="M157.361 134.487s26.068 10.806 31.385 17.111c5.321 6.305 23.409 60.126 23.409 88.367 0 28.242 4.254 71.603 0 79.764-4.258 8.162-23.409 48.631-36.176 57.972-12.767 9.336-18 8.64-18 8.64l-3.122-42.038 13.676-66.502-6.939-100.204-4.233-43.11z" fill="#E2B897"/><path d="M88.426 363.694c-1.31 6.121-2.972 30.131-4.49 56.535-.059 1.108-.125 2.217-.188 3.333H17.674c-.725-40.175.625-78.759.625-78.759s.621.034 1.746.1c.574.04 1.28.081 2.104.14.077.007.158.011.242.018.015 0 .03 0 .045.004 5.997.412 17.709 1.363 29.63 3.131 6.23.924 12.517 2.069 18.077 3.48 7.8 1.974 14.168 4.468 16.918 7.591.192.217.364.434.523.655v.004c.103.151.198.295.286.449.593 1.035.806 2.14.556 3.319z" fill="#755FAA"/><path d="M157.979 351.669v71.889H84.84l-.636-2.839-.268-.494-14.382-26.455-16.492-29.947-2.72-4.939-.31-.563-3.662-6.652h111.61z" fill="#755FAA"/><path d="M67.981 116.16h44.012l5.704 10.305 39.669 7.9s26.446 12.71 27.222 14.773c.779 2.062 10.112 108.55 6.221 134.659-3.89 26.106-1.555 54.963-5.445 68.015-3.891 13.053-161.005 5.495-161.005 5.495S-7.529 163.564 2.58 154.633c10.113-8.932 60.927-22.787 62.611-25.763 1.688-2.976 2.791-12.71 2.791-12.71z" fill="#FF7C90"/><path d="M190.805 284.891c-3.887 26.279-1.552 55.319-5.446 68.457-1.401 4.733-21.952 11.145-48.597 11.823-20.18.511-43.791-5.44-63.847-5.923a937.97 937.97 0 00-4.497-.099c-24.865-.516-44.067-.265-44.067-.265S-7.537 163.877 2.571 154.887c8.87-7.882 49.054-19.583 59.934-24.356l31.54 55.765 27.545-58.977 35.764 7.171s26.446 12.791 27.222 14.865c.783 2.073 10.12 109.258 6.229 135.536z" fill="#E2B897"/><path d="M157.207 252.219a.74.74 0 01-.736-.726l-.467-33.39c-.059-4.166-1.86-16.821-1.875-16.946a.736.736 0 111.456-.206c.074.523 1.831 12.872 1.894 17.133l.467 33.391a.738.738 0 01-.725.747c-.007-.003-.011-.003-.014-.003z" fill="#B08174"/><path d="M78.475 88.393c.699 3.606 5.615 6.154 11.285 5.746 4.928-.354 8.84-2.829 9.752-5.864l-21.037.118z" fill="#fff"/></svg>