<svg width="207" height="354" fill="none" xmlns="http://www.w3.org/2000/svg"><path d="M170.464 124.248s2.011-1.543 4.589.729c13.738 12.099 12.417 33.155 12.226 38.558-.191 5.399 4.744 25.111 7.34 32.506 2.596 7.396 5.74 11.771 7.659 24.644 1.92 12.872-.003 38.318.214 41.456.22 3.138 2.732 18.367 4.048 22.544.982 3.123-.154 12.607-3.574 14.132-3.423 1.525-5.644 3.51-18.242 1.948-12.595-1.561-9.37-5.745-9.576-11.572-.206-5.823-2.037-11.023-2.092-13.62-.055-2.593-.555-7.491-.533-14.003.022-6.511.474-3.981-.798-10.287-1.272-6.305-10.406-38.193-7.097-46.045 3.309-7.852-9.083-34.179-8.884-36.164.202-1.985-2.99-20.025-2.99-20.025s2.714-8.489 7.038-14.551c4.328-6.059 10.05-9.418 10.672-10.25z" fill="#1A1A1A"/><path d="M123.271 234.75v23.999l-.515 24.246-.081 3.705c.004.003 0 .007 0 .011l-1.423 66.847H63.591l5.626-68.004.625-7.543.17-2.069.308-3.702v-.004l1.199-14.496 1.15-13.944.75-9.046h49.852z" fill="#ABABAB"/><path d="M181.921 353.558H124.26l-1.453-68.059c0-.004.004-.007 0-.011l-.047-2.493-.519-24.246V234.75h49.851l2.927 35.35v.004l.409 4.957.047.549v.018l.265 3.194v.003l1.637 19.764.022.246 1.294 15.668 3.228 39.055z" fill="#ABABAB"/><path d="M66.389 97.398S63.13 76.95 71.096 66.442c7.968-10.507 5.43-19.512 5.43-24.389 0-4.876 1.45-20.26 8.33-25.888s9.777-18.01 32.23-13.51c0 0 5.795-3.377 20.64-1.502 14.848 1.875 21.004 21.387 21.728 25.516.724 4.129 2.173 12.758 5.795 16.883 3.622 4.129 7.244 13.51 4.707 22.887-2.534 9.38-2.651 11.255.846 19.888 3.497 8.63 1.688 11.068 1.688 11.068s-42.369 17.454-106.101.003z" fill="#D1D1D3"/><path d="M139.355 113.158h-35.352l3.6-24.71.242-1.653.504-3.466h26.659l.567 3.897 1.04 7.138 2.74 18.794z" fill="#F8BD8C"/><path d="M136.615 94.364c-2.008 2.63-4.975 4.858-8.855 5.233-8.052.788-15.907-6.552-20.158-11.145l.243-1.653c.364.143.772.29 1.232.438 3.261 1.06 8.248 2.158 14.881 2.154 4.806-.007 8.48-1.001 11.135-2.154l.481-.007 1.041 7.134z" fill="#EAB186"/><path d="M120.476 92.334c16.653 0 30.153-18.292 30.153-40.856s-13.5-40.856-30.153-40.856-30.153 18.292-30.153 40.856 13.5 40.856 30.153 40.856z" fill="#F8BD8C"/><path d="M99.564 58.623c1.559 4.236.21 8.703-3.015 9.974-3.225 1.274-7.1-1.127-8.66-5.363-1.559-4.235-.21-8.703 3.016-9.973 3.224-1.275 7.1 1.127 8.66 5.362zm45.884.004c-1.555 4.235-.206 8.703 3.019 9.973 3.225 1.271 7.1-1.13 8.656-5.37 1.555-4.235.206-8.702-3.019-9.973-3.225-1.27-7.101 1.134-8.656 5.37z" fill="#F8BD8C"/><path d="M99.667 43.493a1.63 1.63 0 01-1.5-1.028c-.353-.858.037-1.852.864-2.217 7.832-3.44 13.782-.232 14.032-.095.794.438 1.096 1.465.673 2.287-.423.821-1.401 1.134-2.199.7-.228-.122-4.909-2.557-11.23.224a1.724 1.724 0 01-.64.129zm28.936 0a1.63 1.63 0 01-1.5-1.028c-.353-.858.036-1.852.864-2.217 7.832-3.44 13.782-.232 14.032-.095.794.438 1.096 1.465.673 2.287-.423.821-1.398 1.134-2.199.7-.228-.122-4.909-2.557-11.23.224-.21.085-.427.129-.64.129zm-20.254 8.777c0 1.926-1.191 3.484-2.659 3.484-1.467 0-2.658-1.561-2.658-3.484 0-1.926 1.191-3.484 2.658-3.484 1.468 0 2.659 1.561 2.659 3.484zm29.318 0c0 1.926-1.191 3.484-2.659 3.484-1.467 0-2.658-1.561-2.658-3.484 0-1.926 1.191-3.484 2.658-3.484 1.468 0 2.659 1.561 2.659 3.484z" fill="#1A1A1A"/><path d="M117.086 14.29S99.34 39.674 96.806 52.874c-2.533 13.196-17.021 9.071-18.47 9.447-1.449.376 8.693-42.024 8.693-42.024l30.057-13.133v7.126z" fill="#D1D1D3"/><path d="M117.086 5.517v8.773c3.968 8.324 8.961 16.143 14.929 23.075 6.329 7.344 14.227 13.748 21.956 19.431 1.313.965 3.24 2.019 4.45 3.094-1.085-6.416-3.071-12.817-4.284-19.214-1.089-5.75-1.791-11.86-3.556-17.568-.54-.844-33.495-17.59-33.495-17.59z" fill="#D1D1D3"/><path d="M101.955 95.932s-1.64 3.23-1.64 6.287 2.625 11.215-4.266 11.554c-6.887.339-29.494 15.292-35.41 19.708-5.914 4.42-4.274 13.933-4.274 13.933S68.5 270.516 70.467 272.553c1.968 2.04 30.256-27.269 40.831-25.995 10.576 1.274 7.215 3.654 11.48 3.315 4.262-.339 5.902-3.738 7.215-3.569 1.313.169 5.74 1.02 7.873 2.549 2.133 1.528 10.333-.851 15.907 4.246 5.575 5.098 27.877 22.087 27.877 22.087s2.953-24.127-1.967-31.604c-4.921-7.476 1.967-73.403 0-75.782-1.968-2.379-3.608-42.138-3.608-42.138s-20.743-11.13-27.387-11.384c-6.641-.254-4.92-16.313-4.92-16.313l-41.813-2.033zm18.514-16.268a13.63 13.63 0 01-4.692-.85.366.366 0 11.254-.689c4.625 1.698 9.556.648 11.991-2.552a.367.367 0 11.584.445c-1.794 2.361-4.828 3.646-8.137 3.646zm28.549-.327c-.073 0-.151 0-.224-.004-1.879-.073-3.49-1.038-4.42-2.644a.272.272 0 01.099-.376.276.276 0 01.379.1c.835 1.44 2.28 2.301 3.964 2.368a5.154 5.154 0 004.442-2.192c1.489-2.158 1.717-5.351.544-7.59-.809-1.547-2.173-2.398-3.839-2.398a.278.278 0 01-.276-.276c0-.151.125-.277.276-.277 1.883 0 3.42.958 4.328 2.696 1.261 2.413 1.019 5.849-.581 8.162-1.048 1.514-2.828 2.43-4.692 2.43zm-57.172 0c-1.864 0-3.648-.921-4.692-2.435-1.397-2.022-1.508-4.836-.287-7.17 1.085-2.074 3.023-3.312 5.185-3.312.15 0 .276.125.276.276a.278.278 0 01-.276.277c-1.982 0-3.696 1.1-4.696 3.016-1.129 2.155-1.03 4.744.254 6.6.982 1.422 2.684 2.265 4.442 2.191 1.688-.066 3.133-.931 3.967-2.368a.276.276 0 01.478.276c-.93 1.606-2.54 2.571-4.42 2.645-.08.004-.154.004-.231.004zm28.821-14.839h-.441c-1.463 0-2.647-1.23-2.647-2.744V53.75a.45.45 0 01.441-.457.45.45 0 01.441.457v7.546c0 1.264.989 2.287 2.206 2.287.243 0 .442.207.442.457s-.199.457-.442.457z" fill="#1A1A1A"/><path d="M106.794 265.916l-15.871-9.657 1.114-3.248c.79-1.131 1.68-2.449.655-3.422-1.06-1.002-2.762-1.226-4.104-.541l-17.739 9.034-12.542 10.28c8.148 8.047 14.168 8.666 17.837 7.723.383.17.765.343 1.159.497l13.609 5.256c1.232.652 2.828.343 3.64-.707.589-.759.95-2.048-1.592-3.591l2.541 1.543c1.305.693 2.993.343 3.82-.784.769-.995.236-2.49-1.224-3.595l1.971.969c1.423.755 3.302.309 4.078-1.039.673-1.171.143-2.604-1.081-3.348l-2.802-1.698 3.258.361c1.566.707 3.714.969 4.482-.493.662-1.26.078-2.752-1.209-3.54z" fill="#F8BD8C"/><path d="M60.642 133.485s-34.625 32.841-37.853 37.799c-3.041 4.666-5.07 5.797-7.189 7.454-2.118 1.658-1.463 3.006-8.674 14.961-5.38 8.917-8.597 23.704-4.898 33.924 3.828 10.571 14.02 17.79 23.467 22.942 10.241 5.584 12.197 7.392 20.368 12.372 8.174 4.983 10.315 5.929 14.779 10.706 2.665 2.855 9.001 4.214 12.822 5.455 1.68.545 3.74-1.341 4.236-3.09l7.41-25.189s-6.403-15.841-19.214-22.271c-7.306-3.668-15.841-7.502-20.014-11.193-3.39-2.994 8.876-9.366 11.42-11.561 2.097-1.808 10.197-9.108 11.643-9.605 1.441-.498 5.77-21.296 5.77-21.605 0-.31-14.073-41.099-14.073-41.099z" fill="#1A1A1A"/><path d="M120.859 330.116h-.022a.734.734 0 01-.714-.755c.044-1.654 1.107-40.547 2.137-45.073 1.169-5.149 10.48-14.854 10.873-15.263a.733.733 0 011.041-.018.74.74 0 01.018 1.042c-.095.099-9.421 9.819-10.498 14.566-.997 4.387-2.089 44.381-2.1 44.786a.736.736 0 01-.735.715z" fill="#999"/></svg>