<svg width="165" height="329" fill="none" xmlns="http://www.w3.org/2000/svg"><path d="M78.782 4.829s9.108-3.374 17.345.84c8.77 4.49 13.219 8.975 15.238 46.682 2.015 37.704 1.791 56.557 2.015 59.474.225 2.917-71.7 2.018-71.7 2.018V20.036L78.781 4.83z" fill="#0B0635"/><path d="M42.466 112.19s-36.617 3.996-35.93 67.197c.692 63.201-12.763 58.793-1.76 103.807 0 0 24.88 5.042 39.14-5.145L42.47 153.738V112.19h-.004z" fill="#FCFCFC"/><path d="M131.722 329l.051-.442H14.325c1.173-7.031 3.854-17.428 7.156-28.886.305-1.061.617-2.14.934-3.219l.018-.063a915.324 915.324 0 013.644-12.124l.059-.199c5.7-18.559 11.929-37.203 15.337-47.254.004-.007.004-.011.004-.015.805-2.364 1.453-4.254 1.894-5.55v-.007c.452-1.297.695-2.004.695-2.004h76.426c.22.637.61 2.284 1.132 4.722v.003c.133.608.269 1.264.416 1.967 1.511 7.282 3.839 19.461 6.295 32.643.004.004.004.004 0 .007.191 1.024.383 2.045.578 3.076a9198.611 9198.611 0 013.287 17.8c.125.685.25 1.363.371 2.044.269 1.466.537 2.917.798 4.346.022.125.048.251.066.372.247 1.344.489 2.667.725 3.967.231 1.256.452 2.482.676 3.686 2.369 13.024 4.159 22.994 4.464 24.684.034.17.048.254.048.254l-7.626.192z" fill="#FF7C90"/><path d="M44.132 113.659s-16.606 4.833-14.367 39.796c2.24 34.963-16.595 78.316 10.528 83.358l74.727-.932c7.049-.088 12.716-5.837 12.716-12.898V112.875l-15.665-2.722-67.939 3.506z" fill="#FCFCFC"/><path d="M89.854 101.052l-27.039.818.927-23.259h24.766l1.346 22.441z" fill="#F8BD8C"/><path d="M60.474 97.62h34.513c2.229 0 4.152 1.657 4.604 3.97l1.96 9.996-47.487 1.845 1.765-11.616c.368-2.42 2.335-4.195 4.645-4.195z" fill="#FCFCFC"/><path d="M89.012 87.027c-1.534 3.263-4.35 6.504-8.358 6.954-6.888.773-13.602-6.876-16.919-11.112-.662-.847-.982-1.554-1.35-2.033.57.339 1.453.924 3.045 1.517 2.655.999 6.722 2.033 12.127 2.026 3.917-.004 6.91-.94 9.072-2.026l2.092-.033.29 4.707z" fill="#EAB186"/><path d="M100.624 51.294c.585 18.696-10.539 34.216-24.843 34.665-14.304.45-26.38-14.342-26.964-33.037-.585-18.695 10.538-34.215 24.843-34.665 14.307-.449 26.379 14.342 26.964 33.037z" fill="#F8BD8C"/><path d="M106.526 53.338c0 3.871-3.354 7.61-6.119 7.61-2.765 0-5.008-3.139-5.008-7.01 0-3.87 3.673-7.008 6.438-7.008 2.769 0 4.689 2.537 4.689 6.408z" fill="#F8BD8C"/><path d="M91.086 41.243c-.21 0-.42-.033-.63-.1-5.559-1.826-9.218-.165-9.372-.095-1 .468-2.207.04-2.68-.961a2.015 2.015 0 01.93-2.681c.21-.104 5.188-2.46 12.377-.104a2.017 2.017 0 011.287 2.549 2.01 2.01 0 01-1.912 1.392zm-38.64 3.201a2.01 2.01 0 01-1.67-.884 2.018 2.018 0 01.512-2.792c.19-.129 4.754-3.226 12.219-1.985a2.02 2.02 0 011.662 2.32 2.02 2.02 0 01-2.32 1.661c-5.77-.95-9.138 1.241-9.278 1.333a2.02 2.02 0 01-1.125.347zm22.17 15.933H72.6a.334.334 0 01-.335-.335v-7.577c0-.184.15-.335.335-.335.187 0 .334.151.334.335v7.238h1.68c.188 0 .335.15.335.335a.335.335 0 01-.334.339zm-12.771-9.554c0 1.558-1.004 2.821-2.24 2.821-1.239 0-2.239-1.263-2.239-2.821 0-1.558 1.004-2.821 2.24-2.821 1.235.003 2.239 1.267 2.239 2.82zm26.045-2.818c0 1.558-1.004 2.821-2.24 2.821-1.238 0-2.239-1.263-2.239-2.82 0-1.559 1.004-2.819 2.24-2.819 1.239-.003 2.24 1.26 2.24 2.818z" fill="#000"/><path d="M66.56 69.746c.757 3.463 4.823 5.713 9.328 5.068 3.912-.56 6.898-3.13 7.454-6.114l-16.783 1.046z" fill="#FCFCFC"/><path d="M78.094 4.096c7.031 14.124-9.943 19.2-16.37 26.842-7.024 8.357-11.881 24.853-11.502 35.836 1.033 29.97 11.149 53.994-8.583 81.421 4.09-16.654-2.129-29.387-7.314-44.502-5.703-16.625-5.607-33.667-3.637-50.94C32.17 39.74 32.657 18.688 42.427 8.862c5.608-5.646 31.186-13.767 35.668-4.766z" fill="#0B0635"/><path d="M76.469 18.368s3.144 5.539 10.19 8.946c9.975 4.82 12.112 20.695 12.112 20.695l4.048-2.21-7.836-29.534-18.514 2.103z" fill="#0B0635"/><path d="M134.211 296.122l-4.968-1.628s-.618-.881.066-2.008c.684-1.127 2.313-1.09 3.104-1.009.794.081 2.438.7 2.438.7s1.945-2.228 3.938-3.237c0 0-.518-2.737.405-4.52 0 0-2.041-2.084-1.821-5.159 0 0-.209-.369-.518-.94-.261.118-.765.347-1.089.534-.452.262-.492 1.742-.312 2.63.18.891.379 3.713.096 5.326-.284 1.613-1.512 2.707-3.347 2.648-1.835-.063-1.893-1.864-2.25-3.462-.357-1.599-.202-3.098-.077-5.974.128-2.877-.618-4.317-1.166-7.035-.548-2.718-.349-4.902-.349-4.902.242-2.269 1.143-5.009 1.382-5.716-.264-1.639-.242-3.178.276-4.328.934-2.058-2.1-17.089-2.1-17.089l15.338 1.735-1.427 17.004s4.802 10.066 6.391 14.593c1.589 4.522 2.747 6.909 2.523 9.156 0 0-2.332 9.045-4.726 11.045-2.452 2.048-7.909 5.639-9.505 5.764-1.717.133-6.284-.482-6.284-.482s-1.019-.045-1.776-.461c0 0-.736.011-.17-1.528.574-1.536 2.148-1.153 5.928-1.657z" fill="#F8BD8C"/><path d="M119.286 111.295s21.463-1.54 29.023 28.614c7.561 30.153 6.766 41.452 6.366 60.659-.397 19.204 21.963 57.121 1.665 81.558 0 0-17.183-8.567-33.101-11.826 0 0-2.784-3.043-1.192-34.731 1.592-31.686-2.761-124.274-2.761-124.274z" fill="#FCFCFC"/><path d="M26.132 284.067s-6.376.394-7.615.375c0 0 .092 8.906 3.806 11.937l.088.074 3.721-12.386z" fill="#EAB186"/></svg>