<svg width="218" height="418" fill="none" xmlns="http://www.w3.org/2000/svg"><path d="M124.65 89.767H88.161v32.956h36.489V89.767z" fill="#F8BD8C"/><path d="M124.65 92.455v10.246c-2.674 2.707-6.325 4.855-10.918 5.271-9.862.887-19.507-6.449-25.57-12.128v-3.4c.029.007.058.019.087.026 4.45 1.326 11.245 2.71 20.306 2.7 6.552-.008 11.564-1.249 15.183-2.7l.912-.015z" fill="#EAB186"/><path d="M81.506 61.647c.452 5.506-1.695 10.176-4.8 10.434-3.103.258-5.99-4-6.442-9.506-.452-5.506 1.696-10.177 4.8-10.434 3.103-.254 5.986 4 6.442 9.506zm60 1.134c-.655 5.488-3.688 9.635-6.781 9.267-3.092-.369-5.071-5.116-4.42-10.604.651-5.488 3.688-9.635 6.781-9.267 3.096.369 5.074 5.116 4.42 10.604z" fill="#F2B588"/><path d="M106.198 101.25c16.354 0 29.612-17.705 29.612-39.545 0-21.84-13.258-39.545-29.612-39.545-16.355 0-29.613 17.705-29.613 39.545 0 21.84 13.258 39.545 29.613 39.545z" fill="#F8BD8C"/><path d="M98.913 3.624c-.882 0-8.814-5.827-19.036 3.882-10.223 9.708-7.873 7.826-10.694 10.415-2.82 2.59-2.114 5.322-5.876 7.72-3.761 2.401-4.464 3.576-2.82 6.401 1.644 2.825 2.795 5.65-.835 7.532-3.629 1.882-5.041 2.354-3.158 4 1.879 1.646.294 3.827 4.523 4.53 4.228.707 6.52 1.157 7.225 2.961.706 1.805 2.29 1.805 4.405 2.512 2.115.707 2.468 1.06 3.174 2.118.706 1.06 1.463.707 1.463.707s4.273-10.445 4.49-14.931c.217-4.486 1.625.103 4.975-4.486 3.35-4.59 4.03-4.203 6.873-7.812 2.846-3.61 1.162-1.344 3.49-3.915 2.33-2.567 1.801-21.634 1.801-21.634z" fill="#E2B897"/><path d="M106.433 73.535c-.338 0-.585-.01-.676-.014a.349.349 0 01-.335-.369c.011-.195.173-.353.368-.335 1.397.067 3.824-.084 4.383-.755.537-.644.279-4.357-.077-6.784a.353.353 0 11.698-.103c.151 1.028.857 6.217-.077 7.34-.754.899-3.092 1.02-4.284 1.02z" fill="#080305"/><path d="M96.622 81.472h19.563s-6.229 10.269-15.841 3.62c-.328-.231-3.722-3.62-3.722-3.62z" fill="#fff"/><path d="M99.196 48.749c-1.15.121-2.353.213-3.519.305-1.173.103-2.338.195-3.493.317a98.544 98.544 0 00-3.42.431c-1.121.184-2.22.39-3.317.619l-.07.014a1.433 1.433 0 01-.967-2.663c1.173-.633 2.424-1.056 3.674-1.37a25.655 25.655 0 013.78-.585 30 30 0 013.773-.037c1.257.07 2.482.199 3.754.486a1.257 1.257 0 01-.14 2.475l-.055.008zm14.014-2.483c1.272-.287 2.493-.42 3.754-.486a30.72 30.72 0 013.773.037c1.261.107 2.526.287 3.78.585 1.254.313 2.501.737 3.674 1.37.695.376.952 1.245.581 1.941a1.428 1.428 0 01-1.545.722l-.073-.014a85.135 85.135 0 00-3.317-.62 102.972 102.972 0 00-3.42-.43c-1.154-.122-2.32-.217-3.493-.317-1.166-.096-2.368-.184-3.519-.306l-.055-.007a1.255 1.255 0 01-.14-2.475zM93.743 58.498c0 1.771-1.092 3.207-2.438 3.207s-2.438-1.436-2.438-3.207c0-1.772 1.092-3.208 2.438-3.208s2.438 1.436 2.438 3.208zm29.186 0c0 1.771-1.092 3.207-2.438 3.207s-2.438-1.436-2.438-3.207c0-1.772 1.092-3.208 2.438-3.208s2.438 1.436 2.438 3.208z" fill="#080305"/><path d="M93.898 17.225s.706 13.867 13.749 17.285c0 0 3.703-.38 6.523 4.939 2.82 5.318-.177 4.747 3.173 6.456 3.35 1.71 2.997-.191 8.285 2.088 5.288 2.28 3.526 3.846 7.402 6.103 3.876 2.254 11.458.545 12.513-1.351 1.059-1.9 2.821-2.468 3.35-4.368.53-1.901 0-10.258 0-10.258s-6.347-4.56-8.461-9.878c-2.114-5.318.706-7.598-3.876-11.016-4.581-3.418-11.63-6.456-13.042-7.977-1.409-1.521-3.174-9.116-9.164-8.736-5.994.379-13.396-.218-16.04-.015-2.644.202-4.052 2.482-4.405 4.954-.357 2.467-.007 11.774-.007 11.774z" fill="#E2B897"/><path d="M182.936 417.558h-67.604c-1.365-17.715-2.563-35.84-2.74-46.635-.037-2.173 0-5.461 0-5.461l-3.195 52.096H32.596c.059-14.64.838-32.492 2.927-53.64.073-.722.147-1.451.224-2.176a708.692 708.692 0 012.607-22.147c.364-2.766.75-5.583 1.162-8.445a834.37 834.37 0 011.39-9.281 763.52 763.52 0 011.125-7.061c.18-1.119.368-2.25.56-3.381v-.003a689.09 689.09 0 011.032-6.015 932.787 932.787 0 012.177-12.006h125.068s.537 2.165 1.386 6.069c.298 1.345.625 2.891.982 4.63.004.011.007.018.007.029.063.306.129.619.191.936a535.31 535.31 0 014.674 26.267 517.624 517.624 0 013.666 29.712c1.655 17.848 2.438 37.46 1.162 56.512z" fill="#FF7C90"/><path d="M158.284 124.174s27.373 8.585 32.959 13.59c5.585 5.009 24.582 47.754 24.582 70.184 0 22.434 4.467 56.87 0 63.352-4.468 6.483-24.582 38.628-37.989 46.042-13.407 7.418-18.901 6.862-18.901 6.862l-3.28-33.391 14.36-52.818-7.285-79.591-4.446-34.23z" fill="#755FAA"/><path d="M72.746 117.644c3.005-1.124 11.05-3.411 16.68-1.311 5.63 2.099 19.18 4.198 25.641 1.311 6.464-2.888 14.8-3.275 20.64-2.03 5.835 1.245 22.305 4.656 31.895 12.53 9.591 7.874 15.423 156.449 6.564 169.052-3.096 4.401-18.511 19.402-42.92 14.902-19.503-3.595-41.618 12.124-62.427 1.421-16.253-8.36-29.218-8.445-29.218-8.445S20.005 173.825 30.845 143.9c-.003-.004 1.247-11.031 41.901-26.256z" fill="#755FAA"/><path d="M112.592 366.198h-.025a.736.736 0 01-.71-.762c.125-3.794 2.18-6.501 5.288-10.6 2.287-3.017 5.137-6.773 8.255-12.316a.734.734 0 111.28.722c-3.17 5.631-6.049 9.428-8.366 12.481-3.041 4.011-4.88 6.431-4.99 9.757a.73.73 0 01-.732.718z" fill="#1D1647"/><path d="M73.261 119.666s-22.338 13.697-31.976 19.38c-9.638 5.683-15.937 13.988-18.162 18.795-2.224 4.806-7.413 9.178-7.042 12.238.372 3.061-8.523 16.173-10.376 27.1C3.85 208.107.516 244.385.516 245.696s5.931 31.472 5.931 31.472 17.42 20.978 21.126 25.789c3.706 4.806 14.826 12.673 16.308 12.673 1.482 0 10.748-7.429 10.377-14.861-.372-7.433-2.964-28.85-5.56-32.345-2.03-2.733-4.512-5.2-6.384-8.865a23.147 23.147 0 01-1.4-3.374c-1.854-5.682 3.335-19.232 3.335-19.232s16.68-48.079 15.936-54.635c-.742-6.556 4.818-29.722 3.336-35.84-1.479-6.121 9.74-26.812 9.74-26.812z" fill="#755FAA"/><path d="M81.281 317.714c-13.028 0-18.93-7.093-19.183-7.403a.732.732 0 01.106-1.034.731.731 0 011.033.106c.092.111 6.138 7.293 19.269 6.84 11.366-.394 17.099-1.775 21.702-2.884.949-.228 1.846-.446 2.758-.645 8.307-1.826 19.824-3.996 23.924-1.712a.743.743 0 01.287 1.002.74.74 0 01-1.001.287c-4.089-2.273-18.242.84-22.894 1.863-.893.199-1.787.413-2.728.638-4.67 1.123-10.48 2.523-21.997 2.924-.43.011-.857.018-1.276.018zm-37.032-65.156a.738.738 0 01-.721-.586c-1.677-7.937-.82-15.071 2.54-21.207 3.093-5.642 5.086-11.358 7.197-17.406 1.24-3.547 2.515-7.211 4.03-10.828a.736.736 0 111.357.571c-1.497 3.576-2.769 7.218-3.997 10.743-2.037 5.841-4.148 11.878-7.296 17.631-3.188 5.815-3.99 12.611-2.39 20.194a.736.736 0 01-.566.873c-.051.007-.103.015-.154.015zm59.22-132.642c-5.589 0-15.109-3.13-15.54-3.274a.737.737 0 01.464-1.4c.11.037 11.123 3.658 16.117 3.149 2.817-.287 4.707-.217 5.961-.173.805.03 1.504.055 1.699-.07a.735.735 0 11.794 1.238c-.581.375-1.324.35-2.548.302-1.214-.044-3.045-.111-5.759.166-.371.044-.768.062-1.188.062z" fill="#1D1647"/></svg>