<svg width="200" height="364" fill="none" xmlns="http://www.w3.org/2000/svg"><path d="M119.71 125.147l-12.708 15.148-4.038 4.814-35.885 42.779 2.115-59.647c4.897-.302 8.718-4.368 8.718-9.285V98.924l25.479.928 1.037 6.894.176 1.168c.012.059.015.11.026.169.199 1.319.316 2.877.467 4.512.03.332.059.667.092 1.006.588 5.892 1.857 12.323 8.803 11.888l5.718-.342z" fill="#F8BD8C"/><path d="M105.09 112.602c-1.714 2.995-4.516 5.739-8.344 6.155-7.313.799-14.443-7.09-17.962-11.454a12.234 12.234 0 01-.876-1.26v-.508c.596.342 1.43.788 2.677 1.237 2.82 1.028 7.134 2.096 12.874 2.088 4.155-.007 7.336-.968 9.631-2.088l1.331-.022.176 1.168c.011.059.015.11.026.169.199 1.322.316 2.88.467 4.515z" fill="#EAB186"/><path d="M116.504 93.86s30.417-3.3 18.04-41.428c-12.381-38.127-50.447-29.136-50.447-29.136S55.934 34.79 52.528 58.956C49.123 83.12 69.546 89.748 69.546 89.748l46.958 4.11z" fill="#000"/><path d="M103.237 25.248s8.733-14.692 5.368-18.379c-3.364-3.686-7.597-7.966-16.102-6.438-8.505 1.533-10.31 9.974-9.494 12.792.816 2.82 2.908 8.434 5.677 12.99 2.773 4.56 14.551-.965 14.551-.965z" fill="#000"/><path d="M68.815 76.833c-1.74 18.293 8.196 34.208 22.195 35.545 13.999 1.337 26.759-12.412 28.502-30.706 1.739-18.294-8.197-34.208-22.196-35.545-14.002-1.337-26.762 12.408-28.501 30.706z" fill="#F8BD8C"/><path d="M89.977 41.578S100.5 62.811 120.924 74.28c20.426 11.47 2.011-29.136 2.011-29.136l-32.958-3.566z" fill="#000"/><path d="M61.074 74.8c0 4.176 3.618 8.21 6.6 8.21 2.983 0 5.402-3.386 5.402-7.562 0-4.177-3.963-7.561-6.946-7.561-2.985-.004-5.056 2.736-5.056 6.913zm63.575 2.118c0 4.176-3.619 8.209-6.601 8.209-2.982 0-5.402-3.385-5.402-7.561 0-4.177 3.964-7.562 6.947-7.562 2.982 0 5.056 2.737 5.056 6.913z" fill="#F8BD8C"/><path d="M81.383 74.008c0 1.617 1 2.924 2.232 2.924 1.232 0 2.232-1.311 2.232-2.924 0-1.617-1-2.925-2.232-2.925-1.231-.003-2.232 1.308-2.232 2.925zm24.854 4.364c1.233 0 2.232-1.31 2.232-2.924 0-1.615-.999-2.925-2.232-2.925s-2.232 1.31-2.232 2.925c0 1.615.999 2.924 2.232 2.924zM87.344 67.235c-.18.022-.368.018-.555-.007-4.994-.74-8.053.791-8.178.858-.835.43-1.92.246-2.413-.413-.492-.66-.231-1.543.596-1.981.173-.092 4.328-2.247 10.785-1.293.949.14 1.545.888 1.328 1.672-.18.622-.824 1.083-1.563 1.164zm25.435 1.55a2.265 2.265 0 01-.526-.177c-4.53-2.232-7.91-1.705-8.049-1.683-.927.155-1.901-.35-2.173-1.13-.273-.778.25-1.54 1.173-1.706.194-.033 4.806-.817 10.663 2.06.861.423 1.199 1.318.754 1.995-.36.55-1.114.789-1.842.641z" fill="#000"/><path d="M94.908 85.69c-.383 0-.758-.117-1.067-.346-.945-.692-.992-1.182-.882-2.298l.456-4.703a.323.323 0 01.35-.288.319.319 0 01.286.35l-.46 4.707c-.099 1.002-.062 1.22.625 1.72.265.195.607.265.942.195l1.191-.25a.32.32 0 01.132.626l-1.19.25a1.947 1.947 0 01-.383.037z" fill="#080305"/><path d="M84.906 93.87c.559 3.61 4.6 6.184 9.274 5.805 4.063-.328 7.291-2.78 8.056-5.816l-17.33.011z" fill="#fff"/><path d="M67.348 80.402a.778.778 0 11-.78 1.346.778.778 0 01.78-1.346zm52.598 1.517a.778.778 0 11-.78 1.347.778.778 0 01.78-1.347z" fill="#080305"/><path d="M138.107 301.436l-21.269 9.208-12.267-12.924 26.741-19.329 11.384 21.24-4.589 1.805zm-120.46 51.206l4.803-1.573s.595-.851-.067-1.941c-.662-1.09-2.235-1.057-3-.976-.769.081-2.357.674-2.357.674s-1.883-2.155-3.806-3.131c0 0 .503-2.648-.39-4.368 0 0 1.975-2.014 1.758-4.99 0 0 .202-.358.5-.91.254.114.739.335 1.052.516.437.25.474 1.683.301 2.545-.173.861-.364 3.591-.092 5.149.272 1.557 1.464 2.618 3.236 2.559 1.772-.059 1.831-1.801 2.177-3.348.346-1.543.198-2.994.073-5.775-.125-2.78.6-4.173 1.13-6.802.529-2.626.334-4.737.334-4.737-.235-2.191-1.103-4.843-1.339-5.524.258-1.584.236-3.072-.268-4.18-.905-1.993 2.03-16.519 2.03-16.519l-14.827 1.68 1.38 16.433s-4.641 9.731-6.178 14.106c-1.537 4.376-2.655 6.681-2.442 8.854 0 0 2.254 8.744 4.567 10.678 2.372 1.977 7.645 5.45 9.186 5.572 1.662.129 6.074-.464 6.074-.464s.982-.044 1.718-.446c0 0 .71.011.161-1.477-.537-1.491-2.059-1.119-5.714-1.605z" fill="#F8BD8C"/><path d="M43.38 138.929s-12.826 7.02-14.683 16.931c-1.857 9.911-8.046 23.903-11.45 29.73-3.406 5.83-7.737 17.781-8.355 21.862-.618 4.081-9.285 62.667-6.81 76.659 2.474 13.992.555 24.872 5.332 26.816 4.776 1.945 20.044 0 20.044 0L49.74 174.901l-6.361-35.972z" fill="#ABABAB"/><path d="M136.25 363.558H13.19a524.333 524.333 0 013.026-21.873v-.004a493.212 493.212 0 014.947-26.349v-.003c.128-.593.257-1.186.39-1.783 0-.004 0-.007.003-.011.14-.641.28-1.274.427-1.919.01-.051.022-.099.033-.151a477.44 477.44 0 013.261-13.506 404.401 404.401 0 015.946-20.798v-.003c.39-1.238.787-2.475 1.192-3.717 0 0 .364-.353 1.334-.884 2.159-1.186 7.318-3.259 18.15-4.309v-.003c.016 0 .034-.004.049-.004 5.284-.512 11.917-.774 20.206-.575 9.185.221 20.408 1.013 34.087 2.678 0 0 .754 2.626 2.044 6.817a587.504 587.504 0 004.674 14.493c1.739 5.149 3.71 10.714 5.788 16.08.231.597.459 1.19.695 1.779 2.706 6.854 5.563 13.255 8.292 17.867 3.986 6.74 6.769 21.21 8.516 36.178z" fill="#190444"/><path d="M32.411 234.081c.309-3.102 2.004-23.87 2.004-23.87s1.089-29.45.063-39.678c-.655-6.423 3.824-19.082 7.243-27.612a187.27 187.27 0 011.659-3.992l6.66-2.751 22.816-9.447s-4.545 34.296-2.066 52.896c0 0 36.308-38.017 43.736-55.375 0 0 24.758 4.537 30.95 3.72 6.189-.829 20.228 2.887 25.998 46.288 5.78 43.398 24.35 66.126 25.181 73.986.816 7.848 4.953 16.529-4.953 26.448-9.903 9.918-26.417 25.206-28.472 28.109-2.067 2.887-22.284 7.848-22.284 7.848l-21.008-38.193a2.4 2.4 0 011.148-3.359c3.526-1.525 9.851-4.276 11.605-5.156 2.474-1.241 18.36-9.499 18.36-9.499s-12.48-16.949-14.025-34.93c-.695-8.036-1.015-14.382-1.151-18.971-.184 15.413-2.155 47.625-14.73 64.228l-6.612 12.398H31.227s-.416-2.604 0-4.906c.735-4.147.875-35.085 1.184-38.182z" fill="#ABABAB"/><path d="M10.502 311.9a.746.746 0 01-.194-.026l-4.48-1.226c-1.05-.288-2.334-1.533-2.937-8.645a91.68 91.68 0 01-.29-7.45L.908 274.458a.52.52 0 010-.107l1.074-17.288c.04-.376 3.802-34.01 4.997-41.486 1.25-7.827 3.144-17.112 7.722-26.665 4.541-9.484 12.19-28.625 12.267-28.82.15-.38.577-.56.956-.413a.74.74 0 01.412.958c-.078.191-7.74 19.38-12.304 28.908-4.494 9.384-6.362 18.541-7.593 26.26-1.188 7.444-4.946 41.044-4.983 41.383l-1.066 17.2 1.691 20.073c0 .022.004.044.004.07-.066 7.631.92 14.36 2.147 14.699l4.48 1.226a.736.736 0 01.514.906.774.774 0 01-.725.538zm19.478-48.535a.726.726 0 01-.54-.24c-.236-.258-2.328-3.016-2.63-19.874-.3-16.872 3.104-29.453 4.016-30.742a.735.735 0 011.203.847c-.622 1.002-4.05 13.068-3.748 29.866.287 15.948 2.148 18.765 2.266 18.927a.74.74 0 01-.567 1.216zm40.81-83.005a.73.73 0 01-.728-.652c-.026-.232-2.534-23.377 1.923-52.738a.737.737 0 01.838-.619c.4.063.677.439.618.84-3.77 24.835-2.526 45.162-2.06 50.797 6.097-6.191 35.547-36.643 42.468-54.012a.737.737 0 111.368.545c-7.807 19.586-42.43 54.163-43.902 55.625a.78.78 0 01-.525.214zm92.436 123.172a.737.737 0 01-.563-1.212c.074-.085 7.332-8.692 21.03-20.809l.478-.424c4.732-4.184 10.623-9.388 12.465-15.553 2.288-7.665.644-16.729-4.883-26.949-4.578-8.464-8.152-17.587-11.612-26.415l-1.115-2.84a.734.734 0 01.416-.954.733.733 0 01.952.417l1.115 2.843c3.441 8.784 7.001 17.866 11.535 26.249 5.721 10.574 7.402 20.021 4.997 28.072-1.96 6.567-8.027 11.93-12.899 16.235l-.478.42c-13.606 12.04-20.806 20.57-20.876 20.655a.722.722 0 01-.562.265zm-30.69-67.293a.737.737 0 01-.72-.877c.003-.022.43-2.295 1.342-7.937.908-5.617 1.967-26.713 1.978-26.927a.741.741 0 01.772-.7.738.738 0 01.699.774c-.044.869-1.074 21.391-1.993 27.089-.916 5.668-1.346 7.955-1.35 7.977a.749.749 0 01-.728.601z" fill="#8E8D8E"/><path d="M88.061 135.021c-1.085 0-2.129-.136-3.13-.412-6.864-1.89-9.155-9.801-9.177-9.882l.353-.099c.022.077 2.257 7.793 8.924 9.623 6.123 1.68 13.933-1.955 23.214-10.817l.254.266c-7.88 7.528-14.738 11.321-20.438 11.321z" fill="#080305"/></svg>