<svg width="215" height="428" fill="none" xmlns="http://www.w3.org/2000/svg"><path d="M105.656 90.551L98.97 115l14.411 16.902 20.589-10.338-.861-25.756-27.453-5.256z" fill="#F8BD8C"/><path d="M179.217 306.312v121.246h-61.394V309.387l57.368-2.872 4.026-.203z" fill="#63C3D1"/><path d="M137.779 311.947l-2.1 5.819-2.066 5.746-6.957 19.288-8.833 24.489-14.179 60.269H48.101c.033.169.047.254.047.254l-7.626.184.051-.442 3.06-24.684.448-3.62 1.2-9.683 1.124-9.064.85-6.85 3.971-32.061 1.081-8.725 2.593-20.92h82.879z" fill="#63C3D1"/><path d="M100.544 110.51s-30.182 18.456-43.486 24.941c-13.3 6.486-21.997 15.963-25.067 21.45-3.07 5.488-10.233 10.475-9.719 13.967.511 3.491-11.767 18.455-14.326 30.926-2.56 12.471-7.163 53.872-7.163 55.368 0 1.495 8.185 35.913 8.185 35.913s24.045 23.943 29.16 29.431c5.115 5.488 20.464 14.467 22.512 14.467 2.048 0 14.837-8.478 14.326-16.96-.511-8.479-4.093-32.919-7.674-36.912-2.802-3.119-6.226-5.937-8.81-10.117a24.243 24.243 0 01-1.935-3.849c-2.56-6.486 4.604-21.947 4.604-21.947s23.023-54.87 21.997-62.351c-1.023-7.484 6.651-33.917 4.603-40.9-2.044-6.99 12.793-33.427 12.793-33.427z" fill="#C5A2FD"/><path d="M181.887 177.821s5.115 70.358 4.603 82.331c-.511 11.97-2.996 18.953.037 32.422 3.034 13.469 1.57 17.458 0 22.445-1.57 4.986-21.011 4.489-21.011 4.489l-91.098-5.314-34.242-49.556 44.509-138.667 15.859-15.461s18.162 15.461 33.253 6.235c0 0 41.949 23.693 47.832 28.183 5.887 4.49.258 32.893.258 32.893z" fill="#C5A2FD"/><path d="M182.229 146.755s14.664 14.633 14.326 24.275c-.342 9.642 3.751 45.556 3.07 55.864-.684 10.309 1.023 10.641 2.387 18.29 1.364 7.65 6.99 22.946 7.505 39.906.511 16.961 7.928 29.181 2.813 37.659-5.115 8.479-8.954 10.972-8.954 10.972s-1.28-12.942-3.582-14.202c-2.301-1.259-13.267-4.504-13.267-4.504l-12.142-134.343 7.844-33.917z" fill="#C5A2FD"/><path d="M102.353 93.955c-1.471-3.437 9.811 19.023 21.328 17.763 9.876-1.079 10.288-19.365 10.288-19.365s-3.508 5.775-13.932 5.79c-11.628.01-17.684-4.188-17.684-4.188z" fill="#EAB186"/><path d="M154.411 64.87c-.265 4.935-3.534 8.769-7.296 8.566-3.765-.202-6.6-4.368-6.332-9.303.265-4.935 3.534-8.77 7.296-8.567 3.761.203 6.596 4.368 6.332 9.304zM99.89 61.85c-.265 4.935-3.534 8.769-7.296 8.566-3.765-.202-6.6-4.368-6.332-9.303.265-4.935 3.534-8.77 7.296-8.567 3.761.206 6.596 4.372 6.331 9.304z" fill="#F2B588"/><path d="M151.337 64.634c-3.571 21.012-15.735 39.062-32.499 38.156-16.764-.906-25.563-16.544-28.211-41.441-2.32-21.84 15.734-39.063 32.499-38.157 16.767.906 31.895 19.767 28.211 41.442z" fill="#F8BD8C"/><path d="M112.863 31.453c.047 1.389-.166 3.628-.03 4.302.372 1.856 1.346 3.665 2.924 4.523 1.088.593 2.349.681 3.57.714 4.453.118 9.105-1.804 13.378-1.605 1.967.092 3.46 1.517 5.129 2.637 3.089 2.062 8.77 1.58 8.774 1.58 2.912 4.077 3.192 10.154 6.163 13.922.713-.446 1.357-1.032 2.03-1.595 3.993-3.366 4.228-3.978 2.934-9.26-1.037-4.227 1.802-6.032 3.239-9.42 1.971-4.649 5.402-8.95 1.909-12.57-4.541-4.708-7.843-8.49-10.737-14.648-1.615-3.437-3.78-7.19-7.322-7.849-5.71-1.064-10.057 5.219-15.804 1.385-2.092-1.396-4.104-3.197-6.556-3.51-2.545-.328-5.031 1.031-7.101 2.67-2.585 2.044-4.931 4.442-7.946 5.753-4.975 2.166-10.693 3.031-14.779 7.075-2.732 2.704-4.236 6.372-5.615 9.989-1.165 3.064-3.236 6.589-3.537 9.885-.342 3.709 1.816 11.657 4.747 14.003 1.416 1.134 2.46 3.841 2.46 3.841s4.505-8.305 5.262-10.202c.758-1.897 4.468-6.799 7.023-8.6 2.556-1.797 3.413-2.456 5.428-3.403 1.327-.633 4.368-2.11 4.457.383z" fill="#63C3D1"/><path d="M107.296 60.453a2.646 2.646 0 01-2.78 2.501 2.647 2.647 0 01.283-5.285 2.647 2.647 0 012.497 2.784zm31.509 1.706a2.645 2.645 0 01-2.78 2.5 2.647 2.647 0 01.283-5.284 2.641 2.641 0 012.497 2.784z" fill="#1B191B"/><path d="M98.308 52.84a1.77 1.77 0 01-1.621-1.09 1.78 1.78 0 01.952-2.32c8.524-3.554 14.963-.15 15.231-.007a1.779 1.779 0 01.717 2.405 1.767 1.767 0 01-2.394.718c-.246-.133-5.313-2.714-12.193.158-.225.093-.46.14-.692.137zm32.062 1.128a1.764 1.764 0 01-1.549-1.19 1.775 1.775 0 011.096-2.254c8.73-3.009 14.941.796 15.202.958a1.775 1.775 0 01.562 2.445 1.766 1.766 0 01-2.434.568c-.235-.148-5.133-3.046-12.179-.612-.231.07-.467.1-.698.085z" fill="#63C3D1"/><path d="M152.344 56.947c0-.003 0-.003 0 0a1.868 1.868 0 00-.507-1.012 1.394 1.394 0 00-.206-.177c0-.004-.004-.004-.004-.004a1.781 1.781 0 00-.456-.254 18.87 18.87 0 00-2.622-.759 52.052 52.052 0 00-3.063-.563 86.546 86.546 0 00-4.379-.597h-.011c-2.298-.254-4.81-.442-7.156-.438h-.004a31.297 31.297 0 00-3.633.199c-.367.048-.713.092-1.033.143-4.229.652-4.42 1.69-4.383 2.27a.107.107 0 01-.166.099c-.886-.553-1.93-.781-2.952-.84-1.019-.055-2.085.063-3.027.515-.081.041-.169-.025-.154-.117.107-.612-.004-1.787-5.133-2.984a4.26 4.26 0 00-.306-.066c-1.309-.284-2.776-.486-4.302-.619h-.004a67.297 67.297 0 00-5.438-.24h-.004a86.87 86.87 0 00-6.736.207 37.17 37.17 0 00-1.582.14c-1.224.14-2.165.332-2.842.501-.353.088-.65.28-.875.545l-.004.004c-.264.298-.43.678-.452 1.094 0 .033-.004.066-.004.1 0 .703.394 1.373 1.045 1.642.268.11.551.305.798.637.65.87.816 1.61 1.595 1.974a.095.095 0 01.063.1c-.121 1.72-.103 4.651.57 6.868.43 1.404 1.063 2.516 1.96 3.392.853.848 1.952 1.474 3.339 1.93 1.349.446 2.908.715 4.46.796 1.629.088 3.254-.026 4.63-.357 2.982-.722 5.251-2.847 6.376-5.978 1.026-2.85 1.441-5.653 1.368-7.292.235.073.448.03.662-.151l.029-.004c.044-.037.099-.077.14-.125.356-.332 1.496-1.164 3.743-1.046 2.25.125 3.287 1.072 3.607 1.44.037.051-.003.096.033.14h-.069a.853.853 0 00.606.243c.07 0 .129.048.122.121-.217 1.643-.033 4.405.658 7.27.783 3.238 2.828 5.595 5.718 6.634 1.327.479 2.942.766 4.571.854 1.555.085 3.136-.014 4.519-.309a9.82 9.82 0 002.324-.792c1.603-.806 2.724-2.074 3.515-3.93.908-2.132 1.232-5.042 1.294-6.765 0-.048.034-.082.074-.096.809-.276.982-.998 1.721-1.794.257-.276.526-.438.768-.527a1.808 1.808 0 001.118-1.149 1.84 1.84 0 00.092-.478c0-.034.004-.063.004-.1.007-.114 0-.206-.015-.295zm-37.194 7.937c-1.052 2.936-3.159 4.921-5.935 5.588-2.563.622-6.067.449-8.719-.424-1.305-.43-2.327-1.01-3.118-1.794-.805-.799-1.371-1.819-1.769-3.12-.735-2.408-.643-5.712-.481-7.225v-.015c.231-.958.809-2.773 2.052-3.716.18-.136.375-.25.584-.35 2.232-.998 6.939-1.459 11.557-.446 4.623 1.013 6.366 2.232 7.039 3.591.022.048.047.096.073.144.283 1.26-.114 4.512-1.283 7.767zm32.815-4.114c-.004 1.518-.269 4.814-1.258 7.13-.768 1.802-1.831 2.984-3.405 3.717a9.32 9.32 0 01-1.978.645c-2.729.582-6.233.372-8.715-.523-2.681-.962-4.563-3.164-5.299-6.195-.813-3.363-.857-6.64-.441-7.86.033-.04.059-.085.088-.133.813-1.278 2.677-2.301 7.38-2.81 4.372-.475 8.678.324 10.962 1.433.173.081.334.17.481.254 1.567.917 2.045 3.204 2.185 4.324v.018z" fill="#1B191B"/><path d="M119.073 88.165c-3.287 0-5.541-1.518-5.578-1.54a.274.274 0 01-.07-.383.274.274 0 01.383-.07c.224.155 5.545 3.71 11.818-.81a.277.277 0 01.324.45c-2.497 1.793-4.88 2.353-6.877 2.353zm.666-10.177a.265.265 0 01-.147-.044c-.055-.033-1.331-.862-1.438-1.882-.092-.913.287-5.546.305-5.742a.28.28 0 01.298-.254.28.28 0 01.254.299c-.136 1.65-.375 4.95-.305 5.638.062.626.875 1.275 1.184 1.47a.278.278 0 01.084.383.273.273 0 01-.235.132z" fill="#000"/><path d="M53.671 215.499a.737.737 0 01-.662-1.05c.802-1.694 7.498-21.789 7.612-23.335a.74.74 0 01.787-.682c.405.03.71.383.68.788-.136 1.842-7.034 22.342-7.751 23.856a.733.733 0 01-.666.423zm70.087-94.879c-2.853 0-6.31-.53-10.384-2.018-.533-.196-8.016-4.015-9.513-4.781a.74.74 0 01-.32-.991.733.733 0 01.989-.32c3.383 1.727 8.914 4.537 9.351 4.71 13.084 4.774 19.349-.946 19.408-1.005a.735.735 0 011.015 1.064c-.195.185-3.592 3.341-10.546 3.341zm-5.935 247.405a.735.735 0 01-.691-.987l8.829-24.492a.734.734 0 111.382.501l-8.828 24.492a.736.736 0 01-.692.486z" fill="#9E4AFF"/></svg>