<svg xmlns="http://www.w3.org/2000/svg" width="202" height="400" version="1.1" id="svg74" fill="none"><path d="M83.218 374.7c3.641 7.285 16.853 7.303 18.834-.992l.084-20.062-23.522-.231z" id="path2" fill="#e4ae7c" stroke-width=".774"/><path d="M104.115 371.38c-12.151 2.756-28.725 2.198-29.297-.655-41.854-208.251-59.99-205.734-7.869-226.958l37.668 1.595c8.315 34.543 1.772 225.549-.502 226.018z" id="path4" fill="#541675" stroke-width=".774"/><path d="M47.252 394.568c-.34-.376-.549-.796-.609-1.23a2.01 2.01 0 01.26-1.278c1.396-2.383 37.753-17.99 36.357-17.369 6.613 2.819 15.5 1.418 18.834-.992 2.289 3.208 8.86 14.772 2.233 15.951-3.962.664-54.145 8.046-57.075 4.918z" id="path6" fill="#242c37" stroke-width=".774"/><path d="M151.59 375.05c3.655 7.276 16.867 7.294 18.847-.992l.085-20.063-23.522-.23z" id="path8" fill="#e4ae7c" stroke-width=".774"/><path d="M115.611 394.93c-2.065-2.215.977-4.183 4.186-5.627 14.9-6.735 31.837-14.25 31.837-14.25 6.626 2.81 15.498 1.41 18.847-.992 2.009 2.826 9.04 14.746 2.107 15.951-4.004.682-54.006 8.082-56.977 4.918z" id="path10" fill="#242c37" stroke-width=".774"/><path d="M148.629 372.901c10.101 1.25 27.01-1.462 27.233-4.316 18.276-224.149-23.815-226.86-23.815-226.86l-47.434 3.66c-4.171 41.18 37.822 226.754 44.016 227.516z" id="path12" fill="#541675" stroke-width=".774"/><path d="M166.713 166.203a1.055 1.055 0 01-.351-.06.68.68 0 01-.263-.162c-6.208-6.752-14.913-11.28-24.498-12.751a.954.954 0 01-.255-.074.615.615 0 01-.19-.131.367.367 0 01-.098-.167.291.291 0 01.013-.178.391.391 0 01.112-.165.681.681 0 01.206-.122 1.055 1.055 0 01.547-.05c9.975 1.524 19.002 6.203 25.405 13.178a.357.357 0 01.09.168.299.299 0 01-.018.177.442.442 0 01-.125.159.74.74 0 01-.212.116.984.984 0 01-.363.062z" id="path14" fill="#ce8b35" stroke-width=".774"/><path d="M36.96 172.405h-.167a.798.798 0 01-.45-.203c-.102-.103-.136-.227-.094-.346 2.79-7.736 5.887-14.445 15.346-18.282a1.09 1.09 0 01.541-.057.81.81 0 01.45.2c.05.05.086.106.102.165.017.06.015.12-.006.179a.404.404 0 01-.115.163.684.684 0 01-.205.121c-9.068 3.652-12.053 10.183-14.774 17.724a.501.501 0 01-.231.23.983.983 0 01-.397.106z" id="path16" fill="#ce8b35" stroke-width=".774"/><path d="M93.217 85.411c-.525 1.6-1.7 3.086-3.41 4.307-1.71 1.222-3.894 2.138-6.334 2.657-5.084.94-11.443-.713-12.786-3.795-.658 1.436-3.481 2.185-5.948 2.02-2.428-.275-4.72-.91-6.688-1.855-5.687-2.35-11.443-5.04-14.184-8.843-2.74-3.804-1.274-9.01 4.852-10.925-3.07-2.498-5.24-5.395-6.355-8.484-1.115-3.089-1.15-6.296-.1-9.395.91-3.082 3.43-5.88 7.154-7.939 3.878-1.993 9.593-2.846 14.266-1.584-.452-5.466.096-12.09 8.045-14.798 2.75-.816 5.736-1.26 8.77-1.305 8.689-.375 19.187 1.079 22.147 5.988 5.372-3.63 13.375-6.215 21.406-5.562 8.031.653 15.158 5.336 13.704 10.115 5.331-2.324 13.828-.688 16.651 2.89 2.824 3.577.206 8.19-5.208 10.445 6.318.07 11.253 3.84 11.677 7.617.425 3.778-2.645 7.417-6.469 10.445 2.132 1.557 3.35 3.535 3.447 5.598.097 2.062-.93 4.083-2.913 5.718-1.959 1.55-4.713 2.708-6.495 4.353-1.261 1.158-1.974 2.516-3.29 3.639-1.646 1.288-3.917 2.197-6.46 2.582-2.542.386-5.214.228-7.6-.45-2.302 4.248-11.84 6.372-18.213 4.065-3.165 1.74-5.92 2.229-9.84 1.149s-8.757-3.665-8.579-6.241z" id="path18" fill="#170a00" stroke-width=".774"/><path d="M148.875 76.669c-9.155-3.89-20.215-5.458-31.027-6.833a6.105 6.105 0 01-1.864-.436c-.917-.452 1.152-15.607 0-22.24l-15.43.923-15.418-.923c-1.152 6.633.904 21.762 0 22.24a6.286 6.286 0 01-1.878.436c-10.8 1.375-21.927 2.942-31.027 6.833-9.1 3.89 49.048 29.442 50.515 36.379 9.195 0-28.067-18.674-2.097-18.465h4.18c26.038-.209-9.196 16.889 0 16.923 1.507-6.972 53.201-30.972 44.046-34.837z" id="path20" fill="#e4ae7c" stroke-width=".774"/><path d="M73.497 45.174c4.7-2.743 4.902-4.057 5.124-2.743 1.059 6.464 12.386 22.059 22.644 22.059 13.264 0 20.96-20.285 22.23-25.407-15.339 1.986-30.869 3.98-46.25 2.312l1.27 1.074z" id="path22" fill="#d67f54" stroke-width=".774"/><path d="M132.968 39.517c-.052-.792-.47-1.557-1.2-2.2-.732-.642-1.744-1.133-2.911-1.413a7.524 7.524 0 00-2.416-.011c-.793.126-1.523.379-2.12.734.78-8.487.356-21.683-.55-21.762-13.84-.74-32.63-2.542-46.087-.383v.244c-2.604 5.562-2.823 14.18-1.713 21.44-1.099-.397-2.4-.5-3.618-.288-1.167.28-2.178.772-2.91 1.414-.73.643-1.148 1.407-1.201 2.198-.056 1.593.736 3.151 2.247 4.422 2.028 1.846 5.372 3.326 8.798 3.308 1.353 2.861 3.584 5.524 6.565 7.834 4.358 3.238 11.073 5.432 17.72 4.858 6.427-.558 11.813-3.587 14.951-7.2 1.476-1.743 2.604-3.597 3.358-5.518 3.453.044 6.852-1.454 8.867-3.308 1.49-1.257 2.271-2.796 2.22-4.37z" id="path24" fill="#e4ae7c" stroke-width=".774"/><path d="M88.414 35.59c-.017.342-.191.673-.502.953-.31.279-.744.494-1.246.618-.502.123-1.05.15-1.577.078-.526-.073-1.007-.243-1.382-.489-.375-.245-.628-.555-.727-.891-.1-.337-.04-.684.17-.999.209-.315.56-.584 1.009-.773.449-.19.975-.29 1.514-.29.367 0 .73.046 1.068.137.338.09.644.224.9.391.255.167.455.365.588.583.133.217.196.449.185.682z" id="path26" fill="#462917" stroke-width=".774"/><path d="M90.996 45.435c3.404 5.042 11.607 7.329 17.5.511z" id="path28" fill="#fff" stroke-width=".774"/><path d="M83.327 30.895c.978-.692 2.36-1.182 3.918-1.39l.617-.071h.396c.425-.012.851-.012 1.277 0h.396l.616.06c.435.053.862.125 1.277.215a2.4 2.4 0 00.516.021c.172-.011.34-.041.49-.088a1.41 1.41 0 00.392-.184.702.702 0 00.23-.252c.09-.184.042-.38-.13-.546-.173-.165-.458-.288-.794-.34a17.919 17.919 0 00-6.048-.175c-2 .286-3.787.904-5.112 1.768-.238.138-.371.32-.371.51 0 .188.133.37.371.508.252.137.592.213.947.213.354 0 .695-.076.946-.213z" id="path30" fill="#170a00" stroke-width=".774"/><path d="M118.665 30.895c-.979-.692-2.36-1.182-3.919-1.39l-.615-.071h-.397a22.721 22.721 0 00-1.276 0h-.397l-.616.06a13.99 13.99 0 00-1.277.215 2.399 2.399 0 01-.515.021 2.167 2.167 0 01-.492-.088 1.41 1.41 0 01-.39-.184.7.7 0 01-.232-.252c-.088-.184-.04-.38.131-.546.173-.165.457-.288.793-.34a17.92 17.92 0 016.048-.175c2 .286 3.788.904 5.113 1.768.238.138.371.32.371.51 0 .188-.133.37-.37.508-.252.137-.593.213-.948.213s-.695-.076-.946-.213z" id="path32" fill="#170a00" stroke-width=".774"/><path d="M82.382 69.617c4.111 2.968 9.018 6.423 15.582 6.963 5.482.418 10.963-.957 15.322-2.977 2.617-1.205 4.84-2.722 6.55-4.465a.24.24 0 00.063-.106.191.191 0 00-.007-.114.269.269 0 00-.075-.104.464.464 0 00-.132-.077.72.72 0 00-.346-.035.628.628 0 00-.163.048.428.428 0 00-.121.083c-2.961 3.007-7.433 5.292-12.69 6.485a29 29 0 01-7.606.749c-2.67-.144-5.228-.746-7.4-1.741-3.137-1.465-5.973-3.172-8.443-5.084-.356-.252-.932.122-.589.375z" id="path34" fill="#ef6a55" stroke-width=".774"/><path d="M148.664 37.176c1.918.484 3.586 1.297 4.818 2.348 1.231 1.052 1.978 2.3 2.156 3.605.177 1.306-.22 2.617-1.15 3.787-.928 1.17-2.351 2.153-4.11 2.839a.647.647 0 00-.348.288.352.352 0 00.025.363c.075.115.211.21.386.268.175.057.375.074.567.047 4.55-.627 8.73 1.74 10.539 4.178 2.165 2.925-.164 6.023-3.837 7.948-2.187 1.075-4.611 1.94-7.195 2.567a.887.887 0 00-.49.255c-.107.12-.138.263-.086.398.064.133.207.246.398.315.192.067.418.086.63.05 5.016-1.331 10.114-3.16 12.334-6.52 1.063-1.595 1.102-3.39.11-5.004-.984-1.565-2.624-2.929-4.742-3.943-1.119-.574-2.42-.986-3.813-1.208a15.497 15.497 0 00-4.259-.08l.644.965c1.573-.63 2.918-1.466 3.943-2.452 1.025-.987 1.709-2.1 2.005-3.266.272-1.16.145-2.344-.374-3.47-.517-1.125-1.414-2.166-2.627-3.05-1.369-1.005-3.1-1.784-5.044-2.272-1-.253-1.37.766-.451 1.018z" id="path36" fill="#170a00" stroke-width=".774"/><path d="M67.328 29.255c-2.575.883-4.653 2.253-5.945 3.92-1.292 1.669-1.734 3.55-1.263 5.385l1.028-.653a30.458 30.458 0 00-8.55.345c-2.775.515-5.336 1.414-7.498 2.632-2.191 1.264-3.878 2.84-4.922 4.598-1.044 1.759-1.414 3.65-1.08 5.517.34 2.16 1.589 4.224 3.617 5.972l.288-.723c-1.774.782-3.227 1.822-4.238 3.033-1.011 1.212-1.55 2.56-1.573 3.93.015 1.388.585 2.75 1.657 3.96 1.071 1.209 2.61 2.224 4.47 2.952 2.07.843 4.474 1.298 6.934 1.314.201-.016.386-.079.52-.175.135-.097.209-.222.209-.35 0-.13-.074-.255-.208-.352a1.043 1.043 0 00-.521-.175c-1.902-.024-3.768-.338-5.438-.917s-3.095-1.405-4.155-2.409c-1.578-1.598-2.126-3.52-1.531-5.367.594-1.848 2.286-3.48 4.724-4.556.188-.072.323-.189.377-.324.054-.135.022-.278-.09-.398-1.62-1.401-2.71-3.02-3.184-4.733-.476-1.712-.324-3.47.444-5.139.765-1.62 2.119-3.104 3.952-4.331 1.832-1.228 4.093-2.165 6.6-2.737 2.806-.67 5.837-.869 8.798-.574.142.022.29.02.432-.005.14-.025.268-.072.372-.138a.554.554 0 00.217-.236.351.351 0 00.007-.274c-.39-1.608.02-3.253 1.168-4.707 1.15-1.453 2.983-2.644 5.246-3.406.946-.313.11-1.218-.836-.87z" id="path38" fill="#170a00" stroke-width=".774"/><path d="M132.218 18.587c-.534-1.593.946-14.502-28.519-11.516a9.382 9.382 0 01-3.001 0 12.73 12.73 0 01-2.206-.87c-2.01-.727-4.351-.994-6.633-.758-7.976.514-15.569 3.874-20.256 8.966h.247c-.727.822-1.284 1.7-1.658 2.611-2.07 4.849-1.138 9.958-.192 14.929.076 1.061.545 2.096 1.37 3.02.458.463 1.133.822 1.93 1.028a6.347 6.347 0 002.51.121c1.645-.357 2.235-1.95.727-2.49 1.144-.246 2.158-.688 2.93-1.278.771-.59 1.27-1.305 1.442-2.064.27-1.494-.006-3.007-.809-4.422a12.96 12.96 0 004.908.073c1.61-.289 3.047-.878 4.123-1.692.98-.817 1.51-1.815 1.51-2.842 0-1.027-.53-2.025-1.51-2.842 2.68 1.035 5.748 1.592 8.884 1.611 3.135.02 6.22-.497 8.933-1.498 1.555 1.602 3.938 2.811 6.742 3.421 1.37.252 3.508-.218 5.482-.949-.07.775.202 1.546.785 2.227.584.682 1.456 1.246 2.518 1.63-1.023.417-1.844 1.005-2.375 1.699-.532.693-.754 1.467-.641 2.235.165.775.656 1.507 1.42 2.12.765.612 1.775 1.083 2.925 1.362-.82.464-1.47 1.036-1.902 1.677-.433.64-.64 1.334-.606 2.03-.007.07-.007.14 0 .21.182.403.52.77.986 1.067.466.298 1.042.515 1.676.633.633.117 1.303.13 1.948.039a5.003 5.003 0 001.735-.564l2.028-1.106v-.182l.11.13 1.85-1.01s2.92-9.949.589-16.756z" id="path40" fill="#170a00" stroke-width=".774"/><path d="M58.374 87.891v5.65c.026.127.124.245.277.33.152.085.348.133.552.133.203 0 .4-.048.552-.133.152-.085.25-.203.277-.33v-5.65c-.026-.128-.125-.245-.277-.33a1.145 1.145 0 00-.552-.133c-.204 0-.4.047-.552.133-.153.085-.251.202-.277.33z" id="path42" fill="#4f657f" stroke-width=".774"/><path d="M141.468 87.213a13.23 13.23 0 00-.274 6.293c.003.139.09.272.244.37.153.099.36.157.579.161.22 0 .434-.056.59-.155.157-.1.246-.235.246-.376-.419-2-.35-4.028.204-6.015.053-.135.023-.277-.084-.398a.89.89 0 00-.49-.255 1.294 1.294 0 00-.325-.014c-.108.01-.212.032-.307.067a.81.81 0 00-.242.136.482.482 0 00-.141.186z" id="path44" fill="#4f657f" stroke-width=".774"/><path d="M106.437 17.588c-.369 1.148-1.271 2.2-2.59 3.02-.504.38-1.134.684-1.845.892a8 8 0 01-2.266.31c-.466 0-1.083-.183-1.11-.531-.028-.349.438-.427.822-.497 1.521-.27 1.96.766 1.48 1.506-.89 1.35-3.563 1.515-5.55 1.637-1.055.06-1.07 1.114 0 1.053 2.576-.165 5.66-.444 6.934-2.098.987-1.288.315-3.133-2.316-3.194-1.973 0-3.933 1.227-2.59 2.437 1.343 1.21 4.111.792 5.783.148 1.228-.494 2.29-1.137 3.122-1.893.833-.756 1.421-1.61 1.73-2.512.206-.661-1.371-.94-1.604-.278z" id="path46" fill="#170a00" stroke-width=".774"/><path d="M100.62 30.1c.448 1.204.791 2.397 1.152 3.58.36 1.182.721 2.354 1.272 3.473.12.275.274.56.429.824.253.332.405.69.446 1.056.012.389-.153.772-.474 1.108-.322.335-.788.61-1.347.792a6.579 6.579 0 01-3.316.106 10.429 10.429 0 01-2.63-.961c1.822.412 3.953.75 5.156.148.302-.123.545-.294.703-.495a.84.84 0 00.19-.646 1.985 1.985 0 00-.378-.707 10.62 10.62 0 01-.515-.897 11.067 11.067 0 01-.945-3.674 12.03 12.03 0 01.258-3.706z" id="path48" fill="#d67f54" stroke-width=".774"/><path d="M164.154 76.576l-5.15 76.563-37.997.763-73.008 1.463-6.705-76.544 44.924-12.189s10.486 5.001 30.262.09c.475-.118 2.563.134 5.623.616 4.762.752 11.882 2.062 18.922 3.407 3.2 1.484 6.416 2.944 12.796 3.38 3.124.213 6.79 1.143 10.333 2.45z" id="path50" fill="#fff" stroke-width=".774"/><path d="M81.481 66.493c.382-.045.718.154.682.397-.553 3.624-4.049 26.328-4.852 27.35-.871 1.11-1.746 5.736-2.035 9.435-.29 3.7-.29 4.995 0 10.176.289 5.18 1.164 10.73 2.035 14.244.871 3.514 4.506 15.956 4.727 19.424.218 3.469.435 5.018 1.528 8.06 1.089 3.04 2.835 5.955 2.4 8.035-.436 2.081-45.582 10.544-45.582 10.544s-4.58-1.942-5.234-4.995c-.653-3.052-3.706-4.579-4.363-7.77-.653-3.191-2.328-21.916 1.164-30.938 3.488-9.022-9.597-15.682-9.015-17.16.582-1.481.436-27.518 4.58-30.016 4.146-2.5 14.553-8.602 22.683-9.159 8.129-.554 11.12-2.775 15.484-4.579 3.706-1.528 13.074-2.723 15.798-3.048z" id="path52" fill="#c5a2fd" stroke-width=".774"/><path d="M69.174 114.36c-.225 0-.45-.069-.589-.196-1.246-1.144-.746-2.044-.214-2.996.589-1.062 1.26-2.266.125-4.429-1.021-1.946-2.61-3.48-4.152-4.96-1.775-1.711-3.453-3.324-3.874-5.29-.368-1.709.646-4.098 1.628-6.405 1.05-2.474 2.139-5.034 1.196-6.156-.953-1.14-3.145-2.237-5.266-3.298-2.114-1.059-4.11-2.058-4.823-3.09-.447-.642-.379-1.864 5.351-5.042 2.989-1.658 6.184-3.1 6.216-3.114.322-.145.768-.095.996.11.229.204.15.488-.171.633-5.88 2.646-11.735 6.11-11.086 7.048.572.825 2.432 1.756 4.402 2.741 2.235 1.12 4.545 2.277 5.641 3.585 1.207 1.44.097 4.052-1.078 6.819-.942 2.221-1.92 4.52-1.592 6.046.378 1.762 1.892 3.22 3.649 4.913 1.517 1.46 3.234 3.116 4.313 5.174 1.288 2.46.467 3.939-.136 5.02-.49.881-.786 1.413.043 2.176.225.206.143.488-.182.631a.977.977 0 01-.397.08z" id="path54" fill="#9e4aff" stroke-width=".774"/><path d="M27.513 83.562C26.35 85.13 11.73 94.676 10.233 101.63c-1.496 6.953-6.73 9.56-6.294 18.25.435 8.69-1.31 11.59 4.798 15.934 6.105 4.345 6.105 8.111 10.468 13.617 4.363 5.503-.4 8.11 8.304 11.589 8.705 3.477 12.196-15.064 18.737-18.542 6.544-3.475 2.617-2.975 0-8.729-2.617-5.755-13.52-11.259-13.956-13.287-.435-2.029 2.763-4.61 3.488-6.21.586-1.29 6.105-31.434 6.98-35.218.871-3.784-4.602-1.39-4.602-1.39z" id="path56" fill="#c5a2fd" stroke-width=".774"/><path d="M39.391 151.863c-.09 0-.182-.012-.268-.034-.364-.096-.539-.359-.392-.593 3.22-5.02 3.93-5.585 5.105-6.519.446-.354.95-.754 1.707-1.503 1.192-1.186 1.974-1.733 2.492-2.097.646-.454.82-.575 1.074-1.478.375-1.332-1.442-2.42-1.888-2.663-.407-.104-.554-.515-1.578-4.027-.84-2.864-4.435-7.825-8.74-9.304-2.103-.72-4.52-1.765-4.553-3.452-.017-.913.493-1.749.99-2.557l.124-.205c2.517-4.145 3.614-8.62 4.36-12.449.307-1.59.382-3.21.45-4.777.067-1.556.139-3.166.442-4.763.047-.25.404-.427.793-.398.393.03.671.257.625.505-.293 1.556-.364 3.143-.432 4.681-.072 1.588-.143 3.23-.46 4.86-.754 3.885-1.872 8.427-4.442 12.666l-.125.206c-.464.761-.903 1.48-.893 2.218.022 1.208 1.935 2.023 3.802 2.664 4.76 1.63 8.558 6.819 9.469 9.937.739 2.53 1.021 3.29 1.117 3.511.643.352 2.857 1.715 2.353 3.505-.314 1.116-.643 1.381-1.424 1.928-.515.362-1.218.855-2.35 1.977a18.97 18.97 0 01-1.792 1.58c-1.096.87-1.756 1.397-4.898 6.295-.118.18-.386.286-.668.286zm8.811-15.486h.004z" id="path58" fill="#9e4aff" stroke-width=".774"/><path d="M87.068 152.914c-.375 0-.692-.188-.714-.429-.021-.25.282-.465.675-.479l41.086-1.418c.382-.013.732.178.753.43.022.25-.281.466-.675.48l-41.086 1.416h-.039z" id="path60" fill="#9e4aff" stroke-width=".774"/><path d="M172.06 130.457c3.49 9.02 1.818 27.747 1.165 30.938-.653 3.19-3.709 4.718-4.362 7.768-.532 2.48-3.653 4.227-4.806 4.797a1.5 1.5 0 01-.918.107c-4.88-.922-44.685-8.5-45.092-10.453-.439-2.08 1.31-4.994 2.396-8.036.217-.61.403-1.16.557-1.678.621-2.063.796-3.61.97-6.38.218-3.469 3.85-15.91 4.724-19.426.871-3.513 1.742-9.065 2.035-14.243.29-5.181.29-6.476 0-10.176-.293-3.7-1.164-8.324-2.035-9.435-.781-.99-3.938-22.257-4.606-26.773a.324.324 0 01.004-.131c.058-.364.593-.639 1.19-.573 3.234.343 11.563 1.34 15.04 2.78.936.389 1.811.795 2.689 1.2 3.199 1.483 6.416 2.943 12.796 3.38 3.127.215 6.794 1.144 10.335 2.45 5.313 1.963 10.347 4.783 12.85 7.32 4.688 4.744 2.906 11.562 3.273 16.87.272 3.932-.707 8.693.804 12.53.59 1.485-12.496 8.142-9.008 17.164z" id="path62" fill="#c5a2fd" stroke-width=".774"/><path d="M132.453 114.703c-.139 0-.282-.027-.407-.082-.325-.143-.403-.427-.181-.631.828-.76.53-1.295.042-2.176-.6-1.081-1.421-2.56-.136-5.02 1.078-2.06 2.8-3.713 4.313-5.174 1.757-1.69 3.27-3.15 3.649-4.913.328-1.526-.65-3.825-1.592-6.046-1.175-2.767-2.285-5.38-1.08-6.82 1.097-1.307 3.408-2.464 5.642-3.583 1.97-.986 3.831-1.917 4.402-2.742.683-.983-4.59-4.613-9.871-7.414-.304-.16-.343-.447-.093-.64.253-.193.703-.218 1.006-.06 2.771 1.468 11.693 6.42 10.262 8.48-.718 1.031-2.714 2.03-4.823 3.09-2.118 1.06-4.31 2.157-5.267 3.297-.939 1.122.147 3.68 1.196 6.156.982 2.31 1.996 4.696 1.628 6.405-.42 1.966-2.1 3.582-3.873 5.29-1.54 1.483-3.132 3.016-4.153 4.962-1.131 2.163-.464 3.369.125 4.43.528.951 1.028 1.851-.214 2.996-.125.127-.35.195-.575.195z" id="path64" fill="#9e4aff" stroke-width=".774"/><path d="M176.324 83.562c1.164 1.568 15.785 11.114 17.28 18.067 1.497 6.953 6.73 9.56 6.295 18.25-.436 8.69 1.31 11.59-4.798 15.934-6.105 4.345-6.105 8.111-10.469 13.617-4.362 5.503.4 8.11-8.304 11.589-8.704 3.477-12.196-15.064-18.737-18.542-6.544-3.475-2.616-2.975 0-8.729 2.618-5.755 13.521-11.259 13.956-13.287.436-2.029-2.763-4.61-3.487-6.21-.586-1.29-6.106-31.434-6.98-35.218-.871-3.784 4.602-1.39 4.602-1.39z" id="path66" fill="#c5a2fd" stroke-width=".774"/><path d="M154.006 157.093c-.26 0-.51-.09-.638-.247-.015-.016-1.322-1.622-4.317-3.371a45.59 45.59 0 00-1.45-.802c-2.527-1.358-4.713-2.53-3.915-5.812.45-1.863 1.36-2.696 2.323-3.58.99-.906 2.014-1.844 2.831-4.127 1.65-4.601 12.314-22.43 12.768-23.186.139-.234.553-.352.921-.263.367.088.554.352.414.586-.11.183-11.082 18.525-12.707 23.065-.881 2.456-2.03 3.512-3.048 4.443-.904.83-1.686 1.545-2.086 3.2-.67 2.778.96 3.655 3.428 4.982.482.259.982.526 1.496.826 3.199 1.87 4.566 3.557 4.623 3.63.179.225.04.497-.313.611-.108.03-.219.045-.33.045z" id="path68" fill="#9e4aff" stroke-width=".774"/><ellipse cx="85.833" cy="35.726" id="circle70" rx="2.547" ry="1.618" fill="#462917" stroke-width=".774"/><ellipse transform="scale(-1 1)" id="circle72" cx="-113.262" cy="35.726" rx="2.547" ry="1.618" fill="#462917" stroke-width=".774"/></svg>