<svg width="198" height="391" fill="none" xmlns="http://www.w3.org/2000/svg"><path d="M167.435 390.558H22.541l2.56-71.208.073-2.151.018-.449 119.147-5.455 17.11-.781.496 6.644 2.185 29.229.003.044.791 10.618v.004l.349 4.622 2.162 28.883z" fill="#E2B897"/><path d="M98.379 390.558H22.486l1.36-72.368.03-1.444 1.301.449 13.886 4.777 34.498 11.871.056.018 22.85 7.863 1.912 48.834z" fill="#E2B897"/><path d="M113.253 129.05l-41.644 4.888-1.022-28.083-.07-1.934-.133-3.694 34.069-4 2.217-.261 1.865 9.366 4.718 23.718z" fill="#F8BD8C"/><path d="M65.2 124.734s-48.524 20.249-49.87 24.3c-1.35 4.052-6.74 15.525-6.74 15.525s23.585 57.374 17.521 76.95c-6.063 19.575-2.022 51.975-2.022 62.099 0 10.125-4.045 14.177 3.368 16.876 7.413 2.7 31.675 1.352 45.152 0 13.477-1.351 41.111.416 47.174 1.558 6.068 1.142 42.457-4.935 42.457-4.935s4.718-25.649 3.368-38.477c-1.349-12.824.485-43.202.243-47.928-.243-4.725 2.309-6.751.022-18.223-2.287-11.477 9.171-74.251 9.171-74.251l-55.937-20.418-53.907 6.924z" fill="#63C3D1"/><path d="M90.539 122.366l-6.998 23.439-30.792-15.561 7.464-7.878H90.54z" fill="#2A1656"/><path d="M83.88 146.596l-32.043-16.194 8.137-8.589h31.304l-7.398 24.783zm-30.22-16.511l29.543 14.931 6.597-22.098H60.453l-6.792 7.167z" fill="#1D1647"/><path d="M84.537 122.365l9.436 23.439 35.124-24.772-8.387-9.056-36.173 10.389z" fill="#2A1656"/><path d="M93.72 146.659l-9.925-24.654 37.087-10.652 9.05 9.768-36.213 25.538zm-8.443-23.932l8.946 22.227 34.04-24.006-7.73-8.346-35.256 10.125z" fill="#1D1647"/><path d="M32.605 139.061s20.732 8.044 18.831 89.476l75.525-17.362 9.259 38.322s-82.883 35.925-104.394 35.328c-21.512-.6-35.433-98.802-31.002-109.582 4.427-10.777 5.644-26.131 30.954-35.711l.827-.471z" fill="#63C3D1"/><path d="M130.958 213.12l19.456-7.293-4.824 29.428-15.213.762-3.328-20.842 3.909-2.055zm-60.67 12.206l-15.903 3.672-.633-3.864-1.051-6.397 1.088.408 16.5 6.181z" fill="#F8BD8C"/><path d="M157.404 143.296l-12.462 88.828-79.128-10.659-9.348 39.081s107.171 26.058 128.351 18.95c21.185-7.105 11.216-104.813 5.612-117.25-5.612-12.434-9.395-22.161-16.871-24.53-7.479-2.364-16.154 5.58-16.154 5.58z" fill="#63C3D1"/><path d="M108.535 105.332c-1.666 3.826-4.567 7.377-9.06 8.994-9.9 3.561-22.284-3.879-28.888-8.471l-.07-1.934c.57.088 1.217.166 1.945.228 4.361.361 10.87.247 19.059-1.804 5.858-1.466 10.042-3.838 12.936-6.118l2.217-.258 1.861 9.363z" fill="#EAB186"/><path d="M113.356 59.713c1.816 23.008-9.039 42.683-25.906 44.02-16.867 1.337-32.013-16.235-33.83-39.243-1.816-23.008 10.385-42.742 27.252-44.078 16.87-1.334 30.667 16.293 32.484 39.301z" fill="#F8BD8C"/><path d="M90.296 110.178C74.15 112.583 58.323 95.87 54.93 72.891a69.897 69.897 0 01-.621-6.56c3.773 22.331 19.356 38.396 35.205 36.047 14.558-2.159 24.368-19.115 23.67-39.287.081.379.136.755.187 1.134 3.398 22.979-6.927 43.552-23.074 45.953zM66.321 8.858s-.191 17.1 4.06 19.575c4.25 2.475 9.112-2.026 12.973-2.7 3.86-.674 11.671-1.34 17.146 3.437 5.472 4.777 10.171 18.706 10.171 18.706l1.203 4.666s3.199.807 3.537-3.58c.338-4.386-.562-22.783 0-24.58.563-1.801.338-3.599-1.684-5.624-2.022-2.026-4.604-5.175-3.821-6.527.787-1.351 4.156-4.835.898-7.874-3.258-3.039-18.982-4.95-21.901-2.25-2.924 2.7-13.82-7.65-22.582 6.75z" fill="#1A1A1A"/><path d="M63.346 10.15s-15.33 1.687-15.668 15.19c0 0-1.853 3.038-5.56 7.933-3.707 4.894.673 13.163 1.684 18.058 1.011 4.894 3.089 8.942 2.975 10.404-.114 1.462 2.692 4.276 5.222 3.15 2.53-1.124 3.092-4.13 3.092-4.13s.224-19.048 3.034-22.422c2.81-3.374 7.582-6.692 10.332-8.099 2.751-1.407 3.369-4.051 3.369-4.387 0-.338-3.482-18.787-3.482-18.787l-4.998 3.09z" fill="#1A1A1A"/><path d="M59.97 67.985c2.111 4.35 1.34 9.086-1.731 10.582-3.067 1.495-7.266-.822-9.38-5.171-2.111-4.35-1.34-9.086 1.731-10.582 3.07-1.491 7.27.822 9.38 5.171zm59.523-5.948c-.552 4.807-3.747 8.383-7.138 7.992-3.39-.39-5.688-4.603-5.137-9.406.552-4.806 3.747-8.383 7.138-7.992 3.39.39 5.688 4.603 5.137 9.406z" fill="#F8BD8C"/><path d="M73.241 53.338a46.135 46.135 0 00-6.398.847c-2.077.434-4.162 1.06-5.718 2.026l-.077.047a1.748 1.748 0 01-2.412-.567 1.76 1.76 0 01.53-2.394c2.253-1.48 4.566-2.162 6.86-2.74a49.433 49.433 0 016.969-1.134 1.958 1.958 0 01.368 3.9c-.019 0-.033.004-.052.004l-.07.01zm-1.783 8.357c.246 1.675-.695 3.204-2.107 3.414-1.412.21-2.758-.98-3.004-2.656-.247-1.675.695-3.204 2.107-3.414 1.412-.213 2.758.976 3.004 2.656zm19.596-10.489a46 46 0 016.424-.627c2.121-.047 4.295.085 6.027.674l.088.03a1.75 1.75 0 002.221-1.101 1.76 1.76 0 00-1.056-2.21c-2.529-.932-4.938-1.068-7.306-1.109a48.693 48.693 0 00-7.042.479 1.964 1.964 0 00-1.677 2.206 1.956 1.956 0 002.203 1.676c.018-.004.033-.004.051-.007l.067-.011zm3.626 7.734c.14 1.69 1.404 2.965 2.823 2.847 1.424-.118 2.464-1.58 2.325-3.27-.14-1.691-1.405-2.965-2.825-2.848-1.419.118-2.46 1.58-2.324 3.271zM75.304 99.674c.886.604 3.971-.14 4.968-.353 1.699-.361 3.64-1.01 4.707-2.483 1.217-1.686.65-4.224.5-6.15-.044-.549.051-2.066-.405-2.52 0 0 4.454-.67 4.494-.673-.397.059.794 6.346.982 6.858.507 1.37 1.879 2.143 3.232 2.486 1.412.357 2.949.397 4.394.29.357-.025 3.835-.324 3.869-.688-.026.31-.254.556-.467.777-2.27 2.328-4.78 4.416-7.292 6.475 0 0-11.907 1.013-12.242.674-.334-.332-6.725-4.685-6.74-4.693z" fill="#1A1A1A"/><path d="M97.481 83.108c-1.563 2.78-4.88 5.105-9.057 5.911-5.552 1.08-10.73-.81-12.723-4.32 0-.055.056-.107.107-.162a13.92 13.92 0 012.21-1.54l16.308-1.944c1.265.272 2.398.758 3.155 2.055z" fill="#FCFCFC"/><path d="M74.253 101.899c-.35-3.403-1.32-14.29.1-17.531v-.221l.485-.549c.897-.77 1.691-1.322 2.533-1.786 2.644-1.55 5.939-2.446 9.498-2.571a35.944 35.944 0 015.733.195l.46.055c.525.063 1.04.126 1.559.236 1.305.28 2.952.836 4.03 2.692 1.118 1.916 1.599 3.986 2.063 5.99.117.515.239 1.03.367 1.539.78 3.115 1.023 5.753.762 8.301l-2.681-.276c.224-2.228.003-4.567-.695-7.366-.132-.523-.254-1.057-.382-1.591-.438-1.89-.85-3.676-1.766-5.238-.44-.766-1.08-1.16-2.268-1.414-.438-.096-.868-.144-1.302-.195l-.47-.055a33.012 33.012 0 00-5.3-.18c-3.125.11-5.986.876-8.273 2.216-.662.365-1.269.781-1.88 1.286l-.021.03c-.784 1.204-.563 9.321.136 16.149l-2.688.284zm7.7-28.419a.37.37 0 01-.173-.692l2.897-1.547c.923-.49 1.434-1.381 1.306-2.265l-1.471-10.228a.366.366 0 01.312-.416.37.37 0 01.416.313l1.47 10.228c.174 1.197-.492 2.383-1.687 3.02l-2.898 1.547a.41.41 0 01-.172.04z" fill="#1A1A1A"/><path d="M98.503 377.108a.737.737 0 01-.735-.718c-.287-12.195-1.033-32.006-1.831-34.124-2.674-1.595-15.875-5.723-22.585-7.712a.739.739 0 01.419-1.415c.813.244 19.981 5.938 23.096 7.971.485.316 1.092.714 1.816 18.212.35 8.468.552 16.95.556 17.034a.738.738 0 01-.717.755c-.004-.003-.011-.003-.019-.003z" fill="#666B6D"/><path d="M53.44 229.734a.744.744 0 01-.434-.14.743.743 0 01-.301-.56c-.107-2.191-3.052-37.177-3.082-37.53a.735.735 0 111.464-.122c.114 1.341 2.592 30.783 3.026 36.676 4.122-1.105 21.824-5.826 28.91-7.23a.737.737 0 01.287 1.444c-7.954 1.576-29.462 7.381-29.675 7.44a1.221 1.221 0 01-.195.022zm-19.268 54.343c-2.332 0-4.46-.239-6.215-.814-10.55-3.462-17.768-31.862-18.07-33.07a.737.737 0 111.427-.361c.074.287 7.318 28.816 17.103 32.028 9.932 3.26 33.866-5.237 34.105-5.322a.736.736 0 01.942.446.74.74 0 01-.445.943c-.835.298-17.33 6.15-28.847 6.15zm57.647-16.662a.734.734 0 01-.331-1.392l22.382-11.233a.735.735 0 01.659 1.315l-22.383 11.233a.73.73 0 01-.327.077zm52.414-34.919a.736.736 0 01-.728-.854l6.185-38.654a.735.735 0 111.452.232l-6.185 38.654a.737.737 0 01-.724.622zm10.866 47.692c-.037 0-.077-.004-.114-.007l-37.073-5.764a.736.736 0 01.224-1.455l37.073 5.764a.736.736 0 01-.11 1.462z" fill="#1D1647"/></svg>