<svg xmlns="http://www.w3.org/2000/svg" width="251" height="356" version="1.1" id="svg158" fill="none"><path d="M45.606 328.804c5.386 2.368 14.663 2.447 23.645.719l3.822-18.775-26.668-1.128z" id="path2" fill="#f0c093" stroke-width=".666"/><path d="M25.836 337.765c-7.991 3.488-10.302 5.784-11.97 8.767-1.233 2.194-.66 4.017 4.43 4.451 10.198.884 19.84 1.429 26.633.718 3.683-.378 7.783-.875 20.952-6.029 7.679-3.007 5.038-2.644 5.212-16.344-.007-.125-.077-.248-.203-.36a1.566 1.566 0 00-.526-.284 3.217 3.217 0 00-.746-.154 4.002 4.002 0 00-.819.01c-9.086.962-18.675-.64-22.584-1.445a3.836 3.836 0 00-1.55.01 2.326 2.326 0 00-.626.222.912.912 0 00-.36.32c-3.197 5.359-.487 2.558-17.843 10.118z" id="path4" fill="#637690" stroke-width=".666"/><path d="M37.643 352.415a236.9 236.9 0 01-19.475-1.05 12.675 12.675 0 01-2.642-.414c-.805-.222-1.498-.519-2.031-.872-1.199-.852-1.338-2.043-.435-3.653 1.738-3.102 4.187-5.446 12.161-8.95 5.212-2.265 8.687-3.622 10.893-4.514 4.604-1.815 4.604-1.815 6.029-4.324l.642-1.129c.108-.17.293-.33.545-.465a3.52 3.52 0 01.915-.324c.358-.072.746-.11 1.138-.11.392 0 .78.038 1.138.11 3.683.742 13.22 2.368 22.115 1.42a6.112 6.112 0 011.24-.002c.41.04.793.122 1.123.24.322.116.58.265.755.435.174.17.261.355.253.543 0 3.464 0 6.068.174 7.978.278 5.808.312 6.313-5.734 8.681-13.585 5.311-17.685 5.737-21.316 6.116a73.77 73.77 0 01-7.488.284zm-11.17-14.37c-7.714 3.37-10.077 5.618-11.727 8.578-.765 1.365-.695 2.367.208 3.038.404.257.922.472 1.52.632.6.16 1.265.263 1.955.3 8.46.725 19.11 1.467 26.285.725 3.474-.363 7.331-.789 20.57-5.95 5.42-2.123 5.42-2.368 5.211-8.042-.104-1.91-.225-4.522-.173-8.002.008-.067-.022-.134-.086-.194a.744.744 0 00-.28-.153 1.645 1.645 0 00-.409-.094 2.155 2.155 0 00-.459 0c-9.416 1.002-19.37-.687-23.228-1.46a1.907 1.907 0 00-.799 0c-.129.029-.244.07-.336.12a.54.54 0 00-.202.171l-.643 1.121c-1.529 2.699-1.737 2.786-6.567 4.735-2.258.892-5.68 2.234-10.823 4.49z" id="path6" fill="#637690" stroke-width=".666"/><path d="M37.893 351.587c-.903 0-1.737 0-2.727-.047h-.47c-7.54-.252-15.913-.632-19.857-1.933a2.49 2.49 0 01-.681-.275c-.182-.113-.31-.24-.374-.378a.467.467 0 010-.413c.064-.137.192-.265.373-.378.182-.112.415-.206.682-.274.267-.069.564-.11.87-.124.305-.012.613.004.904.05.29.045.556.118.78.213 3.266 1.081 12.96 1.405 17.616 1.579h.487c4.88.251 9.812-.196 14.107-1.279 3.76-1.084 7.28-2.332 10.51-3.725 1.338-.552 2.85-1.168 4.674-1.878.437-.17 1.006-.255 1.581-.235.575.02 1.11.143 1.485.341.375.2.562.458.518.719-.044.261-.315.504-.753.675-1.737.702-3.283 1.301-4.62 1.846-3.403 1.477-7.115 2.798-11.085 3.946-4.264 1.102-9.117 1.646-14.02 1.57z" id="path8" fill="#fff" stroke-width=".666"/><path d="M43.895 343.484c-4.17 0-13.117-.884-15.34-2.572-.115-.092-.147-.2-.089-.302.059-.101.203-.189.401-.243a1.85 1.85 0 01.655-.04c.221.027.41.093.526.182 1.738 1.247 9.538 2.186 13.899 2.186.23 0 .451.042.614.116.163.074.254.174.254.279a.228.228 0 01-.07.157.61.61 0 01-.202.13 1.29 1.29 0 01-.3.084c-.111.019-.23.026-.348.023z" id="path10" fill="#fff" stroke-width=".666"/><path d="M53.603 339.521c-6.515 0-15.636-1.05-18.225-3.093a.3.3 0 01-.108-.147.19.19 0 01.023-.154.419.419 0 01.15-.138.998.998 0 01.257-.102 1.88 1.88 0 01.662-.04c.11.015.214.038.304.07a.78.78 0 01.224.116c2.241 1.784 12.16 2.951 18.832 2.652.23-.01.46.02.64.087.179.067.293.163.316.268.023.104-.047.21-.193.29a1.387 1.387 0 01-.59.144 41.88 41.88 0 01-2.292.047z" id="path12" fill="#fff" stroke-width=".666"/><path d="M59.35 334.758c-4.17 0-13.516-.237-17.373-2.217a.575.575 0 01-.189-.127.222.222 0 01-.066-.15c0-.05.022-.102.066-.15a.576.576 0 01.19-.126c.08-.037.176-.066.282-.086a1.822 1.822 0 01.668 0c.106.02.202.05.283.086 3.474 1.768 12.96 2.044 17.998 1.942.114-.006.23 0 .34.016.109.016.21.042.294.077a.588.588 0 01.2.126c.046.047.07.1.07.152a.21.21 0 01-.053.152.524.524 0 01-.177.131 1.16 1.16 0 01-.275.09 1.802 1.802 0 01-.33.037c-.347.031-1.042.047-1.928.047z" id="path14" fill="#fff" stroke-width=".666"/><path d="M205.767 328.461c-5.837 2.186-15.097 1.855-23.696-.236l-.157-18.853 26.772-.056z" id="path16" fill="#f0c093" stroke-width=".666"/><path d="M223.69 338.194c7.28 3.796 9.138 6.171 10.215 9.21.8 2.232-.122 4.024-5.211 4.26-10.425.467-20.049.624-26.685-.354-3.58-.529-7.575-1.184-19.7-6.85-7.055-3.307-4.5-2.833-2.068-16.486.024-.128.112-.25.257-.36a1.83 1.83 0 01.578-.274c.236-.07.505-.114.784-.13.28-.016.564-.003.83.038 8.86 1.318 18.728.11 22.88-.529.253-.038.522-.05.787-.038.265.014.521.053.75.115.229.062.427.146.578.246.152.1.254.213.3.332 2.05 5.485-.104 2.565 15.705 10.82z" id="path18" fill="#637690" stroke-width=".666"/><path d="M214.982 352.426a97.266 97.266 0 01-13.273-.734c-3.475-.52-7.558-1.113-20.032-6.952-5.558-2.605-5.454-3.07-4.03-8.855.452-1.894 1.094-4.482 1.738-7.94.031-.186.157-.367.368-.529.211-.161.5-.299.848-.401a5.146 5.146 0 011.154-.196c.412-.024.83-.006 1.226.054 8.686 1.294 18.502.063 22.306-.529a5.99 5.99 0 011.135-.04c.38.022.745.08 1.072.171.328.091.61.212.828.355.219.144.368.306.44.477l.417 1.144c.938 2.557.938 2.557 5.212 4.554a261.21 261.21 0 019.971 4.932c7.298 3.803 9.296 6.242 10.425 9.407.59 1.633.208 2.817-1.147 3.622-.6.327-1.345.592-2.186.78-.84.188-1.76.293-2.696.309-4.325.197-9.12.371-13.776.371zm-32.904-24.827c-.2-.003-.396.025-.557.079a.913.913 0 00-.308.14c-.076.059-.12.124-.126.191a108.842 108.842 0 01-1.737 7.963c-1.39 5.666-1.442 5.887 3.474 8.215 12.162 5.697 15.984 6.258 19.336 6.755 6.95 1.034 17.773.718 26.338.332.7-.008 1.39-.083 2.024-.218.635-.136 1.2-.33 1.659-.572 1.042-.615 1.302-1.625.817-3.014-1.078-3.023-2.989-5.35-10.025-9.02-4.69-2.447-7.835-3.946-9.903-4.901-4.517-2.123-4.621-2.217-5.628-4.964-.122-.34-.26-.71-.435-1.144a.375.375 0 00-.158-.178 1.061 1.061 0 00-.311-.13 1.99 1.99 0 00-.799-.04c-3.995.616-14.246 1.903-23.419.53a2.252 2.252 0 00-.242-.024z" id="path20" fill="#637690" stroke-width=".666"/><path d="M215.732 351.553h-3.857c-5.842.05-11.574-.733-16.383-2.241-3.73-1.298-7.173-2.757-10.284-4.357a231.49 231.49 0 00-4.222-2.027 1.567 1.567 0 01-.511-.324.585.585 0 01-.187-.389.554.554 0 01.165-.39c.114-.124.28-.237.493-.33.21-.093.462-.166.738-.214a4.628 4.628 0 011.715.032c.266.058.503.14.697.241 1.737.79 3.04 1.452 4.291 2.052 2.933 1.521 6.193 2.907 9.729 4.135 4.093 1.261 8.956 1.904 13.898 1.84h.469c4.673 0 14.403.094 17.877-.853.245-.078.521-.132.814-.159.292-.027.593-.026.885.002.292.028.567.083.81.162.243.079.446.18.6.296.153.117.252.246.29.38a.478.478 0 01-.068.401c-.083.13-.224.251-.415.356-.19.104-.426.19-.692.25-3.736.963-10.372 1.137-16.852 1.137z" id="path22" fill="#fff" stroke-width=".666"/><path d="M206.245 343.2h-1.634a1.418 1.418 0 01-.595-.143c-.15-.081-.224-.186-.204-.292.03-.103.146-.197.324-.263.177-.066.403-.098.632-.092 4.29.174 12.335-.45 14.211-1.625a.88.88 0 01.247-.107c.097-.028.206-.047.32-.055a1.85 1.85 0 01.34.007c.112.013.218.036.308.068.183.061.305.152.34.254.036.102-.017.206-.148.29-2.241 1.39-9.59 1.957-14.141 1.957z" id="path24" fill="#fff" stroke-width=".666"/><path d="M198.56 338.88a60.611 60.611 0 01-5.056-.198c-.23-.02-.434-.08-.566-.168-.131-.088-.181-.196-.137-.301.043-.105.177-.197.37-.257.194-.06.433-.083.663-.063 6.515.56 16.678-.197 19.267-1.885a.873.873 0 01.238-.11c.096-.028.202-.047.313-.057.112-.009.227-.009.338.002.111.01.216.032.31.061.095.03.176.067.24.111a.345.345 0 01.127.144.19.19 0 01-.005.155.373.373 0 01-.137.143c-2.553 1.689-9.85 2.423-15.966 2.423z" id="path26" fill="#fff" stroke-width=".666"/><path d="M195.503 333.955c-2.154 0-4.307-.063-6.444-.19a1.295 1.295 0 01-.564-.153c-.137-.083-.197-.186-.167-.289a.284.284 0 01.105-.147.751.751 0 01.223-.117c.091-.031.194-.054.306-.067.11-.013.226-.016.34-.008 4.985.308 14.47.41 18.293-1.207.08-.038.177-.067.283-.087a1.823 1.823 0 01.668 0c.106.02.202.05.283.087.16.075.25.175.25.28 0 .104-.09.205-.25.28-3.127 1.326-8.756 1.618-13.326 1.618z" id="path28" fill="#fff" stroke-width=".666"/><path d="M40.27 321.16c-.688-.16-1.265-.403-1.667-.703-.402-.3-.612-.643-.609-.994.608-39.419 2.797-76.612 10.424-112.322 6.098-28.82-2.328-44.114 32.488-79.839 4.482-4.593-2.207-3.409 121.367 2.983 19.11 36.23 36.049 110.333 12.873 190.188-.095.36-.415.7-.924.98-.508.28-1.182.487-1.943.598-11.222 1.642-20.569 2.273-33.511.995-.866-.086-1.648-.296-2.233-.599-.584-.302-.94-.681-1.017-1.083-24.6-131.34-36.117-139.057-36.117-139.057-.021-.047-.076-.089-.157-.12a.85.85 0 00-.287-.046.858.858 0 00-.287.047c-.08.03-.135.072-.155.119-15.636 38.976-37.613 91.542-61.032 139.752-.193.396-.662.753-1.339 1.017-.676.265-1.523.423-2.413.45-11.12.261-24.548-.283-33.46-2.367z" id="path30" fill="#8579b8" stroke-width=".666"/><path d="M191.791 324.093a133.29 133.29 0 01-13.274-.694c-1.043-.108-1.985-.363-2.69-.729-.705-.365-1.137-.823-1.236-1.307-21.734-116.11-33.165-135.475-35.527-138.403-14.542 36.349-36.814 89.775-60.806 139.129-.233.479-.8.91-1.618 1.23-.817.32-1.84.511-2.916.546-13.273.394-25.92-.482-33.825-2.368-.831-.193-1.528-.487-2.013-.85-.484-.362-.738-.778-.732-1.202.521-33.823 2.154-73.629 10.424-112.36 1.476-6.96 2.102-13.085 2.693-19.003 1.841-18.151 3.474-33.808 29.864-60.955.19-.19.347-.363.504-.537 2.97-3.22 2.988-3.22 52.692-.45 16.47.924 39.019 2.178 69.057 3.733h.608l.14.268c21.855 41.597 34.31 116.575 12.89 190.314-.127.43-.52.836-1.137 1.169-.615.332-1.426.579-2.338.71-6.666 1.092-13.677 1.686-20.76 1.76zm-51.616-141.946c1.338 1.176 12.822 14.6 36.154 139.153.06.315.34.614.8.852.459.239 1.073.404 1.754.474 13.098 1.294 22.359.583 33.008-.98.597-.086 1.126-.248 1.53-.465.402-.218.66-.483.746-.765 21.334-73.487 8.999-148.18-12.717-189.754-29.742-1.578-52.12-2.793-68.467-3.701-48.4-2.699-48.418-2.707-50.885 0-.157.174-.313.355-.504.552-26.32 27.006-27.901 42.615-29.725 60.663-.59 5.935-1.216 12.067-2.693 19.05-8.183 38.67-9.816 78.483-10.424 112.29-.01.275.147.546.453.782.307.237.751.43 1.285.56 7.644 1.791 19.944 2.635 32.904 2.249.705-.022 1.375-.146 1.91-.355.536-.21.908-.492 1.06-.805 24.114-49.63 46.491-103.38 61.032-139.737.055-.146.228-.278.485-.37.256-.091.578-.137.905-.127.307-.014.616.021.87.1.255.08.439.199.52.334z" id="path32" fill="#8579b8" stroke-width=".666"/><path d="M138.558 180.152a2.68 2.68 0 01-.677-.087 1.325 1.325 0 01-.489-.223c-.116-.093-.175-.198-.171-.305-.069-3.125-1.852-6.193-5.19-8.925-3.336-2.733-8.12-5.044-13.921-6.725a.943.943 0 01-.248-.105.374.374 0 01-.14-.14.185.185 0 01-.011-.155c.02-.051.06-.1.121-.144.125-.088.32-.15.543-.173.224-.024.458-.007.655.047 5.957 1.726 10.89 4.09 14.365 6.885 3.475 2.794 5.385 5.934 5.562 9.143a346.185 346.185 0 0014.82-4.088 1.81 1.81 0 01.622-.035c.21.024.393.082.512.164.12.083.168.182.135.279-.034.097-.145.185-.314.247a338.018 338.018 0 01-15.496 4.261 2.682 2.682 0 01-.678.08z" id="path34" fill="#625b81" stroke-width=".666"/><path d="M141.314 175.743a1.855 1.855 0 01-.339-.034 1.235 1.235 0 01-.283-.09.556.556 0 01-.187-.132.225.225 0 01-.06-.155c2.466-19.99.417-29.104-1.39-37.154-.903-4-1.738-7.78-2.033-12.547.004-.103.094-.202.252-.277a1.552 1.552 0 011.205-.01c.164.072.263.168.28.271.278 4.735 1.112 8.5 2.015 12.485 1.825 8.073 3.875 17.227 1.408 37.272-.013.1-.11.195-.272.264a1.56 1.56 0 01-.596.107z" id="path36" fill="#625b81" stroke-width=".666"/><path d="M179.386 318.57c-.225 0-.44-.039-.603-.11-.16-.07-.256-.166-.266-.268-.886-10.441-1.337-19.311-1.736-27.14-1.738-33.72-2.555-50.656-32.071-107.925-.053-.102-.014-.208.106-.297s.313-.152.536-.177c.113-.013.229-.015.342-.008.115.008.225.026.323.053a.966.966 0 01.252.105.39.39 0 01.144.142c29.533 57.356 30.402 74.307 32.104 108.115.383 7.82.835 16.69 1.738 27.123a.21.21 0 01-.053.153.52.52 0 01-.177.13c-.078.04-.17.07-.274.092a1.77 1.77 0 01-.33.036z" id="path38" fill="#8579b8" stroke-width=".666"/><path d="M142.71 165.037c-.147 0-.293-.018-.417-.056-.2-.051-.347-.136-.408-.237-.062-.1-.034-.208.078-.3 1.338-1.057 2.954-2.201 4.5-3.306 1.547-1.105 3.144-2.226 4.465-3.267.989-.728 1.798-1.504 2.414-2.312.493-.89.745-1.805.748-2.723.59-6.242-.834-12.927-2.068-18.814-.208-.962-.4-1.917-.59-2.848a.206.206 0 01.036-.154.474.474 0 01.163-.136 1.07 1.07 0 01.264-.097 1.836 1.836 0 01.665-.027c.11.016.211.04.3.074.087.033.16.074.213.12a.273.273 0 01.096.149c.191.93.4 1.878.59 2.84 1.251 5.92 2.676 12.627 2.086 18.94-.007.985-.282 1.966-.817 2.92-.643.868-1.512 1.697-2.589 2.47-1.32 1.066-2.936 2.202-4.5 3.307-1.563 1.105-3.144 2.233-4.447 3.275a.961.961 0 01-.337.14 1.93 1.93 0 01-.444.042z" id="path40" fill="#625b81" stroke-width=".666"/><path d="M59.817 156.873a1.83 1.83 0 01-.34-.012 1.475 1.475 0 01-.305-.07.762.762 0 01-.222-.118.293.293 0 01-.106-.147.193.193 0 01.026-.155.432.432 0 01.154-.138c.071-.041.16-.076.26-.101.1-.026.21-.042.324-.048l4.03-.442c8.548-.916 8.548-.916 10.425-3.725 2.293-3.267 4.239-6.314 6.306-9.47 1.077-1.65 2.154-3.322 3.318-5.074a.453.453 0 01.163-.143c.074-.042.166-.077.27-.103a1.985 1.985 0 01.688-.035c.114.016.22.04.313.074.093.034.17.076.227.123a.3.3 0 01.107.153.2.2 0 01-.03.16c-1.164 1.744-2.242 3.416-3.319 5.066-2.067 3.196-4.013 6.21-6.324 9.47-2.206 3.156-2.536 3.26-11.761 4.253l-4.013.434z" id="path42" fill="#625b81" stroke-width=".666"/><path d="M117.982 42.727c.243 8.452 6.411 14.726-27.797 22.04 20.379 12.738 40.445 17.45 40.445 17.45s42.946-8.784 57.695-14.592c-7.678-2.541-15.636-4.435-22.776-6.692-13.898-4.467-5.733-14.387-8.46-18.049z" id="path44" fill="#f0c093" stroke-width=".666"/><path d="M160.95 58.842c-3.77-2.51-3.996-5.398-3.77-9.407-17.981 5.769-26.615 3.117-37.96-.663 16.279 10.67 25.852 6.74 41.73 10.07z" id="path46" fill="#dc8f64" stroke-width=".666"/><path d="M30.987 93.401c14.316-37.398 71.23-31.993 53.37.702-14.49 26.587-16.417 32.356-26.702 37.39-6.95 3.418-24.427 7.016-33.009 2.842-7.748-3.749-2.137-12.824-1.077-17.18 1.894-7.916 4.413-15.87 7.418-23.754z" id="path48" fill="#637690" stroke-width=".666"/><path d="M35.06 136.611a30.357 30.357 0 01-5.983-.463c-1.9-.345-3.614-.87-5.032-1.541-6.514-3.157-4.1-9.683-2.328-14.457.4-1.121.8-2.186 1.008-3.03 1.876-7.734 4.395-15.737 7.47-23.778 5.316-13.92 17.286-23.588 32.001-25.861 2.847-.48 5.934-.586 8.907-.307 2.974.28 5.715.932 7.91 1.885 10.181 4.246 12.526 13.653 6.255 25.15-1.946 3.568-3.666 6.772-5.212 9.636-9.972 18.538-12.648 23.517-21.699 27.929-4.812 2.367-14.593 4.837-23.245 4.845zM31.846 93.46c-3.075 8.026-5.594 16.012-7.47 23.73-.209.868-.609 1.942-1.025 3.07-1.738 4.617-4.049 10.93 1.876 13.795 1.264.587 2.787 1.047 4.47 1.349a27.09 27.09 0 005.293.402c8.218 0 17.373-2.367 22.012-4.593 8.686-4.261 11.414-9.201 21.3-27.573 1.545-2.872 3.265-6.068 5.211-9.643 7.192-13.21 1.737-21.253-5.75-24.378-1.97-.853-4.43-1.437-7.096-1.685a31.212 31.212 0 00-7.984.28c-10.893 1.682-24.704 9.194-30.837 25.254z" id="path50" fill="#637690" stroke-width=".666"/><path d="M40.543 87.712a1.803 1.803 0 01-.342-.034 1.23 1.23 0 01-.286-.092.554.554 0 01-.185-.135.216.216 0 01-.055-.157c.52-4.814 5.976-9.817 16.243-14.86.163-.073.38-.113.608-.113.228 0 .446.04.608.113.082.037.146.08.19.128.045.048.067.1.067.152a.226.226 0 01-.067.152.588.588 0 01-.19.128c-9.972 4.901-15.288 9.739-15.774 14.363-.024.093-.119.18-.268.244a1.542 1.542 0 01-.549.111z" id="path52" fill="#637690" stroke-width=".666"/><path d="M48.125 124.983a1.418 1.418 0 01-.26 0c-4.544-.672-8.57-1.922-11.602-3.6-3.032-1.677-4.944-3.714-5.51-5.87a.196.196 0 01.032-.154.453.453 0 01.16-.136 1.07 1.07 0 01.263-.098 1.89 1.89 0 01.665-.03c.11.014.212.04.3.072a.731.731 0 01.217.12.279.279 0 01.1.147c.529 2.003 2.308 3.894 5.128 5.452 2.82 1.558 6.562 2.717 10.785 3.34.22.033.402.103.509.195.107.093.13.202.064.302a.67.67 0 01-.332.193 1.72 1.72 0 01-.519.067z" id="path54" fill="#637690" stroke-width=".666"/><path d="M241.493 92.925c-13.898-36.207-70.916-31.03-53.37.694 14.681 26.57 16.418 32.356 26.703 37.399 6.95 3.409 18.832 7.007 27.467 2.84 7.748-3.748 2.137-12.824 1.076-17.18-1.928-7.954 1.165-15.87-1.876-23.753z" id="path56" fill="#637690" stroke-width=".666"/><path d="M233.25 136.138c-8.235 0-16.07-3.393-19.11-4.845-8.808-4.293-11.344-8.989-20.848-26.445a884.528 884.528 0 00-6.08-11.12c-6.097-11.047-3.787-20.107 6.185-24.281 2.248-.979 5.055-1.65 8.103-1.937 3.047-.288 6.212-.18 9.131.31 14.646 2.25 26.459 11.61 31.653 25.049 1.738 4.364 1.494 8.799 1.32 13.092a38.171 38.171 0 00.574 10.677c.209.852.59 1.91 1.008 3.03 1.737 4.775 4.186 11.31-2.329 14.466-1.2.622-2.677 1.122-4.332 1.468a26.642 26.642 0 01-5.275.536zM204.81 68.16c-3.792.007-7.435.674-10.18 1.863-9.485 3.945-11.604 12.768-5.663 23.508 2.328 4.207 4.325 7.892 6.08 11.128 9.399 17.298 11.918 21.946 20.43 26.097 2.815 1.373 10.216 4.585 17.756 4.593a23.23 23.23 0 004.627-.465c1.453-.302 2.748-.74 3.799-1.287 5.924-2.873 3.596-9.186 1.893-13.794-.434-1.137-.816-2.202-1.042-3.078a38.935 38.935 0 01-.573-10.78c.173-4.253.364-8.68-1.303-12.942-5.959-15.476-19.666-22.767-30.49-24.464a35.541 35.541 0 00-5.333-.379z" id="path58" fill="#637690" stroke-width=".666"/><path d="M234.241 118.55a1.557 1.557 0 01-.434-.055 1.06 1.06 0 01-.257-.1.42.42 0 01-.15-.139.186.186 0 01-.02-.153.308.308 0 01.114-.145c3.227-2.589 4.679-5.557 4.17-8.523-.02-.104.055-.208.205-.288.15-.08.363-.13.593-.138.231-.009.459.025.635.093s.285.165.304.27c.541 3.127-.996 6.255-4.413 8.98a.89.89 0 01-.316.145c-.13.034-.28.053-.431.053z" id="path60" fill="#637690" stroke-width=".666"/><path d="M225.277 85.436a1.58 1.58 0 01-.565-.098c-.155-.062-.258-.148-.287-.241-1.349-4.066-5.183-7.877-11.066-11.001a.583.583 0 01-.19-.127.224.224 0 01-.065-.15c0-.05.022-.102.065-.15a.583.583 0 01.19-.126c.176-.067.404-.101.635-.094.23.007.445.056.599.134 6.094 3.239 10.066 7.19 11.466 11.403.03.104-.03.208-.165.292-.136.084-.339.14-.565.158z" id="path62" fill="#637690" stroke-width=".666"/><path d="M115.273 56.193c10.546 7.89 34.12 6.55 43.433.481 11.38 6.131 28.196 7.734 42.129 11.245 0 22.965 9.85 52.085 6.95 68.341-.12.673-.713 1.31-1.688 1.818s-2.284.862-3.733 1.008c-49.043 5.074-83.65 6.51-129.532 2.47-1.51-.131-2.88-.486-3.9-1.008-1.018-.523-1.626-1.184-1.73-1.88-3.839-24.993-2.015-57.948 2.971-70.97 13.152-3.535 28.7-4.537 45.1-11.505z" id="path64" fill="#637690" stroke-width=".666"/><path d="M123.652 144.286a571.754 571.754 0 01-50.937-2.328c-1.698-.15-3.24-.549-4.386-1.137-1.147-.588-1.834-1.33-1.955-2.114-3.7-24.054-2.294-57.262 2.988-71.025v-.181l.347-.087a197.63 197.63 0 0114.298-3.093c9.816-1.871 19.944-3.812 30.646-8.366l.781-.33.556.417c2.042 1.58 4.945 2.895 8.428 3.818 3.484.924 7.432 1.424 11.464 1.454 4.261.069 8.496-.333 12.34-1.171 3.843-.84 7.18-2.09 9.724-3.643l.643-.419.73.395c7.766 4.183 18.293 6.258 28.457 8.263 4.5.891 9.138 1.807 13.43 2.888l.45.11v.237c0 10.472 2.033 22.16 3.997 33.469 2.327 13.415 4.534 26.042 2.97 34.904-.145.752-.814 1.464-1.912 2.032-1.096.567-2.562.962-4.185 1.125-28.353 2.888-52.953 4.782-78.874 4.782zm-52.64-76.328c-5.212 13.858-6.584 46.798-2.901 70.693.094.61.628 1.19 1.52 1.648.892.457 2.092.769 3.414.886 47.55 4.19 83.39 2.272 129.167-2.47 1.27-.127 2.415-.435 3.27-.88.853-.445 1.37-1.002 1.473-1.59 1.564-8.816-.642-21.426-2.97-34.787-1.946-11.23-3.979-22.846-3.996-33.294-4.1-1.01-8.53-1.887-12.839-2.739-10.041-1.98-20.43-4.033-28.37-8.104-2.754 1.535-6.252 2.762-10.22 3.583-3.97.821-8.301 1.215-12.66 1.152-4.16-.024-8.241-.515-11.88-1.43-3.638-.917-6.72-2.229-8.967-3.819-10.667 4.42-21.126 6.424-30.386 8.192a206.778 206.778 0 00-13.655 2.96z" id="path66" fill="#637690" stroke-width=".666"/><path d="M134.893 67.61c0 .168-.11.333-.318.474-.206.14-.5.25-.845.314a4.04 4.04 0 01-1.085.046 3.02 3.02 0 01-.96-.235c-.262-.12-.44-.272-.51-.438-.071-.166-.03-.338.114-.493.144-.156.387-.289.698-.381.31-.093.675-.141 1.048-.14.245 0 .488.022.714.065.227.043.433.106.606.185.172.08.31.174.402.277a.477.477 0 01.136.325z" id="path68" fill="#3b3348" stroke-width=".666"/><path d="M134.119 80.045c1.037 0 1.876-.382 1.876-.853 0-.47-.84-.852-1.876-.852s-1.877.381-1.877.852.84.853 1.877.853z" id="path70" fill="#3b3348" stroke-width=".666"/><path d="M136.995 90.775c0 .168-.111.333-.317.473-.207.14-.5.25-.842.314-.343.065-.72.081-1.084.049a3.034 3.034 0 01-.96-.234c-.263-.12-.442-.27-.514-.436-.073-.165-.035-.337.106-.493.142-.155.383-.288.692-.382a3.656 3.656 0 011.042-.143c.497 0 .974.089 1.327.249.352.16.55.377.55.603z" id="path72" fill="#3b3348" stroke-width=".666"/><path d="M136.207 102.357c0 .169-.11.333-.318.474-.206.14-.5.25-.845.314a4.02 4.02 0 01-1.086.047 3.007 3.007 0 01-.96-.236c-.261-.12-.44-.272-.51-.438-.07-.166-.03-.337.114-.493.145-.155.388-.288.699-.38.31-.094.675-.142 1.047-.14.245 0 .489.021.715.064.227.043.433.106.606.186.172.079.31.173.402.276a.478.478 0 01.136.326z" id="path74" fill="#3b3348" stroke-width=".666"/><path d="M134.577 114.26c0 .169-.11.334-.316.474-.206.14-.499.249-.842.314a4.01 4.01 0 01-1.084.048 3.028 3.028 0 01-.96-.233c-.263-.119-.442-.271-.514-.436-.072-.166-.035-.337.107-.493.142-.156.383-.289.691-.382a3.65 3.65 0 011.042-.144c.498 0 .975.09 1.327.25.351.16.55.376.55.602z" id="path76" fill="#3b3348" stroke-width=".666"/><path d="M133.054 126.028c0 .168-.11.333-.316.473-.206.14-.5.25-.842.314a4.03 4.03 0 01-1.084.049 3.032 3.032 0 01-.96-.234c-.263-.119-.441-.27-.514-.436-.073-.165-.035-.337.106-.492.143-.156.383-.29.691-.383a3.656 3.656 0 011.043-.144c.498 0 .975.09 1.327.25s.55.377.55.603z" id="path78" fill="#3b3348" stroke-width=".666"/><path d="M132.648 139.896c1.037 0 1.877-.382 1.877-.852 0-.471-.84-.853-1.877-.853-1.036 0-1.876.382-1.876.853 0 .47.84.852 1.876.852z" id="path80" fill="#3b3348" stroke-width=".666"/><path d="M153.533 93.351c0 .607.33.734 1.13.79 6.822.083 13.631.018 20.43-.198 2.693-.087 1.946-6.495 1.737-7.892-.139-.686-17.199-.584-22.793.663a28.676 28.676 0 00-.504 6.637z" id="path82" fill="#637690" stroke-width=".666"/><path d="M160.543 94.525h-5.855c-1.946 0-1.963-.591-1.98-1.144-.116-2.232.03-4.466.434-6.692v-.221l.435-.095c5.35-1.191 20.847-1.412 23.349-.789.187.04.35.1.47.176.123.077.2.165.225.258 0 .063 1.216 6.685-1.234 7.994a2.093 2.093 0 01-.547.21 3.46 3.46 0 01-.686.09 496.92 496.92 0 01-14.611.213zm-5.994-.828h.191c6.758.087 13.603 0 20.344-.197 1.182-.292 1.477-4.215.886-7.292-2.102-.363-15.636-.324-21.143.75-.121.662-.47 2.817-.382 6.376a.758.758 0 000 .355z" id="path84" fill="#637690" stroke-width=".666"/><path d="M153.964 86.35l-.139-1.846c0-.387 22.88-.892 22.915-.205v1.413c.052.355-22.725 1.325-22.776.639z" id="path86" fill="#637690" stroke-width=".666"/><path d="M157.431 86.997c-3.283 0-4.308-.165-4.343-.623l-.157-2.075.505-.159c1.616-.45 21.194-.86 23.523-.284.183.041.338.104.449.182.11.078.171.168.176.26v1.413c0 .379 0 .552-7.157.908-3.962.189-8.375.33-11.502.37zm-2.623-.852c2.744.276 18.085-.308 21.091-.679v-.954c-2.641-.324-18.103-.048-21.16.252z" id="path88" fill="#637690" stroke-width=".666"/><path d="M127.88 67.655a2.82 2.82 0 01-.747-.095c-7.75-2.17-14.29-5.125-19.11-8.633-.127-.088-.17-.195-.124-.298.047-.103.183-.193.376-.25.193-.058.43-.079.656-.057.226.021.424.083.552.171 4.6 3.361 10.82 6.205 18.19 8.317 1.445-1.882 3.822-3.588 6.948-4.987.208-.087.481-.135.764-.135.284 0 .557.048.765.135 3.393 1.332 6.215 2.937 8.322 4.735 7.598-1.886 14.356-4.399 19.926-7.41.15-.08.363-.129.593-.137.23-.008.457.025.632.094.175.067.283.164.302.269.018.104-.056.207-.206.287-5.775 3.117-12.788 5.714-20.674 7.654a3.304 3.304 0 01-1.146 0 2.305 2.305 0 01-.514-.132c-.15-.06-.27-.133-.355-.214-1.92-1.678-4.505-3.178-7.627-4.428-2.798 1.312-4.922 2.888-6.22 4.617a.862.862 0 01-.343.257 2.125 2.125 0 01-.56.161 2.223 2.223 0 01-.4.079z" id="path90" fill="#3b3348" stroke-width=".666"/><path d="M137.281 142.447a1.523 1.523 0 01-.572-.099c-.158-.064-.257-.152-.279-.248-3.197-12.942-1.91-20.242-.4-28.686 1.842-10.322 4.118-23.17-1.442-51.343-.02-.104.051-.209.2-.289.148-.08.361-.131.59-.14.232-.01.46.023.639.09.177.067.288.164.309.268 5.576 28.236 3.284 41.124 1.424 51.477-1.493 8.405-2.779 15.665.4 28.537.024.103-.042.206-.185.288a1.36 1.36 0 01-.58.145z" id="path92" fill="#3b3348" stroke-width=".666"/><path d="M185.05 117.914a43.888 43.888 0 01-6.654.79c9.364-7.632 55.594-.948 44.648.568-4.812.639-23.193-3.599-37.994-1.358z" id="path94" fill="#dc8f64" stroke-width=".666"/><path d="M170.193 115.085c-4.95.6-9.711 1.468-14.662 2.067-16.331 1.98-33.738.955-50.382 2.297.353 3.357 1.836 6.67 4.396 9.825a957.059 957.059 0 0043.189-4.79 76.144 76.144 0 019.399-.876c6.95-.071 15.219 2.004 32.921 1.405 5.56-.19 6.342-2.368.33-2.487-11.552-.292-13.047-.07-12.855-1.238 1.233-8.019 33.286-2.66 38.36-5.051 6.375-2.983-34.07-3.173-50.696-1.152z" id="path96" fill="#f0c093" stroke-width=".666"/><path d="M145.23 129.072c-37.09 5.524-99.408 11.593-111.447 9.517-6.654-1.144-10.737-4.261-12.457-7.394-5.212-9.47 11.588-11.57 87.577-14.205 30.264-1.01 32.383-4.19 36.327 12.082z" id="path98" fill="#637690" stroke-width=".666"/><path d="M41.432 139.404c-2.699.054-5.4-.095-7.991-.442-6.167-1.065-10.893-3.859-12.995-7.67-1.564-2.85-1.06-4.94 1.564-6.59 7.331-4.609 32.696-6.219 86.864-8.081 4.726-.158 8.687-.371 12.161-.56 8.791-.466 14.09-.742 17.651.552 4.118 1.484 5.56 4.877 7.367 12.414v.323l-.678.095c-30.316 4.538-82.07 9.959-103.943 9.959zm89.697-22.94c-3.308.048-6.608.177-9.885.386-3.475.19-7.54.402-12.3.56-53.543 1.839-78.595 3.393-85.527 7.75-2.328 1.468-2.728 3.298-1.286 5.942.938 1.68 3.944 5.745 11.918 7.102 11.17 1.926 71.23-3.661 110.214-9.422-1.737-6.953-3.092-10.26-6.653-11.57-1.907-.58-4.196-.845-6.48-.749z" id="path100" fill="#637690" stroke-width=".666"/><path d="M122.565 124.138c-3.196-3.528-3.822-9.47-3.475-9.423-8.825-.931-14.384 5.248-22.01-.955-3.041-2.699-28.336-11.514-23.854-7.465 1.737 1.5 6.115 4.08 4.013 3.488-14.68-4.19-30.646-10.457-28.84-7.474.783 1.295 21.179 8.87 19.111 8.279-.469-.135-24.322-7.632-24.808-7.608-7.68.245 7.296 4.782 20.1 9.534 1.616.607-22.793-5.848-22.81-5.848-5.004.986 2.745 2.714 23.158 9.178 2.762.876-24.08-6.385-19.962-2.423 24.722 8.207 39.68 10.314 45.17 10.843 2.484.624 34.207-.126 34.207-.126z" id="path102" fill="#f0c093" stroke-width=".666"/><path d="M64.55 115.772c3.084.86 6.409 1.529 9.884 1.988 1.911.252.313 1.578-10.597-1.46-.155-.043-.265-.112-.307-.192-.043-.08-.014-.164.08-.234a.9.9 0 01.423-.14 1.41 1.41 0 01.516.038z" id="path104" fill="#f0c093" stroke-width=".666"/><path d="M65.874 112.806c3.695 1.21 7.804 2.134 12.161 2.738a.7.7 0 01.35.157c.072.07.083.15.034.223-.049.074-.156.137-.3.177-.144.04-.316.056-.484.043-13.985-1.934-13.776-4.002-11.761-3.338z" id="path106" fill="#f0c093" stroke-width=".666"/><path d="M70.211 110.947c2.414 1.172 5.677 1.909 9.19 2.076.166.017.312.06.41.123.1.063.145.14.128.216-.017.077-.095.148-.22.2a1.257 1.257 0 01-.457.084c-3.845-.183-7.417-.99-10.058-2.273-.097-.062-.14-.138-.123-.214.018-.076.095-.146.218-.198.122-.052.283-.082.45-.085a1.32 1.32 0 01.462.071z" id="path108" fill="#f0c093" stroke-width=".666"/><path d="M78.652 110.76c-.074-.068-.091-.147-.047-.22.043-.075.145-.14.285-.182.14-.042.31-.06.477-.05.168.01.321.047.432.105 2.256 1.376 5.578 2.313 9.294 2.62a1.3 1.3 0 01.248.043.74.74 0 01.192.083.29.29 0 01.109.109c.02.04.022.08.008.12a.256.256 0 01-.095.113.653.653 0 01-.181.087c-.073.024-.155.04-.242.05-.087.008-.177.01-.264.003-4.091-.331-7.747-1.362-10.216-2.88z" id="path110" fill="#f0c093" stroke-width=".666"/><path d="M101.033 125.526c.035.312.278.61.697.857.42.247.994.43 1.648.524 37.803 5.587 112.924 12.753 125.085 11.285 7.262-.876 16.626-3.48 17.217-7.102 2.658-16.43-108.007-18.94-137.368-18.206a6.652 6.652 0 00-1.568.243c-.473.138-.864.325-1.142.546-5.073 3.843-5.143 7.363-4.57 11.853z" id="path112" fill="#637690" stroke-width=".666"/><path d="M223.86 138.771c-20.848 0-86.257-6.377-120.83-11.483-.819-.122-1.538-.354-2.062-.665-.524-.311-.829-.687-.873-1.078-.487-4.412-.452-8.105 4.743-12.09.358-.278.863-.512 1.47-.678a8.347 8.347 0 012.005-.277c22.254-.584 108.372.789 132.19 11.837 2.064.862 3.681 1.922 4.735 3.102 1.055 1.18 1.52 2.452 1.363 3.724-.608 3.71-9.677 6.464-17.86 7.442-1.605.15-3.245.205-4.881.166zm-104.916-25.577c-4.308 0-7.921 0-10.598.11a4.911 4.911 0 00-1.162.171c-.351.1-.644.236-.853.398-4.95 3.803-4.985 7.229-4.499 11.648.027.232.207.454.517.639.31.184.735.322 1.22.395 37.821 5.587 112.56 12.729 124.651 11.277 6.342-.79 16-3.157 16.574-6.748.127-1.157-.309-2.312-1.276-3.384-.966-1.072-2.44-2.034-4.318-2.818-20.57-9.51-88.984-11.688-120.256-11.688z" id="path114" fill="#637690" stroke-width=".666"/><path d="M178.783 123.494a1.84 1.84 0 01-.344-.028 1.227 1.227 0 01-.288-.09.527.527 0 01-.186-.135.204.204 0 01-.05-.157c.277-2.794-5.821-4.183-11.727-5.524-2.738-.553-5.307-1.264-7.644-2.115a.581.581 0 01-.19-.128.226.226 0 01-.067-.152c0-.052.022-.104.066-.152a.581.581 0 01.19-.129c.166-.072.387-.113.618-.113.23 0 .45.041.616.113 2.217.802 4.651 1.47 7.244 1.99 6.098 1.396 12.996 2.975 12.682 6.313-.048.092-.167.174-.336.23a1.718 1.718 0 01-.584.077z" id="path116" fill="#637690" stroke-width=".666"/><path d="M220.037 136.312c-5.96 0-12.803-.789-20.17-1.578a762.551 762.551 0 00-5.942-.647 1.553 1.553 0 01-.31-.062.805.805 0 01-.232-.113.309.309 0 01-.117-.144.188.188 0 01.017-.155.343.343 0 01.131-.14.878.878 0 01.243-.105 1.79 1.79 0 01.65-.047c2.016.206 4.014.427 5.96.64 13.725 1.515 25.573 2.825 32.487-.734.166-.073.387-.114.617-.114.23 0 .452.041.617.114a.59.59 0 01.19.128c.044.048.067.1.067.152a.226.226 0 01-.067.152.59.59 0 01-.19.128c-3.614 1.87-8.392 2.525-13.951 2.525z" id="path118" fill="#637690" stroke-width=".666"/><path d="M41.964 135.649c-2.488-.05-4.853-.508-6.657-1.288-1.804-.78-2.926-1.831-3.159-2.958-.764-2.288 1.408-5.445 10.042-6.802a1.84 1.84 0 01.658.02c.205.046.361.126.437.224.072.1.057.208-.044.302-.1.095-.278.168-.495.204-7.627 1.191-9.538 3.945-8.878 5.934.191.937 1.114 1.813 2.602 2.469 1.488.655 3.443 1.048 5.512 1.106.115 0 .23.012.335.033.106.022.2.052.28.09.08.039.141.084.182.133.04.05.058.102.054.154-.01.102-.105.199-.267.269a1.56 1.56 0 01-.602.11z" id="path120" fill="#637690" stroke-width=".666"/><path d="M127.45 51.598c6.613 2.037 14.454 2.363 22.343.618 9.67-2.139 23.833-11.99 19.796-26.294-5.065-17.972-62.007-18.13-60.039 5.876.536 6.548 5.832 16.099 17.9 19.8z" id="path122" fill="#f0c093" stroke-width=".666"/><path d="M147.012 28.814c1.678.658 6.656.184 9.377.342 1.345.079 5.036.776 6.208.585 3.589-.585-8.842-3.07-15.267-1.972-.198.05-.368.119-.495.203-.129.085-.211.182-.242.283a.329.329 0 00.063.302.888.888 0 00.356.257z" id="path124" fill="#382823" stroke-width=".666"/><path d="M132.558 27.691c-6.497-1.012-18.725 1.736-15.079 2.255 1.188.17 4.805-.605 6.15-.703 2.692-.21 7.728.19 9.334-.52a.798.798 0 00.327-.261.318.318 0 00.035-.3.607.607 0 00-.261-.277 1.727 1.727 0 00-.506-.194z" id="path126" fill="#382823" stroke-width=".666"/><path d="M173.071 32.214c-5.933-.796-6.309 4.85-6.324 7.651.03 5.529 15.73-6.402 6.324-7.651z" id="path128" fill="#f0c093" stroke-width=".666"/><path d="M171.887 34.97a.19.19 0 00-.073-.077.493.493 0 00-.137-.058.99.99 0 00-.361-.02.727.727 0 00-.163.041.34.34 0 00-.112.067.125.125 0 00-.043.083.12.12 0 00.035.083c1.042 1.551 0 2.458-1.447 2.813-.103.027-.18.07-.212.122-.033.052-.019.107.038.154.781.651 3.965-.992 2.475-3.208z" id="path130" fill="#d67f54" stroke-width=".666"/><path d="M106.882 32.119c5.933-.796 6.31 4.851 6.323 7.658.03 5.522-15.671-6.41-6.323-7.658z" id="path132" fill="#f0c093" stroke-width=".666"/><path d="M108.133 34.897a.433.433 0 01.223-.106.957.957 0 01.321-.01.563.563 0 01.254.09c.058.043.077.094.056.144-1.057 1.551 0 2.465 1.447 2.813.052.013.099.03.137.05a.227.227 0 01.08.071.09.09 0 01.013.08.155.155 0 01-.057.075c-.84.651-3.98-.986-2.475-3.207z" id="path134" fill="#d67f54" stroke-width=".666"/><path d="M153.753 34.592c1.939 0 3.459-3.36-1.258-3.36-2.562 0-1.926 3.36 1.258 3.36z" id="path136" fill="#382823" stroke-width=".666"/><path d="M124.89 34.721c-1.953 0-3.473-3.359 1.244-3.359 2.518-.013 1.94 3.36-1.244 3.36z" id="path138" fill="#382823" stroke-width=".666"/><path d="M142.567 40.061c.203-.375-1.201-.407-2.07-.5-3.212-.321-3.356.388-1.866-5.725.29-1.196.739-1.84-.203-1.873-.94-.033-.65.453-.983 1.814-1.62 6.646-1.65 5.824 4.341 6.481a1.303 1.303 0 00.486-.02.712.712 0 00.188-.075.281.281 0 00.107-.102z" id="path140" fill="#d67f54" stroke-width=".666"/><path d="M146.204 44.698c.477-.658-.984-.388-14.196.072-3.806.138 9.87 5.83 14.196-.072z" id="path142" fill="#fff" stroke-width=".666"/><path d="M126.202 26.304c2.524 0 4.97.456 6.92 1.29 1.951.834 3.287 1.995 3.78 3.285.492 1.29.11 2.63-1.079 3.79-1.19 1.16-3.115 2.068-5.447 2.571-2.33.504-4.925.57-7.34.188-2.415-.382-4.502-1.189-5.903-2.283-1.401-1.093-2.032-2.407-1.784-3.716.249-1.308 1.36-2.532 3.145-3.462 1.013-.528 2.215-.947 3.539-1.233a19.88 19.88 0 014.176-.43zm6.414 2.346c-1.484-.773-3.436-1.255-5.524-1.362-2.089-.107-4.183.166-5.928.774-1.745.607-3.032 1.511-3.641 2.558-.609 1.046-.503 2.17.3 3.18.802 1.01 2.253 1.845 4.103 2.36 1.85.516 3.987.681 6.045.468 2.057-.213 3.91-.792 5.242-1.637 1.33-.846 2.058-1.905 2.059-2.999.004-.62-.228-1.235-.68-1.808-.455-.574-1.12-1.095-1.961-1.534z" id="path144" clip-rule="evenodd" fill="#2e1e11" fill-rule="evenodd" stroke-width=".666"/><path d="M154.207 26.304c2.524 0 4.969.457 6.918 1.292 1.95.835 3.285 1.996 3.775 3.286.491 1.29.109 2.629-1.081 3.788-1.19 1.16-3.116 2.068-5.448 2.571-2.332.503-4.926.569-7.34.186-2.415-.382-4.5-1.189-5.901-2.282-1.401-1.094-2.031-2.407-1.783-3.716.248-1.309 1.36-2.532 3.144-3.462 1.013-.528 2.216-.947 3.54-1.233a19.87 19.87 0 014.176-.43zm6.413 2.346c-1.483-.773-3.435-1.255-5.523-1.362-2.089-.107-4.183.166-5.928.774-1.745.607-3.032 1.511-3.64 2.558-.61 1.046-.504 2.17.299 3.18.802 1.01 2.253 1.845 4.103 2.36 1.85.516 3.987.681 6.045.468 2.058-.213 3.91-.792 5.242-1.637 1.331-.846 2.059-1.905 2.059-2.999 0-.62-.234-1.236-.691-1.81-.458-.573-1.128-1.094-1.973-1.532z" id="path146" clip-rule="evenodd" fill="#2e1e11" fill-rule="evenodd" stroke-width=".666"/><path d="M116.223 31.643a.693.693 0 01.375.012.44.44 0 01.256.193.256.256 0 01-.02.264.474.474 0 01-.278.179l-4.343 1.097a.686.686 0 01-.346-.037.416.416 0 01-.225-.188.253.253 0 01.007-.245.43.43 0 01.237-.181z" id="path148" clip-rule="evenodd" fill="#2e1e11" fill-rule="evenodd" stroke-width=".666"/><path d="M163.874 32.294a.796.796 0 01-.222-.056.482.482 0 01-.162-.107.261.261 0 01-.073-.139.22.22 0 01.03-.144.373.373 0 01.126-.124.676.676 0 01.202-.08.896.896 0 01.468.02l4.884 1.063c.077.011.15.032.212.06a.465.465 0 01.153.108c.037.042.06.088.067.136a.223.223 0 01-.031.14.37.37 0 01-.124.12.656.656 0 01-.194.08.885.885 0 01-.457-.01z" id="path150" clip-rule="evenodd" fill="#2e1e11" fill-rule="evenodd" stroke-width=".666"/><path d="M136.351 31.55c-.113.07-.27.117-.443.133a1.347 1.347 0 01-.504-.048c-.152-.047-.267-.12-.325-.206a.22.22 0 01.007-.267s1.257-1.105 5.104-1.105c3.847 0 5.104 1.105 5.104 1.105.1.087.13.191.084.29-.046.098-.164.184-.33.237a1.356 1.356 0 01-.554.046.918.918 0 01-.458-.17s-.825-.74-3.846-.74c-3.02 0-3.84.72-3.84.725z" id="path152" clip-rule="evenodd" fill="#2e1e11" fill-rule="evenodd" stroke-width=".666"/><path d="M125.162 7.814s-2.05 7.494 2.255 8.96c11.853.444 13.17.444 13.17.444s13.758-.103 19.164 2.599c5.402 2.701 9.167 10.049 9.167 10.049l.866 2.443s3.335.564 4.085-1.664c.75-2.228.08-10.828.08-10.828s1.974-3.24 0-4.372c-1.972-1.132-3.95-2.134-3.95-3.546.958-.654-.752-2.377-3.951-4.085-3.199-1.708-14.21-1.812-17.56-.568-3.353 1.243-12.715-6.385-23.326.568z" id="path154" fill="#1a1a1a" stroke-width=".666"/><path d="M121.903 8.908s-12.59.322-13.642 6.234c0 0-1.685 1.282-4.987 3.327-3.303 2.046-.208 5.79.335 7.964.542 2.174 1.826 4.644 1.826 4.644s4.125 2.276 4.125 1.121c0-.797.439-1.772.439-1.772s2.269-6.649 7.463-9.751c5.193-3.103 19.174-3.236 22.247-3.457 3.073-.222-5.127-.089-5.127-1.419s-2.1-8.824-8.428-8.11c-1.863.21-4.25 1.219-4.25 1.219z" id="path156" fill="#1a1a1a" stroke-width=".666"/></svg>