<svg xmlns="http://www.w3.org/2000/svg" width="308" height="401" version="1.1" id="svg80" fill="none"><path d="M162.186 208.794c3.116 32.128 1.233 61.672 9.398 82.321 18.244 46.183 12.06 84.587 12.06 84.587 7.629 3.9 22.107 3.093 21.962-.695-1.347-34.49 21.1-45.865 8.716-78.92-16.459-43.875 16.232-92.007 14.284-98.807-6.006-21.628-70.462-30.17-66.42 11.514z" id="path2" fill="#f8bd8c" stroke-width=".411"/><path d="M156.996 304.2c8.278 25.372-1.136 41.3-2.483 73.231-.212 4.738-14.17 5.855-21.913 1.021 0 0-1.493-39.213-15.29-78.681-15.956-45.643-23.033-94.153-22.53-89.517-2.808-26.273 23.877-32.18 42.852-30.145 52.769 5.658 6.46 84.52 19.364 124.09z" id="path4" fill="#f8bd8c" stroke-width=".411"/><path d="M91.124 397.312c-.401-.349-.648-.746-.724-1.152-.076-.41.022-.821.285-1.21 1.624-2.239 43.68-17.092 42.057-16.51 7.742 2.577 18.05 1.254 21.913-1.02 2.694 3.006 10.502 13.84 2.791 14.957-4.642.669-62.946 7.864-66.322 4.935z" id="path6" fill="#f2e8de" stroke-width=".411"/><path d="M97.197 398.411c-3.636 0-6.135-.248-6.85-.857-.472-.406-.763-.866-.85-1.34-.087-.475.032-.953.347-1.4 1.477-2.112 34.087-13.737 41.407-16.314l1.023-.367v.05l.454-.146h.6l.098.18c7.435 2.379 17.076.987 20.533-1.055l.828-.49.52.592c2.337 2.576 8.327 10.751 5.405 14.125-.278.35-.704.66-1.244.91-.54.251-1.18.433-1.873.532-.519.05-43.208 5.58-60.398 5.58zm-5.454-1.314c2.825 2.398 55.838-3.735 65.414-5.15a4.49 4.49 0 001.249-.355c.358-.17.636-.38.813-.615 2.288-2.654-2.127-9.521-4.87-12.83-3.057 1.249-6.741 1.986-10.59 2.13-3.85.143-7.693-.32-11.046-1.33-5.276 1.822-40.012 14.347-41.278 16.15-.222.322-.304.669-.243 1.01.062.34.267.67.6.966z" id="path8" fill="#fffffb" stroke-width=".411"/><path d="M113.369 391.804a22.285 22.285 0 01-5.031-.654 8.313 8.313 0 01-2.168-.723c-.62-.316-1.109-.698-1.436-1.122a.489.489 0 01-.038-.346.679.679 0 01.215-.326c.112-.101.26-.188.435-.26.176-.068.376-.122.59-.149a3.081 3.081 0 011.27.093c.19.06.357.137.49.23.132.092.229.2.284.31.543.376 1.292.65 2.143.791 1.247.344 2.667.469 4.058.361a3.01 3.01 0 011.258-.026c.202.038.389.098.547.176.16.077.287.17.378.274a.57.57 0 01.15.332.517.517 0 01-.1.334 1.016 1.016 0 01-.335.29 2.014 2.014 0 01-.518.2c-.69.158-1.44.233-2.192.215z" id="path10" fill="#fffffb" stroke-width=".411"/><path d="M121.957 388.49c-1.703-.01-3.373-.245-4.857-.684-1.484-.442-2.734-1.075-3.632-1.839-.228-.197-.3-.433-.198-.66.102-.224.369-.418.741-.537.373-.123.82-.159 1.245-.105.425.054.792.194 1.02.391.676.574 1.644 1.033 2.793 1.329 1.148.293 2.43.412 3.7.337.43-.03.864.036 1.207.176.342.14.565.347.618.577.054.227-.065.456-.332.636-.266.182-.658.301-1.088.328-.403.033-.81.048-1.217.05z" id="path12" fill="#fffffb" stroke-width=".411"/><path d="M129.538 385.256c-3.084-.003-6.054-.615-8.327-1.716-.32-.159-.51-.377-.527-.61-.016-.23.141-.453.438-.623.297-.17.709-.272 1.146-.281.437-.006.862.075 1.183.233.93.46 2.037.806 3.244 1.02 1.207.213 2.486.288 3.752.216.43-.024.862.042 1.2.185.338.143.554.352.602.58.047.226-.078.456-.35.635-.27.18-.665.293-1.095.317-.42.026-.843.041-1.266.044z" id="path14" fill="#fffffb" stroke-width=".411"/><path d="M141.123 393.962c-2.338-2.101 1.282-3.914 5.048-5.227 17.546-6.175 37.462-13.042 37.462-13.042 7.613 2.73 17.985 1.52 21.962-.695 2.24 2.678 10.03 13.96 1.915 15.005-4.626.627-63.044 6.975-66.387 3.96z" id="path16" fill="#f2e8de" stroke-width=".411"/><path d="M148.681 395.166c-4.415 0-7.466-.275-8.245-.97-2.094-1.9-.309-3.858 5.292-5.823 17.367-6.078 37.332-12.94 37.527-13.008l.455-.161.454.161c7.337 2.636 17.27 1.382 20.89-.636l.844-.48.504.602c2.19 2.574 7.758 10.853 4.674 14.173-.302.356-.75.666-1.313.914a7.223 7.223 0 01-1.933.522c-.568.069-41.147 4.706-59.149 4.706zm-6.817-1.41c2.728 2.455 55.529-2.85 65.511-4.138a4.852 4.852 0 001.33-.352c.386-.17.692-.385.894-.627 2.451-2.645-1.623-9.443-4.252-12.88-3.12 1.197-6.839 1.881-10.69 1.968-3.851.086-7.664-.43-10.963-1.487-3.052 1.057-21.102 7.282-37.058 12.88-4.869 1.716-6.395 3.185-4.772 4.654z" id="path18" fill="#fffffb" stroke-width=".411"/><path d="M162.67 389.74h-.26c-1.915-.152-7.742-.632-8.116-3.277-.034-.227.104-.454.384-.627.28-.174.679-.284 1.11-.302.43-.018.856.057 1.185.203.329.15.533.361.568.588.097.591.795 1.314 5.388 1.717.213.018.417.057.601.113.184.06.345.138.472.23a.8.8 0 01.267.308c.05.11.058.224.024.337-.066.2-.265.382-.563.514-.298.131-.674.2-1.06.197z" id="path20" fill="#fffffb" stroke-width=".411"/><path d="M171 386.337c-1.72-.045-3.397-.301-4.899-.75-1.501-.447-2.786-1.071-3.752-1.826-.24-.192-.327-.427-.24-.654.086-.227.34-.424.703-.553a2.91 2.91 0 011.236-.128c.428.048.803.182 1.044.373.665.523 1.55.959 2.588 1.27 1.036.31 2.195.492 3.386.525.221 0 .44.023.644.068.204.048.387.117.54.2.152.087.269.188.344.296.076.11.108.23.095.346a.553.553 0 01-.144.329 1.153 1.153 0 01-.371.274 2.15 2.15 0 01-.543.176 3.12 3.12 0 01-.63.054z" id="path22" fill="#fffffb" stroke-width=".411"/><path d="M178.014 383.292a18.226 18.226 0 01-3.961-.529c-1.241-.313-2.35-.755-3.263-1.301a.811.811 0 01-.268-.308.47.47 0 01-.025-.337.7.7 0 01.223-.32c.112-.098.26-.182.435-.248a2.46 2.46 0 01.583-.143 3.058 3.058 0 011.244.105c.184.06.344.137.47.23.812.594 3.88 1.313 5.113 1.065a3.03 3.03 0 011.26.024c.397.096.706.27.858.487.153.215.138.457-.044.666-.18.209-.512.373-.921.454a8.878 8.878 0 01-1.704.155z" id="path24" fill="#fffffb" stroke-width=".411"/><path d="M203.016 40.96c-1.18-1.956-5.056-3.528-9.033-3.019 1.685-27.287-41.174-23.598-41.174-23.598-26.966 1.242-30 16.4-29.797 24.116a15.914 15.914 0 00-2.14-.527c-3.944-.518-7.904 1.054-9.085 3.02-.43.791-.53 1.624-.291 2.438.238.815.81 1.592 1.674 2.277 1.48 1.197 3.606 2.13 6.1 2.68a33.13 33.13 0 004.703.295c4.163 17.82 34.634 16.077 34.634 16.077 26.41.697 33.27-9.083 34.82-16.14a19.747 19.747 0 002.09-.214c2.5-.548 4.631-1.481 6.117-2.68.867-.686 1.44-1.465 1.678-2.281.239-.816.138-1.65-.296-2.444z" id="path26" fill="#f8bd8c" stroke-width=".411"/><path d="M166.968 38.797c0 1.464 1.084 2.63 2.414 2.63s2.431-1.192 2.431-2.63c0-1.439-1.083-2.631-2.43-2.631-1.347 0-2.415 1.175-2.415 2.63z" id="path28" fill="#482100" stroke-width=".411"/><path d="M147.712 41.427c1.338 0 2.423-1.178 2.423-2.63 0-1.453-1.085-2.631-2.423-2.631s-2.423 1.178-2.423 2.63c0 1.453 1.085 2.631 2.423 2.631z" id="path30" fill="#482100" stroke-width=".411"/><path d="M142.769 35.026c.52.345 1.172.627 1.912.827.74.2 1.551.313 2.38.332.131-.003.262.009.384.033.123.024.236.061.332.109a.71.71 0 01.227.168.345.345 0 01.09.202.31.31 0 01-.06.201.61.61 0 01-.201.174 1.19 1.19 0 01-.31.119 1.723 1.723 0 01-.371.047c-.09.01-.182.01-.272 0-1.04-.13-2.005-.396-2.807-.773-.743-.352-1.357-.775-1.81-1.246-.039-.041-.045-.088-.018-.132.027-.043.085-.08.162-.1a.501.501 0 01.19-.035.5.5 0 01.19.035z" id="path32" fill="#2e2044" stroke-width=".411"/><path d="M161.102 51.95c-.769.175-1.71.27-2.679.27-.968 0-1.91-.095-2.677-.27.877.056 1.772.085 2.669.087.904.001 1.805-.028 2.687-.087z" id="path34" fill="#2e2044" stroke-width=".411"/><path d="M151.41 46.824h15.812s-1.574 4.21-8.375 4.042c-5.544-.133-7.437-4.042-7.437-4.042z" id="path36" fill="#fff" stroke-width=".411"/><path d="M152.267 29.51c-1.07-.488-2.43-.758-3.836-.76a21.355 21.355 0 00-4.07.313c-1.335.225-2.563.6-3.601 1.1-1.014.47-1.845 1.042-2.446 1.683-.146.13-.199.285-.147.434.052.15.203.285.427.379.223.094.504.142.788.134.285-.009.554-.072.758-.178l.1-.054a16.61 16.61 0 012.445-1.029 12.98 12.98 0 012.697-.59 17.405 17.405 0 012.915-.152 20.76 20.76 0 003.132-.099h.301c.32-.04.597-.147.77-.296.172-.15.227-.33.152-.5-.048-.147-.183-.282-.385-.385z" id="path38" fill="#2e2044" stroke-width=".411"/><path d="M164.835 29.531c1.068-.502 2.426-.778 3.831-.78a20.755 20.755 0 014.082.32c1.326.234 2.546.62 3.58 1.131 1.013.485 1.847 1.071 2.46 1.728a.508.508 0 01.156.25.38.38 0 01-.034.264.658.658 0 01-.22.235c-.102.07-.228.127-.37.17a2.046 2.046 0 01-.713.075 1.747 1.747 0 01-.66-.167l-.1-.055c-.742-.4-1.561-.755-2.443-1.057a12.418 12.418 0 00-2.693-.607 16.813 16.813 0 00-2.911-.156 20.17 20.17 0 01-3.129-.101h-.3c-.32-.042-.597-.151-.77-.304-.171-.154-.226-.338-.15-.514.033-.164.169-.316.384-.432z" id="path40" fill="#552d1b" stroke-width=".411"/><path d="M159.127 34.817c.44 1.01.778 2.01 1.134 3.001.355.992.71 1.974 1.252 2.913.119.23.271.47.423.69.25.279.399.579.44.886.011.326-.15.648-.467.929-.317.28-.776.511-1.327.664a7.581 7.581 0 01-3.267.089 11.47 11.47 0 01-2.59-.806c1.795.346 3.894.629 5.078.124.298-.103.538-.246.692-.414.156-.169.22-.356.189-.542a1.591 1.591 0 00-.373-.593 8.309 8.309 0 01-.508-.753c-.526-1.006-.838-2.039-.93-3.08a8.627 8.627 0 01.254-3.108z" id="path42" fill="#2e2044" stroke-width=".411"/><path d="M214.986 33.155c1.566-1.26 2.881-2.824 1.87-4.236-1.533-2.154-7.263-2.475-9.942-4.299-2.495-1.68-1.686-4.084-1.029-6.193.658-2.11.725-4.665-2.51-5.943-3.842-1.51-9.775-.161-13.853-1.493-3.286-1.072-4.111-3.485-7.044-4.826-3.589-1.653-9.082-1.189-13.582-.384-4.5.804-9.319 1.868-13.869 1.108-3.809-.634-6.74-2.493-10.785-2.681-3.657-.17-6.943 1.144-9.47 2.556-2.529 1.412-4.837 3.039-8.157 3.852-2.612.634-5.578.706-8.274 1.215-2.937.602-5.419 1.7-7.06 3.125-1.642 1.425-2.353 3.097-2.023 4.758a24.4 24.4 0 002.326 4.352c.466.715.643 1.473.518 2.226-.124.754-.548 1.484-1.243 2.145-2.63 2.055-8.949 2.234-10.92 4.468-2.124 2.431 2.511 5.067 2.511 7.749 0 2.27-3.37 4.36-2.663 6.604.708 2.243 4.753 3.575 8.426 4.647 3.674 1.073 7.617 2.682 7.735 4.871 0 1.135-.943 2.288-.37 3.387.859 1.591 4.465 2.172 7.532 2.494l16.38 1.787c0-.554 0-1.072-.118-1.51 0-.134-.084-.277-.135-.411-6.994-2.118-13.65-6.167-15.436-13.826a33.027 33.027 0 01-4.701-.295c-2.495-.55-4.62-1.484-6.1-2.681-.865-.686-1.436-1.463-1.675-2.278-.239-.815-.139-1.648.292-2.44 1.18-1.967 5.14-3.576 9.083-3.022a13.83 13.83 0 011.955.474c1.457 1.454 3.276 2.798 5.41 3.995.51.324 1.164.576 1.904.733 1.584.277 3.201-.313 4.516-.894l18.15-7.668a48.69 48.69 0 016.824-2.476c2.747-.715 5.83-1.081 8.426-2.001 2.595-.921 4.381-2.682 3.117-4.165 4.281.268 6.741 1.94 8.612 3.986 2.834 2.99 4.686 6.215 5.477 9.536.057.267.246.52.549.736.302.215.708.384 1.173.49.466.105.976.143 1.479.11.502-.033.98-.137 1.382-.3 1.699-.726 3.147-1.603 4.28-2.591 3.893-.465 7.77 1.09 8.949 3.03.431.792.53 1.625.292 2.44-.239.815-.81 1.592-1.674 2.278-1.482 1.198-3.607 2.132-6.1 2.681-.688.107-1.394.178-2.107.215-1.061 4.915-4.718 11.162-15.773 14.3-.23.462-.382.934-.455 1.411v.465a62.32 62.32 0 004.887-.411c2.417-.26 4.708-.777 6.736-1.52 2.028-.744 3.75-1.698 5.06-2.806.656-.844 1.547-1.63 2.646-2.332 1.112-.572 2.68-.894 3.69-1.484 1.685-1 1.432-2.53 2.376-3.771 2.31-3.066 11.106-3.852 12.488-7.06 1.18-2.79-4.196-5.363-3.606-8.214.15-1.52 2.055-2.761 3.623-4.013z" id="path44" fill="#72422c" stroke-width=".411"/><path d="M141.007 28.414l-10.017-3.868c-.397-.156-.659-.386-.73-.64-.07-.253.057-.511.352-.718.306-.202.754-.335 1.248-.37.494-.034.994.032 1.394.185l10.017 3.878c.197.076.362.172.486.28a.74.74 0 01.24.356.517.517 0 01-.044.375.938.938 0 01-.322.337 1.986 1.986 0 01-.546.25 3.193 3.193 0 01-.69.123c-.245.017-.492.01-.73-.023a2.87 2.87 0 01-.658-.165z" id="path46" fill="#fff" stroke-width=".411"/><path d="M135.707 30.984l-9.833-3.876c-.388-.154-.645-.382-.714-.634-.07-.253.054-.51.344-.714a1.93 1.93 0 01.533-.252c.208-.065.438-.107.677-.125.24-.018.484-.011.718.02.234.031.455.087.648.163l9.85 3.876a1.6 1.6 0 01.476.281c.122.11.203.23.235.355a.522.522 0 01-.043.375.931.931 0 01-.315.337c-.294.203-.73.338-1.212.374a3.222 3.222 0 01-1.364-.18z" id="path48" fill="#fff" stroke-width=".411"/><path d="M176.66 237.716c.261-1.234.833-2.443 1.7-3.597.839-1.173 1.984-2.278 3.4-3.283-.254 1.235-.826 2.445-1.7 3.598-.85 1.17-1.994 2.274-3.4 3.282z" id="path50" fill="#4f3775" stroke-width=".411"/><path d="M65.294 207.603c.828-1.505 8.426-34.953 24.907-63.09-4.21-1.51.247 1.532-3.918 0-8.443-3.137-16.632-6.47-24.906-9.73-11.296 21.383-19.537 47.365-12.563 72.562h.084c-3.833 3.421-12.596 11.583-13.272 15.672-.015.072.01.145.07.21a.64.64 0 00.274.155 1.265 1.265 0 00.77-.017c1.132-.374 3.142-1.48 5.945-4.678 0 0-2.6 7.36-1.149 8.473 1.453 1.114 7.261-8.019 7.261-8.019s-1.25 8.43.726 9.097c1.976.669 5.674-8.678 5.674-8.678s-.338 8.723 1.013 8.625c3.377-.232 4.44-12.474 6.855-12.287 2.415.187 4.12 3.02 4.644 4.562.02.075.07.148.149.21a.953.953 0 00.307.157 1.776 1.776 0 00.828.043c1.164-.205 2.785-.784 2.43-2.423-.64-3.796-2.725-7.484-6.129-10.844z" id="path52" fill="#f8bd8c" stroke-width=".411"/><path d="M241.789 179.39c-.83-1.506-8.453-34.94-24.985-63.065 4.223-1.508-.248 1.532 3.93 0 8.469-3.135 16.684-6.466 24.984-9.725 11.332 21.374 19.598 47.344 12.602 72.53h-.084c3.845 3.42 12.636 11.578 13.313 15.666.016.072-.009.145-.07.21a.645.645 0 01-.274.155 1.251 1.251 0 01-.392.051 1.195 1.195 0 01-.382-.068c-1.134-.374-3.15-1.479-5.962-4.676 0 0 2.608 7.356 1.152 8.47-1.457 1.113-7.284-8.016-7.284-8.016s1.254 8.425-.728 9.093c-1.982.668-5.691-8.674-5.691-8.674s.339 8.719-1.017 8.621c-3.387-.232-4.455-12.468-6.877-12.282-2.422.188-4.132 3.02-4.658 4.56a.408.408 0 01-.149.211.96.96 0 01-.308.156 1.783 1.783 0 01-.83.043c-1.169-.205-2.795-.784-2.44-2.422.644-3.794 2.735-7.48 6.15-10.839z" id="path54" fill="#f8bd8c" stroke-width=".411"/><path d="M137.195 75.675a34.888 34.888 0 01-4.913 1.569c7.336 6.481 14.572 13.194 29.682 14.166 9.709.615 21.521-3.12 28.723-6.196 4.127-1.876 7.965-3.925 11.476-6.125-1.52-.18-3.07-.284-4.627-.312-6.469-.006-12.76-1.12-17.937-3.173A37.23 37.23 0 01178 71.556c-.905-2.405-1.233-4.861-.976-7.31.088-.919.553-1.816 1.363-2.63l-19.67-5.35-20.68 3.567c.722.992 1.203 2.028 1.43 3.084.316 2.896.101 5.8-.64 8.675a42.47 42.47 0 01-1.632 4.083z" id="path56" fill="#f8bd8c" stroke-width=".411"/><path d="M139.678 64.227l-.255-.81c.128.306.204.602.255.81z" id="path58" fill="#d48f65" stroke-width=".411"/><path d="M139.168 62.338s13.518 5.082 38.256.39c0 0-19.398 15.163-38.256-.39z" id="path60" fill="#cc7d4e" stroke-width=".411"/><path d="M255.185 128.096c-2.11-6.59-7.586-29.087-14.675-35.678 0 0-16.129-8.431-21.614-10.557-5.907-2.563-30.176-5.135-30.176-5.135-1.266-1.34-9.704-2.787-9.704-2.787s-6.953 8.815-21.096 8.592c-14.143-.223-20.033-8.369-20.033-8.369-4.86 0-8.438 2.903-8.438 2.903-31.442.554-40.724 13.843-40.724 13.843S64.338 118.442 57.3 138.841c0 0 7.084 9.1 30.998 10.44l16.877-18.993 9.085 17.109-3.494 4.296c-1.513 1.845-2.095 3.867-1.688 5.867 1.047 4.93 3.713 14.111 9.367 15.728 7.797 2.233 32.269-13.843 42.192-15.299 9.924-1.456 45.568-3.456 45.568-3.456l-.844-5.252c2.21-3.51 6.75-17.171 12.572-31.336 2.54 6.12 3.522 7.828 5.08 10.3.564.896 23.407 1.979 23.771 1.963a3.168 3.168 0 001.006-.201c.293-.115.52-.271.653-.451.135-.18 6.808-1.27 6.742-1.46z" id="path62" fill="#f6c25c" stroke-width=".411"/><path d="M129.986 79.285c2.65 2.18 6.199 4.016 10.383 5.37 4.184 1.354 8.894 2.191 13.778 2.449 4.883.258 9.815-.071 14.424-.961s8.777-2.319 12.191-4.18c1.987-1.065 3.695-2.267 5.078-3.571-1.14 1.395-2.669 2.692-4.536 3.849-1.891 1.156-4.065 2.174-6.465 3.028-4.842 1.76-10.547 2.742-16.424 2.83-5.877.087-11.677-.726-16.7-2.34-2.484-.78-4.76-1.732-6.77-2.83-1.98-1.08-3.651-2.308-4.959-3.644z" id="path64" fill="#f6c25c" stroke-width=".411"/><path d="M219.761 116.974c-7.278-3.278-13.185-7.32-17.342-11.871 3.103 1.925 5.938 3.904 8.84 5.873 2.9 1.97 5.77 3.922 8.502 5.998z" id="path66" fill="#f6c25c" stroke-width=".411"/><path d="M105.502 130.6c.353-2.752.946-5.45 1.394-8.166.449-2.716.865-5.396 1.474-8.157 1.117 5.494.14 11.058-2.868 16.324z" id="path68" fill="#f6c25c" stroke-width=".411"/><path d="M128.202 121.967c4 .29 7.884.617 11.817.794 3.934.176 7.85.264 11.902.37-7.923 1.08-16.311.667-23.72-1.164z" id="path70" fill="#f6c25c" stroke-width=".411"/><path d="M173.088 122.354c3.374 0 6.495 0 9.7-.062 3.206-.062 6.377-.22 9.683-.325-3.021.729-6.29 1.138-9.617 1.204-3.327.067-6.646-.211-9.766-.817z" id="path72" fill="#f6c25c" stroke-width=".411"/><path d="M105.758 82.169c3.285 2.187 5.664 4.727 6.98 7.449 1.314 2.722 1.535 5.564.646 8.335-.43-5.493-3.03-10.874-7.626-15.784z" id="path74" fill="#f6c25c" stroke-width=".411"/><path d="M203.183 79.47c-.788 1.7-1.714 3.31-2.33 4.965-.618 1.655-1.2 3.301-1.869 5.019-1.18-3.487.33-7.075 4.2-9.983z" id="path76" fill="#f6c25c" stroke-width=".411"/><path d="M157.531 151.762c3.848-2.138 7.763-4.176 11.56-6.295 3.798-2.12 7.53-4.267 11.394-6.368-5.863 5.085-13.696 9.413-22.954 12.681z" id="path78" fill="#f6c25c" stroke-width=".411"/></svg>