<svg width="202" height="334" fill="none" xmlns="http://www.w3.org/2000/svg"><path d="M167.299 100.649c-6.288 8.099-16.173 14.695-26.66 14.994-.996.026-2.703.143-4.979.324-16.676 1.322-63.82 6.283-84.644 8.497-6.218.655-10.09 1.079-10.109 1.079-2.497.269-4.383-8.836-4.475-10.176-.312-4.645 1.339-9.153 3.585-13.138 2.284-4.059 7.277-8.773 5.435-13.878-1.625-4.526-7.869-5.473-10.583-9.44-1.949-2.861-1.636-6.802-.099-9.9 2.265-4.581 6.497-8.422 11.08-10.536 3.945-1.82 7.339-3.941 9.111-7.624a12.4 12.4 0 00.934-2.7c1.232-5.543.107-12.526 3.883-17.395 3.144-4.052 10.782-8.324 17.97-16.423a59.83 59.83 0 014.266-4.346C88.078 4.415 94.546.971 99.984.61c6.741-.45 17.971 1.123 20.442 7.65 2.471 6.523 5.615 5.624 9.66 8.099 4.045 2.475 13.252 4.5 15.344 18.6 1.188 7.947-.007 11.697-.044 14.37-.018 1.54.342 2.719 1.762 4.14.485.494 1.103 1.01 1.879 1.584 6.891 5.101 14.08 9.296 18.275 15.903 4.181 6.593 6.284 21.594-.003 29.693z" fill="#231347"/><path d="M167.295 100.646c-6.288 8.099-16.172 14.695-26.659 14.993-.997.026-2.707.144-4.979.324.584-3.329 1.088-7.27.798-9.918-.574-5.399-.916-3.006-2.111-6.604-1.195-3.598 2.398-9.296 2.092-13.498-.298-4.195-5.085-6.895-7.188-14.397-2.093-7.495 2.467-12.202 2.467-12.202l13.66-10.018c-.018 1.54.342 2.718 1.762 4.14.485.493 1.107 1.009 1.879 1.583 6.891 5.101 14.08 9.296 18.275 15.904 4.192 6.592 6.296 21.593.004 29.693z" fill="#63C3D1"/><path d="M116.565 111.551a43.872 43.872 0 01-8.921 2.843H91.858a39.77 39.77 0 01-7.16-2.195l.188-8.541 1.284-20.223.102-1.599.232-3.657 26.391.71.438 3.448.856 6.751 1.865 14.718.511 7.745zm15.661-53.563c-.897 3.415-3.99 5.558-6.91 4.788-2.919-.77-4.563-4.158-3.666-7.572.898-3.414 3.99-5.558 6.91-4.788 2.919.77 4.559 4.158 3.666 7.572z" fill="#F8BD8C"/><path d="M165.158 119.783l-5.302 124.148-39.136 1.237-75.194 2.372-5.99-129.79 45.354-14.092s10.8 8.11 31.167.148c.489-.192 2.64.217 5.792.998 4.905 1.219 12.237 3.344 19.489 5.524 3.294 2.405 6.608 4.773 13.179 5.481 3.217.346 6.994 1.852 10.641 3.974z" fill="#fff"/><path d="M76.245 66.415s2.397 12.202-1.95 20.007c-4.338 7.8-6.136 8.253-4.338 15.369 1.798 7.127 2.184 5.506 1.798 9.664-.199 2.232-10.763 8.273-20.736 13.005-6.218.656-10.09 1.079-10.108 1.079-2.497.269-4.383-8.835-4.475-10.176-.313-4.644 1.338-9.152 3.585-13.137 2.283-4.059 7.277-8.773 5.435-13.878-1.626-4.526-7.87-5.473-10.583-9.44-1.949-2.861-1.636-6.802-.1-9.9 2.266-4.581 6.498-8.423 11.08-10.537 3.945-1.82 7.34-3.94 9.112-7.624a12.4 12.4 0 00.934-2.7c1.232-5.543.107-12.526 3.883-17.395 3.144-4.051 10.782-8.323 17.97-16.422a59.83 59.83 0 014.266-4.346l2.56 28.628-8.333 27.803z" fill="#63C3D1"/><path d="M125.063 52.648c0 19.384-11.061 35.096-24.707 35.096S74.3 72.93 74.3 53.547s12.41-35.998 26.056-35.998 24.707 15.715 24.707 35.1z" fill="#F8BD8C"/><path d="M90.292 43.282a18.709 18.709 0 00-2.313-.53 23.847 23.847 0 00-2.46-.295 24.65 24.65 0 00-4.946.147l-.026.004a1.701 1.701 0 01-1.908-1.473 1.711 1.711 0 011.408-1.904 28.294 28.294 0 015.656-.376c.945.026 1.886.11 2.827.236.96.132 1.835.28 2.887.567a1.904 1.904 0 011.335 2.335 1.9 1.9 0 01-2.332 1.337l-.062-.018-.066-.03zm15.451-3.444c1.059-.261 1.938-.383 2.901-.493.945-.1 1.887-.162 2.835-.166 1.89-.018 3.784.155 5.645.516a1.704 1.704 0 011.349 2 1.704 1.704 0 01-1.93 1.366l-.026-.004a24.632 24.632 0 00-4.942-.269c-.827.034-1.651.118-2.467.233-.795.114-1.67.287-2.324.475l-.063.018a1.9 1.9 0 01-2.35-1.304 1.904 1.904 0 011.372-2.372zM88.824 48.87c0 1.465-1.04 2.65-2.32 2.65-1.28 0-2.32-1.189-2.32-2.65 0-1.467 1.04-2.653 2.32-2.653 1.28 0 2.32 1.19 2.32 2.652zm24.075.452c0 1.466-1.041 2.652-2.32 2.652-1.284 0-2.321-1.19-2.321-2.652 0-1.466 1.041-2.652 2.321-2.652 1.279-.003 2.32 1.186 2.32 2.652z" fill="#000"/><path d="M80.308 53.547c1.883 2.983 1.22 6.788-1.486 8.5-2.702 1.713-6.423.685-8.306-2.298-1.883-2.983-1.22-6.788 1.485-8.5 2.707-1.713 6.424-.686 8.307 2.298z" fill="#F8BD8C"/><path d="M147.144 53.466c-3.946 3.454-8.678 7.55-9.2 8.334-.897 1.348-8.866 1.518-7.557-.563.43-.685 2.166-10.91-3.898-10.01-6.063.898-6.512-2.7-8.078-5.175-1.563-2.475-.236-8.998-.008-11.33.225-2.32-3.144-5.767-7.413-4.194-4.269 1.576-13.028 5.399-15.499 3.823-2.471-1.577-.449-6.523-7.638-5.4-7.188 1.124-7.413-8.323-7.413-8.323l.773-9.9C87.512 4.716 94.303.981 99.98.602c6.74-.45 17.97 1.123 20.441 7.65 2.471 6.522 5.615 5.623 9.66 8.099 4.045 2.474 13.252 4.5 15.345 18.599 1.868 12.511-2.173 14.625 1.717 18.515z" fill="#63C3D1"/><path d="M164.901 333.558H46.794c.493-18.172 4.7-39.324 8.976-56.516.427-1.72.857-3.4 1.28-5.031 2.975-11.433 5.806-20.581 7.251-25.067.626-1.945.986-3.013.986-3.013l15.937-.854 4.541-.247 35.576-1.912 22.567-1.211s.092 1.749.423 4.71c.684 6.173 2.398 17.613 6.461 29.361 1.434 4.162 3.162 8.368 5.251 12.39 5.846 11.311 8.06 31.391 8.858 47.39z" fill="#E2B897"/><path d="M80.01 103.434c.394-.074.74.25.702.644-.57 5.875-4.17 42.69-4.997 44.348-.897 1.801-1.798 9.299-2.096 15.299-.298 6-.298 8.099 0 16.5s1.199 17.399 2.096 23.097c.897 5.697 4.64 25.873 4.869 31.497.224 5.624.448 8.136 1.573 13.068 1.122 4.931 2.92 9.657 2.472 13.03-.45 3.374-46.947 17.097-46.947 17.097s-4.717-3.149-5.39-8.099-3.817-7.425-4.494-12.6c-.673-5.174-2.397-35.538 1.199-50.167 3.593-14.629-9.884-25.427-9.285-27.825.6-2.401.449-44.62 4.718-48.672 4.27-4.051 14.988-13.947 23.36-14.85 8.374-.898 11.455-4.5 15.949-7.425 3.817-2.478 13.465-4.416 16.271-4.942z" fill="#C5A2FD"/><path d="M67.335 181.05a.74.74 0 01-.607-.316c-1.283-1.857-.768-3.315-.22-4.858.606-1.724 1.298-3.676.128-7.182-1.051-3.157-2.687-5.643-4.276-8.044-1.828-2.773-3.556-5.388-3.99-8.578-.378-2.77.666-6.644 1.677-10.386 1.081-4.011 2.203-8.162 1.232-9.981-.982-1.849-3.24-3.628-5.424-5.348-2.177-1.716-4.232-3.337-4.968-5.009-.46-1.042-.39-3.024 5.512-8.176 3.078-2.689 6.37-5.028 6.402-5.05a.737.737 0 01.85 1.205c-6.057 4.29-12.087 9.907-11.418 11.428.589 1.337 2.504 2.847 4.534 4.446 2.302 1.815 4.681 3.69 5.81 5.811 1.243 2.335.1 6.571-1.11 11.057-.971 3.602-1.979 7.329-1.64 9.804.39 2.858 1.948 5.223 3.757 7.967 1.563 2.368 3.332 5.053 4.442 8.39 1.328 3.988.482 6.386-.14 8.139-.503 1.429-.808 2.291.045 3.528a.735.735 0 01-.596 1.153z" fill="#9E4AFF"/><path d="M24.426 131.112c-1.198 2.541-16.256 18.021-17.797 29.295C5.089 171.681-.303 175.909.146 190c.449 14.092-1.35 18.791 4.942 25.837 6.288 7.045 6.288 13.152 10.782 22.08 4.493 8.924-.412 13.152 8.553 18.791 8.965 5.638 12.56-24.426 19.297-30.065 6.74-5.635 2.696-4.825 0-14.154-2.695-9.333-13.925-18.257-14.374-21.546-.448-3.289 2.847-7.477 3.593-10.069.603-2.092 6.288-50.97 7.189-57.106.897-6.136-4.74-2.254-4.74-2.254l-10.962 9.598z" fill="#C5A2FD"/><path d="M36.66 241.861a.741.741 0 01-.68-1.016c3.317-8.14 4.048-9.057 5.258-10.571.46-.574.978-1.223 1.758-2.438 1.228-1.922 2.033-2.81 2.566-3.399.666-.737.846-.932 1.107-2.398.386-2.158-1.485-3.923-1.945-4.317-.42-.169-.57-.836-1.625-6.53-.864-4.644-4.567-12.688-9.002-15.085-2.166-1.168-4.655-2.862-4.688-5.599-.019-1.48.507-2.836 1.018-4.147l.129-.331c2.592-6.722 3.721-13.977 4.49-20.187.316-2.578.393-5.204.463-7.746.07-2.522.144-5.134.456-7.723a.735.735 0 111.46.173c-.302 2.523-.375 5.098-.445 7.591-.074 2.574-.147 5.237-.474 7.882-.776 6.298-1.927 13.664-4.575 20.536l-.129.336c-.477 1.233-.93 2.397-.919 3.594.022 1.96 1.993 3.282 3.916 4.32 4.902 2.645 8.815 11.057 9.752 16.114.761 4.103 1.052 5.333 1.151 5.694.662.571 2.942 2.781 2.423 5.683-.323 1.808-.661 2.239-1.467 3.127-.53.585-1.254 1.384-2.42 3.204a25.978 25.978 0 01-1.845 2.563c-1.13 1.411-1.81 2.265-5.045 10.206a.746.746 0 01-.688.464zm9.075-25.111h.004-.004z" fill="#9E4AFF"/><path d="M85.765 243.566a.74.74 0 01-.736-.696.74.74 0 01.695-.777l42.317-2.298a.743.743 0 01.776.696.74.74 0 01-.695.777l-42.317 2.298h-.04z" fill="#B08174"/><path d="M173.303 207.152c3.593 14.625 1.872 44.992 1.199 50.167-.673 5.171-3.821 7.649-4.493 12.596-.548 4.022-3.762 6.854-4.95 7.778-.268.21-.618.269-.945.174-5.027-1.496-46.023-13.782-46.442-16.95-.453-3.374 1.349-8.099 2.467-13.03.224-.991.416-1.883.574-2.722.64-3.344.82-5.853 1-10.346.224-5.624 3.964-25.796 4.865-31.497.897-5.698 1.794-14.699 2.096-23.097.298-8.401.298-10.5 0-16.5-.302-6-1.199-13.498-2.096-15.299-.806-1.606-4.056-36.091-4.744-43.412a.852.852 0 01.004-.214 1.05 1.05 0 011.224-.928c3.332.556 11.911 2.173 15.492 4.508.964.63 1.865 1.289 2.769 1.945 3.295 2.405 6.608 4.773 13.179 5.48 3.221.35 6.998 1.856 10.645 3.974 5.472 3.182 10.657 7.756 13.234 11.87 4.828 7.691 2.994 18.747 3.372 27.354.28 6.376-.728 14.095.828 20.316.606 2.409-12.87 13.204-9.278 27.833z" fill="#C5A2FD"/><path d="M132.509 181.606a.74.74 0 01-.607-1.156c.853-1.234.548-2.1.044-3.529-.617-1.753-1.463-4.15-.139-8.139 1.11-3.341 2.882-6.022 4.442-8.39 1.809-2.74 3.368-5.109 3.758-7.967.338-2.475-.67-6.202-1.64-9.804-1.21-4.486-2.354-8.721-1.111-11.056 1.129-2.122 3.508-3.997 5.81-5.812 2.03-1.599 3.946-3.109 4.534-4.446.702-1.594-4.729-7.48-10.167-12.021a.741.741 0 01-.096-1.039.739.739 0 011.037-.096c2.853 2.38 12.043 10.409 10.568 13.749-.739 1.672-2.795 3.293-4.968 5.009-2.18 1.72-4.438 3.499-5.424 5.348-.967 1.819.151 5.967 1.232 9.981 1.011 3.746 2.056 7.617 1.677 10.386-.434 3.19-2.162 5.808-3.99 8.578-1.585 2.405-3.224 4.891-4.276 8.048-1.166 3.506-.478 5.462.129 7.182.544 1.543 1.059 3.001-.221 4.857a.694.694 0 01-.592.317z" fill="#9E4AFF"/><path d="M177.694 131.112c1.199 2.541 16.257 18.021 17.797 29.295 1.541 11.274 6.932 15.502 6.483 29.593-.448 14.092 1.35 18.791-4.942 25.837-6.288 7.045-6.288 13.152-10.781 22.08-4.494 8.924.412 13.152-8.553 18.791-8.965 5.638-12.562-24.426-19.298-30.065-6.74-5.635-2.696-4.825 0-14.154 2.695-9.333 13.925-18.257 14.374-21.546.448-3.289-2.846-7.477-3.593-10.069-.603-2.092-6.288-50.97-7.189-57.106-.897-6.136 4.74-2.254 4.74-2.254l10.962 9.598z" fill="#C5A2FD"/><path d="M154.708 250.343a.742.742 0 01-.658-.401c-.015-.026-1.361-2.63-4.446-5.466a47.166 47.166 0 00-1.493-1.3c-2.603-2.203-4.854-4.103-4.034-9.425.464-3.02 1.401-4.372 2.394-5.804 1.019-1.47 2.074-2.991 2.916-6.693 1.699-7.461 12.683-36.37 13.15-37.596a.736.736 0 111.375.523c-.114.298-11.414 30.039-13.087 37.401-.908 3.982-2.092 5.694-3.14 7.204-.931 1.345-1.736 2.505-2.148 5.19-.691 4.504.989 5.926 3.53 8.077a47 47 0 011.541 1.34c3.295 3.031 4.703 5.768 4.762 5.886a.735.735 0 01-.324.99.845.845 0 01-.338.074z" fill="#9E4AFF"/><path d="M102.511 330.958a.739.739 0 01-.736-.737v-43.674l-9.516-7.966a.738.738 0 01.945-1.131l9.777 8.188a.74.74 0 01.265.563v44.016a.737.737 0 01-.735.741z" fill="#B08174"/><path d="M114.186 89.084c-1.924 2.623-4.814 4.865-8.62 5.245-7.766.766-15.348-6.453-19.397-10.895l.103-1.598c.405.166.86.343 1.39.512 3.126 1.027 7.902 2.096 14.264 2.088 4.604-.007 8.126-.965 10.671-2.088l.735-.011.854 6.747z" fill="#EAB186"/><path d="M99.345 59.889H97.33a.336.336 0 01-.335-.335v-7.576c0-.184.15-.335.335-.335.183 0 .334.15.334.335v7.237h1.68c.184 0 .335.15.335.335a.332.332 0 01-.334.339z" fill="#000"/><path d="M98.04 72.61a13.63 13.63 0 01-4.693-.85.366.366 0 01-.217-.472.362.362 0 01.47-.217c4.627 1.701 9.558.648 11.992-2.553a.365.365 0 01.515-.07.37.37 0 01.07.516c-1.795 2.36-4.825 3.646-8.138 3.646z" fill="#1A1A1A"/><path d="M74.3 61.042a.538.538 0 11-1.076 0 .538.538 0 011.076 0zm52.057.184a.538.538 0 01-.537.538.54.54 0 01-.537-.538.536.536 0 111.074 0zm-54.591-1.333a.405.405 0 100-.81.405.405 0 000 .81z" fill="#000"/></svg>