<svg xmlns="http://www.w3.org/2000/svg" width="369" height="403" version="1.1" id="svg90" fill="none"><path d="M297.596 375.555c-7.234 2.688-19.718 2.779-31.759.815l-5.017-21.324 35.796-1.281z" id="path2" fill="#fc9987" stroke-width=".502"/><path d="M324.17 385.757c10.712 3.96 13.815 6.568 16.055 9.956 1.656 2.492.91 4.564-5.927 5.056-13.698 1.004-26.67 1.624-35.795.815-4.924-.43-10.453-.993-28.141-6.848-10.314-3.413-6.767-3.002-7-18.561.013-.144.108-.284.28-.411.173-.128.416-.237.714-.324a5.154 5.154 0 011.006-.17 6.553 6.553 0 011.103.008c12.18 1.092 25.06-.728 30.335-1.64a5.606 5.606 0 011.044-.083c.36 0 .714.034 1.038.093.325.059.61.146.84.252.228.106.394.23.484.364 4.294 6.085.63 2.906 23.965 11.493z" id="path4" fill="#514342" stroke-width=".502"/><path d="M308.28 402.402a117.5 117.5 0 01-10.08-.377c-4.877-.432-10.407-.899-28.631-6.947-8.12-2.688-8.098-3.226-7.7-9.86.116-2.158.303-5.127.209-9.062-.006-.212.114-.423.353-.616.24-.193.589-.361 1.024-.495.438-.134.95-.227 1.495-.274a9.496 9.496 0 011.655.006c11.948 1.074 24.758-.771 29.728-1.614a9.152 9.152 0 011.517-.125c.523 0 1.04.044 1.516.125.476.087.897.211 1.235.367.338.152.585.336.725.529.328.485.63.896.864 1.281 1.937 2.85 1.937 2.85 8.12 4.913a437.313 437.313 0 0114.608 5.127c10.757 3.98 14 6.64 16.334 10.165 1.213 1.792 1.004 3.18-.607 4.15-.712.398-1.637.737-2.715.99a19.85 19.85 0 01-3.538.47 378 378 0 01-26.111 1.247zm-42.515-26.738a2.827 2.827 0 00-.863.115 1.093 1.093 0 00-.367.175c-.086.068-.128.146-.123.22 0 3.952 0 6.92-.21 9.088-.374 6.472-.397 6.724 6.884 9.135 17.803 5.89 23.03 6.347 27.628 6.757 9.683.843 23.964 0 35.304-.824.928-.04 1.823-.156 2.627-.34.804-.18 1.5-.426 2.04-.718 1.237-.744 1.33-1.9.303-3.45-2.332-3.37-5.39-5.915-15.75-9.745-7-2.563-11.504-4.085-14.538-5.099-6.603-2.196-6.767-2.293-8.82-5.376-.257-.376-.536-.8-.886-1.272a.631.631 0 00-.258-.196 1.996 1.996 0 00-.443-.137 3.104 3.104 0 00-.548-.047c-.19 0-.377.016-.549.047-5.157.896-18.667 2.797-31.198 1.658z" id="path6" fill="#463c3a" stroke-width=".502"/><path d="M307.988 401.462c-6.607.069-13.134-.569-18.855-1.838-5.324-1.307-10.308-2.81-14.888-4.484a494.947 494.947 0 00-6.183-2.097c-.588-.192-.952-.466-1.01-.765-.06-.296.19-.591.695-.815.505-.227 1.221-.367 1.994-.389.773-.022 1.537.075 2.125.268 2.45.805 4.456 1.505 6.277 2.134 4.3 1.577 8.99 2.996 14 4.228 5.778 1.232 12.408 1.74 18.971 1.453h.63c6.277-.177 19.298-.548 23.684-1.792a7.258 7.258 0 012.047-.121c.698.059 1.316.211 1.738.432.422.22.62.495.554.768-.064.271-.388.526-.908.713-5.298 1.48-16.545 1.91-26.672 2.196h-.653a56.409 56.409 0 01-3.546.11z" id="path8" fill="#fff" stroke-width=".502"/><path d="M299.933 392.26c-.31 0-.606-.05-.825-.134-.219-.084-.342-.196-.342-.315.006-.118.13-.233.348-.314.218-.084.512-.134.819-.134 5.81 0 16.334-1.067 18.668-2.485.16-.1.418-.175.719-.206.3-.03.62-.012.89.047.263.062.451.162.526.277.073.115.027.236-.13.339-2.963 1.92-14.98 2.924-20.58 2.924z" id="path10" fill="#fff" stroke-width=".502"/><path d="M286.896 387.748a66.843 66.843 0 01-3.057-.062 2.43 2.43 0 01-.437-.047 1.766 1.766 0 01-.354-.109.572.572 0 01-.215-.155c-.045-.056-.06-.115-.043-.171a.318.318 0 01.132-.171c.072-.05.17-.097.29-.134.12-.038.257-.066.405-.084.147-.016.303-.022.456-.016 8.867.34 22.284-.986 25.294-3.011.152-.103.404-.18.702-.212a2.98 2.98 0 01.885.04c.266.063.46.162.542.277.083.116.047.237-.098.343-3.454 2.32-15.728 3.512-24.502 3.512z" id="path12" fill="#fff" stroke-width=".502"/><path d="M279.212 382.34h-2.59a2.825 2.825 0 01-.44-.04 1.708 1.708 0 01-.365-.105.654.654 0 01-.23-.15c-.05-.053-.072-.112-.062-.17.006-.06.042-.116.106-.169a.85.85 0 01.27-.14 1.92 1.92 0 01.389-.09c.144-.019.296-.028.448-.022 6.767.125 19.484-.199 24.175-2.206.212-.08.496-.127.793-.127.298-.003.586.037.807.115.22.078.356.184.38.296.023.115-.067.227-.254.317-5.273 2.221-17.85 2.492-23.427 2.492z" id="path14" fill="#fff" stroke-width=".502"/><path d="M82.418 375.194c7.84 2.483 20.255 2.107 31.805-.27l.234-21.411-35.982-.063z" id="path16" fill="#fc9987" stroke-width=".502"/><path d="M58.336 386.24c-9.778 4.311-12.274 7.009-13.744 10.46-1.074 2.535.163 4.57 7 4.84 13.86.529 26.928.706 35.842-.404 4.807-.6 10.173-1.344 26.438-7.778 9.497-3.759 6.043-3.22 2.776-18.727-.028-.143-.144-.286-.337-.41a2.601 2.601 0 00-.777-.315 5.702 5.702 0 00-1.058-.146 6.36 6.36 0 00-1.118.047c-11.877 1.496-25.131.127-30.708-.6a6.63 6.63 0 00-1.06-.047 5.623 5.623 0 00-1.011.13 2.942 2.942 0 00-.776.28c-.203.116-.338.246-.396.38-2.73 6.232.163 2.915-21.071 12.29z" id="path18" fill="#514342" stroke-width=".502"/><path d="M70.138 402.399c-6.277 0-12.74-.2-18.504-.423a21.13 21.13 0 01-3.633-.349c-1.134-.211-2.138-.516-2.947-.886-1.82-.897-2.334-2.26-1.54-4.117 1.517-3.584 4.2-6.353 14-10.683a348.03 348.03 0 0113.394-5.6c5.67-2.269 5.67-2.269 7-5.175.164-.376.35-.805.584-1.297.09-.196.286-.383.578-.547.291-.165.67-.302 1.112-.405a7.946 7.946 0 011.449-.196 9.248 9.248 0 011.528.053c5.134.672 18.318 2.072 29.961.6a9.46 9.46 0 011.659-.059 8.18 8.18 0 011.562.221c.458.118.841.274 1.12.458.279.183.446.388.49.6.84 3.926 1.68 6.866 2.333 9.016 1.89 6.571 2.053 7.1-5.414 10.059-16.777 6.63-22.167 7.305-26.927 7.896-5.794.616-11.795.896-17.805.834zm11.878-28.82a3.3 3.3 0 00-.677.075 1.64 1.64 0 00-.412.147.52.52 0 00-.218.202l-.56 1.3c-1.354 3.118-1.494 3.227-7.56 5.638-2.8 1.11-7 2.788-13.324 5.566-9.334 4.166-11.994 6.81-13.441 10.245-.677 1.577-.303 2.688 1.097 3.422.615.274 1.373.498 2.225.65.852.156 1.78.24 2.722.246 11.503.439 25.9.8 35.351-.376 4.504-.563 9.614-1.201 25.971-7.672 6.697-2.688 6.627-2.894 4.667-9.33-.63-2.15-1.493-5.11-2.333-9.045-.014-.075-.073-.15-.175-.215a1.358 1.358 0 00-.409-.162 3.166 3.166 0 00-.575-.084 3.698 3.698 0 00-.615.022c-12.32 1.559-26.11.1-31.454-.6z" id="path20" fill="#463c3a" stroke-width=".502"/><path d="M69.26 401.416c-8.821 0-17.758-.2-22.542-1.3a3.901 3.901 0 01-.88-.293c-.239-.118-.414-.255-.514-.399a.467.467 0 01-.068-.444c.056-.15.188-.293.39-.42.202-.131.469-.24.785-.33.316-.087.676-.15 1.056-.184a7.6 7.6 0 011.16-.012c.386.025.753.08 1.081.162 4.667 1.076 17.734.995 23.988.967h.63c6.64.078 13.172-.653 18.668-2.087 4.752-1.397 9.136-2.972 13.09-4.695 1.657-.682 3.5-1.444 5.764-2.33a4.23 4.23 0 01.936-.274 7.116 7.116 0 012.303-.037c.37.052.708.136.992.242.285.106.51.233.661.373.152.14.228.293.223.445-.005.153-.091.302-.252.442a2.202 2.202 0 01-.686.367c-2.334.896-4.037 1.621-5.67 2.303-4.193 1.813-8.826 3.472-13.838 4.95-6.449 1.714-14.14 2.604-21.98 2.544h-5.298z" id="path22" fill="#fff" stroke-width=".502"/><path d="M81.747 391.91c-6.113 0-15.984-.643-18.97-2.248-.15-.097-.199-.212-.139-.32.06-.11.226-.21.463-.275.237-.062.53-.093.82-.077.29.012.555.068.745.152 2.497 1.335 13.301 2.044 19.088 1.845.306-.01.61.028.846.103.236.077.384.183.414.301.026.119-.069.237-.265.33a2.17 2.17 0 01-.785.162c-.653.019-1.4.028-2.217.028z" id="path24" fill="#fff" stroke-width=".502"/><path d="M92.152 387.017c-8.237 0-18.038-.834-21.468-2.691-.173-.1-.237-.218-.18-.336.056-.118.23-.221.483-.29.127-.034.27-.059.421-.071a2.84 2.84 0 01.885.062c.13.034.241.075.328.125 3.453 1.92 17.127 2.778 25.878 2.143a2.89 2.89 0 01.89.069c.128.034.239.077.324.127.086.05.145.106.174.165a.19.19 0 01-.004.18.47.47 0 01-.181.162c-.088.05-.2.094-.33.125-.13.034-.277.056-.43.068-2.246.13-4.519.187-6.79.162z" id="path26" fill="#fff" stroke-width=".502"/><path d="M96.183 381.41c-6.044 0-13.697-.33-17.851-1.791a.753.753 0 01-.255-.147c-.06-.053-.09-.112-.09-.17 0-.06.03-.119.09-.175a.807.807 0 01.255-.143c.106-.044.234-.078.374-.1a2.909 2.909 0 01.886 0c.14.022.267.056.373.1 5.134 1.792 17.875 1.72 24.595 1.369a3.32 3.32 0 01.458.012c.15.016.289.044.411.078.123.037.225.08.302.134.077.05.127.109.147.168.02.059.01.118-.03.174a.52.52 0 01-.204.159 1.46 1.46 0 01-.346.115c-.134.03-.282.05-.435.056-2.88.127-5.78.18-8.68.162z" id="path28" fill="#fff" stroke-width=".502"/><path d="M243.118 138.083c-5.017-5.853-130.462 1.658-131.14 2.061-8.423 5.109-64.705 142.155-50.751 227.88.051.332.378.65.931.908.554.258 1.306.441 2.149.525 22.61 2.15 44.335 2.402 64.192-.118.74-.093 1.391-.267 1.875-.5.485-.237.782-.52.856-.816 8.75-31.084 24.664-111.44 47.089-153.494 0-.045.047-.089.13-.12a.911.911 0 01.313-.05c.118 0 .23.018.313.05.084.031.13.075.13.12 29.658 59.461 63.516 142.925 67.39 152.57.115.28.423.541.89.76.468.217 1.08.382 1.77.478 19.513 2.598 40.737 2.598 60.25 0 .83-.109 1.546-.314 2.042-.59.497-.278.746-.607.712-.943-5.204-64.024-8.401-158.047-69.14-228.722z" id="path30" fill="#514342" stroke-width=".502"/><path d="M97.873 371.585a357.164 357.164 0 01-33.882-1.704c-1.066-.1-2.023-.33-2.734-.65-.712-.321-1.143-.722-1.233-1.143-14-85.561 42.142-222.822 50.94-228.155 1.656-.995 90.35-5.62 120.219-4.204 7.793.368 12.04 1.102 13.02 2.24 56.656 65.942 63.283 152.374 68.137 215.438.341 4.607.692 9.088 1.05 13.446.033.43-.295.856-.938 1.21-.643.355-1.565.623-2.632.76-19.747 2.632-41.227 2.632-60.974 0-.895-.118-1.69-.333-2.294-.613-.604-.28-.997-.622-1.136-.983-3.756-9.275-37.334-91.781-66.713-151.18-16.8 32.34-30.125 86.889-38.991 123.154-2.847 11.608-5.297 21.63-7.35 28.925-.1.383-.485.747-1.11 1.048-.625.302-1.463.53-2.414.654-10.013 1.216-20.466 1.807-30.965 1.757zm14.864-231.043c-9.334 6.991-64.193 142.64-50.38 227.484.033.237.263.467.658.65.395.184.934.315 1.536.37 23.778 2.269 45.152 2.235 63.54-.096.51-.065.963-.183 1.31-.342.345-.159.57-.352.65-.554 2.054-7.305 4.504-17.317 7.327-28.915 9.007-36.804 22.588-92.42 39.668-124.588.08-.14.28-.264.569-.354.288-.09.647-.139 1.018-.14.377-.001.743.048 1.033.14.291.091.487.22.554.362 29.682 59.507 63.633 143.24 67.413 152.59.071.199.285.389.619.547.333.16.773.28 1.272.349 19.264 2.564 40.214 2.564 59.479 0 .59-.078 1.099-.227 1.452-.423.353-.196.531-.433.508-.672-.342-4.356-.692-8.836-1.05-13.444-4.854-63.038-11.48-149.37-68.02-215.178-.47-.383-1.305-.681-2.334-.833-18.784-3.559-119.332 2.205-126.822 3.047z" id="path32" fill="#514342" stroke-width=".502"/><path d="M178.319 212.505a5.43 5.43 0 01-1.108-.116 2.73 2.73 0 01-.829-.305c-2.077-1.363-7.56-4.67-13.3-5.907-.268-.058-.467-.155-.554-.268-.087-.114-.056-.236.087-.341.152-.104.404-.18.702-.211.297-.032.615-.018.885.04 6.02 1.29 11.48 4.482 14.21 6.23 7.14-8.963 20.068-16.645 35.329-21.019.122-.035.262-.061.41-.075.149-.015.304-.018.455-.01.151.008.297.028.43.058.131.03.246.07.338.117.092.047.16.1.197.157a.186.186 0 01.025.175.364.364 0 01-.15.165c-.08.05-.182.095-.305.13-14.864 4.257-27.488 11.76-34.652 20.57-.136.16-.39.303-.728.411a4.77 4.77 0 01-1.186.199z" id="path34" fill="#514342" stroke-width=".502"/><path d="M302.132 364.875c-.3 0-.59-.047-.808-.125-.218-.08-.346-.19-.358-.305-3.15-44.764-28.001-175.239-68.253-217.661-.079-.057-.125-.12-.136-.183-.01-.064.015-.129.075-.188a.768.768 0 01.27-.16c.12-.045.262-.08.42-.101a2.925 2.925 0 01.965.028c.146.031.273.074.372.125.1.052.169.111.204.174 40.275 42.52 65.336 173.13 68.417 217.938.006.06-.02.118-.074.174a.718.718 0 01-.245.147 1.85 1.85 0 01-.376.102 2.974 2.974 0 01-.45.035z" id="path36" fill="#514342" stroke-width=".502"/><path d="M96.255 172.94a2.489 2.489 0 01-.71-.106c-.2-.064-.337-.152-.39-.25-.054-.098-.021-.2.094-.29.115-.09.305-.163.54-.206 22.634-3.828 21.654-14.341 20.767-23.6 0-1.04-.21-2.062-.256-3.066-.006-.117.107-.23.317-.316a2.31 2.31 0 01.803-.14c.156-.005.312.004.459.025.147.02.281.052.395.093.114.041.204.09.266.146.062.055.094.114.093.174 0 .995.14 2.017.257 3.048.91 9.555 1.937 20.382-22.168 24.451a2.583 2.583 0 01-.467.036z" id="path38" fill="#463c3a" stroke-width=".502"/><path d="M248.353 168.121c-12.157 0-23.777-5.378-28.234-8.829-4.793-3.834-7.122-8.054-6.79-12.306-.003-.06.025-.119.084-.174a.78.78 0 01.259-.146 1.93 1.93 0 01.391-.094c.145-.02.3-.029.455-.025.154 0 .305.014.445.038.141.023.267.057.374.1a.738.738 0 01.245.147c.056.055.083.113.08.172-.319 4.105 1.921 8.18 6.533 11.885 4.527 3.46 15.658 8.336 26.158 8.336.31 0 .607.047.825.131.22.084.342.198.342.317 0 .06-.03.117-.089.172a.785.785 0 01-.253.145 1.9 1.9 0 01-.378.097 2.848 2.848 0 01-.447.034z" id="path40" fill="#463c3a" stroke-width=".502"/><path d="M177.483 208.91a2.627 2.627 0 01-.698-.092c-.2-.058-.349-.139-.422-.231-15.168-20.024-10.804-43.964-5.298-62.572.012-.06.055-.117.126-.17a.98.98 0 01.29-.137c.12-.038.26-.066.409-.082.15-.017.305-.022.46-.014.306.015.586.077.778.17.192.094.28.213.247.332-5.46 18.527-9.824 42.35 5.227 62.222.046.056.063.116.047.175-.014.058-.06.116-.135.168a1.053 1.053 0 01-.296.134c-.121.036-.26.063-.409.078a1.837 1.837 0 01-.326.018z" id="path42" fill="#514342" stroke-width=".502"/><path d="M169.388 192.861a2.8 2.8 0 01-.574-.058 1.4 1.4 0 01-.43-.157c-18.807-12.333-18.994-28.36-17.71-42.413.018-.118.154-.229.38-.31a2.78 2.78 0 011.276-.08c.14.025.264.06.369.103a.702.702 0 01.237.15c.054.055.077.114.071.173-1.283 13.92-1.096 29.793 17.385 41.92a.36.36 0 01.152.165.186.186 0 01-.027.174.53.53 0 01-.202.157c-.093.046-.21.085-.344.114a2.529 2.529 0 01-.583.062z" id="path44" fill="#514342" stroke-width=".502"/><path d="M123.14 366.919c-.156 0-.312-.013-.456-.035a1.76 1.76 0 01-.385-.1.7.7 0 01-.25-.148c-.057-.056-.082-.116-.076-.175 1.307-24.908 23.195-110.713 45.456-151.388a.43.43 0 01.178-.163c.087-.05.2-.092.33-.125a2.49 2.49 0 01.43-.065 3.014 3.014 0 01.88.072c.125.033.233.075.315.125.083.05.139.104.165.162a.181.181 0 01-.012.174c-22.237 40.63-44.102 126.381-45.409 151.224-.006.118-.131.23-.35.311-.218.084-.51.13-.816.13z" id="path46" fill="#514342" stroke-width=".502"/><path d="M174.77 9.456s14.557-2.071 27.722.516c14.017 2.756 21.128 5.51 24.355 28.66 3.22 23.146 2.862 34.72 3.22 36.512.36 1.79-114.597 1.238-114.597 1.238v-57.59z" id="path48" fill="#0b0635" stroke-width=".502"/><path d="M116.727 75.367S58.203 77.82 59.302 116.62c1.105 38.8-20.4 36.094-2.815 63.729 0 0 39.765 3.096 62.556-3.159l-2.31-76.317V75.367z" id="path50" fill="#fcfcfc" stroke-width=".502"/><path d="M119.39 76.27s-26.541 2.966-22.962 24.43c3.58 21.465-26.523 48.08 16.826 51.176l119.434-.572c11.267-.055 20.323-3.584 20.323-7.918V75.788l-25.036-1.671z" id="path52" fill="#fcfcfc" stroke-width=".502"/><path d="M192.466 68.53l-43.215.502 1.481-14.279h39.582z" id="path54" fill="#f8bd8c" stroke-width=".502"/><path d="M145.508 66.422h55.163c3.56 0 6.635 1.018 7.357 2.438l3.133 6.136-75.897 1.133 2.821-7.131c.588-1.486 3.732-2.576 7.423-2.576z" id="path56" fill="#fcfcfc" stroke-width=".502"/><path d="M191.12 59.92c-2.45 2.003-6.953 3.993-13.359 4.269-11.008.474-21.739-4.222-27.04-6.822-1.058-.52-1.57-.954-2.157-1.248.91.208 2.321.567 4.866.931 4.244.613 10.743 1.249 19.383 1.244 6.259-.002 11.043-.577 14.498-1.244l3.344-.02z" id="path58" fill="#eab186" stroke-width=".502"/><path d="M209.68 37.983c.934 11.478-16.844 21.006-39.706 21.282-22.862.276-42.162-8.805-43.097-20.282-.934-11.478 16.844-21.006 39.706-21.282 22.868-.276 42.162 8.805 43.097 20.282z" id="path60" fill="#f8bd8c" stroke-width=".502"/><path d="M219.112 39.238c0 2.376-5.36 4.671-9.78 4.671-4.419 0-8.004-1.926-8.004-4.303 0-2.376 5.872-4.303 10.29-4.303 4.426 0 7.494 1.558 7.494 3.935z" id="path62" fill="#f8bd8c" stroke-width=".502"/><path d="M194.435 31.813c-.336 0-.67-.02-1.006-.061-8.886-1.122-14.734-.102-14.98-.06-1.599.288-3.526.026-4.285-.59-.758-.614-.106-1.347 1.487-1.645.335-.064 8.293-1.51 19.782-.064 1.693.213 2.616.914 2.058 1.565-.441.522-1.699.855-3.056.855z" id="path64" fill="#000" stroke-width=".502"/><path d="M132.678 33.777c-1.034 0-2.046-.19-2.669-.542-.993-.563-.634-1.325.817-1.714.306-.08 7.6-1.981 19.53-1.219 1.757.11 2.945.75 2.656 1.424-.287.677-1.962 1.131-3.708 1.02-9.221-.583-14.604.762-14.828.819a7.36 7.36 0 01-1.798.212z" id="path66" fill="#000" stroke-width=".502"/><path d="M168.11 43.558h-3.22c-.3 0-.534-.092-.534-.206v-4.65c0-.113.24-.206.534-.206.3 0 .535.093.535.205v4.444h2.686c.3 0 .535.092.535.205 0 .116-.236.208-.535.208z" id="path68" fill="#000" stroke-width=".502"/><path d="M147.7 37.694c0 .956-1.605 1.732-3.58 1.732-1.98 0-3.579-.776-3.579-1.732 0-.957 1.605-1.732 3.58-1.732 1.974.002 3.579.778 3.579 1.732z" id="path70" fill="#000" stroke-width=".502"/><path d="M189.327 35.963c0 .956-1.605 1.732-3.58 1.732-1.98 0-3.578-.776-3.578-1.732 0-.957 1.604-1.73 3.579-1.73 1.98-.002 3.579.773 3.579 1.73z" id="path72" fill="#000" stroke-width=".502"/><path d="M155.235 49.312c1.21 2.125 7.71 3.507 14.91 3.111 6.252-.344 11.025-1.922 11.913-3.753z" id="path74" fill="#fcfcfc" stroke-width=".502"/><path d="M173.671 9.006c11.237 8.672-15.892 11.787-26.165 16.48-11.225 5.13-18.989 15.257-18.384 22 1.652 18.398 17.82 33.148-13.717 49.986 6.536-10.225-3.403-18.042-11.69-27.321-9.115-10.207-8.962-20.669-5.812-31.273 2.369-7.989 3.144-20.913 18.76-26.946 8.963-3.466 49.844-8.452 57.008-2.926z" id="path76" fill="#0b0635" stroke-width=".502"/><path d="M171.073 17.769s5.025 3.4 16.285 5.492c15.945 2.96 19.36 12.705 19.36 12.705l6.47-1.356-12.524-18.132z" id="path78" fill="#0b0635" stroke-width=".502"/><path d="M263.361 188.287l-7.94-1s-.987-.54.106-1.232 3.697-.67 4.96-.62c1.27.05 3.896.43 3.896.43s3.11-1.368 6.295-1.988c0 0-.83-1.68.647-2.774 0 0-3.262-1.28-2.91-3.168 0 0-.335-.226-.828-.576-.418.072-1.223.212-1.74.328-.723.16-.787 1.07-.5 1.614.288.547.606 2.28.153 3.27-.453.99-2.415 1.661-5.348 1.625-2.933-.038-3.027-1.144-3.597-2.125-.57-.981-.323-1.902-.123-3.668.205-1.766-.988-2.65-1.863-4.318-.876-1.669-.559-3.01-.559-3.01.388-1.393 1.828-3.075 2.21-3.51-.423-1.005-.388-1.95.441-2.656 1.493-1.264-3.356-10.491-3.356-10.491l24.514 1.065-2.281 10.44s7.676 6.179 10.214 8.958c2.54 2.776 4.39 4.241 4.032 5.62 0 0-3.726 5.554-7.552 6.782-3.92 1.257-12.642 3.462-15.192 3.538-2.744.082-10.044-.296-10.044-.296s-1.628-.027-2.839-.283c0 0-1.175.007-.27-.938.917-.943 3.432-.707 9.474-1.017z" id="path80" fill="#f8bd8c" stroke-width=".502"/><path d="M239.506 74.818s34.304-.945 46.387 17.567c12.084 18.512 10.814 25.449 10.174 37.24-.635 11.79 35.103 35.068 2.662 50.07 0 0-27.464-5.26-52.905-7.26 0 0-4.45-1.868-1.905-21.322 2.545-19.453-4.413-76.295-4.413-76.295z" id="path82" fill="#fcfcfc" stroke-width=".502"/><path d="M90.621 180.886s-10.19.242-12.171.23c0 0 .147 5.468 6.083 7.329l.14.045z" id="path84" fill="#eab186" stroke-width=".502"/><path d="M107.33 141.712c-.594 0-1.105-.171-1.17-.404-.047-.184-1.181-4.532 1.387-9.072 1.317-2.327.418-3.668-.946-5.7-1.21-1.805-2.715-4.052-3.326-7.853-1.323-8.188 6.582-12.802 6.917-12.995.364-.207 1.093-.262 1.634-.122.54.14.682.421.317.629-.123.07-7.787 4.597-6.518 12.434.6 3.715 2.075 5.915 3.262 7.683 1.393 2.08 2.398 3.582.97 6.116-2.486 4.4-1.358 8.742-1.346 8.785.065.248-.4.47-1.046.497l-.135.002z" id="path86" fill="#ccdde7" stroke-width=".502"/><path d="M240.47 148.678c-.042 0-.083 0-.123-.002-.648-.025-1.117-.249-1.047-.497.964-3.568 1.687-6.781.834-9.954-.446-1.664-.98-3.335-1.498-4.95-1.152-3.585-2.34-7.294-2.585-11.059-.018-.248.493-.456 1.145-.463.647-.011 1.187.19 1.205.441.247 3.722 1.375 7.245 2.574 10.973.517 1.619 1.058 3.292 1.504 4.965.877 3.259.142 6.522-.834 10.142-.07.23-.582.404-1.175.404z" id="path88" fill="#ccdde7" stroke-width=".502"/></svg>