<svg xmlns="http://www.w3.org/2000/svg" width="277" height="400" version="1.1" id="svg80" fill="none"><path d="M239.099 137.34c-3.069 3.263-23.074-10.882-23.074-17.277 0 0 18.067-9.642 26.143-6.118 8.076 3.524-3.069 23.395-3.069 23.395z" id="path2" fill="#b72e48" stroke-width=".827"/><path d="M226.066 109.655l-16.583 19.015-16.722 6.608s3.456 11.409 11.202 14.182c7.746 2.773 13.916-15.244 13.916-15.244s24.746-12.312 34.788-26.368c10.043-14.055-26.601 1.807-26.601 1.807z" id="path4" fill="#e4ae7c" stroke-width=".827"/><path d="M191.598 46.373s67.062 29.772 82.857 38.836c0 0 4.625 5.447 0 14.958-3.153 6.202-7.286 12.148-12.326 17.729 0 0 .37 3.998-.786 4.396-1.156.398-4.995 1.45-4.995 2.246s-10.036 6.738-16.581 12.489c0 0-9.735-14.735-23.124-16.87l17.413-21.01c-.392-.258-.679-.582-.833-.94-.057-1.09.227-2.177.833-3.186l-35.52-7.168z" id="path6" fill="#f24052" stroke-width=".827"/><path d="M35.732 86.973c-6.196-.909-21.8 12.138-22.1 20.863l20.805 7.72z" id="path8" fill="#b72e48" stroke-width=".827"/><path d="M78.6 63.575c-4.711 1.747-49.847 70.065-49.847 70.065s1.448 13.711 11.215 15.252c9.767 1.541 47.962-26.215 47.962-26.215s9.698-65.982-9.33-59.102z" id="path10" fill="#f24052" stroke-width=".827"/><path d="M25.2 129.046c-5.646-10.876-7.473-41.17-3.345-54.84l10.155.634s6.667 32.946 13.5 43.044c6.833 10.098 5.67 18.29-3.963 22.34-9.632 4.048-15.16-8.892-16.347-11.178z" id="path12" fill="#e4ae7c" stroke-width=".827"/><path d="M37.222 59.868l-1.485 8.846c-1.484 8.845-3.534 8.172-9.612 10.592-5.702 2.276-12.935-4.343-14.82-7.612C9.679 68.922.444 64.74.019 62.208c-.188-1.026.99-.657 3.652.913 2.059 1.175 4.382 2.116 6.88 2.789.99-3.045-11.238-8.926-9.424-12.083.872-1.602 10.107 8.958 12.887 8.733 0 0 .519-1.073-3.392-6.41-2.239-3.092-4.595-6.265-3.605-7.178 1.814-1.603 4.854 5.416 12.44 11.954 0 0-1.531-3.606-3.299-6.89-1.625-2.997-3.604-5.69-1.578-6.058 1.65-.304 4.005 4.423 5.678 7.388 2.155 3.977 5.348 7.657 9.424 10.864.552.446 1.15.863 1.79 1.25 2.522-8.99 5.75-7.612 5.75-7.612z" id="path14" fill="#e4ae7c" stroke-width=".827"/><path d="M33.406 67.475s-4.832 2.21-5 5.14c-.442-.552-.71-1.155-.79-1.775a3.17 3.17 0 01.324-1.835c.295-.591.767-1.14 1.39-1.612.623-.472 1.385-.86 2.24-1.14.566.436 1.18.844 1.836 1.222z" id="path16" fill="#e4ae7c" stroke-width=".827"/><path d="M78.14 140.982c1.943 6.98 30.242 6.388 50.138-2.14 19.896-8.527 82.673-7.345 81.924-18.332-.749-10.988-84.99-44.715-84.99-44.715s-53.485 42.127-47.072 65.187z" id="path18" fill="#b72e48" stroke-width=".827"/><path d="M70.282 369.114l15.633 2.497s24.436-89.661 30.057-99.14c4.831-8.173 25.551-39.44 32.333-63.452a35.031 35.031 0 005.366-.525l2.323-.334 2.323-.334c.58 23.934 8.176 53.45 10.499 61.72 2.81 10.034 1.3 101.301 1.3 101.301l16.051-.365c30.452-73.902 14.378-101.668 14.378-101.668s27.874-66.522 18.025-89.979c-3.016-7.132-6.765-14.11-11.219-20.88-.325-.494-.627-.97-.975-1.432-4.089-6.197-8.832-12.182-14.193-17.907l-32.635 2.8-.302-.367-.953.127v6.982l-4.134-.143h-.929l-13.542-.493h-1.859l-11.846-.43s-7.108 7.745-17.235 20.197l-1.138 1.432a568.222 568.222 0 00-11.614 14.948c-16.26 21.708-10.778 84.016-10.778 84.016s-23.81 24.888-14.936 101.429z" id="path20" fill="#e4ae7c" stroke-width=".827"/><path d="M182.293 140.705c.114.16 8.415 13.979 25.59 16.997-.321-.498-.619-.98-.963-1.445-15.409-3.355-22.93-15.857-22.93-16.05z" id="path22" fill="#6097b2" stroke-width=".827"/><path d="M107.849 168.835c19.353-2.895 29.225-17.015 31.854-21.372.462-.789.692-1.255.715-1.287l-1.637-.402s-.323.643-.923 1.608c-2.768 4.47-11.833 16.837-28.878 19.99z" id="path24" fill="#6097b2" stroke-width=".827"/><path d="M154.376 208.595l2.352-.334c5.706-7.626 9.867-15.739 12.368-24.117 6.161-18.485-7.853-38.18-7.995-38.37l-1.599.525c.142.19 13.898 19.519 7.878 37.59-.259.764-.517 1.512-.776 2.228l-.423 1.161c-2.517 7.429-6.487 14.597-11.805 21.317z" id="path26" fill="#6097b2" stroke-width=".827"/><path d="M166.919 187.124h.252l-.114-1.199a5.077 5.077 0 01-1.569-.276 3.763 3.763 0 01-1.251-.715c-1.146-.896-3.575-3.773-1.604-10.824 2.636-9.464-7.403-26.042-7.839-26.746l-1.581.48c0 .16 10.268 16.93 7.724 26.043-2.04 7.29.39 10.551 2.017 11.846a5.54 5.54 0 001.769.991c.684.24 1.432.376 2.196.4z" id="path28" fill="#6097b2" stroke-width=".827"/><path d="M125.979 146.892c11.246 2.246 23.106 2.665 34.631 1.223 11.525-1.442 22.397-4.705 31.745-9.528 0 0 5.977-83.888-5.395-89.51-4.977-2.46-14.792-.492-24.258 2.51-8.303 2.758-16.288 5.943-23.885 9.527 0 0-21.187-2.049-37.885-.794-10.629.778-19.42 2.906-19.815 7.717-1.117 12.243 44.862 78.855 44.862 78.855z" id="path30" fill="#e4ae7c" stroke-width=".827"/><path d="M99.707 60.211c7.178-.52 8.507 3.256 15.685 5.096a136.02 136.02 0 0019.089 3.467c3.263.212 4.987 3.045 4.987 3.045s1.166-3.826 2.937-4.152c1.771-.325 16.944-11.005 20.114-16.524-8.322 2.828-16.323 6.094-23.936 9.768 0 0-21.233-2.1-37.967-.814z" id="path32" fill="#e4ae7c" stroke-width=".827"/><path d="M193.4 379.486c-1.005-4.569 1.496-7.805-.28-10.01-2.712-3.396-5.564.904-5.564.904-.234-5.188-13.021-5.172-14.307-2.809a12.928 12.928 0 01-1.122 1.746c-.794-1.238-2.15-2.46-3.904-1.746-6.826 2.777 1.66 9.947-4.675 15.167-7.901 6.647-3.039 16.705-3.039 16.705h37.917c4.535-14.103-4.044-15.42-5.026-19.957z" id="path34" fill="#f24052" stroke-width=".827"/><path d="M170.661 377.699s9.013-3.24 20.937 1.07l-2.347-2.982c-2.651-1.007-5.588-1.605-8.607-1.754a29.612 29.612 0 00-8.88.896z" id="path36" fill="#adbec4" stroke-width=".827"/><path d="M168.334 382.335c8.078-1.681 16.797-1.251 24.427 1.205l-2.202-3.036s-11.193-3.271-20.672-.83z" id="path38" fill="#adbec4" stroke-width=".827"/><path d="M64.067 379.486c.956-4.569-1.455-7.805.25-10.01 2.639-3.396 5.436.904 5.436.904.228-5.188 12.669-5.172 13.92-2.809.31.598.674 1.181 1.091 1.746.774-1.238 2.093-2.46 3.776-1.746 6.664 2.777-1.615 9.947 4.435 15.167 7.71 6.647 2.957 16.705 2.957 16.705H59.064c-4.322-14.103 4.048-15.42 5.003-19.957z" id="path40" fill="#f24052" stroke-width=".827"/><path d="M86.912 377.7s-9-3.239-20.937 1.068l2.35-2.98c2.653-1.008 5.593-1.606 8.616-1.755a29.655 29.655 0 018.89.898z" id="path42" fill="#adbec4" stroke-width=".827"/><path d="M88.075 382.335c-8.077-1.683-16.797-1.253-24.426 1.205l2.317-3.036s11.194-3.271 20.65-.83z" id="path44" fill="#adbec4" stroke-width=".827"/><path d="M142.144 32.882s-2.72 22.69 6.417 25.923c0 0-6.742 8.604-24.829 3.377 0 0 3.068-11.675-8.881-25.521-8.021-9.279 27.293-3.78 27.293-3.78z" id="path46" fill="#e4ae7c" stroke-width=".827"/><path d="M106.609 22.404s-6.377-5.378-7.84.411c-1.682 6.707 6.551 9.886 8.386 7.83 1.834-2.057-.546-8.241-.546-8.241z" id="path48" fill="#e4ae7c" stroke-width=".827"/><path d="M158.177 25.102s7.579-4.811 7.824 1.34c.29 7.11-8.649 9.473-10.12 7.126-1.472-2.348 2.296-8.466 2.296-8.466z" id="path50" fill="#ff8b66" stroke-width=".827"/><path d="M128.36 47.873c-16.386-.834-24.86-8.51-22.425-30.126C107.199 6.61 116.422.207 134.797 1.135c18.376.928 25.352 8.18 24.088 19.334-2.622 23.204-13.577 28.27-30.525 27.404z" id="path52" fill="#e4ae7c" stroke-width=".827"/><path d="M146.946 16.097a1.08 1.08 0 01-.514.047.878.878 0 01-.442-.19c-1.597-1.113-3.727-1.778-5.983-1.87a1.078 1.078 0 01-.301-.053.834.834 0 01-.249-.13.56.56 0 01-.158-.188.407.407 0 01-.043-.215.411.411 0 01.07-.208.603.603 0 01.181-.174.88.88 0 01.264-.11c.097-.024.201-.035.304-.03 2.71.09 5.267.901 7.144 2.265.133.116.195.264.174.412-.021.148-.124.285-.288.38z" id="path54" fill="#170a00" stroke-width=".827"/><path d="M123.681 13.245c-.154.03-.32.03-.474 0-2.459-.135-4.914.28-6.906 1.168a1.214 1.214 0 01-.61.152c-.229 0-.448-.054-.611-.152-.162-.101-.252-.238-.252-.38 0-.14.09-.277.252-.379 2.36-1.1 5.318-1.615 8.277-1.441.229.018.438.09.582.2.144.111.212.251.191.392a.376.376 0 01-.124.258.808.808 0 01-.325.182z" id="path56" fill="#170a00" stroke-width=".827"/><path d="M143.89 22.233c-.118 1.536-1.001 2.736-1.962 2.666-.962-.07-1.629-1.36-1.492-2.895.138-1.536 1.001-2.736 1.963-2.666.961.07 1.629 1.36 1.491 2.895z" id="path58" fill="#462917" stroke-width=".827"/><path d="M121.784 21.024c-.157 1.316-1.336 2.345-2.62 2.285-1.283-.06-2.148-1.165-1.991-2.482.157-1.316 1.363-2.345 2.62-2.284 1.258.06 2.175 1.165 1.991 2.481z" id="path60" fill="#462917" stroke-width=".827"/><path d="M122.971 34.533s10.578 1.38 16.284-.088c0 0-3.698 4.607-9.501 3.903-1.625-.176-3.13-.63-4.334-1.306-1.204-.677-2.054-1.549-2.449-2.51z" id="path62" fill="#fff" stroke-width=".827"/><path d="M132.124 29.396a7.01 7.01 0 01-1.34.278l-.368-1.287c.552-.018 1.075-.167 1.475-.42.4-.251.651-.59.706-.953a1.153 1.153 0 00-.202-.883c-.191-.277-.494-.512-.875-.681-.342 0-.71 0-1.13.417l-1.603-.817c.344-.382.877-.674 1.509-.826a4.34 4.34 0 011.96-.009c.79.273 1.435.699 1.849 1.22.413.523.575 1.116.463 1.7-.055.49-.313.959-.744 1.357s-1.019.711-1.7.904z" id="path64" fill="#d67f54" stroke-width=".827"/><path d="M226.227 232.344c-89.673 12.668-153.273-3.34-153.273-3.34l35.687-90.368.652-1.583.792-2.043.675-1.71.442-1.077.675-1.694.559-1.441.559-1.425-.233-.143C81.264 108.85 83.36 65.069 83.36 65.069c1.25-1.396 2.944-2.584 4.959-3.474 2.014-.891 4.298-1.462 6.68-1.672 12.092 12.712 27.661 23.727 45.861 32.445 17.064-11.639 29.1-44.036 29.1-44.036 3.104-.921 6.496-1.305 9.872-1.117 3.375.188 6.63.941 9.473 2.193 18.624 20.079 6.472 61.501 4.423 67.962l-.279.855a49.76 49.76 0 011.164 1.694l.768 1.125c.769 1.14 1.513 2.264 2.328 3.404.489.744.955 1.489 1.397 2.249.908 1.44 1.769 2.881 2.607 4.338 29.123 50.45 24.514 101.31 24.514 101.31z" id="path66" fill="#fbf37f" stroke-width=".827"/><path d="M195.088 119.552l-1.92-1.127c-1.334-.767-1.685-.637-2.341-.36-1.545.572-3.183.916-6.531-1.371-1.24-.866-1.943-1.013-2.224-.98-.28.033-1.123.457-1.779.98-.677.727-1.647 1.298-2.789 1.641a8.851 8.851 0 01-3.625.287 4.898 4.898 0 00-2.242.039c-.72.186-1.331.534-1.737.99a3.57 3.57 0 01-1.142.815 5.056 5.056 0 01-1.519.421 5.6 5.6 0 01-1.632-.046 4.799 4.799 0 01-1.466-.505c-1.662-.637-2.996-.245-5.056.441-1.234.59-2.695.905-4.19.905-1.495 0-2.956-.316-4.19-.905-.843-.424-1.171-.375-1.194-.375-.023 0-.702.62-.983 1.029-.269.522-.69 1-1.238 1.403a6.238 6.238 0 01-1.946.933 9.7 9.7 0 01-2.734-.01 8.552 8.552 0 01-2.509-.758c-3.348-1.308-4.308-.376-5.876 1.16-1.568 1.535-3.652 3.592-8.638 2.122-3.183-.93-4.049-.294-5.477.768-.673.624-1.542 1.13-2.541 1.482a9.949 9.949 0 01-3.218.544c-.62-.001-1.239-.04-1.849-.115l.562-1.47-.234-.147c1.022.2 2.109.172 3.107-.08.999-.252 1.86-.715 2.464-1.325 1.521-1.126 3.394-2.531 8.099-1.16 3.254.965 4.284 0 5.829-1.632 1.545-1.634 3.745-3.66 8.919-1.634.989.497 2.205.724 3.417.637.796-.18 1.264-.833 1.756-1.52.492-.685 1.194-1.633 2.505-1.877a5.508 5.508 0 011.666.07 4.595 4.595 0 011.471.55c2.223 1.079 3.885.523 5.992-.18 1.047-.508 2.269-.813 3.54-.882a9.897 9.897 0 013.693.49c1.616.637 1.896.393 2.856-.342.682-.67 1.643-1.18 2.752-1.456a8.147 8.147 0 013.452-.096c2.036.277 3.043-.49 4.19-1.405a4.67 4.67 0 011.488-1.02 6.54 6.54 0 011.953-.515 7.677 7.677 0 012.187.438c.68.247 1.281.586 1.769 1 2.341 1.632 2.996 1.404 3.769 1.11.691-.321 1.518-.467 2.345-.413.826.053 1.601.303 2.196.707l-.281.882c.351.686.749 1.274 1.124 1.862z" id="path68" fill="#f24052" stroke-width=".827"/><path d="M160.259 48.517c-.51 7.547 1.927 15.05 7.059 21.737 16.55 21.133 17.87 46.154 17.87 46.154a41.678 41.678 0 0113.183-.059c4.342.68 8.394 2.042 11.838 3.978 0 0-.417-41.522-18.517-73.492-10.533-.975-21.249-.402-31.433 1.682z" id="path70" fill="#f24052" stroke-width=".827"/><path d="M107.935 58.553s7.084 11.274-3.944 32.582c-8.5 16.617-13.01 42.616-13.01 42.616-2.776.502-5.352 1.412-7.541 2.666-2.19 1.254-3.937 2.82-5.116 4.585-7.391-32.375 10.059-28.623.307-76.947 0 0 13.294-7.172 29.304-5.502z" id="path72" fill="#f24052" stroke-width=".827"/><path d="M107.713 58.11s-10.94-3.298-18.475 5.512c0 0 12.643 8.619 15.793 17.971l-14.254 7.28c2.502 7.99 3.838 16.128 3.99 24.297 0 0 25.893-41.917 12.946-55.06z" id="path74" fill="#ce364c" stroke-width=".827"/><path d="M160.334 48.072s7.672-4.226 21.514 5.599c0 0-12.544 7.83-10.746 16.252 0 0 10.564.494 17.007 4.481 0 0-5.419 13.03-7.445 19.682 0 0-9.539-17.752-15.641-24.163-6.101-6.412-4.689-21.85-4.689-21.85z" id="path76" fill="#ce364c" stroke-width=".827"/><path d="M35.448 86.928s-8.124 20.41-21.817 20.76c0 0 6.002 39.679 27.385 41.266 0 0 13.35-16.348 8.946-31.013-4.404-14.665-7.53-13.078-7.53-13.078z" id="path78" fill="#f24052" stroke-width=".827"/></svg>