<svg xmlns="http://www.w3.org/2000/svg" width="303" height="354" version="1.1" id="svg88" fill="none"><path d="M71.048 335.837c2.492 6.655 17.132 7.673 21.072.556l4.33-17.579-26.01-1.98z" id="path2" fill="#ff9c8a" stroke-width=".357"/><path d="M227.424 335.791c3.193 6.573 17.91 7.156 21.104-.064l2.491-17.683-26.165-1.21z" id="path4" fill="#ff9c8a" stroke-width=".357"/><path d="M96.115 167.96C67.614 330.91 60.029 333.153 67.131 333.585c29.077 1.788 30.51 2.405 31.352.522l72.981-161.491c52.283 169.386 48.28 160.2 51.894 160.312 29.046.593 31.71 1.202 31.694-1 0-15.793-.343-140.027-3.754-157.637-5.45-28.247-22.458-46.49-26.554-46.419-108.74 1.772-102.184 1.347-103.025 2.405-3.753 4.577-24.264 30.034-25.604 37.681z" id="path6" fill="#323d4d" stroke-width=".357"/><path d="M240.232 152.555a1.435 1.435 0 01-.467-.08l-.826-.305c-10.792-4.064-24.249-9.114-27.737-23.622a.213.213 0 01.017-.159.393.393 0 01.137-.142.851.851 0 01.236-.102 1.33 1.33 0 01.295-.046c.208-.014.42.016.585.082.167.066.275.163.302.27 3.411 14.156 16.556 19.094 27.116 23.062l.81.304c.165.065.275.16.307.267.032.106-.017.214-.136.302a.95.95 0 01-.283.121c-.11.03-.232.046-.356.048z" id="path8" fill="#fffffb" stroke-width=".357"/><path d="M106.776 154.048a1.383 1.383 0 01-.36-.043.826.826 0 01-.278-.125.385.385 0 01-.134-.144.215.215 0 01-.014-.16.318.318 0 01.107-.15.72.72 0 01.213-.116l.81-.304c10.558-3.968 23.688-8.906 27.114-23.061a.294.294 0 01.094-.15.65.65 0 01.199-.12 1.428 1.428 0 01.58-.083c.208.012.398.066.53.15.13.084.192.192.17.299-3.504 14.508-16.945 19.558-27.753 23.622l-.81.305c-.135.052-.299.08-.468.08z" id="path10" fill="#fffffb" stroke-width=".357"/><path d="M181.011 161.693c-3.43.086-6.788-.528-9.345-1.707-7.273-3.527-5.934-11.872-4.36-21.522.482-3.046.996-6.189 1.246-9.307.02-.105.114-.203.267-.274a1.351 1.351 0 011.11.02c.072.04.126.087.163.137.036.05.052.104.048.157-.25 3.127-.763 6.285-1.262 9.33-1.464 9.058-2.85 17.635 3.878 20.841 2.664 1.299 6.51 1.74 11.744 1.355a1.517 1.517 0 01.649.049.78.78 0 01.237.122.335.335 0 01.12.161.222.222 0 01-.023.172.43.43 0 01-.157.153.949.949 0 01-.266.105 1.447 1.447 0 01-.327.04 54.136 54.136 0 01-3.722.168z" id="path12" fill="#fffffb" stroke-width=".357"/><path d="M171.518 170.307l-.608-.53-.545-.504c-1.37-1.29-2.57-2.405-8.379-2.405a1.64 1.64 0 00-.28 0c-.21 0-.413-.043-.562-.12-.148-.076-.232-.18-.232-.289a.239.239 0 01.054-.155.508.508 0 01.168-.133c.072-.038.16-.068.255-.09.095-.02.198-.03.301-.03h.296c6.697 0 8.27 1.41 9.734 2.79 1.304-.757 2.91-1.358 4.709-1.764a25.068 25.068 0 015.71-.585 5.748 5.748 0 011.486.145c.464.11.87.278 1.178.488.095.096.114.207.052.31-.06.103-.196.19-.38.243a1.463 1.463 0 01-.607.034 1.147 1.147 0 01-.273-.077.616.616 0 01-.194-.125s-.405-.177-1.449-.209c-1.885.001-3.744.228-5.43.662-1.687.434-3.155 1.064-4.288 1.839z" id="path14" fill="#323d4d" stroke-width=".357"/><path d="M96.037 332.98h-.172a1.189 1.189 0 01-.285-.064.735.735 0 01-.216-.115.35.35 0 01-.113-.149.218.218 0 01.007-.16c18.191-41.44 33.46-76.037 45.805-103.787 11.416-25.762 19.654-44.375 24.17-54.891.049-.105.176-.196.354-.253a1.453 1.453 0 01.876.012.73.73 0 01.212.113.328.328 0 01.11.147.215.215 0 01-.009.157c-4.516 10.517-12.755 29.137-24.171 54.9a52022.564 52022.564 0 00-45.79 103.785.54.54 0 01-.289.22c-.14.054-.312.085-.489.085z" id="path16" fill="#323d4d" stroke-width=".357"/><path d="M252.186 331.734a1.25 1.25 0 01-.54-.113c-.145-.071-.23-.168-.239-.273-1.557-14.588-1.869-32.921-2.165-54.145-.529-39.165-1.152-83.563-10.434-123.24-.022-.108.039-.215.17-.3a1.14 1.14 0 01.53-.15 1.416 1.416 0 01.58.082.657.657 0 01.199.121.3.3 0 01.094.15c9.344 39.726 9.905 84.164 10.45 123.33.296 21.216.545 39.541 2.15 54.106a.227.227 0 01-.043.156.447.447 0 01-.157.138.925.925 0 01-.248.097 1.421 1.421 0 01-.3.04z" id="path18" fill="#323d4d" stroke-width=".357"/><path d="M26.997 350.515c-.3-.353-.444-.737-.42-1.123.025-.384.216-.763.56-1.106 2.04-1.98 45.602-12.914 43.92-12.472 6.728 2.966 16.852 2.405 21.072.553 1.854 2.99 6.682 13.626-.903 14.132-4.532.305-61.643 2.98-64.229.016z" id="path20" fill="#1e2635" stroke-width=".357"/><path d="M45.847 352.288c-10.263 0-18.471-.394-19.546-1.604-.346-.41-.51-.855-.48-1.3.03-.448.252-.885.652-1.282 1.9-1.85 35.634-10.484 43.265-12.344l1.06-.279v.057l.467-.105.576.048v.177c6.494 2.725 15.98 2.098 19.764.44l.903-.402.358.586c1.557 2.581 5.358 10.612 1.745 13.531-.34.305-.814.566-1.385.76-.57.194-1.222.32-1.902.36-.311-.007-26.476 1.357-45.477 1.357zm25.122-16.033c-5.53 1.355-41.444 10.588-43.079 12.193-.29.286-.454.603-.479.926-.024.322.092.644.339.941 2.118 2.405 53.98.376 63.403-.256.45-.028.88-.11 1.256-.24s.687-.302.909-.507c2.85-2.3.28-9.026-1.557-12.303-3.219.96-6.919 1.4-10.628 1.272-3.71-.13-7.26-.827-10.195-2z" id="path22" fill="#323d4d" stroke-width=".357"/><path d="M50.402 346.956c-1.952-.07-3.833-.404-5.451-.97-.755-.202-1.42-.483-1.956-.823-.536-.34-.93-.735-1.16-1.157a.43.43 0 01.04-.317.806.806 0 01.275-.284c.128-.084.287-.156.468-.207a2.67 2.67 0 01.588-.097c.208-.016.419-.01.621.018.203.025.393.074.558.14.166.067.304.149.407.243a.58.58 0 01.19.305c0 .102.56.48 1.853.887 1.103.402 2.42.614 3.77.612a2.914 2.914 0 011.213.054c.185.05.348.123.479.204a.82.82 0 01.285.287c.064.102.088.21.07.317a.567.567 0 01-.179.307c-.099.095-.234.18-.397.246a2.33 2.33 0 01-.553.148 8.1 8.1 0 01-1.121.087z" id="path24" fill="#fffffb" stroke-width=".357"/><path d="M59.645 344.467c-1.833-.026-3.614-.32-5.136-.844-1.522-.527-2.722-1.264-3.462-2.129a.517.517 0 01-.142-.312.478.478 0 01.105-.315c.076-.1.19-.19.335-.268a2 2 0 01.512-.18c.19-.043.395-.069.604-.071.209-.005.417.013.612.054a2.1 2.1 0 01.521.171c.15.074.27.164.35.263.498.574 1.296 1.065 2.306 1.418s2.19.552 3.41.578c.413 0 .81.084 1.101.235.293.151.457.353.457.568 0 .213-.164.415-.457.566-.292.15-.688.235-1.1.235z" id="path26" fill="#fffffb" stroke-width=".357"/><path d="M67.744 341.998a21.342 21.342 0 01-4.853-.632c-1.512-.386-2.847-.934-3.915-1.604-.267-.169-.393-.384-.35-.601.042-.215.25-.412.575-.55a2.695 2.695 0 011.165-.18c.419.021.804.129 1.07.297.777.484 1.745.878 2.84 1.154 1.097.277 2.295.43 3.515.448.413 0 .809.084 1.101.235.292.151.456.353.456.566 0 .215-.164.417-.456.568-.292.15-.688.235-1.101.235z" id="path28" fill="#fffffb" stroke-width=".357"/><path d="M184.615 351.62c-.323-.348-.491-.73-.491-1.116 0-.386.168-.764.491-1.112 1.853-2.03 44.527-14.076 42.877-13.629 6.977 2.814 17.038 1.883 21.103-.064 2.087 2.942 7.787 13.723.218 14.43-4.532.409-61.379 4.392-64.198 1.49z" id="path30" fill="#1e2635" stroke-width=".357"/><path d="M196.768 353.05c-6.946 0-12.008-.335-12.895-1.248-.38-.405-.578-.847-.578-1.295 0-.45.197-.893.578-1.295 1.76-1.908 34.777-11.392 42.253-13.451l1.028-.305.078.057.467-.12.56.04v.177c6.62 2.533 16.09 1.601 19.78-.161l.872-.417.42.578c1.48 2.1 6.34 10.589 2.789 13.746-.31.307-.751.575-1.29.783a7.03 7.03 0 01-1.825.411c-.56.016-33.407 2.492-52.236 2.5zm30.588-16.775c-5.56 1.538-40.602 11.671-42.05 13.288-.27.294-.409.611-.409.936 0 .323.14.64.409.934 2.305 2.402 53.965-.86 63.325-1.709.444-.04.863-.135 1.225-.276.362-.138.657-.317.862-.525 2.788-2.484-.607-9.53-2.538-12.512-3.106 1.043-6.744 1.586-10.453 1.563-3.707-.026-7.318-.617-10.37-1.699z" id="path32" fill="#323d4d" stroke-width=".357"/><path d="M207.427 347.532c-1.868-.052-3.681-.34-5.28-.842-.74-.194-1.397-.463-1.932-.79-.535-.328-.937-.71-1.182-1.116-.07-.212.026-.432.269-.609.242-.174.61-.294 1.024-.33.413-.036.837.013 1.178.138.342.126.573.315.644.527.456.376 1.125.668 1.915.842 1.129.381 2.467.568 3.816.53a2.88 2.88 0 01.617-.05c.21.006.416.032.605.08.189.046.357.113.496.195a.896.896 0 01.307.279.47.47 0 01.09.317.536.536 0 01-.156.307 1.2 1.2 0 01-.377.253c-.157.07-.34.123-.538.156a7.796 7.796 0 01-1.496.113z" id="path34" fill="#fffffb" stroke-width=".357"/><path d="M216.43 344.827c-1.78-.015-3.518-.28-5.024-.77-1.506-.488-2.72-1.182-3.51-2.003-.186-.194-.214-.42-.078-.624.135-.205.424-.376.802-.47.378-.095.815-.11 1.213-.042.399.072.727.22.913.415.56.555 1.401 1.02 2.435 1.35 1.034.328 2.222.507 3.436.517.414 0 .81.085 1.102.236.292.148.456.353.456.565a.464.464 0 01-.095.32.98.98 0 01-.333.274c-.145.079-.32.14-.515.184a2.838 2.838 0 01-.615.064z" id="path36" fill="#fffffb" stroke-width=".357"/><path d="M224.423 342.172a21.675 21.675 0 01-4.78-.542c-1.502-.353-2.845-.86-3.942-1.494-.278-.162-.421-.374-.396-.591.025-.215.215-.417.529-.56.314-.144.726-.218 1.145-.205.419.012.811.112 1.09.273.805.476 1.802.855 2.92 1.11 1.12.259 2.334.39 3.559.382.413 0 .81.084 1.1.233.293.15.457.355.457.568 0 .212-.164.417-.456.565-.292.15-.688.235-1.101.235z" id="path38" fill="#fffffb" stroke-width=".357"/><path d="M226.58 155.831s7.49 1.149 8.973 1.315c0 0-2.564 5.45-7.83 6.78l-.124.032z" id="path40" fill="#eab186" stroke-width=".357"/><path d="M220.109 68.714s1.954-.771 4.458.365c13.343 6.048 12.061 16.575 11.876 19.275-.186 2.7 4.607 12.554 7.129 16.251 2.521 3.697 5.575 5.885 7.44 12.32 1.864 6.435-.004 19.156.207 20.724.214 1.57 2.654 9.183 3.932 11.27.954 1.562-.15 6.303-3.471 7.065-3.326.762-5.483 1.755-17.72.974-12.233-.78-9.1-2.872-9.3-5.785-.2-2.91-1.98-5.51-2.033-6.809-.054-1.296-.54-3.745-.518-7 .022-3.255.461-1.99-.775-5.143-1.236-3.152-10.108-19.093-6.893-23.018 3.214-3.926-8.822-17.087-8.63-18.08.197-.992-2.904-10.01-2.904-10.01s2.636-4.244 6.837-7.275c4.204-3.028 9.761-4.708 10.365-5.124z" id="path42" fill="#1a1a1a" stroke-width=".357"/><path d="M119.018 55.292s-3.164-10.222 4.572-15.475c7.74-5.253 5.276-9.755 5.276-12.193 0-2.438 1.407-10.128 8.09-12.942 6.682-2.813 9.497-9.003 31.306-6.753 0 0 5.629-1.689 20.048-.752 14.422.938 20.401 10.692 21.105 12.756.704 2.064 2.11 6.378 5.63 8.44 3.518 2.064 7.035 6.754 4.57 11.442-2.46 4.69-2.574 5.627.822 9.942 3.397 4.314 1.64 5.533 1.64 5.533s-41.153 8.726-103.059.002z" id="path44" fill="#72422c" stroke-width=".357"/><path d="M189.892 63.17h-34.339l3.497-12.352.236-.827.49-1.732h25.894l.55 1.947 1.011 3.569z" id="path46" fill="#f8bd8c" stroke-width=".357"/><path d="M187.231 53.775c-1.95 1.315-4.833 2.429-8.6 2.617-7.823.393-15.452-3.276-19.581-5.572l.236-.827c.353.072.75.146 1.197.22 3.167.53 8.01 1.078 14.454 1.076 4.668-.003 8.236-.5 10.815-1.077l.468-.003z" id="path48" fill="#eab186" stroke-width=".357"/><path d="M171.555 52.76c16.175 0 29.288-9.144 29.288-20.424S187.73 11.91 171.555 11.91c-16.176 0-29.289 9.145-29.289 20.425 0 11.28 13.113 20.424 29.289 20.424z" id="path50" fill="#f8bd8c" stroke-width=".357"/><path d="M151.242 35.908c1.515 2.117.204 4.35-2.929 4.986-3.132.637-6.897-.563-8.411-2.68-1.514-2.118-.203-4.352 2.929-4.987 3.132-.637 6.897.564 8.411 2.68z" id="path52" fill="#f8bd8c" stroke-width=".357"/><path d="M195.81 35.91c-1.51 2.117-.2 4.35 2.933 4.985 3.132.636 6.897-.565 8.408-2.684 1.51-2.118.2-4.351-2.933-4.986-3.132-.635-6.897.567-8.407 2.684z" id="path54" fill="#f8bd8c" stroke-width=".357"/><path d="M151.342 28.344c-.618 0-1.2-.194-1.457-.514-.343-.429.036-.926.84-1.108 7.607-1.72 13.386-.116 13.63-.048.77.219 1.064.733.653 1.143-.41.41-1.361.567-2.136.35-.221-.06-4.768-1.278-10.908.112a3.1 3.1 0 01-.622.065z" id="path56" fill="#1a1a1a" stroke-width=".357"/><path d="M179.449 28.344c-.619 0-1.2-.194-1.458-.514-.343-.429.036-.926.84-1.108 7.607-1.72 13.386-.116 13.63-.048.77.219 1.064.733.653 1.143-.41.41-1.358.567-2.136.35-.221-.06-4.768-1.278-10.908.112a3.072 3.072 0 01-.621.065z" id="path58" fill="#1a1a1a" stroke-width=".357"/><path d="M159.775 32.731c0 .963-1.157 1.742-2.582 1.742-1.425 0-2.582-.78-2.582-1.742 0-.963 1.157-1.742 2.582-1.742 1.425 0 2.582.781 2.582 1.742z" id="path60" fill="#1a1a1a" stroke-width=".357"/><path d="M188.252 32.731c0 .963-1.157 1.742-2.582 1.742-1.425 0-2.582-.78-2.582-1.742 0-.963 1.157-1.742 2.582-1.742 1.425 0 2.582.781 2.582 1.742z" id="path62" fill="#1a1a1a" stroke-width=".357"/><path d="M168.262 13.745s-17.237 12.69-19.698 19.288c-2.461 6.597-16.534 4.535-17.941 4.723-1.407.188 8.443-21.008 8.443-21.008l29.196-6.566z" id="path64" fill="#72422c" stroke-width=".357"/><path d="M168.262 9.359v4.385c3.854 4.162 8.704 8.07 14.5 11.536 6.148 3.671 13.82 6.873 21.327 9.714 1.276.482 3.148 1.01 4.323 1.547-1.054-3.208-2.983-6.408-4.161-9.606-1.058-2.874-1.74-5.929-3.454-8.783-.526-.421-32.535-8.793-32.535-8.793z" id="path66" fill="#72422c" stroke-width=".357"/><path d="M153.564 54.559s-1.593 1.614-1.593 3.143c0 1.528 2.55 5.606-4.143 5.775-6.69.17-28.649 7.645-34.396 9.853-5.743 2.21-4.15 6.965-4.15 6.965s11.786 61.54 13.697 62.56c1.912 1.02 29.389-13.633 39.66-12.996 10.273.637 7.009 1.826 11.152 1.657 4.14-.17 5.733-1.869 7.008-1.784 1.275.085 5.575.51 7.647 1.274 2.071.764 10.036-.425 15.451 2.123 5.415 2.548 27.078 11.042 27.078 11.042s2.867-12.062-1.912-15.8c-4.779-3.738 1.912-36.695 0-37.885-1.91-1.19-3.503-21.065-3.503-21.065s-20.148-5.564-26.603-5.691c-6.45-.127-4.779-8.155-4.779-8.155z" id="path68" fill="#1a1a1a" stroke-width=".357"/><path d="M171.548 46.426c-1.493 0-3.04-.138-4.558-.425-.186-.035-.279-.14-.21-.236.067-.095.274-.143.456-.108 4.494.849 9.283.324 11.648-1.276.118-.081.343-.096.5-.035.157.06.185.177.068.257-1.743 1.18-4.69 1.823-7.904 1.823z" id="path70" fill="#1a1a1a" stroke-width=".357"/><path d="M199.279 46.263c-.072 0-.147 0-.218-.002-1.825-.037-3.39-.52-4.293-1.322-.075-.066-.033-.151.096-.188.128-.039.293-.017.368.05.81.72 2.214 1.15 3.85 1.184 1.714.038 3.361-.385 4.315-1.096 1.446-1.079 1.668-2.675.528-3.795-.785-.773-2.11-1.198-3.729-1.198-.146 0-.268-.063-.268-.138 0-.076.122-.138.268-.138 1.83 0 3.322.478 4.204 1.347 1.225 1.206.99 2.924-.564 4.08-1.018.757-2.746 1.216-4.557 1.216z" id="path72" fill="#1a1a1a" stroke-width=".357"/><path d="M143.745 46.263c-1.81 0-3.543-.46-4.557-1.217-1.357-1.011-1.465-2.418-.279-3.585 1.054-1.037 2.936-1.655 5.036-1.655.147 0 .268.062.268.138 0 .075-.121.138-.268.138-1.925 0-3.59.55-4.561 1.508-1.096 1.077-1 2.371.246 3.3.954.71 2.608 1.132 4.315 1.095 1.64-.033 3.043-.466 3.854-1.184.075-.066.24-.089.368-.05.129.039.171.124.096.188-.903.803-2.468 1.285-4.293 1.322-.079.002-.15.002-.225.002z" id="path74" fill="#1a1a1a" stroke-width=".357"/><path d="M171.74 38.844h-.428c-1.422 0-2.572-.615-2.572-1.372v-4c0-.126.193-.229.429-.229s.429.103.429.229v3.772c0 .632.96 1.143 2.142 1.143.236 0 .429.104.429.229s-.193.228-.429.228z" id="path76" fill="#1a1a1a" stroke-width=".357"/><path d="M158.265 139.536l-15.416-4.827 1.082-1.624c.768-.566 1.633-1.225.636-1.71-1.028-.502-2.682-.614-3.986-.271l-17.23 4.516-12.183 5.14c7.915 4.022 13.762 4.331 17.326 3.86.372.085.743.171 1.125.249l13.22 2.627c1.196.326 2.746.171 3.535-.354.572-.379.922-1.023-1.546-1.795l2.468.772c1.268.346 2.907.171 3.71-.392.747-.497.23-1.245-1.188-1.797l1.914.484c1.382.377 3.207.154 3.961-.52.653-.585.14-1.301-1.05-1.673l-2.722-.849 3.165.18c1.521.354 3.607.485 4.354-.246.642-.63.075-1.376-1.175-1.77z" id="path78" fill="#f8bd8c" stroke-width=".357"/><path d="M113.436 73.332S79.804 89.75 76.668 92.228c-2.954 2.333-4.925 2.898-6.983 3.727-2.057.829-1.421 1.502-8.425 7.479-5.226 4.458-8.351 11.85-4.758 16.96 3.718 5.284 13.62 8.892 22.795 11.468 9.947 2.792 11.847 3.696 19.784 6.185 7.94 2.491 10.018 2.964 14.355 5.353 2.59 1.426 8.743 2.106 12.454 2.726 1.633.273 3.633-.67 4.115-1.544l7.197-12.593s-6.219-7.919-18.662-11.134c-7.098-1.833-15.387-3.75-19.442-5.595-3.293-1.497 8.623-4.682 11.094-5.78 2.036-.904 9.905-4.553 11.308-4.801 1.4-.249 5.605-10.646 5.605-10.8 0-.156-13.67-20.547-13.67-20.547z" id="path80" fill="#1a1a1a" stroke-width=".357"/><path d="M115.34 107.717a1.07 1.07 0 01-.562-.14c-.246-.16-.192-.39.118-.517 4.205-1.716 7.948-3.806 11.126-6.213.547-.414 1.072-.902 1.625-1.42 1.3-1.213 2.647-2.466 4.626-3.098.336-.107.775-.054.982.12.207.173.104.4-.232.506-1.661.529-2.915 1.698-4.125 2.828-.572.532-1.111 1.035-1.694 1.477-3.257 2.467-7.1 4.612-11.418 6.376-.132.055-.29.08-.447.08z" id="path82" fill="#333" stroke-width=".357"/><path d="M137.066 127.618c-.264 0-.521-.077-.643-.208-.021-.022-2.186-2.268-6.926-3.314-5.128-1.132-6.61-1.88-6.671-1.911-.279-.144-.279-.378 0-.521.279-.144.732-.144 1.01 0 .011.006 1.422.694 6.223 1.754 5.246 1.159 7.554 3.569 7.65 3.672.171.182.022.403-.332.491a1.275 1.275 0 01-.311.037z" id="path84" fill="#333" stroke-width=".357"/><path d="M225.548 135.967a1.41 1.41 0 01-.171-.011c-.382-.049-.618-.247-.525-.446.007-.019.871-1.94-.3-5.447l-.25-.745c-.636-1.884-.66-1.957-.246-2.946.164-.392.389-.928.664-1.841.986-3.26-4.74-14.69-4.797-14.806-.1-.197.129-.397.511-.449.382-.052.771.066.871.263.24.477 5.858 11.694 4.826 15.104a17.31 17.31 0 01-.679 1.882c-.357.849-.357.849.257 2.664l.25.748c1.225 3.675.318 5.663.279 5.746-.075.171-.368.284-.69.284z" id="path86" fill="#333" stroke-width=".357"/></svg>