<svg xmlns="http://www.w3.org/2000/svg" width="302" height="400" version="1.1" id="svg78" fill="none"><path d="M52.815 374.542c6.074 2.488 16.537 2.571 26.667.754l4.311-19.73-30.077-1.184z" id="path2" fill="#fda581" stroke-width=".311"/><path d="M30.544 383.962c-9.013 3.665-11.62 6.079-13.5 9.214-1.392 2.306-.745 4.222 4.996 4.677 11.502.929 22.377 1.501 30.038.754 4.154-.398 8.778-.92 23.63-6.335 8.662-3.16 5.683-2.778 5.88-17.175-.01-.132-.087-.26-.23-.378a1.792 1.792 0 00-.593-.299 3.872 3.872 0 00-.842-.162 4.94 4.94 0 00-.923.01c-10.247 1.01-21.063-.672-25.472-1.518a4.744 4.744 0 00-1.749.008 2.792 2.792 0 00-.705.236c-.192.098-.33.213-.407.337-3.605 5.632-.548 2.687-20.123 10.631z" id="path4" fill="#637690" stroke-width=".311"/><path d="M43.853 399.352a286.79 286.79 0 01-21.965-1.104 15.24 15.24 0 01-2.98-.436c-.909-.233-1.69-.544-2.291-.916-1.352-.895-1.51-2.146-.49-3.84 1.96-3.259 4.722-5.721 13.716-9.403 5.878-2.38 9.797-3.806 12.285-4.743 5.193-1.908 5.193-1.908 6.8-4.545l.725-1.185c.12-.18.33-.346.614-.49a4.27 4.27 0 011.032-.341 7.129 7.129 0 011.283-.113c.442 0 .88.038 1.283.113 4.154.78 14.912 2.488 24.944 1.493a7.43 7.43 0 011.399-.002c.46.042.893.128 1.266.252.362.123.653.28.85.457.198.18.296.373.286.57 0 3.641 0 6.377.196 8.384.314 6.104.353 6.636-6.466 9.122-15.323 5.582-19.947 6.029-24.042 6.428a90.09 90.09 0 01-8.445.3zm-12.6-15.101c-8.7 3.54-11.364 5.903-13.226 9.012-.862 1.435-.783 2.488.236 3.193.456.271 1.04.498 1.715.666.675.17 1.425.276 2.203.314 9.543.763 21.554 1.542 29.646.763 3.92-.383 8.27-.829 23.2-6.253 6.114-2.23 6.114-2.488 5.879-8.451a107.528 107.528 0 01-.197-8.408c.01-.07-.024-.141-.095-.205a.848.848 0 00-.316-.16 2.465 2.465 0 00-.98-.1c-10.62 1.054-21.847-.72-26.197-1.534a2.35 2.35 0 00-.902 0c-.145.03-.275.073-.38.126a.607.607 0 00-.227.181l-.725 1.177c-1.724 2.836-1.96 2.928-7.407 4.976-2.547.938-6.407 2.347-12.207 4.718z" id="path6" fill="#637690" stroke-width=".311"/><path d="M44.146 398.487c-1.02 0-1.96 0-3.077-.051h-.529c-8.504-.265-17.948-.662-22.396-2.031a2.963 2.963 0 01-.769-.288c-.205-.118-.348-.255-.421-.398a.458.458 0 010-.433c.072-.145.216-.28.421-.397.205-.118.467-.218.769-.289a5.03 5.03 0 01.98-.13c.345-.013.693.004 1.02.051.328.05.628.124.88.224 3.684 1.137 14.618 1.478 19.869 1.66h.549c5.504.265 11.067-.205 15.91-1.343 4.24-1.14 8.211-2.452 11.855-3.915a274 274 0 015.27-1.973c.494-.18 1.136-.27 1.784-.248.65.021 1.251.151 1.675.359.424.209.633.48.584.756-.05.273-.355.53-.849.709-1.959.736-3.703 1.366-5.212 1.939-3.837 1.552-8.024 2.94-12.5 4.147-4.81 1.158-10.283 1.73-15.813 1.651z" id="path8" fill="#fff" stroke-width=".311"/><path d="M50.922 389.966c-4.703 0-14.794-.93-17.302-2.704-.13-.096-.165-.21-.1-.316.067-.107.23-.199.453-.256.224-.054.489-.069.738-.04.25.027.463.095.594.19 1.96 1.31 10.757 2.297 15.676 2.297.26 0 .508.043.692.12.184.079.287.183.287.294 0 .056-.027.112-.08.165a.695.695 0 01-.227.137 1.46 1.46 0 01-.338.09c-.126.018-.26.025-.393.023z" id="path10" fill="#fff" stroke-width=".311"/><path d="M61.86 385.812c-7.347 0-17.634-1.104-20.554-3.25a.327.327 0 01-.122-.154.188.188 0 01.025-.163.45.45 0 01.17-.145c.08-.045.178-.081.29-.107a2.112 2.112 0 011.09.03.933.933 0 01.252.122c2.528 1.875 13.716 3.103 21.24 2.787.26-.01.52.021.721.092.203.07.33.17.357.282.026.109-.053.22-.218.305a1.655 1.655 0 01-.664.15 53.03 53.03 0 01-2.587.051z" id="path12" fill="#fff" stroke-width=".311"/><path d="M68.354 380.802c-4.702 0-15.244-.248-19.594-2.33a.639.639 0 01-.213-.133.223.223 0 01-.075-.158c0-.053.025-.107.075-.156a.607.607 0 01.213-.132c.09-.04.2-.07.319-.092a2.153 2.153 0 01.753 0c.12.022.228.051.319.092 3.919 1.856 14.617 2.146 20.3 2.04.128-.006.259 0 .382.017.124.017.237.044.333.08a.646.646 0 01.225.133c.053.05.08.105.079.158a.212.212 0 01-.06.16.592.592 0 01-.2.14c-.087.04-.192.072-.309.093a2.08 2.08 0 01-.372.039c-.392.034-1.176.049-2.175.049z" id="path14" fill="#fff" stroke-width=".311"/><path d="M233.454 374.183c-6.583 2.298-17.027 1.95-26.726-.247l-.177-19.813 30.195-.058z" id="path16" fill="#fda581" stroke-width=".311"/><path d="M253.671 384.409c8.21 3.987 10.307 6.484 11.522 9.676.901 2.348-.137 4.231-5.878 4.479-11.757.489-22.612.656-30.097-.374-4.037-.555-8.543-1.243-22.22-7.197-7.955-3.475-5.075-2.977-2.332-17.324.028-.135.127-.263.29-.378.164-.116.387-.214.653-.289.266-.072.568-.12.884-.136a4.87 4.87 0 01.936.04c9.993 1.384 21.123.116 25.806-.555.285-.04.588-.053.887-.04.3.014.588.055.846.119.259.066.48.154.651.258.172.107.287.225.34.35 2.311 5.765-.118 2.696 17.712 11.37z" id="path18" fill="#637690" stroke-width=".311"/><path d="M243.857 399.37a117.963 117.963 0 01-14.97-.772c-3.92-.549-8.524-1.17-22.593-7.306-6.27-2.738-6.153-3.227-4.546-9.305.51-1.99 1.234-4.711 1.96-8.342.035-.196.178-.389.416-.557.237-.171.565-.314.955-.423a6.15 6.15 0 011.302-.205 7.104 7.104 0 011.383.058c9.797 1.358 20.867.066 25.159-.558a7.28 7.28 0 011.279-.043c.429.026.841.086 1.21.182.37.096.687.222.933.374.247.15.415.32.496.5l.47 1.202c1.059 2.686 1.059 2.686 5.879 4.786a301.185 301.185 0 0111.247 5.183c8.23 3.996 10.483 6.559 11.757 9.884.666 1.717.235 2.96-1.293 3.806-.677.343-1.518.623-2.466.82a16.27 16.27 0 01-3.04.324c-4.88.207-10.287.391-15.538.391zm-37.112-26.09a2.001 2.001 0 00-.627.083 1.088 1.088 0 00-.348.148c-.086.06-.134.13-.142.2a108.171 108.171 0 01-1.96 8.368c-1.567 5.954-1.626 6.185 3.92 8.632 13.715 5.989 18.026 6.576 21.808 7.099 7.838 1.087 20.045.754 29.704.348a12.477 12.477 0 002.284-.228c.715-.143 1.352-.348 1.87-.6 1.176-.648 1.47-1.709.921-3.17-1.214-3.175-3.37-5.62-11.305-9.478-5.29-2.571-8.838-4.147-11.17-5.149-5.094-2.232-5.211-2.332-6.348-5.217a34.188 34.188 0 00-.49-1.203.424.424 0 00-.177-.188 1.21 1.21 0 00-.351-.134 2.014 2.014 0 00-.44-.064c-.156-.006-.314 0-.462.021-4.507.647-16.067 2-26.413.555a2.853 2.853 0 00-.274-.023z" id="path20" fill="#637690" stroke-width=".311"/><path d="M244.703 398.446h-4.35c-6.59.054-13.052-.768-18.477-2.353-4.207-1.365-8.091-2.898-11.6-4.579-1.37-.63-2.9-1.318-4.76-2.131a1.755 1.755 0 01-.577-.34c-.135-.128-.208-.267-.212-.408-.005-.14.06-.282.187-.41a1.66 1.66 0 01.555-.346 3.86 3.86 0 01.833-.226c.311-.05.643-.073.975-.066.333.004.66.038.96.1.299.062.567.147.786.254 1.959.829 3.428 1.525 4.84 2.155 3.308 1.6 6.984 3.054 10.972 4.346 4.616 1.324 10.1 2.001 15.676 1.933h.529c5.27 0 16.243.098 20.162-.897a4.66 4.66 0 01.917-.167c.33-.027.67-.027 1 .002.328.03.64.088.913.171.273.083.503.19.676.312.173.122.284.258.327.4a.476.476 0 01-.076.42c-.094.137-.253.265-.468.374-.215.109-.48.198-.781.263-4.213 1.012-11.698 1.193-19.007 1.193z" id="path22" fill="#fff" stroke-width=".311"/><path d="M234.008 389.675h-1.841a1.742 1.742 0 01-.672-.15c-.17-.085-.251-.196-.23-.307.035-.109.165-.207.365-.275.2-.07.455-.105.713-.098 4.84.183 13.912-.472 16.028-1.709.074-.045.17-.083.28-.111.109-.03.232-.05.36-.058.128-.009.26-.006.385.006.126.015.244.039.347.073.205.064.343.16.383.267.04.107-.02.216-.168.305-2.527 1.459-10.815 2.057-15.95 2.057z" id="path24" fill="#fff" stroke-width=".311"/><path d="M225.354 385.137a73.328 73.328 0 01-5.702-.207c-.26-.021-.49-.085-.639-.177-.148-.092-.204-.205-.154-.316.049-.11.2-.208.418-.27a2.14 2.14 0 01.747-.066c7.348.588 18.81-.207 21.73-1.982.071-.044.163-.085.27-.115a1.94 1.94 0 01.352-.06c.127-.01.256-.009.381.002.126.011.245.034.35.064.107.032.199.07.27.118.07.045.12.096.143.151a.181.181 0 01-.005.163.4.4 0 01-.153.15c-2.88 1.774-11.11 2.545-18.008 2.545z" id="path26" fill="#fff" stroke-width=".311"/><path d="M221.905 379.956c-2.431.002-4.86-.064-7.27-.199a1.55 1.55 0 01-.635-.16c-.154-.087-.221-.196-.188-.303a.302.302 0 01.118-.156.917.917 0 01.252-.122 2.13 2.13 0 01.728-.08c5.623.323 16.321.432 20.632-1.268.092-.04.2-.07.319-.092a2.158 2.158 0 01.754 0c.12.022.228.052.318.092.181.08.282.184.282.295 0 .109-.1.213-.282.293-3.526 1.394-9.875 1.7-15.028 1.7z" id="path28" fill="#fff" stroke-width=".311"/><path d="M46.827 366.512c-.776-.167-1.427-.42-1.88-.737-.454-.314-.692-.677-.687-1.044.685-41.423 3.154-80.508 11.756-118.033 6.878-30.286-2.625-46.357 36.642-83.899 5.055-4.826-2.49-3.582 136.885 3.135 21.554 38.072 40.658 115.942 14.52 199.858-.108.378-.47.735-1.043 1.03-.573.294-1.333.512-2.191.628-12.658 1.725-23.2 2.39-37.797 1.046-.976-.092-1.859-.312-2.518-.63-.659-.318-1.06-.715-1.146-1.138C171.622 228.71 158.63 220.6 158.63 220.6c-.023-.049-.085-.093-.176-.124a1.012 1.012 0 00-.323-.05c-.118 0-.233.018-.324.05-.09.031-.153.075-.176.124-17.635 40.96-42.422 96.198-68.834 146.858-.218.417-.748.792-1.51 1.07-.763.278-1.718.444-2.723.472-12.54.276-27.687-.297-37.738-2.488z" id="path30" fill="#54c5d0" stroke-width=".311"/><path d="M157.681 218.336a3.29 3.29 0 01-.764-.09 1.552 1.552 0 01-.55-.236c-.132-.097-.198-.208-.194-.32-.077-3.284-2.089-6.507-5.852-9.379-3.764-2.871-9.16-5.3-15.702-7.066a1.107 1.107 0 01-.28-.11.417.417 0 01-.157-.149.184.184 0 01-.012-.162.351.351 0 01.135-.151c.141-.092.361-.157.613-.182.252-.025.517-.007.74.05 6.718 1.813 12.282 4.297 16.2 7.234 3.92 2.937 6.074 6.236 6.274 9.608a413.734 413.734 0 0016.714-4.296 2.18 2.18 0 01.702-.036c.237.025.443.086.578.173.135.086.188.19.151.292-.037.102-.163.195-.353.26a403.675 403.675 0 01-17.478 4.478 3.164 3.164 0 01-.765.083z" id="path32" fill="#d9987d" stroke-width=".311"/><path d="M160.797 213.7a2.21 2.21 0 01-.381-.035 1.45 1.45 0 01-.32-.094.63.63 0 01-.21-.14.227.227 0 01-.07-.162c2.783-21.005.471-30.584-1.567-39.042-1.018-4.205-1.96-8.177-2.292-13.186.005-.109.106-.213.284-.291.178-.079.42-.126.676-.132.256.004.499.047.683.122.185.075.297.177.316.284.314 4.976 1.254 8.932 2.273 13.12 2.058 8.483 4.37 18.103 1.588 39.167-.015.105-.126.204-.308.277a1.88 1.88 0 01-.672.112z" id="path34" fill="#d9987d" stroke-width=".311"/><path d="M203.736 363.787a1.86 1.86 0 01-.68-.115c-.182-.075-.29-.175-.3-.282-1-10.971-1.509-20.293-1.96-28.52-1.959-35.434-2.88-53.23-36.17-113.413-.06-.106-.016-.218.12-.312.136-.093.353-.16.605-.185a2.257 2.257 0 01.749.047c.112.029.208.066.285.111a.418.418 0 01.16.149c33.311 60.272 34.291 78.085 36.211 113.612.431 8.218.94 17.54 1.96 28.502a.212.212 0 01-.06.16.593.593 0 01-.2.14 1.395 1.395 0 01-.309.093 2.074 2.074 0 01-.372.039z" id="path36" fill="#54c5d0" stroke-width=".311"/><path d="M162.354 202.447a1.74 1.74 0 01-.47-.058c-.226-.054-.392-.143-.462-.25-.07-.105-.038-.218.089-.314 1.509-1.11 3.331-2.313 5.075-3.474 1.744-1.161 3.546-2.339 5.036-3.434 1.115-.765 2.028-1.58 2.723-2.43.556-.935.84-1.896.843-2.86.666-6.56-.94-13.584-2.332-19.77-.235-1.012-.45-2.016-.666-2.994a.196.196 0 01.041-.162c.039-.052.1-.1.183-.142.084-.042.185-.077.3-.102a2.269 2.269 0 01.75-.029c.122.016.237.043.336.078.1.035.181.078.24.126.06.049.098.102.11.156.215.979.45 1.974.666 2.985 1.41 6.22 3.017 13.269 2.351 19.903-.008 1.035-.318 2.066-.921 3.069-.725.911-1.705 1.783-2.92 2.595-1.489 1.12-3.31 2.314-5.074 3.475-1.764 1.161-3.547 2.347-5.017 3.441a1.127 1.127 0 01-.38.147 2.158 2.158 0 01-.501.044z" id="path38" fill="#d9987d" stroke-width=".311"/><path d="M68.859 193.871a2.38 2.38 0 01-.384-.012 1.733 1.733 0 01-.344-.074.883.883 0 01-.25-.124.307.307 0 01-.12-.155.191.191 0 01.03-.162.472.472 0 01.174-.145c.08-.044.18-.08.293-.106.113-.027.237-.045.366-.051l4.545-.464c9.64-.962 9.64-.962 11.757-3.915 2.586-3.433 4.78-6.634 7.113-9.951 1.214-1.733 2.43-3.491 3.742-5.332a.503.503 0 01.183-.15c.084-.044.188-.081.305-.108a2.15 2.15 0 01.38-.051c.132-.006.267-.001.396.014a1.8 1.8 0 01.353.078.88.88 0 01.257.129c.064.05.105.104.12.16a.201.201 0 01-.035.168c-1.312 1.833-2.527 3.59-3.742 5.324-2.332 3.359-4.527 6.527-7.132 9.951-2.489 3.318-2.861 3.426-13.266 4.47l-4.526.457z" id="path40" fill="#d9987d" stroke-width=".311"/><path d="M151.46 161.462c0 .177-.124.35-.356.498-.233.147-.564.262-.95.33a4.848 4.848 0 01-1.223.05 3.629 3.629 0 01-1.084-.245c-.296-.125-.497-.285-.579-.458-.081-.174-.04-.354.12-.518.16-.163.432-.303.78-.402a4.404 4.404 0 011.176-.15c.56 0 1.1.094 1.496.262.397.168.62.395.62.633z" id="path42" fill="#3b3348" stroke-width=".311"/><path d="M150.994 176.034c1.169 0 2.116-.401 2.116-.896s-.947-.896-2.116-.896c-1.168 0-2.116.401-2.116.896s.948.896 2.116.896z" id="path44" fill="#3b3348" stroke-width=".311"/><path d="M177.947 47.669h-43.423v18.446h43.423z" id="path46" fill="#f8bd8c" stroke-width=".311"/><path d="M177.947 49.173v5.735c-3.182 1.515-7.527 2.717-12.993 2.95-11.736.497-23.214-3.61-30.43-6.789v-1.902l.105.014c5.295.742 13.381 1.518 24.164 1.511 7.798-.004 13.762-.698 18.068-1.51z" id="path48" fill="#eab186" stroke-width=".311"/><path d="M126.603 31.929c.538 3.082-2.018 5.696-5.711 5.84-3.693.144-7.129-2.239-7.667-5.32-.538-3.083 2.018-5.697 5.71-5.84 3.694-.143 7.125 2.238 7.668 5.32z" id="path50" fill="#f2b588" stroke-width=".311"/><path d="M198.006 32.564c-.78 3.071-4.39 5.393-8.07 5.186-3.68-.206-6.034-2.863-5.26-5.935.775-3.071 4.39-5.393 8.07-5.186 3.684.206 6.039 2.863 5.26 5.935z" id="path52" fill="#f2b588" stroke-width=".311"/><path d="M155.987 54.097c19.463 0 35.24-9.91 35.24-22.135 0-12.224-15.777-22.134-35.24-22.134-19.462 0-35.24 9.91-35.24 22.134s15.778 22.135 35.24 22.135z" id="path54" fill="#f8bd8c" stroke-width=".311"/><path d="M156.268 38.583c-.403 0-.696-.006-.805-.008-.233-.004-.412-.097-.399-.206.013-.11.206-.198.438-.188 1.663.037 4.55-.048 5.216-.423.639-.36.333-2.439-.092-3.797-.035-.107.127-.208.354-.225.232-.016.443.06.478.167.179.575 1.019 3.48-.093 4.109-.896.503-3.68.57-5.097.57z" id="path56" fill="#080305" stroke-width=".311"/><path d="M147.656 24.71c-1.37.067-2.8.119-4.188.17-1.396.058-2.783.11-4.157.178-1.374.068-2.73.152-4.07.241-1.334.103-2.643.219-3.947.346l-.083.009c-.919.088-1.82-.19-2.009-.625-.153-.355.215-.703.858-.866 1.396-.354 2.884-.591 4.372-.767a63.092 63.092 0 014.498-.328 75.962 75.962 0 014.49-.02 55.53 55.53 0 014.468.272c.805.084 1.308.462 1.129.841-.145.301-.678.513-1.295.544z" id="path58" fill="#080305" stroke-width=".311"/><path d="M164.333 23.32a54.48 54.48 0 014.468-.273 77.763 77.763 0 014.49.02c1.5.06 3.006.162 4.498.329 1.492.175 2.975.412 4.371.767.827.21 1.134.696.692 1.086-.363.317-1.12.474-1.838.404l-.088-.008a207.235 207.235 0 00-3.947-.347 245.68 245.68 0 00-4.07-.24c-1.374-.069-2.76-.122-4.157-.178-1.387-.054-2.818-.103-4.187-.171l-.066-.004c-.818-.042-1.413-.388-1.326-.773.07-.308.551-.547 1.16-.613z" id="path60" fill="#080305" stroke-width=".311"/><path d="M141.167 30.167c0 .991-1.3 1.795-2.902 1.795-1.601 0-2.9-.804-2.9-1.795 0-.992 1.299-1.796 2.9-1.796 1.602 0 2.902.804 2.902 1.796z" id="path62" fill="#5a2f0a" stroke-width=".311"/><path d="M175.898 30.167c0 .991-1.299 1.795-2.9 1.795-1.602 0-2.902-.804-2.902-1.795 0-.992 1.3-1.796 2.901-1.796 1.602 0 2.901.804 2.901 1.796z" id="path64" fill="#5a2f0a" stroke-width=".311"/><path d="M217.973 66.927s32.575 4.805 39.222 7.607c6.647 2.803 29.254 26.73 29.254 39.284 0 12.556 5.316 31.832 0 35.46-5.318 3.628-29.254 21.621-45.209 25.77-15.955 4.153-22.493 3.842-22.493 3.842l-3.903-18.69 17.088-29.564-8.668-44.55z" id="path66" fill="#755faa" stroke-width=".311"/><path d="M116.18 63.271c3.575-.628 13.15-1.909 19.85-.733 6.699 1.175 22.824 2.35 30.513.733 7.693-1.616 17.613-1.832 24.562-1.136 6.945.697 26.545 2.606 37.957 7.014 11.413 4.407 18.354 87.569 7.812 94.623-3.685 2.464-22.029 10.86-51.077 8.34-23.21-2.011-49.527 6.787-74.29.797-19.343-4.68-34.772-4.727-34.772-4.727s-23.32-73.464-10.42-90.214c-.004-.002 1.484-6.174 49.865-14.697z" id="path68" fill="#755faa" stroke-width=".311"/><path d="M116.792 64.404S90.208 72.071 78.74 75.252c-11.47 3.18-18.966 7.83-21.613 10.52-2.648 2.69-8.822 5.137-8.38 6.85.442 1.713-10.144 9.052-12.35 15.169-2.205 6.116-6.174 26.422-6.174 27.156 0 .734 7.059 17.616 7.059 17.616s20.729 11.742 25.14 14.434c4.41 2.69 17.644 7.094 19.407 7.094 1.764 0 12.791-4.158 12.35-8.318-.443-4.16-3.528-16.148-6.617-18.104-2.416-1.53-5.37-2.911-7.597-4.962a11.45 11.45 0 01-1.667-1.889c-2.206-3.18 3.969-10.765 3.969-10.765s19.85-26.911 18.965-30.58c-.883-3.67 5.733-16.637 3.97-20.061-1.76-3.426 11.591-15.008 11.591-15.008z" id="path70" fill="#755faa" stroke-width=".311"/><path d="M126.336 175.257c-15.504 0-22.527-3.97-22.83-4.143-.306-.178-.249-.437.128-.58.376-.144.927-.117 1.23.06.109.062 7.303 4.082 22.93 3.828 13.525-.22 20.348-.993 25.826-1.614 1.13-.127 2.197-.25 3.282-.36 9.886-1.023 23.591-2.237 28.47-.96.42.112.573.362.342.562-.237.198-.766.27-1.19.16-4.867-1.272-21.71.47-27.245 1.044-1.064.11-2.127.23-3.247.356-5.558.629-12.472 1.412-26.177 1.637-.513.006-1.02.01-1.519.01z" id="path72" fill="#755faa" stroke-width=".311"/><path d="M82.266 138.788c-.402 0-.77-.132-.858-.328-1.995-4.442-.976-8.435 3.024-11.87 3.68-3.158 6.052-6.358 8.564-9.743 1.475-1.985 2.993-4.036 4.796-6.06.188-.21.7-.31 1.147-.221.446.089.656.33.468.54-1.782 2.002-3.295 4.04-4.757 6.013-2.424 3.27-4.936 6.649-8.682 9.869-3.794 3.255-4.748 7.059-2.844 11.303.1.223-.202.441-.674.489-.062.004-.123.008-.184.008z" id="path74" fill="#1d1647" stroke-width=".311"/><path d="M152.741 64.544c-6.651 0-17.98-1.752-18.493-1.833-.46-.072-.709-.305-.555-.521.153-.217.647-.334 1.106-.262.132.02 13.238 2.047 19.18 1.763 3.353-.161 5.602-.122 7.094-.097.958.016 1.79.03 2.022-.04.407-.123.95-.068 1.208.124.262.192.144.448-.263.57-.691.21-1.575.195-3.032.168a97.03 97.03 0 00-6.853.093 25.24 25.24 0 01-1.414.035z" id="path76" fill="#755faa" stroke-width=".311"/></svg>