<svg xmlns="http://www.w3.org/2000/svg" version="1.1" x="0" y="0" xml:space="preserve" id="svg11" width="70" height="11"><path id="logo-a1" d="M.502 5.259c.247-1.277 1.384-2.16 2.965-2.16 1.829 0 3.262.785 3.262 3.24v4.565H5.147l-.197-.982c-.544.687-1.285 1.129-2.372 1.129-1.335 0-2.372-.835-2.372-2.356 0-1.522 1.383-2.504 3.31-2.504h1.285v-.343c0-.884-.642-1.13-1.383-1.13-.544 0-1.087.197-1.334.884zm2.52 4.172c.89 0 1.78-.589 1.78-1.57v-.148H3.565c-.84-.05-1.334.294-1.334.982 0 .343.296.736.79.736z" stroke-width=".493"/><path id="logo-a2" d="M37.762 5.259c.247-1.277 1.384-2.16 2.965-2.16 1.829 0 3.262.785 3.262 3.24v4.565h-1.582l-.197-.982c-.544.687-1.285 1.129-2.372 1.129-1.335 0-2.372-.835-2.372-2.356 0-1.522 1.383-2.504 3.31-2.504h1.285v-.343c0-.884-.642-1.13-1.383-1.13-.544 0-1.087.197-1.335.884zm2.52 4.172c.89 0 1.78-.589 1.78-1.57v-.148h-1.285c-.84 0-1.335.294-1.335.982.05.343.346.736.84.736z" stroke-width=".493"/><path id="logo-r" d="M45.718 10.953V3.197h1.927v1.276C48.19 3.54 49.08 3.1 49.92 3.1c.345 0 .642.049.938.147l-.345 1.767c-.248-.147-.495-.245-.791-.245-1.137 0-2.076.932-2.076 3.387v2.749z" stroke-width=".493"/><path id="logo-d" d="M54.959 3.099c.79 0 1.532.392 1.878.834V.104h1.927v10.849h-1.927v-.786c-.247.393-.939.933-1.878.933-2.323 0-3.509-1.62-3.509-3.976s1.186-4.025 3.509-4.025zm.297 6.332c.988 0 1.779-.834 1.779-2.356 0-1.522-.791-2.356-1.78-2.356-.988 0-1.778.834-1.778 2.356 0 1.522.79 2.356 1.779 2.356z" stroke-width=".493"/><path id="logo-s" d="M65.682 4.326l-1.136 1.03a1.624 1.624 0 00-1.285-.687c-.395 0-.741.246-.741.639 0 .343.296.589.741.736 1.087.393 2.817.736 2.817 2.356 0 1.424-1.087 2.553-2.768 2.553-1.63 0-2.717-1.13-3.063-2.062l1.532-.834c.296.736.79 1.276 1.58 1.276.594 0 .99-.295.99-.835 0-.638-.99-.785-1.928-1.178-.84-.343-1.581-.883-1.581-2.061C60.84 4.08 61.828 3 63.31 3c.989.049 1.928.589 2.372 1.325z" stroke-width=".493"/><path id="logo-w2" transform="matrix(.49416 0 0 .49088 .206 .104)" d="M49.1 17.2L46.4 6.3h-3.6l-2.6 10.9-2.2-6.3-.3.7-1.2 4.1 2 6.4h3.4l2.7-10.2 2.7 10.2h3.5l5-15.8h-3.9z"/><path id="logo-w3" transform="matrix(.49416 0 0 .49088 .206 .104)" d="M67.8 17.2L65.1 6.3h-3.6l-2.6 10.9-2.2-6.3-.3.7-1.3 4.1 2.1 6.4h3.4l2.7-10.2L66 22.1h3.4l5.1-15.8h-3.9z"/><path id="logo-w1" d="M18.54 3.197l-2.472 7.707h-1.68l-1.334-4.958-1.334 5.007h-1.68L7.569 3.246h1.927l1.384 5.301 1.334-5.301h1.779l1.334 5.301 1.384-5.301z" stroke-width=".493"/><path id="logo-p" d="M68.598 8.45c.741 0 1.285.54 1.285 1.276s-.544 1.276-1.285 1.276c-.741 0-1.285-.54-1.285-1.276 0-.737.544-1.277 1.285-1.277z" stroke-width=".493"/></svg>