<svg id="svg68" xmlns="http://www.w3.org/2000/svg" viewBox="0 0 1472.34 1004.25"><defs><linearGradient id="linear-gradient" x1="735.45" y1="994.7" x2="735.45" y2="80.7" gradientTransform="matrix(1 0 0 -1.1 -1.07 1092.48)" gradientUnits="userSpaceOnUse"><stop offset="0" stop-color="#241e46"/><stop offset=".65" stop-color="#100936"/><stop offset="1" stop-color="#7c6eb0"/></linearGradient><style>.cls-4{fill:#fff}</style><mask id="mask" x=".01" y=".43" width="1468.79" height="914" maskUnits="userSpaceOnUse"><g transform="translate(.01 .43)"><g id="mask0_1310_7629" data-name="mask0 1310 7629"><path id="path4" d="M1468.79 0H0v914h1468.79z" fill="#00004a"/></g></g></mask></defs><path id="path2" d="M1472.33-.43H0v1004.24h1472.33z" transform="translate(.01 .43)" fill="url(#linear-gradient)"/><path id="path11" class="cls-4" d="M421 550.15a.51.51 0 11-.51-.49.5.5 0 01.51.49z" transform="translate(.01 .43)"/><path id="path13" class="cls-4" d="M343.19 944.42a1.27 1.27 0 11-1.27-1.24 1.26 1.26 0 011.27 1.24z" transform="translate(.01 .43)"/><path id="path15" class="cls-4" d="M553.54 180.51A1.5 1.5 0 11552 179a1.5 1.5 0 011.54 1.51z" transform="translate(.01 .43)"/><path id="path17" class="cls-4" d="M1321.43 564.43a1.16 1.16 0 11-1.15-1.12 1.12 1.12 0 011.15 1.12z" transform="translate(.01 .43)"/><path id="path19" class="cls-4" d="M1387.91 803.64a.87.87 0 11-.86-.86.86.86 0 01.86.86z" transform="translate(.01 .43)"/><path id="path21" class="cls-4" d="M1184.78 337.33a.87.87 0 11-.87-.87.88.88 0 01.87.87z" transform="translate(.01 .43)"/><path id="path23" class="cls-4" d="M79.44 677.34a.87.87 0 01-1.73 0 .87.87 0 111.73 0z" transform="translate(.01 .43)"/><path id="path25" class="cls-4" d="M588.88 1001.57a.87.87 0 11-.87-.87.86.86 0 01.87.87z" transform="translate(.01 .43)"/><path id="path27" class="cls-4" d="M289.54 825.94a.87.87 0 11-.87-.87.86.86 0 01.87.87z" transform="translate(.01 .43)"/><path id="path29" class="cls-4" d="M239.86 815a.87.87 0 01-1.73 0 .87.87 0 111.73 0z" transform="translate(.01 .43)"/><path id="path31" class="cls-4" d="M446.23 943.73a.87.87 0 11-.87-.87.86.86 0 01.87.87z" transform="translate(.01 .43)"/><path id="path33" class="cls-4" d="M1208 354.05a.87.87 0 11-.87-.86.86.86 0 01.87.86z" transform="translate(.01 .43)"/><path id="path35" class="cls-4" d="M287.81 471.26a.87.87 0 11-.86-.87.85.85 0 01.86.87z" transform="translate(.01 .43)"/><path id="path37" class="cls-4" d="M323.23 623.57a.87.87 0 11-.87-.87.86.86 0 01.87.87z" transform="translate(.01 .43)"/><path id="path39" class="cls-4" d="M166.06 180.72a.87.87 0 11-.87-.87.88.88 0 01.87.87z" transform="translate(.01 .43)"/><path id="path41" class="cls-4" d="M62.66 1002.43a.87.87 0 01-1.73 0 .87.87 0 111.73 0z" transform="translate(.01 .43)"/><path id="path43" class="cls-4" d="M371.18 231a1.86 1.86 0 11-1.86-1.81 1.82 1.82 0 011.86 1.81z" transform="translate(.01 .43)"/><path id="path45" class="cls-4" d="M63.55 495.26a.87.87 0 11-.86-.87.88.88 0 01.86.87z" transform="translate(.01 .43)"/><path id="path47" class="cls-4" d="M1418.85 462.38a.87.87 0 11-.86-.86.84.84 0 01.86.86z" transform="translate(.01 .43)"/><path id="path49" class="cls-4" d="M720.21 197.88a.87.87 0 01-1.73 0 .87.87 0 111.73 0z" transform="translate(.01 .43)"/><path id="path51" class="cls-4" d="M1117.53 190.25a.87.87 0 11-.86-.86.85.85 0 01.86.86z" transform="translate(.01 .43)"/><path id="path53" class="cls-4" d="M322.36 189.36a.87.87 0 11-.86-.86.89.89 0 01.86.86z" transform="translate(.01 .43)"/><path id="path55" class="cls-4" d="M51.73 209.42a.87.87 0 11-.87-.86.86.86 0 01.87.86z" transform="translate(.01 .43)"/></svg>