<svg width="146" height="146" fill="none" xmlns="http://www.w3.org/2000/svg"><g clip-path="url(#clip0_1226_9130)"><path d="M142.662 85.683c8.839-36.64-13.698-73.508-50.338-82.346-36.64-8.839-73.507 13.698-82.346 50.338-8.839 36.64 13.699 73.507 50.338 82.346 36.64 8.839 73.508-13.699 82.346-50.338z" fill="#2E284E"/><path d="M76.317 139.351c-38.417 0-69.682-31.251-69.682-69.683C6.635 31.251 37.9 0 76.317 0 114.735 0 146 31.25 146 69.683c0 38.417-31.265 69.668-69.683 69.668zm0-136.479c-36.837 0-66.81 29.973-66.81 66.81 0 36.838 29.973 66.811 66.81 66.811 36.838 0 66.81-29.973 66.81-66.81 0-36.838-29.972-66.81-66.81-66.81z" fill="#63C3D1"/><path d="M69.323 146c-32.5 0-61.008-23.036-67.786-54.775a1.07 1.07 0 01.833-1.278 1.077 1.077 0 011.278.832c6.563 30.749 34.195 53.067 65.69 53.067a67.025 67.025 0 0020.81-3.289 1.083 1.083 0 011.364.689 1.09 1.09 0 01-.69 1.365A69.824 69.824 0 0169.324 146zm45.685-17.564a1.085 1.085 0 01-.733-1.882c14.103-12.724 22.189-30.906 22.189-49.892v-.273c0-.589.474-1.077 1.063-1.091h.014c.589 0 1.077.474 1.077 1.063v.287a69.424 69.424 0 01-22.907 51.486.906.906 0 01-.703.302zM1.078 77.826C.487 77.825 0 77.408 0 76.82v-.143C0 57.145 8.315 38.403 22.806 25.29a1.084 1.084 0 011.522.072c.403.445.36 1.12-.071 1.522C10.21 39.595 2.154 57.748 2.154 76.676c0 .59-.488 1.15-1.077 1.15zm134.941-14.534c-.503 0-.948-.345-1.049-.848-6.62-30.676-34.223-52.937-65.647-52.937a66.965 66.965 0 00-20.939 3.332 1.083 1.083 0 01-1.364-.69 1.09 1.09 0 01.69-1.364c6.95-2.283 14.232-3.432 21.613-3.432 32.429 0 60.937 22.979 67.758 54.631a1.078 1.078 0 01-.818 1.279c-.086.029-.158.029-.244.029z" fill="#EAEAEA"/><path d="M109.091 36.134l-47.02 47.02L43.458 64.54l-12.94 12.94 31.553 31.552 59.96-59.96-12.94-12.94z" fill="#63C3D1"/></g><defs><clipPath id="clip0_1226_9130"><path fill="#fff" d="M0 0h146v146H0z"/></clipPath></defs></svg>