<svg width="87" height="54" fill="none" xmlns="http://www.w3.org/2000/svg"><path fill-rule="evenodd" clip-rule="evenodd" d="M72.612 0C63.214 0 54.92 4.672 49.99 11.79 45.07 4.671 36.777 0 27.378 0 12.252 0 0 12.083 0 27c0 14.907 12.252 27 27.378 27C36.777 54 45.07 49.328 50 42.21 54.93 49.329 63.223 54 72.622 54A27.53 27.53 0 0087 49.981l-5.378-7.77a17.99 17.99 0 01-9.01 2.397c-9.87 0-17.865-7.885-17.865-17.617 0-9.733 8.005-17.609 17.865-17.609V0zM9.514 26.99c0 9.733 7.995 17.618 17.864 17.618 9.86 0 17.865-7.875 17.865-17.608S37.248 9.382 27.378 9.382c-9.869 0-17.864 7.876-17.864 17.608z" fill="#63C3D1"/></svg>