<svg xmlns="http://www.w3.org/2000/svg" width="15.5" height="12" version="1.1" id="svg11" fill="none"><path d="M1.754 5.803A.833.833 0 10.575 6.982l4.167 4.167a.833.833 0 001.178 0l9.167-9.167A.833.833 0 0013.909.803L5.33 9.381z" id="path2" fill="#616173"/><mask id="mask0_1271_10075" maskUnits="userSpaceOnUse" x="3" y="5" width="16" height="11"><path d="M4.466 10.244a.833.833 0 10-1.179 1.179l4.167 4.166a.833.833 0 001.178 0L17.8 6.423a.833.833 0 00-1.179-1.179l-8.577 8.578z" id="path4" fill="#fff"/></mask><g mask="url(#mask0_1271_10075)" id="g9" transform="translate(-2.712 -4.44)"><path id="rect7" fill="#63c3d1" d="M.543 0h20v20h-20z"/></g></svg>