<svg xmlns="http://www.w3.org/2000/svg" width="1360" height="720" version="1.1" id="svg6" fill="none"><g style="mix-blend-mode:overlay" id="g4" transform="translate(0 49)" opacity=".3"><path d="M1302.592-7.447c-44.9-31.87-106.465-41.155-164.366-37.477-57.901 3.678-113.833 18.964-170.115 31.312C911.829-1.266 853.224 8.246 795.928.14c-61.576-8.708-117.989-37.287-179.984-43.36-75.779-7.427-154.974 22.283-200.578 75.244-50.697 58.874-65.333 145.418-140.242 179.821-44.916 20.627-99.731 15.79-147.886 29.903C54.288 263.125 5.074 328.82 1.591 395.468c-3.485 66.649 34.002 131.912 90.154 177.56 56.153 45.649 129.332 73.205 204.339 88.299l-17.683-2.023c152.11 30.192 319.37-3.403 440.642-88.505 43.38-30.44 83.559-68.176 137.555-80.45 64.17-14.586 130.775 10.506 197.056 12.945 55.89 2.057 112.423-12.715 157.684-41.204 31.078-19.558 58.21-48.353 58.886-81.626.864-42.851-41.812-80.576-36.85-123.218 6.347-54.554 83.04-80.588 111.115-129.731 25.753-45.082 3.018-103.09-41.897-134.961z" id="path2" clip-rule="evenodd" fill="#fafaff" fill-opacity=".16" fill-rule="evenodd" stroke-width="1.156"/></g></svg>