<svg width="164" height="25" xmlns="http://www.w3.org/2000/svg"><g id="Page-1" stroke="none" stroke-width="1" fill="none" fill-rule="evenodd"><g id="logo" fill-rule="nonzero" fill="#282828"><g id="Group"><path id="Shape" d="M16.22 16.04L8.11 8.02 16.22 0H8.11L0 8.02l4.055 4.055L8.11 16.04l4.055 3.964z"/><path id="Shape" d="M21.987 12.075L17.932 8.02l-4.055-3.965L9.912 8.02l8.02 8.02-8.11 8.02h8.11l4.055-3.965 4.055-4.055z"/></g><g id="Group" transform="translate(30.637 5.407)"><path d="M5.497 2.613c-1.172 0-2.163.36-2.884 1.172-.72.81-1.081 1.892-1.081 3.334 0 1.441.36 2.523.991 3.334.721.81 1.622 1.171 2.884 1.171.81 0 1.622-.18 2.613-.45v1.171a8.65 8.65 0 01-2.794.45c-1.622 0-2.883-.45-3.784-1.441C.54 10.363.09 8.92.09 7.119c0-1.172.18-2.163.63-2.974.451-.81 1.082-1.532 1.803-1.982.721-.45 1.712-.721 2.884-.721 1.171 0 2.162.18 3.063.63l-.54 1.082c-.721-.27-1.532-.54-2.433-.54zM16.76 9.732c0 .991-.36 1.712-1.08 2.253-.722.54-1.623.81-2.884.81-1.352 0-2.343-.18-3.064-.54v-1.262c.45.18.991.36 1.442.451.45.09 1.08.18 1.622.18.9 0 1.531-.18 1.892-.45.45-.36.63-.811.63-1.352 0-.36-.09-.72-.27-.901-.18-.27-.45-.45-.81-.721-.361-.18-.902-.45-1.623-.72-.99-.361-1.802-.812-2.162-1.353-.45-.54-.631-1.171-.631-1.982 0-.81.36-1.532.991-2.072.631-.541 1.532-.721 2.523-.721 1.082 0 2.073.18 3.064.63l-.36 1.082a7.231 7.231 0 00-2.704-.54c-.72 0-1.171.18-1.622.45-.36.27-.54.72-.54 1.261 0 .36.09.721.18.901.18.27.36.45.72.631.361.18.812.45 1.533.72 1.171.451 1.982.902 2.433 1.353.54.54.72 1.171.72 1.892zm8.56 0c0 .991-.36 1.712-1.08 2.253-.721.54-1.622.81-2.884.81-1.352 0-2.343-.18-3.064-.54v-1.262c.45.18.992.36 1.442.451.45.09 1.081.18 1.622.18.901 0 1.532-.18 1.892-.45.45-.36.631-.811.631-1.352 0-.36-.09-.72-.27-.901-.18-.27-.45-.45-.811-.721-.36-.18-.901-.45-1.622-.72-.991-.361-1.802-.812-2.163-1.353-.45-.54-.63-1.171-.63-1.982 0-.81.36-1.532.99-2.072.631-.541 1.532-.721 2.524-.721 1.081 0 2.072.18 3.063.63l-.36 1.082a7.231 7.231 0 00-2.703-.54c-.721 0-1.172.18-1.622.45-.36.27-.54.72-.54 1.261 0 .36.09.721.18.901.18.27.36.45.72.631.36.18.811.45 1.532.72 1.171.451 1.982.902 2.433 1.353.45.54.72 1.171.72 1.892zm11.265-2.794c0 1.803-.541 3.244-1.532 4.236-.991.99-2.433 1.531-4.326 1.531h-3.604V1.622h3.785c1.802 0 3.154.45 4.145 1.352.991.9 1.532 2.252 1.532 3.964zm-3.064.09c0-.99-.18-1.802-.63-2.252-.361-.45-.992-.721-1.803-.721h-.901v6.218h.63c.902 0 1.532-.27 1.983-.811.54-.541.72-1.352.72-2.433zm9.011 5.858c-1.442 0-2.523-.36-3.334-1.172-.811-.72-1.172-1.802-1.172-3.244 0-1.441.36-2.523 1.082-3.334.72-.81 1.802-1.171 3.154-1.171 1.261 0 2.252.36 2.973.991.721.63 1.081 1.622 1.081 2.884v1.35H41c0 .45.18.811.54 1.172.361.27.812.45 1.352.45.541 0 .992-.09 1.442-.18.45-.09.901-.27 1.442-.54v2.162c-.45.27-.901.36-1.442.45-.54.09-1.081.18-1.802.18zm-.18-6.849c-.36 0-.631.09-.901.36-.27.181-.36.541-.451.992h2.523c0-.45-.09-.72-.36-.991-.09-.27-.36-.36-.811-.36zm12.255 4.055c0 .901-.27 1.622-.902 2.073-.63.45-1.531.72-2.703.72-.63 0-1.171 0-1.622-.09-.45-.09-.991-.18-1.442-.36v-2.343c.451.18.992.36 1.532.541.541.09.992.18 1.442.18.63 0 .991-.18.991-.45 0-.18-.09-.27-.27-.36-.18-.09-.72-.361-1.532-.722-.81-.36-1.352-.72-1.622-1.081-.27-.45-.45-.901-.45-1.532 0-.81.27-1.442.9-1.892.631-.45 1.442-.63 2.614-.63.54 0 1.081.09 1.622.18.54.09.991.27 1.532.54l-.811 1.892a5.21 5.21 0 00-1.262-.45c-.45-.09-.81-.18-1.081-.18-.45 0-.721.09-.721.36 0 .18.09.27.27.36.18.09.631.27 1.442.631.63.27 1.081.45 1.352.721.27.27.54.54.63.811 0 .18.09.63.09 1.081zm1.622-8.11c0-.45.09-.81.36-.99.27-.181.63-.361 1.171-.361s.992.09 1.172.36c.27.18.36.54.36.991 0 .902-.54 1.262-1.622 1.262-.99.09-1.441-.36-1.441-1.262zm2.973 10.723H56.23v-8.56h2.973v8.56zm10.183-8.56v1.442l-1.172.45c.18.27.27.631.27.992 0 .9-.36 1.622-.99 2.162-.631.54-1.623.721-2.884.721-.36 0-.54 0-.721-.09-.09.09-.09.27-.09.36 0 .18.09.27.36.36.27.091.54.091.901.091h1.442c1.892 0 2.884.811 2.884 2.433 0 1.081-.45 1.892-1.352 2.433-.901.54-2.163.901-3.785.901-1.171 0-2.162-.18-2.793-.63a1.932 1.932 0 01-.991-1.713c0-.991.63-1.712 1.892-1.982-.27-.09-.45-.27-.72-.54-.181-.271-.271-.451-.271-.722 0-.27.09-.54.18-.72.18-.18.45-.451.901-.722-.45-.18-.81-.54-1.081-.9-.27-.451-.36-.902-.36-1.533 0-.9.36-1.622.99-2.162.631-.54 1.532-.811 2.704-.811.18 0 .45 0 .81.09.361 0 .632.09.812.09h3.064zm-6.488 9.642c0 .27.09.45.36.63s.63.18 1.081.18c.721 0 1.262-.09 1.713-.27.45-.18.63-.45.63-.72 0-.27-.09-.36-.36-.451a3.53 3.53 0 00-1.172-.18h-1.171c-.36 0-.54.09-.811.18-.18.18-.27.36-.27.63zm.9-6.849c0 .902.271 1.352.902 1.352.27 0 .54-.09.63-.36.18-.18.271-.541.271-.992 0-.9-.27-1.351-.901-1.351-.54 0-.901.45-.901 1.351zm12.256 5.767V8.02c0-.54-.09-.991-.27-1.262-.18-.27-.451-.45-.812-.45-.54 0-.9.18-1.08.63-.181.36-.361 1.082-.361 2.073v3.785h-2.974v-8.56h2.253l.36 1.08h.18c.27-.36.631-.72 1.082-.9.45-.18.991-.27 1.532-.27.99 0 1.712.27 2.252.81.541.54.811 1.352.811 2.343v5.587h-2.973v-.18zm12.435 0l-1.352-3.514h-4.415l-1.352 3.514h-1.261l4.415-11.083h1.081l4.326 11.083h-1.442zM86.686 8.02l-1.262-3.424c-.18-.45-.36-.992-.54-1.622-.09.45-.27.99-.451 1.622L83.171 8.02h3.515zm11.264 4.685L96.417 7.84c-.09-.27-.27-.992-.541-1.983h-.09c-.18.901-.36 1.532-.54 2.073l-1.533 4.866h-1.441l-2.253-8.29h1.351c.541 2.072.902 3.694 1.262 4.775.27 1.082.45 1.803.45 2.163h.09c.09-.27.18-.63.271-1.081.09-.45.27-.811.36-1.082l1.532-4.776h1.352l1.442 4.776c.27.901.45 1.622.54 2.163h.09c0-.18.09-.45.18-.811.09-.36.631-2.433 1.533-6.128h1.261l-2.253 8.29h-1.53v-.09zm10.362 0l-.27-1.17h-.09c-.45.54-.811.9-1.262 1.08-.45.18-.901.27-1.532.27-.81 0-1.442-.18-1.892-.63-.45-.45-.72-.991-.72-1.802 0-1.712 1.35-2.523 4.054-2.613l1.442-.09v-.541c0-.631-.18-1.172-.45-1.442-.271-.27-.722-.45-1.352-.45-.721 0-1.442.18-2.343.63l-.36-.991c.45-.18.81-.36 1.35-.54.451-.09.992-.18 1.443-.18.99 0 1.712.18 2.162.63.45.45.721 1.171.721 2.072v5.677h-.9v.09zm-2.883-.9c.81 0 1.351-.18 1.802-.631.45-.45.63-.992.63-1.803v-.72l-1.261.09c-.991 0-1.712.18-2.163.45-.45.27-.63.721-.63 1.262 0 .45.18.81.45.991.36.27.721.36 1.172.36zm10.182-7.57c.36 0 .72 0 .991.09l-.18 1.172c-.36-.09-.63-.09-.901-.09-.63 0-1.262.27-1.712.81-.45.541-.721 1.262-.721 2.073v4.415h-1.262v-8.29h.992l.18 1.532h.09c.27-.54.72-.991 1.081-1.261.45-.27.901-.45 1.442-.45zm8.2 7.389c-.63.811-1.532 1.262-2.703 1.262-1.082 0-1.893-.36-2.523-1.082-.631-.72-.901-1.802-.901-3.153 0-1.352.27-2.433.9-3.154.631-.721 1.442-1.172 2.524-1.172 1.081 0 1.982.45 2.613 1.262h.09l-.09-.631V.901h1.261v11.804h-.99l-.181-1.08zm-2.523.18c.901 0 1.442-.27 1.892-.72.36-.451.54-1.262.54-2.253v-.27c0-1.172-.18-1.983-.63-2.524-.36-.54-.991-.72-1.892-.72-.721 0-1.262.27-1.712.9-.36.541-.631 1.352-.631 2.434 0 1.08.18 1.892.54 2.433.541.45 1.082.72 1.893.72zm11.714-1.351c0 .81-.27 1.351-.9 1.802-.542.45-1.353.63-2.434.63-1.081 0-1.982-.18-2.613-.54v-1.171c.36.18.81.36 1.261.45.451.09.902.18 1.352.18.63 0 1.172-.09 1.532-.27.36-.18.54-.54.54-.991 0-.36-.18-.63-.45-.811-.27-.27-.81-.54-1.622-.811-.81-.27-1.352-.54-1.622-.721-.36-.18-.54-.45-.72-.72-.18-.271-.271-.632-.271-.992 0-.63.27-1.172.81-1.622.542-.45 1.262-.63 2.254-.63.9 0 1.802.18 2.613.54l-.45.991c-.812-.36-1.623-.54-2.253-.54-.631 0-1.082.09-1.352.27-.27.18-.45.45-.45.81 0 .18.09.451.18.541.09.18.27.27.54.45.27.181.721.361 1.442.632.991.36 1.622.72 1.982 1.081.451.45.631.901.631 1.442z" id="Shape"/></g></g></g></svg>