<svg width="12" height="13" fill="none" xmlns="http://www.w3.org/2000/svg"><path d="M11.47 2.177a.872.872 0 00-.288-.189.912.912 0 00-.344-.065h-.905v-.641a.982.982 0 00-.084-.41 1.03 1.03 0 00-.248-.345 1.092 1.092 0 00-.365-.235 1.141 1.141 0 00-.433-.079h-.45a1.14 1.14 0 00-.434.079 1.092 1.092 0 00-.364.235 1.029 1.029 0 00-.249.345.981.981 0 00-.083.41v.642h-2.71v-.642a.982.982 0 00-.084-.41 1.03 1.03 0 00-.248-.345 1.092 1.092 0 00-.364-.235 1.141 1.141 0 00-.433-.079h-.451A1.141 1.141 0 002.5.292a1.092 1.092 0 00-.365.235 1.03 1.03 0 00-.248.345.982.982 0 00-.083.41v.642H.9a.912.912 0 00-.344.065.872.872 0 00-.288.188.824.824 0 00-.2.274.785.785 0 00-.068.325v8.554a.845.845 0 00.267.601.94.94 0 00.633.255h9.935a.942.942 0 00.635-.254.845.845 0 00.269-.601V2.778a.786.786 0 00-.069-.327.824.824 0 00-.2-.274zM2.936 11.33H.9V9.406h2.032l.003 1.924zm0-2.352H.9V6.84h2.032l.003 2.138zm0-2.566H.9V4.488h2.032l.003 1.924zm-.158-3.057a.205.205 0 01-.067-.15V1.283c0-.057.025-.11.067-.15.042-.04.1-.064.159-.064h.448c.06 0 .117.023.16.063.041.04.065.094.066.15v1.925c0 .057-.025.11-.067.15a.236.236 0 01-.159.064h-.451a.228.228 0 01-.16-.064h.004zm2.868 7.974h-2.26V9.406h2.257l.003 1.923zm0-2.352h-2.26V6.84h2.257l.003 2.137zm0-2.566h-2.26V4.488h2.257l.003 1.923zm2.71 4.918H6.093V9.406h2.258l.004 1.923zm0-2.352H6.093V6.84h2.258l.004 2.137zm0-2.566H6.093V4.488h2.258l.004 1.923zm-.158-3.057a.207.207 0 01-.07-.148V1.282a.21.21 0 01.066-.151c.042-.04.1-.063.16-.063h.45c.06 0 .117.023.16.063a.21.21 0 01.066.15v1.925a.21.21 0 01-.066.151.235.235 0 01-.16.063h-.45a.227.227 0 01-.16-.064l.004-.002zm2.643 7.974H8.803V9.406h2.032l.005 1.922zm0-2.352H8.803V6.84h2.032l.005 2.136zm0-2.566H8.803V4.488h2.032l.005 1.922z" fill="#EAEAEA"/></svg>