<svg width="158" height="113" fill="none" xmlns="http://www.w3.org/2000/svg"><path d="M1.432 105.878c6.683-6.963 11.934-13.452 15.752-19.466 3.819-6.014 5.728-10.92 5.728-14.719 0-2.215-.795-4.273-2.386-6.172-1.273-1.9-3.342-3.957-6.206-6.172-4.455-3.482-7.955-7.122-10.501-10.92C1.273 44.63 0 39.566 0 33.235c0-9.812 3.023-17.725 9.07-23.74C15.115 3.166 22.752 0 31.981 0c9.865 0 17.82 3.165 23.867 9.496 6.365 6.014 9.547 13.927 9.547 23.74 0 12.344-5.251 25.955-15.752 40.831C39.46 88.627 25.776 101.605 8.592 113l-7.16-7.122zm92.604 0c6.683-6.963 11.934-13.452 15.753-19.466 3.818-6.014 5.728-10.92 5.728-14.719 0-2.215-.796-4.273-2.387-6.172-1.273-1.9-3.341-3.957-6.206-6.172-4.455-3.482-7.955-7.122-10.501-10.92-2.546-3.799-3.819-8.863-3.819-15.194 0-9.812 3.023-17.725 9.07-23.74C107.72 3.166 115.357 0 124.586 0c9.865 0 17.821 3.165 23.867 9.496C154.818 15.51 158 23.423 158 33.236c0 12.344-5.251 25.955-15.752 40.831-10.184 14.56-23.867 27.538-41.052 38.933l-7.16-7.122z" fill="#7C6EB0"/></svg>