<svg width="120" height="120" fill="none" xmlns="http://www.w3.org/2000/svg"><path fill-rule="evenodd" clip-rule="evenodd" d="M30 5.625c-5.161 0-9.375 4.214-9.375 9.375v6.424c-8.642 2.46-15.007 10.404-15.007 19.82 0 9.414 6.365 17.374 15.007 19.837v34.545H11.25c-3.084 0-5.625 2.541-5.625 5.625v3.75c0 5.161 4.214 9.375 9.375 9.375h75c5.162 0 9.376-4.214 9.376-9.375v-7.5c.036-2.536-3.786-2.536-3.75 0v7.5c0 3.149-2.477 5.625-5.625 5.625-3.15 0-5.625-2.476-5.625-5.625v-3.75c0-3.084-2.542-5.625-5.626-5.625H24.376V61.788c.62.056 1.247.095 1.883.095 11.368 0 20.621-9.271 20.621-20.64s-9.253-20.621-20.621-20.621c-.636 0-1.262.038-1.883.095V15c0-3.148 2.477-5.625 5.625-5.625h45c2.535.036 2.535-3.784 0-3.75H30zm52.5 0c-2.534-.035-2.534 3.785 0 3.75h15.052c-1.193 1.573-1.926 3.508-1.926 5.625v75c-.037 2.537 3.786 2.537 3.75 0V46.877h9.375c3.084 0 5.625-2.542 5.625-5.625V15c0-5.162-4.214-9.376-9.375-9.376h-22.5zm22.501 3.75c3.148 0 5.625 2.477 5.625 5.625v26.25c0 1.072-.804 1.876-1.875 1.876h-9.375V15c0-3.148 2.476-5.625 5.625-5.625zm-52.5 11.247a1.876 1.876 0 100 3.75h30.007a1.876 1.876 0 100-3.75H52.5zm-26.243 3.75a16.84 16.84 0 0116.87 16.871c.001 9.342-7.528 16.886-16.87 16.886-9.343 0-16.887-7.544-16.887-16.886 0-9.342 7.544-16.871 16.886-16.871zm26.242 3.75a1.877 1.877 0 000 3.753h30.008a1.877 1.877 0 100-3.753H52.5zm-26.276.003a2.11 2.11 0 00-.194.015 1.875 1.875 0 00-1.662 1.897v1.868H22.5c-3.084 0-5.618 2.552-5.618 5.636s2.534 5.617 5.618 5.617h1.868v3.75H22.5c-1.071 0-1.868-.796-1.868-1.867a1.874 1.874 0 00-2.602-1.77 1.878 1.878 0 00-1.148 1.77c0 3.084 2.534 5.621 5.618 5.621h1.868v1.883a1.875 1.875 0 003.75 0v-1.883h1.886c3.084 0 5.617-2.537 5.617-5.621 0-3.084-2.533-5.633-5.617-5.633h-1.886v-3.75h1.886c1.071 0 1.867.812 1.867 1.883a1.875 1.875 0 003.75 0c0-3.084-2.533-5.636-5.617-5.636h-1.886v-1.868a1.875 1.875 0 00-1.893-1.908v-.004zm26.276 7.5a1.876 1.876 0 100 3.75H60a1.876 1.876 0 100-3.75h-7.5zm15 0a1.875 1.875 0 100 3.751 1.875 1.875 0 000-3.75zm-45 .03h1.868v3.75H22.5c-1.071 0-1.868-.797-1.868-1.868 0-1.071.797-1.882 1.868-1.882zm52.31 7.47a1.88 1.88 0 00.194 3.754h2.974L60 64.846l-6.17-6.175a1.877 1.877 0 00-2.659 0l-14.99 15.004c-1.886 1.761.874 4.537 2.645 2.659L52.5 62.656l6.171 6.174a1.877 1.877 0 002.659 0l19.296-19.307v2.974a1.877 1.877 0 103.75 0v-7.5a1.876 1.876 0 00-1.868-1.871h-7.504a1.904 1.904 0 00-.194 0zm-46.692.03h1.886c1.071 0 1.867.811 1.867 1.882 0 1.071-.796 1.868-1.867 1.868h-1.886v-3.75zm54.346 14.949A1.875 1.875 0 0080.626 60v22.503a1.875 1.875 0 003.75 0V60.001a1.876 1.876 0 00-1.912-1.897zm-7.486 3.75a1.875 1.875 0 00-1.856 1.897v18.753a1.875 1.875 0 003.75 0V63.751a1.873 1.873 0 00-1.894-1.897zm-22.507 7.489a1.875 1.875 0 00-1.838 1.908v11.253a1.875 1.875 0 003.75 0V71.251a1.877 1.877 0 00-1.912-1.908zm15.004 0a1.875 1.875 0 00-1.853 1.908v11.253a1.873 1.873 0 001.875 1.917 1.877 1.877 0 001.875-1.917V71.251a1.876 1.876 0 00-1.897-1.908zm-7.5 3.75a1.876 1.876 0 00-1.857 1.911v7.5a1.876 1.876 0 103.75 0v-7.5a1.875 1.875 0 00-1.893-1.911zm-15.004 3.75a1.874 1.874 0 00-1.842 1.911v3.75a1.875 1.875 0 003.75 0v-3.75a1.878 1.878 0 00-1.908-1.911zm-7.47 3.783a1.875 1.875 0 100 3.75 1.875 1.875 0 000-3.75zM11.25 99.376h67.5c1.072 0 1.876.804 1.876 1.875v3.75c0 2.117.733 4.052 1.926 5.625H15c-3.149 0-5.625-2.476-5.625-5.625v-3.75c0-1.071.804-1.875 1.875-1.875z" fill="#73DCEB"/></svg>