<svg width="24" height="24" fill="none" xmlns="http://www.w3.org/2000/svg"><path fill-rule="evenodd" clip-rule="evenodd" d="M5.119 7.771h-.026C3.823 7.771 3 6.941 3 5.887 3 4.813 3.848 4 5.143 4c1.294 0 2.09.811 2.116 1.884 0 1.053-.822 1.887-2.14 1.887zM21 20h-3.978v-5.625c0-1.472-.622-2.477-1.991-2.477-1.047 0-1.629.678-1.9 1.332-.09.207-.088.485-.086.771V20h-3.94s.05-9.963 0-10.87h3.94v1.707c.233-.746 1.493-1.81 3.503-1.81 2.493 0 4.452 1.563 4.452 4.93V20zM6.962 9.13H3.454V20h3.508V9.13z" fill="#63C3D1"/></svg>