<svg width="73" height="73" fill="none" xmlns="http://www.w3.org/2000/svg"><path d="M65.76 43.356C69.6 27.24 59.635 11.064 43.5 7.23 27.366 3.394 11.174 13.35 7.335 29.468c-3.84 16.117 6.127 32.292 22.26 36.127 16.135 3.836 32.327-6.12 36.166-22.238z" fill="#F5F5F5"/><path d="M46.225 7.944c8.483 5.3 14.127 14.71 14.127 25.442 0 5.41-1.433 10.486-3.942 14.868-5.174 9.038-14.92 15.131-26.088 15.131a30 30 0 01-9.552-1.559 29.9 29.9 0 0015.903 4.556c16.585 0 30.03-13.43 30.03-29.999.002-13.232-8.576-24.452-20.478-28.44z" fill="#E0E0E0"/><path d="M41.906 46.81a6.53 6.53 0 01-6.535 6.53 6.532 6.532 0 01-6.535-6.53 6.532 6.532 0 016.535-6.528 6.53 6.53 0 016.535 6.529z" fill="#E0E0E0"/><path d="M41.906 46.81a6.53 6.53 0 01-6.535 6.53 6.532 6.532 0 01-6.535-6.53 6.532 6.532 0 016.535-6.528 6.53 6.53 0 016.535 6.529z" fill="#000" opacity=".3"/><path d="M42.57 46.828c0 3.596-2.697 6.511-6.297 6.511-3.6 0-6.296-3.16-6.296-6.756s2.696-6.24 6.296-6.24 6.297 2.889 6.297 6.485zm13.921-3.569c.354-1.724 3.138-3.297 3.138-3.297l.862 3.297-2.462 4.98s-2.03-2.582-1.538-4.98zm3.281-15.771s-1.351 1.089-1.32 2.63c.03 1.54 2.037 2 2.037 2l2.155-2.316-2.872-2.314zM47.766 57.866s-1.857-1.17-3.691-.507c-1.835.665-1.57 3.256-1.57 3.256l3.657 1.633 1.604-4.382zm11.139-24.117a.723.723 0 11-1.445-.002.723.723 0 011.445.002zM23.784 48.59c-.118-1.393-.694-2.705-1.365-3.93-.433-.792-1.073-1.655-1.976-1.646l-.774.032c-1.015-.55-2.37-.393-3.231.376-.8.713-1.135 1.848-1.058 2.916.076 1.068.521 2.078 1.073 2.996a13.048 13.048 0 002.264 2.802c.49.46 1.053.898 1.72.997.733.11 1.481-.22 2.028-.72 1.034-.941 1.436-2.432 1.319-3.824z" fill="#E0E0E0"/><path d="M23.784 48.59c-.118-1.393-.694-2.705-1.365-3.93-.433-.792-1.073-1.655-1.976-1.646l-.774.032c-1.015-.55-2.37-.393-3.231.376-.8.713-1.135 1.848-1.058 2.916.076 1.068.521 2.078 1.073 2.996a13.048 13.048 0 002.264 2.802c.49.46 1.053.898 1.72.997.733.11 1.481-.22 2.028-.72 1.034-.941 1.436-2.432 1.319-3.824z" fill="#000" opacity=".3"/><path d="M24.497 48.59c-.118-1.393-.694-2.705-1.365-3.93-.433-.792-.937-1.234-1.976-1.646l-1.147-.334c-1.167-.1-1.996-.027-2.858.742-.8.713-1.135 1.849-1.058 2.916.076 1.068.521 2.078 1.073 2.997a13.049 13.049 0 002.264 2.8c.49.46.96.768 1.625.869.735.11 1.287-.327 1.833-.827 1.034-.941 1.726-2.196 1.609-3.588zm7.035 11.625c1.08.23 2.182.15 3.237-.009.681-.102 1.455-.32 1.613-.895l.117-.499c.605-.526.733-1.42.307-2.137-.395-.664-1.197-1.125-2.024-1.31-.826-.186-1.676-.123-2.475.027a10.16 10.16 0 00-2.545.827c-.44.21-.876.473-1.074.874-.218.443-.104.99.176 1.449.528.86 1.588 1.443 2.668 1.673z" fill="#E0E0E0"/><path d="M31.532 60.215c1.08.23 2.182.15 3.237-.009.681-.102 1.455-.32 1.613-.895l.117-.499c.605-.526.733-1.42.307-2.137-.395-.664-1.197-1.125-2.024-1.31-.826-.186-1.676-.123-2.475.027a10.16 10.16 0 00-2.545.827c-.44.21-.876.473-1.074.874-.218.443-.104.99.176 1.449.528.86 1.588 1.443 2.668 1.673z" fill="#000" opacity=".3"/><path d="M32.091 60.393c1.08.23 2.183.15 3.237-.008.682-.102 1.111-.327 1.614-.895l.463-.656c.29-.72.387-1.264-.04-1.979-.394-.663-1.197-1.125-2.023-1.31-.826-.184-1.676-.123-2.475.027-.898.168-1.759.448-2.546.827-.44.211-.76.44-.957.843-.218.442.012.888.293 1.346.528.86 1.354 1.576 2.434 1.805zM52.41 19.794c-.78-1.16-1.922-2.027-3.104-2.773-.763-.481-1.743-.926-2.526-.48l-.662.404c-1.155.012-2.262.806-2.642 1.897-.352 1.011-.092 2.165.494 3.062.586.897 1.467 1.564 2.395 2.098a13.097 13.097 0 003.343 1.35c.653.163 1.358.274 1.988.037.695-.26 1.188-.912 1.424-1.615.443-1.324.069-2.821-.71-3.98z" fill="#E0E0E0"/><path d="M52.41 19.794c-.78-1.16-1.922-2.027-3.104-2.773-.763-.481-1.743-.926-2.526-.48l-.662.404c-1.155.012-2.262.806-2.642 1.897-.352 1.011-.092 2.165.494 3.062.586.897 1.467 1.564 2.395 2.098a13.097 13.097 0 003.343 1.35c.653.163 1.358.274 1.988.037.695-.26 1.188-.912 1.424-1.615.443-1.324.069-2.821-.71-3.98z" fill="#000" opacity=".3"/><path d="M53.438 20.197c-.779-1.16-1.922-2.027-3.104-2.772-.764-.482-1.42-.625-2.527-.48l-1.163.265c-1.07.478-1.76.946-2.139 2.036-.352 1.01-.092 2.166.494 3.061.587.897 1.467 1.564 2.396 2.099 1.044.6 2.172 1.056 3.342 1.35.653.163 1.212.205 1.842-.031.695-.26.966-.91 1.201-1.612.441-1.324.436-2.757-.342-3.916zM21.517 37.961c-.064-.33-.206-.657-.463-.873-.358-.3-.864-.33-1.329-.325-.363-.005-.703.247-1.036.635-.36.412-.569.965-.523 1.51.046.544.363 1.07.846 1.328.621.332 1.444.167 1.948-.325.505-.495.694-1.259.557-1.95z" fill="#E0E0E0"/><path d="M21.517 37.961c-.064-.33-.206-.657-.463-.873-.358-.3-.864-.33-1.329-.325-.363-.005-.703.247-1.036.635-.36.412-.569.965-.523 1.51.046.544.363 1.07.846 1.328.621.332 1.444.167 1.948-.325.505-.495.694-1.259.557-1.95z" fill="#000" opacity=".3"/><path d="M21.82 38.01c-.06-.303-.189-.604-.425-.801-.33-.276-.794-.303-1.222-.3-.332-.005-.647.227-.952.584-.332.378-.523.887-.48 1.389.042.502.333.985.776 1.222.57.304 1.329.153 1.792-.3.462-.454.636-1.159.511-1.794zm15.961-26.152c-.065-.33-.206-.657-.463-.873-.358-.3-.864-.33-1.33-.325-.36-.005-.703.247-1.035.635-.361.412-.569.965-.523 1.51.046.544.363 1.07.845 1.328.622.332 1.445.167 1.95-.325.503-.493.692-1.259.556-1.95z" fill="#E0E0E0"/><path d="M37.781 11.858c-.065-.33-.206-.657-.463-.873-.358-.3-.864-.33-1.33-.325-.36-.005-.703.247-1.035.635-.361.412-.569.965-.523 1.51.046.544.363 1.07.845 1.328.622.332 1.445.167 1.95-.325.503-.493.692-1.259.556-1.95z" fill="#000" opacity=".3"/><path d="M38.082 11.909c-.06-.303-.189-.604-.426-.803-.329-.276-.794-.303-1.221-.298-.333-.005-.648.226-.953.584-.332.378-.523.886-.48 1.388.043.502.334.986.777 1.222.572.305 1.329.153 1.792-.3.464-.454.636-1.158.511-1.793zM30.4 14.555c-.041-.21-.133-.422-.298-.561-.23-.192-.556-.213-.855-.21-.234-.003-.454.159-.665.409-.232.265-.366.62-.335.97.03.35.233.688.543.854.4.213.928.108 1.252-.209.324-.316.445-.808.358-1.253z" fill="#E0E0E0"/><path d="M30.4 14.555c-.041-.21-.133-.422-.298-.561-.23-.192-.556-.213-.855-.21-.234-.003-.454.159-.665.409-.232.265-.366.62-.335.97.03.35.233.688.543.854.4.213.928.108 1.252-.209.324-.316.445-.808.358-1.253z" fill="#000" opacity=".3"/><path d="M30.593 14.588c-.037-.196-.12-.388-.274-.516-.211-.177-.51-.196-.785-.192-.215-.004-.416.146-.612.374a1.22 1.22 0 00-.309.892.993.993 0 00.5.784c.368.196.853.1 1.151-.192.297-.29.41-.742.33-1.15zm-11.449 4.025c-.041-.212-.133-.422-.298-.562-.23-.192-.556-.213-.856-.21-.233-.003-.453.159-.666.41a1.325 1.325 0 00-.335.97c.03.35.233.687.543.854.4.212.929.107 1.252-.21.326-.316.447-.808.36-1.252z" fill="#E0E0E0"/><path d="M19.144 18.613c-.041-.212-.133-.422-.298-.562-.23-.192-.556-.213-.856-.21-.233-.003-.453.159-.666.41a1.325 1.325 0 00-.335.97c.03.35.233.687.543.854.4.212.929.107 1.252-.21.326-.316.447-.808.36-1.252z" fill="#000" opacity=".3"/><path d="M19.337 18.645c-.037-.194-.12-.388-.274-.516-.211-.177-.51-.196-.785-.192-.215-.004-.416.146-.612.374-.213.244-.337.57-.308.892a.992.992 0 00.499.785c.368.195.853.098 1.152-.193.298-.289.408-.742.328-1.15z" fill="#E0E0E0"/><path d="M13.42 20.223c.129.085-.907 1.526-1.953 4.135-1.063 2.59-1.988 6.423-1.886 10.701.078 4.311.647 8.18 1.417 10.887.747 2.717 1.532 4.3 1.399 4.364-.084.05-1.077-1.45-1.998-4.182-.944-2.72-1.627-6.678-1.704-11.05-.107-4.42.954-8.376 2.198-10.97.611-1.305 1.226-2.3 1.702-2.948.471-.646.78-.97.826-.937zM27.365 9.489c.128.28-3.037 1.543-6.528 3.647-1.73 1.077-3.126 2.279-4.03 3.256-.914.968-1.384 1.668-1.502 1.601-.097-.05.188-.878 1.02-2.003.822-1.128 2.241-2.483 4.042-3.603 3.64-2.19 6.933-3.065 6.998-2.898z" fill="#fff"/><path d="M41.733 40.374c.068-.075.836.472 1.591 1.765.752 1.265 1.392 3.365.992 5.66-.41 2.295-1.73 4.05-2.87 4.982-1.15.958-2.059 1.208-2.098 1.115-.068-.124.71-.569 1.67-1.573.957-.983 2.06-2.626 2.424-4.678.36-2.053-.114-3.972-.677-5.223-.56-1.27-1.14-1.952-1.032-2.048zM38.235 59.23c-.187-.166.053-.772-.039-1.51-.056-.742-.414-1.288-.262-1.488.117-.223 1.034.27 1.145 1.4.115 1.13-.685 1.791-.844 1.597z" fill="#E0E0E0"/><path d="M39.178 57.76c-.238.057-.461-.025-.499-.183-.037-.158.125-.332.363-.388.239-.056.462.025.5.184.038.158-.125.332-.364.388zM23.961 43.856c.11-.049.442.378.854 1.15.395.768.916 1.92.957 3.343.045 1.438-.58 2.665-1.187 3.333-.614.687-1.157.896-1.218.806-.082-.105.296-.481.712-1.178.417-.689.841-1.735.806-2.942-.031-1.21-.408-2.313-.651-3.123-.254-.808-.387-1.338-.273-1.389z" fill="#E0E0E0"/><path d="M25.91 47.626c.188-.153.711.221.815.94.106.718-.29 1.226-.513 1.133-.233-.085-.288-.53-.366-1.006-.06-.478-.134-.917.065-1.067zm-4.018-10.958c.15-.196 1.056.485 1.102 1.756.055 1.27-.795 2.02-.96 1.838-.197-.157.127-.885.073-1.802-.02-.92-.399-1.62-.215-1.792zM55.32 23.516c.104-.04.36.265.417.88.063.595-.143 1.516-.877 2.188-.741.664-1.678.78-2.266.659-.607-.118-.886-.402-.837-.502.064-.217 1.435.146 2.507-.816 1.06-.968.834-2.367 1.056-2.41zm-27.547 5.781c-.069-.06.407-.567 1.332-.174.412.201.869.803.654 1.525-.228.7-.864 1.077-1.496 1.247-.625.15-1.416.157-1.927-.476-.454-.679-.126-1.343.162-1.656.66-.614 1.154-.608 1.201-.538.09.114-.368.405-.703.92-.147.241-.188.62-.016.772.135.175.614.243 1.06.12.453-.111.843-.387.94-.644.123-.252-.013-.569-.218-.744-.436-.356-.966-.225-.99-.352zm10.552-17.769c.075-.079.426.085.605.633.176.527.082 1.378-.521 2.027-.593.62-1.34.811-1.83.847-.504.034-.806-.068-.816-.185-.048-.27 1.177-.434 1.998-1.27a2.13 2.13 0 00.549-1.319c.022-.383-.085-.65.015-.733z" fill="#E0E0E0"/><path d="M39.124 14.02c.197.142.15.537-.19.784-.34.246-.73.168-.805-.063-.079-.233.068-.494.284-.654.22-.156.513-.214.71-.068zm-8.114 2.09c-.19-.164-.118-.578-.174-1.029-.027-.454-.17-.849-.014-1.043.135-.21.823.138.898.963.075.826-.54 1.29-.71 1.108z" fill="#E0E0E0"/><path d="M66.587 36.384c-.156.015.049-2.676-1.108-7.283-.542-2.306-1.635-5.027-3.35-7.91a29.768 29.768 0 00-7.594-8.404c-3.366-2.515-7.61-4.65-12.505-5.509-4.86-.827-10.344-.672-15.564 1.314-2.627.912-5.16 2.293-7.49 4.034-1.202.825-2.253 1.86-3.355 2.854-.995 1.1-2.041 2.178-2.898 3.429-3.64 4.838-5.694 11.06-5.753 17.47.058 6.412 2.109 12.636 5.751 17.476.859 1.25 1.903 2.328 2.898 3.43 1.102.997 2.153 2.03 3.356 2.855 2.327 1.74 4.862 3.121 7.49 4.033 5.22 1.986 10.705 2.143 15.565 1.314 4.895-.86 9.137-2.995 12.505-5.51a29.735 29.735 0 007.591-8.404c1.716-2.882 2.81-5.605 3.351-7.909 1.159-4.605.953-7.296 1.11-7.28.015 0 .022.165.02.486l-.03 1.432c0 .631-.037 1.409-.192 2.32-.124.913-.242 1.973-.57 3.129-.496 2.345-1.557 5.124-3.26 8.079a30.01 30.01 0 01-7.637 8.649c-3.412 2.6-7.74 4.82-12.75 5.735-4.976.881-10.605.749-15.98-1.27-2.703-.929-5.315-2.338-7.715-4.122-1.239-.847-2.326-1.906-3.46-2.929-1.028-1.13-2.104-2.237-2.992-3.522-3.757-4.975-5.883-11.39-5.939-17.99.058-6.6 2.184-13.012 5.94-17.986.886-1.283 1.963-2.393 2.99-3.521 1.135-1.021 2.22-2.08 3.46-2.928 2.4-1.783 5.01-3.192 7.715-4.12 5.374-2.018 11.002-2.15 15.978-1.27 5.01.913 9.337 3.134 12.75 5.734a29.968 29.968 0 017.639 8.65c1.704 2.954 2.763 5.733 3.26 8.078.331 1.155.449 2.216.572 3.13.154.91.19 1.688.192 2.32.012.586.02 1.058.029 1.43.002.32-.005.486-.02.486z" fill="#263238"/></svg>