<svg width="48" height="48" fill="none" xmlns="http://www.w3.org/2000/svg"><path opacity=".3" d="M3.241 29.076l8.356-7.492c0 .854-.604 6.483 0 7.087v7.732c.366.77-.322.644.322 2.255.323.677.437.642 1.29.644h7.73l3.222.322-5.225 5.122a11.089 11.089 0 11-15.695-15.67zm41.518-10.152L42.2 21.262c0-.855-4.51-1.611-7.731-.967-2.255-.644-2.255 1.206-2.255-1.371v-6.038c-.365-.77.644 0 0-1.61-.322-.678-2.37-3.22-3.222-3.222l-1.933.644-3.221-.322 5.225-5.122a11.089 11.089 0 1115.695 15.67z" fill="#63C3D1"/><path d="M28.35 41.235H15.462a4.51 4.51 0 01-4.51-4.51V12.242a4.51 4.51 0 014.51-4.51H28.35a4.51 4.51 0 014.51 4.51v.644a.644.644 0 11-1.288 0v-.644A3.221 3.221 0 0028.35 9.02H15.463a3.221 3.221 0 00-3.221 3.222v24.483a3.221 3.221 0 003.221 3.221H28.35a3.221 3.221 0 003.222-3.221v-1.289h-5.8a.645.645 0 01-.592-.4.644.644 0 01.136-.702l3.034-3.028V23.84a4.42 4.42 0 01.754-2.493 4.51 4.51 0 012.468-1.83v-4.053a.645.645 0 011.288 0v4.568a.645.645 0 01-.541.645 3.221 3.221 0 00-2.68 3.163v7.732a.645.645 0 01-.187.457l-2.126 2.12h4.89a.645.645 0 01.644.644v1.933a4.51 4.51 0 01-4.51 4.51z" fill="#ADA4CD"/><path d="M28.35 38.658H15.462a1.933 1.933 0 01-1.933-1.933v-3.866a.644.644 0 111.289 0v3.866a.644.644 0 00.644.644H28.35a.645.645 0 00.644-.644v-1.289h-3.221a.644.644 0 01-.593-.4.645.645 0 01.135-.702l3.035-3.028V23.84a4.4 4.4 0 01.644-2.32v-9.277a.644.644 0 00-.644-.645h-2.184l-.116.232a1.932 1.932 0 01-1.72 1.057h-4.845a1.934 1.934 0 01-1.72-1.063l-.117-.226h-2.184a.644.644 0 00-.644.645V27.06a.644.644 0 11-1.289 0V12.242a1.933 1.933 0 011.933-1.933h2.577a.645.645 0 01.574.348l.296.586a.644.644 0 00.574.354h4.845a.645.645 0 00.573-.354l.296-.586a.644.644 0 01.574-.348h2.577a1.933 1.933 0 011.933 1.933v9.464a.645.645 0 01-.11.361 3.15 3.15 0 00-.534 1.772v7.732a.645.645 0 01-.187.457l-2.126 2.12h2.313a.644.644 0 01.644.644v1.933a1.933 1.933 0 01-1.933 1.933z" fill="#ADA4CD"/><path d="M14.175 30.926a.644.644 0 01-.645-.644v-.645a.644.644 0 111.289 0v.645a.644.644 0 01-.644.644zm25.771 4.51h-1.288a.644.644 0 110-1.288h1.288a3.221 3.221 0 003.222-3.222V23.84a3.221 3.221 0 00-3.222-3.222H32.86a3.221 3.221 0 00-3.221 3.221v7.732a.645.645 0 01-.187.458l-2.126 2.12h8.756a.644.644 0 110 1.288H25.77a.646.646 0 01-.63-.77.644.644 0 01.173-.332l3.035-3.028V23.84a4.42 4.42 0 01.754-2.494 4.509 4.509 0 013.009-1.932c.246-.049.496-.077.747-.084h7.087a4.51 4.51 0 014.51 4.51v7.087a4.51 4.51 0 01-4.51 4.51zm-18.04-9.02a3.221 3.221 0 01-3.221-3.221v-3.866a3.222 3.222 0 016.443 0v3.866a3.222 3.222 0 01-3.222 3.221zm0-9.02a1.933 1.933 0 00-1.933 1.933v3.866a1.933 1.933 0 003.866 0v-3.866a1.933 1.933 0 00-1.933-1.933z" fill="#63C3D1"/><path d="M21.906 28.993a5.8 5.8 0 01-5.799-5.798v-.645a.644.644 0 111.289 0v.645a4.51 4.51 0 009.02 0v-.645a.644.644 0 111.289 0v.645a5.799 5.799 0 01-5.799 5.798z" fill="#63C3D1"/><path d="M21.906 32.86a.645.645 0 01-.644-.645v-3.866a.644.644 0 111.288 0v3.866a.645.645 0 01-.644.644z" fill="#63C3D1"/><path d="M23.839 32.859h-3.866a.644.644 0 110-1.289h3.866a.645.645 0 010 1.289zm-6.443-9.664h-.644a.645.645 0 010-1.289h.644a.644.644 0 110 1.289zm9.664 0h-.644a.644.644 0 010-1.289h.644a.644.644 0 110 1.289zm12.693 8.375c-.086.01-.172.01-.258 0a1.467 1.467 0 01-.985-.644 2.841 2.841 0 00-2.371-1.288h-.703a.644.644 0 01-.644-.645v-3.865a.644.644 0 01.644-.645h.703a2.854 2.854 0 002.377-1.288 1.457 1.457 0 01.98-.645c.085-.01.171-.01.257 0a1.482 1.482 0 011.482 1.482v6.057a1.482 1.482 0 01-1.482 1.481zm-3.672-3.221h.058a4.117 4.117 0 013.447 1.85.181.181 0 00.135.076h.032a.193.193 0 00.193-.193v-6.05a.188.188 0 00-.186-.193h-.04a.174.174 0 00-.128.07 4.13 4.13 0 01-3.453 1.863h-.058v2.577z" fill="#63C3D1"/><path d="M35.436 29.638h-1.288a2.577 2.577 0 110-5.155h1.288a.645.645 0 01.644.645v3.865a.644.644 0 01-.644.645zm-1.288-3.866a1.288 1.288 0 100 2.577h.644v-2.577h-.645z" fill="#63C3D1"/><path d="M35.436 32.86a.645.645 0 01-.599-.407l-1.288-3.221a.645.645 0 011.198-.477l1.289 3.222a.645.645 0 01-.6.882z" fill="#63C3D1"/></svg>