<svg width="254" height="360" fill="none" xmlns="http://www.w3.org/2000/svg"><g opacity=".5" fill="#D8D8D8"><path d="M85.73 5.19c0 2.6-2.1 4.7-4.7 4.7s-4.7-2.1-4.7-4.7 2.1-4.7 4.7-4.7a4.7 4.7 0 014.7 4.7zm38.22 11.27c0 2.6-2.1 4.7-4.7 4.7s-4.7-2.1-4.7-4.7 2.1-4.7 4.7-4.7a4.7 4.7 0 014.7 4.7zm4.7 61.4c0 2.6-2.1 4.7-4.7 4.7s-4.7-2.1-4.7-4.7 2.1-4.7 4.7-4.7a4.7 4.7 0 014.7 4.7zm-50.23 2.6c0 2.6-2.1 4.7-4.7 4.7s-4.7-2.1-4.7-4.7 2.1-4.7 4.7-4.7a4.7 4.7 0 014.7 4.7zM54.03 51.17c0 2.6-2.1 4.7-4.7 4.7s-4.7-2.1-4.7-4.7 2.1-4.7 4.7-4.7c2.59 0 4.7 2.11 4.7 4.7zm79.31 183.41c0 2.6-2.1 4.7-4.7 4.7s-4.7-2.1-4.7-4.7 2.1-4.7 4.7-4.7a4.7 4.7 0 014.7 4.7z"/><path d="M80.676 4.99L48.964 50.974l.642.443L81.319 5.433l-.642-.443z"/><path d="M49.659 50.91l-.6.5L73.45 80.693l.6-.499L49.658 50.91z"/><path d="M73.74 80.85l-.04-.78 50.22-2.6.05.77-50.23 2.61zm45.4-64.02L80.93 5.56l.22-.74 38.21 11.26-.22.75z"/><path d="M119.658 16.452l-.778.06 4.699 61.401.778-.06-4.699-61.4zm-45.53 63.879l-.735.262 54.927 154.13.735-.261-54.927-154.13z"/><path d="M128.993 234.413l-.595.504 120.638 142.44.595-.504-120.638-142.44z"/></g></svg>