<svg xmlns="http://www.w3.org/2000/svg" width="164" height="136" version="1.1" id="svg6" fill="none"><path d="M146.255 16.357a12.005 12.005 0 00-11.988 12.005 11.871 11.871 0 001.968 6.56l-25.797 25.78a11.989 11.989 0 00-15.958 2.526l-4.575-2.28a30.454 30.454 0 10-51.857 8.561L25.666 81.908a11.874 11.874 0 00-6.56-1.968 12.005 12.005 0 1010.037 5.444l12.349-12.316a30.373 30.373 0 0017.548 7.347v8.2a8.412 8.412 0 00-6.56 8.2v24.502a8.413 8.413 0 008.397 8.413h1.23a8.416 8.416 0 008.413-8.413V96.831a8.43 8.43 0 00-6.56-8.2v-8.2A30.06 30.06 0 0087.756 65.46l4.527 2.263a12.32 12.32 0 00-.443 3.017 12.006 12.006 0 1022.042-6.56l25.83-25.78a11.984 11.984 0 0015.272-1.85 11.988 11.988 0 00-8.712-20.192zM26.24 91.944a7.118 7.118 0 11-.656-2.952c.437.923.66 1.932.656 2.952zm17.187-59.876A25.535 25.535 0 0185.477 58.8l-12.399-6.199c.27-.994.407-2.02.41-3.05a12.005 12.005 0 00-23.993 0 11.841 11.841 0 001.968 6.56l-9.922 9.84a25.568 25.568 0 011.886-33.883zm25.06 18.237a7.052 7.052 0 01-6.987 6.363c-1.022 0-2.03-.23-2.952-.672a7.102 7.102 0 01-3.477-3.477 7.004 7.004 0 01-.656-2.936 7.085 7.085 0 0114.153 0 5.569 5.569 0 01-.082.722zM65.6 121.317a3.494 3.494 0 01-3.477 3.493h-1.23a3.493 3.493 0 01-3.493-3.493V96.831a3.475 3.475 0 013.477-3.493h1.23a3.476 3.476 0 013.493 3.493zm13.956-53.169a25.583 25.583 0 01-34.57 1.394l9.954-9.955a11.923 11.923 0 0015.94-2.59l12.481 6.231a25.184 25.184 0 01-3.805 4.92zm31.406 2.591a7.083 7.083 0 01-12.094 5.01 7.085 7.085 0 01-2.075-5.01 5.644 5.644 0 010-.738 7.053 7.053 0 0113.415-2.197c.468.91.726 1.913.754 2.935zm32.358-35.965a7.05 7.05 0 01-3.708-8.663 7.053 7.053 0 0113.685 3.058 7.051 7.051 0 01-9.977 5.605z" id="path2" fill="#73dceb"/><path d="M110.585 96.028a2.451 2.451 0 00-1.738-.727 2.452 2.452 0 00-1.739.727l-5.149 5.15-5.199-5.15a2.459 2.459 0 00-3.477 3.477l5.133 5.15-5.067 5.15a2.455 2.455 0 00-.602 2.75 2.465 2.465 0 002.373 1.513 2.51 2.51 0 001.64-.787l5.133-5.15 5.15 5.15a2.509 2.509 0 001.738.721 2.46 2.46 0 001.739-4.198l-5.068-5.15 5.133-5.149a2.455 2.455 0 00.727-1.739 2.451 2.451 0 00-.727-1.738zm34.768-24.73a2.476 2.476 0 00-3.477 0l-1.64 1.64-1.64-1.64a2.474 2.474 0 00-4.014.795 2.457 2.457 0 000 1.884c.125.299.308.57.538.797l1.64 1.64-1.64 1.64a2.45 2.45 0 00-.727 1.738 2.456 2.456 0 00.727 1.739 2.459 2.459 0 003.476 0l1.64-1.64 1.64 1.64a2.463 2.463 0 004.015-2.68 2.45 2.45 0 00-.538-.797l-1.64-1.64 1.64-1.64a2.452 2.452 0 00.727-1.739 2.457 2.457 0 00-.727-1.738zm-43.214-47.299a2.461 2.461 0 003.477 0l1.64-1.64 1.64 1.64a2.46 2.46 0 003.477 0 2.433 2.433 0 00.726-1.738 2.438 2.438 0 00-.726-1.738l-1.64-1.64 1.64-1.64a2.433 2.433 0 00.726-1.739 2.438 2.438 0 00-.726-1.738 2.478 2.478 0 00-3.477 0l-1.64 1.64-1.64-1.64a2.476 2.476 0 00-3.477 0 2.432 2.432 0 00-.726 1.738 2.438 2.438 0 00.726 1.739l1.64 1.64-1.64 1.64a2.432 2.432 0 00-.726 1.738 2.438 2.438 0 00.726 1.738zm-92.2 30.734l1.64-1.64 1.64 1.64a2.46 2.46 0 003.476 0 2.444 2.444 0 000-3.477l-1.64-1.64 1.64-1.64a2.444 2.444 0 000-3.477 2.476 2.476 0 00-3.477 0l-1.64 1.64-1.64-1.64a2.476 2.476 0 00-3.476 0 2.443 2.443 0 000 3.477l1.64 1.64-1.64 1.64a2.443 2.443 0 000 3.477 2.46 2.46 0 003.476 0zm13.513-40.36a2.477 2.477 0 003.493 0l1.64-1.64 1.64 1.64a2.429 2.429 0 001.739.721 2.379 2.379 0 001.738-.721 2.444 2.444 0 000-3.477l-1.64-1.64 1.64-1.64a2.463 2.463 0 10-3.477-3.493l-1.64 1.64-1.64-1.64a2.476 2.476 0 00-3.493 3.345l1.64 1.64-1.64 1.64a2.476 2.476 0 000 3.625z" id="path4" fill="#73dceb"/></svg>