<svg width="92" height="81" fill="none" xmlns="http://www.w3.org/2000/svg"><path d="M58.137 41.938a12.15 12.15 0 10-15.025 0 20.25 20.25 0 00-12.596 16.565 2.039 2.039 0 003.3 1.812 2.04 2.04 0 00.75-1.367 16.2 16.2 0 0132.198 0 2.025 2.025 0 002.025 1.802h.222a2.025 2.025 0 001.782-2.227 20.25 20.25 0 00-12.656-16.585zM50.624 40.5a8.1 8.1 0 110-16.2 8.1 8.1 0 010 16.2z" fill="#7C6EB0"/><path d="M10.125 67.5v-18a4.5 4.5 0 119 0v18a4.5 4.5 0 004.5 4.5h54a4.5 4.5 0 004.5-4.5v-54a4.5 4.5 0 00-4.5-4.5h-22.5a4.5 4.5 0 110-9h22.5c7.456 0 13.5 6.044 13.5 13.5v54c0 7.456-6.044 13.5-13.5 13.5h-54c-7.456 0-13.5-6.044-13.5-13.5z" fill="#7C6EB0"/><path fill-rule="evenodd" clip-rule="evenodd" d="M45.325 7.998L19.942 33.38a4.666 4.666 0 01-6.625 0L1.372 21.436a4.685 4.685 0 116.626-6.626l8.632 8.539L38.7 1.372a4.685 4.685 0 016.625 6.626z" fill="#63C3D1"/></svg>