<svg width="63" height="56" fill="none" xmlns="http://www.w3.org/2000/svg"><g filter="url(#filter0_d_1271_10641)"><path opacity=".3" d="M54.825 20.733l-9.176 7.855c0-.936.309-6.397-.353-7.059-.662-.662 1.289-1.058.353-1.058v-3.177c-.4-.843-.57-2.082 0-3.14-.353-.742-1.185-2.822-2.118-2.824h-14.47l8.569-7.765a12.149 12.149 0 1117.195 17.168zM7.551 26.209l5.979-5.032c0 .936-1.015 3.926-.353 4.588v8.47c.4.843-.353.706.353 2.47.353.743 4.007.705 4.94.707h8.471l3.53.353-5.724 5.61A12.149 12.149 0 117.55 26.21z" fill="#63C3D1"/><path d="M40.22 27.53h-2.337a.706.706 0 010-1.412h2.372c.317 0 .624-.115.861-.325a1.003 1.003 0 00.332-.706A1.128 1.128 0 0040.22 24h-6.085a1.292 1.292 0 00-.861.325 1.002 1.002 0 00-.332.706 1.127 1.127 0 001.193 1.087h.275a.706.706 0 010 1.411h-.275a2.548 2.548 0 01-2.605-2.47 2.441 2.441 0 01.784-1.765 2.69 2.69 0 011.821-.706h6.085a2.548 2.548 0 012.605 2.47 2.442 2.442 0 01-.784 1.765 2.69 2.69 0 01-1.821.706zm-11.513 1.41h-12a.706.706 0 01-.706-.706v-7.058a.706.706 0 01.706-.706h12a.706.706 0 01.706.706v7.058a.706.706 0 01-.706.706zm-11.294-1.41H28v-5.647H17.413v5.647zM28 31.765H17.413a.706.706 0 010-1.412H28a.706.706 0 010 1.412zm-4.235 2.823h-6.353a.706.706 0 110-1.412h6.353a.706.706 0 110 1.412zM16.707 15.53a.706.706 0 100-1.412.706.706 0 000 1.411zm3.529 0a.706.706 0 100-1.412.706.706 0 000 1.411zm3.529 0a.706.706 0 100-1.412.706.706 0 000 1.411z" fill="#63C3D1"/><path d="M45.648 18.353h-32.47a.706.706 0 110-1.412h32.47a.706.706 0 110 1.412zM34.354 38.118a.706.706 0 01-.706-.706v-2.824a.706.706 0 011.412 0v2.824a.706.706 0 01-.706.706zm12.784 6.353a.706.706 0 01.084.903 10.25 10.25 0 01-2.597 2.485.664.664 0 01-.389.141.706.706 0 01-.388-1.292 9.006 9.006 0 002.224-2.117.705.705 0 011.066-.12z" fill="#ADA4CD"/><path d="M49.178 35.746v3.635a10.124 10.124 0 01-.516 3.205.707.707 0 01-1.164.261.706.706 0 01-.163-.706c.285-.892.43-1.823.43-2.76v-3.635a1.122 1.122 0 00-.945-1.158 1.045 1.045 0 00-1.083.627c-.06.136-.09.283-.089.432a.706.706 0 11-1.412 0v-1.313a1.123 1.123 0 00-.945-1.158 1.045 1.045 0 00-1.083.627c-.06.137-.09.284-.09.432a.706.706 0 11-1.411 0v-.607a1.122 1.122 0 00-.946-1.157 1.045 1.045 0 00-1.082.627c-.06.136-.09.283-.09.431a.706.706 0 11-1.411 0v-6.353a1.059 1.059 0 00-1.172-1.058 1.122 1.122 0 00-.946 1.157v7.313a.706.706 0 01-1.412 0 2.116 2.116 0 00-2.188-2.117.706.706 0 00-.635.705v6.205a8.803 8.803 0 003.917 7.327.706.706 0 01-.776 1.172 10.186 10.186 0 01-4.553-8.47v-6.234a2.117 2.117 0 012.005-2.117 3.529 3.529 0 012.23.706v-4.49a2.548 2.548 0 012.217-2.57 2.463 2.463 0 012.724 2.471V31.3a2.534 2.534 0 011.313-.24 2.47 2.47 0 011.821 1.165 2.45 2.45 0 013.784 1.249 2.52 2.52 0 011.454-.297 2.549 2.549 0 012.217 2.57zm-36-8.923a.706.706 0 01-.706-.705v-12a2.823 2.823 0 012.823-2.824h13.412a.706.706 0 110 1.412H15.295a1.412 1.412 0 00-1.412 1.412v12a.706.706 0 01-.705.706z" fill="#ADA4CD"/><path d="M30.825 37.412a.706.706 0 01-.706.706H15.295a2.824 2.824 0 01-2.823-2.824v-6.353a.706.706 0 111.411 0v6.353a1.412 1.412 0 001.412 1.412H30.12a.706.706 0 01.706.706z" fill="#ADA4CD"/><path d="M32.236 12a.706.706 0 10-1.412 0 .706.706 0 001.412 0z" fill="#63C3D1"/><path d="M46.354 14.118v20.117a.706.706 0 11-1.411 0V14.118a1.412 1.412 0 00-1.412-1.412h-9.177a.706.706 0 110-1.412h9.177a2.823 2.823 0 012.823 2.824z" fill="#ADA4CD"/></g><defs><filter id="filter0_d_1271_10641" x="0" y="0" width="62.377" height="56" filterUnits="userSpaceOnUse" color-interpolation-filters="sRGB"><feFlood flood-opacity="0" result="BackgroundImageFix"/><feColorMatrix in="SourceAlpha" values="0 0 0 0 0 0 0 0 0 0 0 0 0 0 0 0 0 0 127 0" result="hardAlpha"/><feOffset dy="4"/><feGaussianBlur stdDeviation="2"/><feComposite in2="hardAlpha" operator="out"/><feColorMatrix values="0 0 0 0 0 0 0 0 0 0 0 0 0 0 0 0 0 0 0.25 0"/><feBlend in2="BackgroundImageFix" result="effect1_dropShadow_1271_10641"/><feBlend in="SourceGraphic" in2="effect1_dropShadow_1271_10641" result="shape"/></filter></defs></svg>