<svg width="81" height="81" fill="none" xmlns="http://www.w3.org/2000/svg"><path d="M48.012 41.938a12.15 12.15 0 10-15.025 0A20.25 20.25 0 0020.39 58.503a2.039 2.039 0 003.3 1.812 2.04 2.04 0 00.75-1.367 16.2 16.2 0 0132.198 0 2.025 2.025 0 002.025 1.802h.222a2.025 2.025 0 001.782-2.227 20.25 20.25 0 00-12.656-16.585zM40.5 40.5a8.1 8.1 0 110-16.2 8.1 8.1 0 010 16.2z" fill="#7C6EB0"/><path d="M0 67.5v-18a4.5 4.5 0 119 0v18a4.5 4.5 0 004.5 4.5h54a4.5 4.5 0 004.5-4.5v-54A4.5 4.5 0 0067.5 9H45a4.5 4.5 0 110-9h22.5C74.956 0 81 6.044 81 13.5v54C81 74.956 74.956 81 67.5 81h-54C6.044 81 0 74.956 0 67.5z" fill="#7C6EB0"/><path fill-rule="evenodd" clip-rule="evenodd" d="M11.637 46.653h-.09.09zM7.367 33.55a4.24 4.24 0 011.215-2.581 4.239 4.239 0 017.249 2.967 3.599 3.599 0 01-.34 1.653 4.24 4.24 0 01-.89 1.357c-.41.387-.883.702-1.398.932a4.239 4.239 0 01-5.836-4.328zM14.59 9.745a4.239 4.239 0 00-2.997-1.242 4.239 4.239 0 00-3.688 2.12A4.239 4.239 0 012.14 12.19 4.24 4.24 0 01.571 6.384a12.716 12.716 0 1111.02 19.075 4.239 4.239 0 010-8.478 4.239 4.239 0 002.998-7.236z" fill="#63C3D1"/></svg>