<svg width="220" height="220" fill="none" xmlns="http://www.w3.org/2000/svg"><path d="M213.795 58.975c-2.806-4.114-6.711-7.346-10.706-10.32-14.493-10.795-23.035-27.208-38.725-36.175-5.714-3.266-16.561-4.23-24.684-4.462-6.523-.188-12.98-1.245-19.279-2.948C108.21 1.772 94.721.648 94.721.648 73.747.568 58.698 19.781 41.087 31.161c-9.65 6.236-20.832 10.455-28.77 18.756C-3.208 66.15-1.268 92.505 6.95 113.4c2.238 5.693 4.888 11.338 5.615 17.412.726 6.059-.506 12.185-.28 18.281.616 16.471 11.578 30.571 22.681 42.763 6.786 7.453 14.638 15.108 24.641 16.374 6.56.83 13.156-1.249 19.764-1.06 15.22.435 28.527 12.697 43.731 11.86 17.516-.965 29.232-18.379 45.311-25.39 9.447-4.119 20.503-4.653 28.87-10.668 9.319-6.698 13.167-18.78 14.041-30.214.874-11.437-.627-22.989.724-34.378 1.201-10.121 4.626-19.852 6.253-29.912 1.632-10.063 1.238-21.07-4.506-29.493z" fill="#63C3D1"/><path d="M213.795 58.975c-2.806-4.114-6.711-7.346-10.706-10.32-14.493-10.795-23.035-27.208-38.725-36.175-5.714-3.266-16.561-4.23-24.684-4.462-6.523-.188-12.98-1.245-19.279-2.948C108.21 1.772 94.721.648 94.721.648 73.747.568 58.698 19.781 41.087 31.161c-9.65 6.236-20.832 10.455-28.77 18.756C-3.208 66.15-1.268 92.505 6.95 113.4c2.238 5.693 4.888 11.338 5.615 17.412.726 6.059-.506 12.185-.28 18.281.616 16.471 11.578 30.571 22.681 42.763 6.786 7.453 14.638 15.108 24.641 16.374 6.56.83 13.156-1.249 19.764-1.06 15.22.435 28.527 12.697 43.731 11.86 17.516-.965 29.232-18.379 45.311-25.39 9.447-4.119 20.503-4.653 28.87-10.668 9.319-6.698 13.167-18.78 14.041-30.214.874-11.437-.627-22.989.724-34.378 1.201-10.121 4.626-19.852 6.253-29.912 1.632-10.063 1.238-21.07-4.506-29.493z" fill="#fff" opacity=".7"/><path d="M187.818 40.795c-3.356-2.901-7.458-4.792-11.577-6.441-14.948-5.987-26.057-18.17-41.62-22.31-5.668-1.508-15.229.138-22.275 1.792-5.66 1.328-11.46 1.891-17.275 1.862-11.252-.056-23.123 2.054-23.123 2.054-18.078 4.72-26.642 24.698-39.203 38.515C25.863 63.84 17.2 70.025 12.263 78.985c-9.655 17.52-1.954 39.771 9.9 55.888 3.23 4.391 6.8 8.647 8.817 13.71 2.01 5.051 2.351 10.608 3.943 15.805 4.296 14.042 16.963 23.68 29.31 31.645 7.548 4.867 16.06 9.666 24.964 8.473 5.838-.783 11.041-4.078 16.776-5.424 13.204-3.099 27.467 4.422 40.367.23 14.863-4.83 20.967-22.499 33.207-32.206 7.191-5.703 16.59-8.686 22.418-15.775 6.493-7.894 7.042-19.174 5.178-29.222-1.864-10.046-5.799-19.652-7.241-29.767-1.281-8.988-.558-18.15-1.458-27.184-.896-9.032-3.753-18.423-10.626-24.363z" fill="#63C3D1"/><path d="M187.818 40.795c-3.356-2.901-7.458-4.792-11.577-6.441-14.948-5.987-26.057-18.17-41.62-22.31-5.668-1.508-15.229.138-22.275 1.792-5.66 1.328-11.46 1.891-17.275 1.862-11.252-.056-23.123 2.054-23.123 2.054-18.078 4.72-26.642 24.698-39.203 38.515C25.863 63.84 17.2 70.025 12.263 78.985c-9.655 17.52-1.954 39.771 9.9 55.888 3.23 4.391 6.8 8.647 8.817 13.71 2.01 5.051 2.351 10.608 3.943 15.805 4.296 14.042 16.963 23.68 29.31 31.645 7.548 4.867 16.06 9.666 24.964 8.473 5.838-.783 11.041-4.078 16.776-5.424 13.204-3.099 27.467 4.422 40.367.23 14.863-4.83 20.967-22.499 33.207-32.206 7.191-5.703 16.59-8.686 22.418-15.775 6.493-7.894 7.042-19.174 5.178-29.222-1.864-10.046-5.799-19.652-7.241-29.767-1.281-8.988-.558-18.15-1.458-27.184-.896-9.032-3.753-18.423-10.626-24.363z" fill="#fff" opacity=".4"/><path d="M111.658 192.454c46.369 0 83.958-37.551 83.958-83.872 0-46.32-37.589-83.87-83.958-83.87-46.37 0-83.959 37.55-83.959 83.87 0 46.321 37.59 83.872 83.959 83.872z" fill="#63C3D1"/><path d="M116.461 51.688c-4.68-8.275-15.953-10.372-25.285-8.53l-10.604 2.937c-12.559 4.22-22.059 14.548-29.738 25.336-4.68 6.574-8.974 13.621-10.858 21.467-1.884 7.846-1.076 16.658 3.733 23.139 4.81 6.482 14.096 9.835 21.433 6.465 8.243-3.785 11.251-13.705 16.72-20.936 4.424-5.85 10.63-10.045 16.646-14.242 6.015-4.198 12.096-8.65 16.081-14.806 3.986-6.154 5.482-14.449 1.872-20.83z" fill="#fff" opacity=".1"/><g opacity=".3" fill="#000"><path d="M147.866 60.25c1.095 5.91 14.186-.504 16.467-3.365 2.271-2.85 1.534-6.41-1.954-7.8-4.947-1.972-9.208 1.857-12.353 5.358-.967 1.077-1.874 2.297-2.119 3.723-.142.82-.147 1.51-.041 2.083zm6.009 8.701c-.477-.815-1.521-1.54-2.511-1.44-.421.043-.85.082-1.257.198-1.269.36-2.387 1.657-2.31 3.03l.008.162a3.4 3.4 0 00.188.948c-.009.089-.043.167-.046.259-.079 1.622 1.536 2.483 2.935 2.233 1.041-.186 1.93-.832 2.537-1.68a2.88 2.88 0 00.242-.335c.059-.099.09-.211.141-.315.022-.044.054-.082.075-.128.031-.068.046-.136.073-.206.068-.165.155-.321.22-.488.164-.747.14-1.498-.295-2.238z" opacity=".43"/><path d="M183.775 86.923c2.408 0 2.411-3.738 0-3.738-2.407 0-2.41 3.738 0 3.738zm-37.763-37.831c1.348.306 3.275-.412 3.501-1.986l.034-.25a17.388 17.388 0 001.714-2.315c1.132-1.817-.743-4.195-2.773-3.604-2.075.604-4.142 2.423-4.465 4.658-.212 1.465.361 3.128 1.989 3.497z"/><path d="M138.65 40.858c1.778 0 1.782-2.762 0-2.762-1.779 0-1.782 2.762 0 2.762z" opacity=".43"/><path d="M160.301 70.4c2.408 0 2.411-3.736 0-3.736-2.407 0-2.412 3.737 0 3.737zm17.681 24.184c.097 2.157 1.751 3.981 3.985 3.981 2.085 0 4.082-1.831 3.984-3.98-.097-2.158-1.751-3.981-3.984-3.981-2.084 0-4.082 1.831-3.985 3.98z"/><path d="M131.39 137.451c-1.312-.851-3.175-1.256-4.702-1.079-3.359.39-8.912 5.184-5.208 8.559 3.251 2.961 8.397.251 10.643-2.649 1.632-2.11.857-3.8-.733-4.831z" opacity=".43"/><path d="M169.03 150.948c-3.35 0-3.355 5.2 0 5.2 3.349 0 3.354-5.2 0-5.2zm4.691-8.218c-1.465 0-1.468 2.276 0 2.276 1.465 0 1.467-2.276 0-2.276zm-53.936-12.069c-2.721 0-2.726 4.225 0 4.225 2.72-.001 2.725-4.225 0-4.225z"/></g><g opacity=".3" fill="#000"><path d="M45.645 125.623c-1.958 0-3.832 1.719-3.742 3.737.09 2.026 1.645 3.738 3.742 3.738 1.957 0 3.831-1.719 3.74-3.738-.09-2.025-1.643-3.737-3.74-3.737z"/><path d="M115.629 142.466c-.59-2.118-1.999-4.104-4.016-5.09-2.008-.98-4.504-1.446-6.666-.618-1.59.61-3.143 1.476-3.98 3.057-.863 1.632-1.068 3.308-.671 5.126.114.526.325.987.578 1.418.238 1.179.872 2.251 1.787 3.083l-.247-.19c.463.405.92.825 1.46 1.137.756.437 1.405.607 2.121.723l-.377-.051c1.806.299 3.377.585 5.174.003 3.545-1.145 5.866-4.896 4.837-8.598z" opacity=".63"/><path d="M58.722 132.773c2.197 0 2.2-3.413 0-3.413-2.198 0-2.201 3.413 0 3.413zM37.11 120.705c3.455 0 3.46-5.363 0-5.363-3.453 0-3.46 5.363 0 5.363z"/></g><path d="M195.123 117.866c.071-.577.131-1.171.191-1.75.011-.093.022-.175.02-.27l.02-.162c.048-.607.098-1.215.132-1.824.044-.581.075-1.164.092-1.734a82.45 82.45 0 00.073-2.569 74.74 74.74 0 00-.167-6.363c-.005-.287-.036-.59-.055-.88l-.061-.825a57.825 57.825 0 00-.211-2.264 83.224 83.224 0 00-2.37-12.597 82.519 82.519 0 00-.83-2.884 90.748 90.748 0 00-1.378-4.085 80.061 80.061 0 00-1.232-3.167 66.398 66.398 0 00-1.611-3.623c-.201-.475-.43-.94-.658-1.404 0 0 .002-.014-.012-.016-.162-.347-.339-.682-.514-1.031-.089-.16-.166-.32-.268-.483a47.174 47.174 0 00-1.073-2.015 17.999 17.999 0 00-.38-.688c-.089-.162-.192-.323-.281-.485-.181-.308-.348-.616-.542-.912a68.22 68.22 0 00-2.324-3.725l-.114-.18a67.452 67.452 0 00-2.112-3.003l-.666-.9c-.176-.24-.327-.436-.505-.662l-.023-.03a78.132 78.132 0 00-4.185-5.02c-.216-.245-.431-.49-.659-.737a84.394 84.394 0 00-.952-1.017 73.338 73.338 0 00-1.806-1.847l-.497-.498-.014-.002a60.431 60.431 0 00-.903-.863c.002-.014-.012-.015-.012-.015a84.285 84.285 0 00-7.77-6.486c.494.415.988.846 1.465 1.286.039.02.075.05.111.096.516.46 1.032.919 1.533 1.404 0 0 .014.002.012.015.306.283.6.565.903.863l.013.002.498.498c.606.608 1.215 1.215 1.806 1.847.325.34.639.679.952 1.018.228.246.443.491.659.736a78.417 78.417 0 014.184 5.02l.024.03c.177.226.331.422.505.662a80.706 80.706 0 012.778 3.904l.114.177c.104.15.208.313.298.46a81.757 81.757 0 012.568 4.177c.088.162.192.324.281.486.135.234.257.454.38.687.255.468.511.936.755 1.403.199.365.4.731.587 1.096.176.348.353.684.515 1.032.013.002.012.016.012.016.349.711.683 1.42 1.003 2.142.431.926.847 1.866 1.235 2.814a71.785 71.785 0 011.469 3.796 74.15 74.15 0 011.151 3.484c.304.965.593 1.942.852 2.93.13.493.261.986.389 1.493a82.044 82.044 0 012.192 13.367l.062.825c.025.235.037.468.049.701.101 1.391.16 2.776.164 4.18.025.781.023 1.573.006 2.361a74.297 74.297 0 01-.165 4.304c-.032.595-.078 1.176-.124 1.771l-.007.055c-.063.728-.14 1.455-.23 2.182-.024.309-.063.619-.1.929-.033.255-.064.51-.108.75-.058.47-.117.941-.189 1.409a72.08 72.08 0 01-.928 5.069 67.063 67.063 0 01-.655 2.852c-.049.185-.087.371-.15.555a77.695 77.695 0 01-1.334 4.69c-.151.446-.303.904-.454 1.348a83.108 83.108 0 01-10.224 20.436c-.032.037-.053.088-.083.126-.634.917-1.276 1.805-1.932 2.694a80.485 80.485 0 01-5.801 6.92 84.152 84.152 0 01-6.517 6.298 95.083 95.083 0 01-4.281 3.467l-.013-.002a85.342 85.342 0 01-9.631 6.309l-.014-.002a84.37 84.37 0 01-16.058 6.932l-.014-.002a82.013 82.013 0 01-5.274 1.462c-.929.227-1.857.439-2.78.625a76.593 76.593 0 01-4.329.772 79.658 79.658 0 01-9.367.873 83.528 83.528 0 01-13.638-.57 83.914 83.914 0 01-25.687-7.45 73.895 73.895 0 01-5.005-2.584 73.376 73.376 0 01-3.88-2.294 102.736 102.736 0 01-3.717-2.507 66.324 66.324 0 01-1.59-1.166 65.841 65.841 0 002.505 2.043c.358.303.709.565 1.07.842.075.063.136.112.211.164.11.108.235.192.361.277a47.28 47.28 0 002.103 1.542 79.697 79.697 0 007.596 4.801 71.684 71.684 0 005.006 2.583 83.915 83.915 0 0025.687 7.451c7.84.972 15.557.836 23.004-.301.472-.065.946-.142 1.423-.233a52.279 52.279 0 002.908-.54 67.868 67.868 0 002.78-.625 82.687 82.687 0 0014.009-4.731 83.081 83.081 0 0010.711-5.657 84.283 84.283 0 0010.487-7.716 92.392 92.392 0 003.808-3.497 82.98 82.98 0 006.913-7.628 80.045 80.045 0 001.673-2.153c.656-.887 1.298-1.777 1.932-2.694a80.64 80.64 0 002.913-4.549l.014.002a83.1 83.1 0 008.828-20.744c.077-.278.153-.569.23-.858.096-.329.179-.674.261-1.004.129-.489.243-.967.358-1.457l.305-1.462c.081-.33.149-.664.218-.995.146-.732.276-1.454.408-2.187a72.86 72.86 0 00.295-1.82c.102-.709.206-1.434.295-2.159.036-.319.073-.628.099-.938z" fill="#fff" opacity=".2"/><path d="M181.967 62.996c-.014.009-.16-.172-.433-.53l-1.196-1.597-1.918-2.612c-.76-1.03-1.583-2.262-2.741-3.46l-3.685-4.13c-.641-.785-1.445-1.473-2.25-2.217l-2.515-2.313c-.893-.769-1.71-1.691-2.746-2.414-1.007-.76-2.046-1.54-3.115-2.346-1.085-.78-2.127-1.69-3.332-2.427-1.206-.736-2.443-1.49-3.709-2.265-5.041-3.146-11.056-5.713-17.646-7.987l-5.141-1.373c-.874-.221-1.743-.495-2.639-.677-.903-.152-1.813-.303-2.73-.458-1.836-.277-3.684-.686-5.584-.87-1.906-.134-3.838-.272-5.794-.412l-1.472-.105-1.484.034c-.991.026-1.99.05-2.993.075l-3.028.075c-1.015.008-2.023.216-3.044.315-2.032.274-4.106.442-6.165.811-2.045.457-4.108.916-6.19 1.38a90.29 90.29 0 00-24.121 10.488 90.19 90.19 0 00-19.636 17.5l-3.845 5.041C41.62 62.237 40.6 64.05 39.5 65.78c-.516.885-1.126 1.712-1.56 2.63l-1.336 2.717-1.32 2.685-.651 1.333-.52 1.379-2.05 5.43c-.63 1.802-1.031 3.649-1.546 5.433l-.726 2.668c-.21.89-.323 1.792-.489 2.677-.305 1.775-.606 3.523-.903 5.24-.688 6.932-.872 13.464-.119 19.354l.508 4.312c.167 1.403.557 2.728.812 4.039.285 1.305.56 2.575.83 3.805.225 1.243.72 2.371 1.048 3.503l1.051 3.248c.34 1.042.629 2.06 1.075 2.97l2.213 5.07c.605 1.554 1.38 2.815 2 3.935l1.572 2.833.953 1.753c.21.399.312.606.3.615-.014.008-.14-.184-.377-.567l-1.029-1.71c-.455-.771-1.005-1.704-1.649-2.8-.646-1.11-1.446-2.364-2.078-3.913-.692-1.524-1.457-3.214-2.294-5.061-.46-.91-.763-1.928-1.115-2.971-.351-1.047-.714-2.133-1.092-3.256-.341-1.135-.849-2.267-1.087-3.514-.281-1.238-.571-2.512-.867-3.824-.268-1.318-.672-2.652-.85-4.061-.178-1.411-.358-2.859-.544-4.342-.797-5.931-.652-12.517.012-19.511l.886-5.291c.163-.894.274-1.806.482-2.705l.722-2.696c.515-1.8.915-3.667 1.542-5.488l2.053-5.489.521-1.393.653-1.348 1.327-2.717 1.342-2.746c.436-.928 1.05-1.767 1.57-2.662 1.107-1.75 2.136-3.58 3.342-5.315l3.876-5.099a90.659 90.659 0 0119.828-17.699 90.706 90.706 0 0124.383-10.582l6.255-1.384c2.08-.367 4.176-.534 6.23-.808 1.031-.099 2.05-.303 3.076-.312l3.059-.07 3.024-.068 1.498-.029 1.485.11 5.849.433c1.918.193 3.782.61 5.634.897l2.753.473c.903.188 1.78.467 2.661.693 1.755.477 3.482.946 5.181 1.41 6.639 2.322 12.687 4.945 17.746 8.15l3.721 2.307c1.208.752 2.251 1.676 3.338 2.47l3.112 2.387c1.036.739 1.852 1.673 2.741 2.456l2.505 2.352c.8.757 1.601 1.459 2.235 2.257l3.642 4.198c1.143 1.222 1.947 2.473 2.688 3.523a5463.72 5463.72 0 011.856 2.669l1.124 1.649c.249.38.37.577.356.585z" fill="#fff"/><path d="M213.038 76.926c-.789-2.6-3.746-4.564-6.314-3.666a5.433 5.433 0 00-2.024 4.279c.014 1.184.133 2.386-.288 4.076-.369 1.484-.139 3.12.936 4.208 1.942 1.963 4.41.465 5.801-1.288 1.69-2.13 2.678-5.007 1.889-7.609z" fill="#fff" opacity=".6"/><path d="M13.38 175.736c-1.489-.653-3.27-.482-4.642.39-1.981 1.258-3.368 3.467-3.308 5.805.078 3.119 3.008 5.98 6.117 5.682.71-.068 1.426-.292 1.97-.754.419-.354.717-.83.962-1.32 1.426-2.839 2.735-8.121-1.099-9.803z" fill="#63C3D1"/><path d="M13.38 175.736c-1.489-.653-3.27-.482-4.642.39-1.981 1.258-3.368 3.467-3.308 5.805.078 3.119 3.008 5.98 6.117 5.682.71-.068 1.426-.292 1.97-.754.419-.354.717-.83.962-1.32 1.426-2.839 2.735-8.121-1.099-9.803z" fill="#fff" opacity=".6"/><path d="M172.706 53.258c.557-.216 1.407.204 2.305 1.477.903 1.26 1.734 3.407 2.119 6.18.392 2.8.346 5.995.014 9.709-.341 3.724-1.124 7.951-2.547 12.514-1.428 4.556-3.474 9.47-6.489 14.386-3.016 4.898-6.912 9.882-12.004 14.248-1.279 1.08-2.588 2.166-4.014 3.146a42.26 42.26 0 01-4.494 2.911c-3.235 1.821-7.097 3.473-11.678 4.099-2.298.319-4.721.288-6.724.082-2.046-.196-3.834-.516-5.381-.769-1.58-.271-2.802-.432-3.993-.512a26.341 26.341 0 00-3.705.01c-5.009.332-9.874 2.071-13.846 4.665-2 1.329-3.659 2.77-5.388 4.634-1.723 1.848-3.423 4.006-5.196 6.268-3.539 4.494-7.452 9.585-12.936 13.376-2.719 1.871-5.762 3.35-8.845 4.163a28.851 28.851 0 01-8.697.914c-5.387-.252-9.852-1.748-13.364-3.402a42.022 42.022 0 01-8.192-5.111c-4.02-3.254-5.706-5.636-5.132-6.691.595-1.093 3.55-.681 8.243.532 4.649 1.125 11.221 3.144 18.056 2.146 1.68-.25 3.319-.701 4.803-1.378 1.462-.669 2.831-1.624 4.206-2.858 2.76-2.462 5.41-6.394 8.607-11.254 1.617-2.422 3.4-5.072 5.647-7.798 2.222-2.721 5.103-5.546 8.282-7.808 6.39-4.544 14.181-7.504 22.522-8.079a42.195 42.195 0 016.24.017c2.099.16 4.12.488 5.74.797 3.356.646 5.465.98 6.968.816 1.686-.139 3.695-.764 5.787-1.793a29.068 29.068 0 003.163-1.786c1.07-.621 2.067-1.344 3.062-2.05 7.888-5.81 13.428-13.58 17.133-20.639a87.447 87.447 0 004.498-9.988c1.16-3.069 2.141-5.788 2.765-7.88 1.308-4.171 1.3-6.785 2.465-7.294zm15.386 54.116c.558 1.142-.839 2.965-2.968 5.873a104.034 104.034 0 00-8.087 12.514c-3.14 5.5-6.309 12.735-11.612 20.975a68.84 68.84 0 01-4.573 6.224c-1.727 2.092-3.685 4.112-5.741 5.992-4.135 3.765-8.782 7.002-13.614 9.812-9.615 5.589-19.508 9.47-28.766 11.882-9.261 2.378-17.803 3.458-25.242 3.295-7.408-.133-13.437-1.67-17.23-3.482-3.822-1.838-5.458-3.741-5.07-4.862.401-1.188 2.711-1.551 6.359-1.915 3.663-.38 8.7-.866 14.857-2.226 6.116-1.321 13.532-3.491 21.456-6.399 7.908-2.931 16.358-6.758 24.694-11.602 4.133-2.401 7.881-4.911 11.119-7.58 3.241-2.651 5.895-5.478 8.5-8.705 5.136-6.394 9.728-13.431 14.746-18.822 4.931-5.431 10.115-9.08 14.101-10.649 3.994-1.629 6.571-1.378 7.071-.325zM138.65 53.258c-.665-2.255-3.91-4.132-6.634-2.633-1.866 1.15-2.886 3.595-2.212 5.678.675 2.083 3.094 3.487 5.198 2.874 2.259-.657 4.339-3.569 3.648-5.919z" fill="#fff" opacity=".1"/></svg>