<svg width="100" height="100" fill="none" xmlns="http://www.w3.org/2000/svg"><mask id="mask0_2299_8571" style="mask-type:alpha" maskUnits="userSpaceOnUse" x="0" y="0" width="100" height="100"><circle cx="50" cy="50" r="50" fill="#C4C4C4"/></mask><g mask="url(#mask0_2299_8571)"><circle cx="50" cy="50" r="50" fill="#63C3D1"/><path fill-rule="evenodd" clip-rule="evenodd" d="M51.272 85.51c3.454 10.99 10.17 17.171 21.988 20.135-3.024-4.406-1.961-10.937 3.14-13.737 5.101-2.8 10.712-5.553 10.696-11.191 0-8.797-6.737-7.793-2.853-13.49 3.884-5.695 4.166-15.322-2.87-19.987l-.287-.196c-1.323-1.268-2.268-1.585-.765-4.11 9.91-16.612-20.106-32.849-28.826-19.402-1.913-2.679-5.377-5.49-11.355-4.813-3.72.422-13.226 4.274-17.45 11.18-7.02 11.47 3.438 11.27-1.621 17.22-.55.42-1.042.908-1.467 1.452l-.186.154c-6.62 5.172-5 12.812-1.115 18.492 3.884 5.68-3.65 5.78-3.784 13.21-.133 7.597 7.891 9.077 12.97 11.877 5.08 2.8 4.826 8.929 1.829 13.341 11.785-2.964 18.502-9.167 21.956-20.136z" fill="#170A00"/><path d="M92.95 73.312s47.493 30.842 58.679 40.231c0 0 3.275 5.643 0 15.495a93.189 93.189 0 01-8.729 18.366s.262 4.142-.557 4.554c-.819.413-3.538 1.502-3.538 2.327s-7.107 6.98-11.742 12.937c0 0-6.895-15.264-16.377-17.475l12.332-21.765a2.24 2.24 0 01-.59-.974 7.949 7.949 0 01.59-3.3l-25.156-7.426-4.913-42.97zm-80.027 17.82c-3.336 1.81-35.302 72.582-35.302 72.582s1.025 14.204 7.943 15.8c6.917 1.597 33.967-27.156 33.967-27.156s6.868-68.353-6.608-61.226z" fill="#F24052"/><path d="M46.478 177.442a53.261 53.261 0 0047.008-8.603s4.233-86.902-3.822-92.725c-3.524-2.55-10.475-.51-17.179 2.599a129.09 129.09 0 00-16.915 9.87s-15.005-2.123-26.831-.823c-7.527.806-13.753 3.01-14.033 7.994-.791 12.683 31.772 81.688 31.772 81.688z" fill="#E4AE7C"/><path d="M27.871 87.648c5.084-.54 6.025 3.373 11.109 5.278a69.572 69.572 0 0013.518 3.593c2.31.219 3.532 3.153 3.532 3.153s.826-3.963 2.08-4.3c1.255-.338 12-11.4 14.245-17.118a128.722 128.722 0 00-16.952 10.119s-15.037-2.176-26.888-.843l-.644.118z" fill="#E4AE7C"/><path d="M57.927 59.336S56 82.843 62.47 86.191c0 0-4.775 8.913-17.584 3.498 0 0 2.173-12.094-6.29-26.438-5.68-9.612 19.33-3.915 19.33-3.915zM32.759 48.482s-4.517-5.57-5.553.426c-1.19 6.948 4.64 10.241 5.94 8.111 1.298-2.13-.387-8.537-.387-8.537z" fill="#E4AE7C"/><path d="M69.28 51.277s5.367-4.984 5.541 1.388c.205 7.365-6.126 9.814-7.168 7.382-1.041-2.432 1.627-8.77 1.627-8.77z" fill="#FF8B66"/><path d="M48.164 74.866c-11.605-.864-17.606-8.817-15.882-31.208.895-11.538 7.427-18.17 20.44-17.21 13.015.962 17.955 8.475 17.06 20.03-1.857 24.037-9.616 29.284-21.618 28.388z" fill="#E4AE7C"/><path d="M61.328 41.948a.54.54 0 01-.677-.148 6.471 6.471 0 00-4.238-1.936.556.556 0 01-.39-.192.577.577 0 01-.141-.416.568.568 0 01.177-.395.546.546 0 01.403-.146 7.45 7.45 0 015.059 2.347.599.599 0 01-.08.82l-.114.066zM44.85 38.993a.61.61 0 01-.336 0c-1.741-.14-3.48.291-4.89 1.211a.659.659 0 01-.433.157.66.66 0 01-.433-.157.535.535 0 01-.178-.393c0-.147.064-.288.178-.393 1.672-1.14 3.767-1.673 5.862-1.494a.66.66 0 01.412.209.53.53 0 01.136.404.477.477 0 01-.088.268.562.562 0 01-.23.188z" fill="#170A00"/><path d="M59.162 48.305c-.084 1.591-.709 2.835-1.39 2.762-.68-.074-1.154-1.409-1.056-3 .097-1.59.709-2.834 1.39-2.76.68.072 1.153 1.407 1.056 2.998zm-15.657-1.252c-.111 1.363-.946 2.43-1.855 2.367-.91-.063-1.522-1.207-1.41-2.571.11-1.364.964-2.43 1.855-2.367.89.063 1.54 1.207 1.41 2.57z" fill="#462917"/><path d="M44.346 61.047s7.492 1.428 11.533-.092c0 0-2.62 4.773-6.73 4.043a6.405 6.405 0 01-3.069-1.353c-.852-.7-1.455-1.604-1.734-2.599z" fill="#fff"/><path d="M50.83 55.725c-.3.139-.62.236-.949.288l-.26-1.333c.39-.02.76-.173 1.044-.434.284-.261.461-.612.5-.988a1.645 1.645 0 00-.143-.916 1.708 1.708 0 00-.62-.705c-.242 0-.502 0-.8.432l-1.135-.846a2.051 2.051 0 011.069-.856c.448-.158.938-.16 1.387-.008a3.04 3.04 0 011.31 1.264 2.9 2.9 0 01.328 1.76c-.04.507-.221.993-.527 1.406a2.85 2.85 0 01-1.203.936z" fill="#D67F54"/><path d="M117.473 265.965c-63.507 13.122-108.55-3.461-108.55-3.461l25.275-93.615.462-1.64.56-2.116.478-1.772.314-1.115.478-1.755.395-1.493.396-1.476-.165-.148C14.81 138.035 16.293 92.679 16.293 92.679a11.33 11.33 0 013.512-3.599 11.396 11.396 0 014.732-1.732 122.742 122.742 0 0032.479 33.611C69.1 108.902 77.624 75.341 77.624 75.341a14.59 14.59 0 0113.701 1.115c13.189 20.8 4.583 63.711 3.132 70.404l-.197.885c.28.575.56 1.165.824 1.756l.544 1.164c.544 1.181 1.072 2.346 1.649 3.527.346.771.676 1.542.989 2.329a153.428 153.428 0 011.847 4.495c20.625 52.261 17.36 104.949 17.36 104.949z" fill="#FBF37F"/><path d="M70.754 75.533a44.08 44.08 0 005 22.518c11.72 21.893 12.655 47.812 12.655 47.812a20.34 20.34 0 0117.72 4.06s-.295-43.013-13.114-76.132a52.878 52.878 0 00-22.261 1.742zM33.7 85.93s5.017 11.68-2.793 33.753c-6.02 17.214-9.215 44.147-9.215 44.147a13.786 13.786 0 00-5.34 2.762 13.543 13.543 0 00-3.623 4.749c-5.235-33.538 7.124-29.651.217-79.711 0 0 9.415-7.43 20.754-5.7z" fill="#F24052"/><path d="M33.541 85.47s-7.748-3.416-13.084 5.711c0 0 8.954 8.929 11.184 18.617l-10.094 7.542a127.955 127.955 0 012.825 25.169s18.338-43.422 9.17-57.038zm37.266-10.398s5.434-4.378 15.237 5.8c0 0-8.884 8.112-7.61 16.835 0 0 7.48.513 12.044 4.643 0 0-3.838 13.499-5.273 20.388 0 0-6.755-18.389-11.076-25.03-4.322-6.642-3.322-22.636-3.322-22.636z" fill="#CE364C"/><path fill-rule="evenodd" clip-rule="evenodd" d="M27.116 63.71c-2.454-4.734-2.416-10.03-2.661-12.06-2.241-19.935 10.32-29.402 22.737-29.06h.389v7.805c-2.279-.736-4.221-1.184-5.248-1.184h-.756c-2.858 0-4.258 4.734-7.574 5.991-1.884.731-.08 9.352-2.033 13.675-.474 1.052-2.97 3.55-3.55 3.803-1.687 1.715-1.836 3.619-1.304 11.03z" fill="#170A00"/><path fill-rule="evenodd" clip-rule="evenodd" d="M36.476 28.473c10.947-7.65 6.199 5.902 15.441 5.939 4.595 0 8.8 1.88 8.72 5.79-.079 3.91-.1 5.642 4.11 7.677 8.16 3.93-7.386 17.482 13.03 18.25-2.137-9.912 8.002-13.112 4.573-21.72-3.429-8.609-10.065-6.093-8.62-11.433 1.124-4.195 1.615-8.74-1.392-11.972-4.342-4.673-8.63.084-11.41-4.408-2.332-3.772-3.699-9.366-13.553-7.268-12.55 2.67-13.083 12.74-10.899 19.145z" fill="#170A00"/></g></svg>