<svg width="56" height="56" fill="none" xmlns="http://www.w3.org/2000/svg"><g filter="url(#filter0_d_1271_10620)"><path d="M45.245 36.739H31.759a.75.75 0 00-.532.217l-.524.532h-5.38l-.524-.532a.748.748 0 00-.532-.218H10.78a2.247 2.247 0 00-2.248 2.248v.75a3.746 3.746 0 003.746 3.745h31.468a3.746 3.746 0 003.746-3.746v-.749a2.248 2.248 0 00-2.248-2.247zm.75 2.996a2.248 2.248 0 01-2.248 2.248H12.279a2.248 2.248 0 01-2.247-2.248v-.749a.75.75 0 01.749-.749H23.96l.524.532a.748.748 0 00.532.217h5.994a.651.651 0 00.314-.075.606.606 0 00.218-.142l.524-.532h13.179a.75.75 0 01.75.75v.748z" fill="#ADA4CD"/><path d="M40 30.235v3.507h-7.492a2.48 2.48 0 01-.262.3 2.245 2.245 0 01-.307.291 3.456 3.456 0 01-.712.473 3.417 3.417 0 01-.374.172H30.8a2.762 2.762 0 01-.352.112h-.06l-.352.06a3.786 3.786 0 01-.524.09H40.75a.75.75 0 00.75-.75v-5.753L40 30.235zM14.528 17.26v2.008l2.757-2.757h-2.008a.75.75 0 00-.749.749zM41.5 13.513h-3.746a.75.75 0 00-.75.749v.09c.012.22.012.44 0 .66v.696a8.244 8.244 0 01-.217 1.371.75.75 0 00.135.622.748.748 0 00.592.284h2.488v15.757H16.026V18.008h2.517a.75.75 0 00.592-.285.75.75 0 00.135-.644 7.826 7.826 0 01-.247-1.379 7.7 7.7 0 010-.936 4.344 4.344 0 010-.442v-.06a.75.75 0 00-.75-.75h-3.746a2.997 2.997 0 00-2.997 2.998v18.73c0 .148.013.296.038.442.016.135.046.268.09.397 0 .075.045.15.075.225a.99.99 0 00.074.172l.075.158a.561.561 0 00.053.09c.083.157.186.303.307.434l.142.157a2.715 2.715 0 00.682.525l.105.052c.107.059.22.107.337.143.324.132.67.201 1.02.202h9.432l.524.532a.748.748 0 00.532.217h5.994a.652.652 0 00.315-.075.607.607 0 00.217-.142l.524-.532H41.5c.338.004.673-.054.99-.172a3.34 3.34 0 00.404-.173c.088-.04.17-.09.247-.15l.12-.082c.564-.407.97-.998 1.146-1.67a.33.33 0 000-.158c.055-.193.085-.392.09-.592V16.51a2.997 2.997 0 00-2.997-2.997zm1.499 21.727c.01.087.01.175 0 .262a.178.178 0 010 .053 1.499 1.499 0 01-.592.876l-.083.068h-.075l-.224.097a1.4 1.4 0 01-.525.143h-9.74a.75.75 0 00-.532.217l-.524.532h-5.38l-.524-.532a.75.75 0 00-.532-.218h-9.74a1.356 1.356 0 01-.51-.097l-.194-.082h-.038l-.164-.113a.79.79 0 01-.15-.127l-.105-.12a1.223 1.223 0 01-.165-.24.886.886 0 00-.06-.15v-.074a.14.14 0 010-.053v-.105a.164.164 0 010-.06v-.097a.51.51 0 01-.112-.18V16.51a1.499 1.499 0 011.498-1.499h2.997v.802c0 .127 0 .254.045.382.045.127 0 .21 0 .315h-2.293a.75.75 0 00-.749.749V34.49a.75.75 0 00.75.75H40.75a.75.75 0 00.75-.75V17.259a.75.75 0 00-.75-.75h-2.36c0-.232.06-.456.082-.681.023-.225 0-.54 0-.817h2.997a1.498 1.498 0 011.499 1.499l.03 18.73zM15.276 16.51a.75.75 0 00-.749.749v2.008l2.757-2.757h-2.008zm25.474 0h-2.36a8.102 8.102 0 01-.18.929c-.045.187-.09.374-.15.569H40v15.734h-7.492a3.39 3.39 0 01-.262.3 2.245 2.245 0 01-.307.291 3.456 3.456 0 01-.712.473 3.417 3.417 0 01-.374.172H30.8a2.762 2.762 0 01-.352.112h-.06l-.352.06a3.786 3.786 0 01-.524.09H40.75a.75.75 0 00.75-.75V17.26a.75.75 0 00-.75-.75z" fill="#ADA4CD"/><path d="M40.75 35.24H15.277a.75.75 0 01-.75-.75V17.26a.75.75 0 01.75-.75h3.266a.75.75 0 01.75.592c.1.468.246.924.434 1.364a9.036 9.036 0 002.96 3.746c.489.36.817.898.913 1.498l.472 1.791a.208.208 0 010 .098.75.75 0 00.75.651h6.368a.75.75 0 00.75-.651.21.21 0 010-.098l.486-1.783c.096-.6.425-1.138.914-1.498a8.991 8.991 0 002.952-3.747c.184-.447.334-.908.45-1.378a.75.75 0 01.749-.585h3.26a.75.75 0 01.748.75v17.23a.75.75 0 01-.749.749zm-24.724-1.498H40V18.008h-1.94c-.108.353-.233.7-.375 1.041a10.49 10.49 0 01-3.432 4.383.824.824 0 00-.337.525.24.24 0 010 .105l-.487 1.783a2.248 2.248 0 01-2.247 1.903h-6.369a2.248 2.248 0 01-2.21-1.903l-.487-1.783a.238.238 0 010-.105.824.824 0 00-.337-.525 10.49 10.49 0 01-3.814-5.424h-1.94v15.734z" fill="#ADA4CD"/><path d="M29.512 35.24h-2.997a3.746 3.746 0 01-3.746-3.746v-2.997a2.248 2.248 0 012.247-2.248h5.994a2.248 2.248 0 012.248 2.248v2.997a3.746 3.746 0 01-3.747 3.746zm-4.496-7.492a.75.75 0 00-.749.75v2.996a2.248 2.248 0 002.248 2.248h2.997a2.248 2.248 0 002.247-2.248v-2.997a.75.75 0 00-.749-.75h-5.994z" fill="#63C3D1"/><path d="M31.535 20.256c-.1.012-.2.012-.3 0a1.71 1.71 0 01-1.146-.75 3.302 3.302 0 00-2.758-1.498h-.816a.749.749 0 01-.75-.75v-4.495a.75.75 0 01.75-.749h.816a3.32 3.32 0 002.765-1.498 1.693 1.693 0 011.139-.75c.1-.012.2-.012.3 0a1.724 1.724 0 011.723 1.724v7.042a1.723 1.723 0 01-1.723 1.724zm-4.27-3.747h.066a4.787 4.787 0 014.009 2.15.211.211 0 00.157.09h.038a.225.225 0 00.224-.224V11.49a.218.218 0 00-.217-.225h-.045a.204.204 0 00-.15.082 4.802 4.802 0 01-4.016 2.166h-.067v2.996zm4.27-5.993v.749-.75z" fill="#ADA4CD"/><path d="M26.515 18.008h-1.499a2.997 2.997 0 110-5.994h1.499a.749.749 0 01.75.75v4.495a.75.75 0 01-.75.749zm-1.499-4.495a1.498 1.498 0 000 2.996h.75v-2.996h-.75z" fill="#ADA4CD"/><path d="M26.515 21.754a.748.748 0 01-.697-.472l-1.498-3.746a.75.75 0 011.393-.554l1.499 3.746a.75.75 0 01-.697 1.026z" fill="#ADA4CD"/><path opacity=".3" d="M51.988 12.913a12.841 12.841 0 01-3.746 9.11l-3.746 3.747v-9.26a2.997 2.997 0 00-2.997-2.997h-3.102a10.587 10.587 0 00-3.7-6.586 10.489 10.489 0 00-5.5-2.33l.794-.824a12.887 12.887 0 0121.997 9.14zM26.755 43.481l-.75.75A12.895 12.895 0 017.785 25.98l3.745-3.746V35.24c0 .148.013.296.038.442.016.135.046.268.09.397 0 .075.045.15.075.225.02.06.044.117.075.172l.075.158a.569.569 0 00.052.09h-1.154a2.248 2.248 0 00-2.247 2.247v.75a3.746 3.746 0 003.746 3.746l14.475.014z" fill="#63C3D1"/></g><defs><filter id="filter0_d_1271_10620" x="0" y="0" width="55.988" height="56" filterUnits="userSpaceOnUse" color-interpolation-filters="sRGB"><feFlood flood-opacity="0" result="BackgroundImageFix"/><feColorMatrix in="SourceAlpha" values="0 0 0 0 0 0 0 0 0 0 0 0 0 0 0 0 0 0 127 0" result="hardAlpha"/><feOffset dy="4"/><feGaussianBlur stdDeviation="2"/><feComposite in2="hardAlpha" operator="out"/><feColorMatrix values="0 0 0 0 0 0 0 0 0 0 0 0 0 0 0 0 0 0 0.25 0"/><feBlend in2="BackgroundImageFix" result="effect1_dropShadow_1271_10620"/><feBlend in="SourceGraphic" in2="effect1_dropShadow_1271_10620" result="shape"/></filter></defs></svg>