<svg width="120" height="120" fill="none" xmlns="http://www.w3.org/2000/svg"><path d="M85.287 94.684c19.053-13.86 23.251-40.525 9.376-59.558C80.788 16.093 54.095 11.9 35.043 25.76c-19.053 13.86-23.25 40.526-9.376 59.56 13.875 19.032 40.568 23.226 59.62 9.365z" fill="#63C3D1"/><path d="M50.807 73.998c-.62 5.087 3.006 9.712 8.096 10.332 5.092.62 9.723-3.002 10.343-8.087.62-5.087-3.005-9.713-8.096-10.332-5.092-.62-9.722 3.002-10.343 8.087z" fill="#63C3D1"/><path d="M50.807 73.998c-.62 5.087 3.006 9.712 8.096 10.332 5.092.62 9.723-3.002 10.343-8.087.62-5.087-3.005-9.713-8.096-10.332-5.092-.62-9.722 3.002-10.343 8.087z" fill="#000" opacity=".3"/><path d="M49.793 73.969c-.618 5.073 2.683 9.648 7.762 10.266 5.078.617 9.426-3.379 10.044-8.452.619-5.073-2.73-9.263-7.81-9.88-5.078-.619-9.378 2.993-9.996 8.066z" fill="#63C3D1"/><path d="M51.398 18.43c-10.454 4.89-18.735 13.92-22.47 25.246.004.003 1.716 1.77 1.41 3.934-.255 1.784-2.25 2.301-2.956 2.43-.103.617-.212 1.231-.288 1.857a42.627 42.627 0 00-.089 9.418c.126.094 3.639 2.723 3.837 5.172.151 1.854-.723 3.639-1.571 4.917.259.722.526 1.438.823 2.143A42.82 42.82 0 0040.72 88.554c.42-.182 2.947-1.19 5.208-.044 2.472 1.252 1.654 4.862 1.654 4.862l-.303.093a42.51 42.51 0 0017.012 5.904 42.61 42.61 0 0013.742-.56 42.51 42.51 0 01-23.217 3.697c-23.396-2.848-40.05-24.1-37.2-47.472C19.893 36.37 33.924 22.01 51.396 18.43z" fill="#000" opacity=".3"/><path d="M29.074 52.655a1.028 1.028 0 102.04.246 1.028 1.028 0 00-2.04-.246z" fill="#000" opacity=".3"/><path d="M76.067 79.619c.406-1.944 1.443-3.695 2.601-5.308.748-1.042 1.798-2.151 3.07-1.983l1.087.179c1.528-.601 3.411-.147 4.495 1.085 1.005 1.144 1.282 2.802.99 4.296-.294 1.494-1.094 2.842-2.03 4.042a18.601 18.601 0 01-3.676 3.564c-.772.565-1.64 1.085-2.597 1.113-1.054.029-2.052-.565-2.739-1.365-1.296-1.508-1.606-3.68-1.201-5.623z" fill="#63C3D1"/><path d="M75.91 79.6c.405-1.943 1.443-3.694 2.601-5.308.748-1.041 1.797-2.151 3.07-1.983l1.087.18c1.528-.602 3.41-.147 4.494 1.085 1.005 1.144 1.283 2.801.99 4.295-.293 1.495-1.094 2.843-2.029 4.042a18.604 18.604 0 01-3.676 3.564c-.772.565-1.641 1.086-2.597 1.113-1.054.03-2.053-.565-2.74-1.365-1.294-1.508-1.604-3.68-1.2-5.623z" fill="#000" opacity=".3"/><path d="M75.058 79.496c.406-1.943 1.443-3.694 2.602-5.308.748-1.041 1.535-1.58 3.07-1.982l1.674-.274c1.665.06 2.824.304 3.907 1.536 1.005 1.144 1.283 2.802.99 4.296-.293 1.494-1.094 2.842-2.03 4.044a18.604 18.604 0 01-3.676 3.563c-.771.565-1.484.92-2.441.947-1.054.028-1.758-.681-2.445-1.481-1.294-1.508-2.056-3.399-1.65-5.34zM63.136 94.687c-1.562.14-3.106-.161-4.566-.566-.944-.263-1.996-.702-2.123-1.54l-.08-.726c-.761-.844-.788-2.129-.064-3.066.672-.87 1.882-1.382 3.08-1.501 1.197-.12 2.385.114 3.487.462 1.239.392 2.402.933 3.448 1.604.585.374 1.154.817 1.365 1.417.231.662-.024 1.415-.498 2.012-.892 1.126-2.487 1.765-4.05 1.904z" fill="#63C3D1"/><path d="M63.313 94.708c-1.563.14-3.106-.162-4.566-.567-.942-.262-1.997-.701-2.121-1.54l-.08-.725c-.764-.844-.79-2.13-.065-3.067.673-.87 1.883-1.382 3.08-1.5 1.198-.12 2.385.113 3.487.462a14.48 14.48 0 013.449 1.603c.584.375 1.153.817 1.364 1.418.232.662-.024 1.414-.497 2.013-.895 1.127-2.49 1.765-4.052 1.903z" fill="#000" opacity=".3"/><path d="M62.238 94.903c-1.562.14-3.106-.161-4.566-.566-.942-.262-1.51-.65-2.12-1.54l-.543-1.006c-.286-1.066-.328-1.849.397-2.786.673-.87 1.883-1.382 3.079-1.501 1.197-.12 2.385.114 3.487.462 1.239.392 2.402.933 3.448 1.604.585.374.995.754 1.206 1.353.232.662-.17 1.252-.644 1.85-.892 1.125-2.182 1.99-3.744 2.13zM40.637 34.084c1.298-1.503 3.058-2.529 4.855-3.378 1.16-.548 2.617-1.008 3.648-.244l.863.683c1.627.216 3.053 1.526 3.4 3.13.324 1.487-.241 3.07-1.222 4.234-.982 1.164-2.338 1.954-3.74 2.55a18.613 18.613 0 01-4.947 1.33c-.95.12-1.961.153-2.811-.288-.936-.486-1.52-1.489-1.731-2.522-.399-1.943.387-3.992 1.685-5.495z" fill="#63C3D1"/><path d="M40.637 34.084c1.298-1.503 3.058-2.529 4.855-3.378 1.16-.548 2.617-1.008 3.648-.244l.863.683c1.627.216 3.053 1.526 3.4 3.13.324 1.487-.241 3.07-1.222 4.234-.982 1.164-2.338 1.954-3.74 2.55a18.613 18.613 0 01-4.947 1.33c-.95.12-1.961.153-2.811-.288-.936-.486-1.52-1.489-1.731-2.522-.399-1.943.387-3.992 1.685-5.495z" fill="#000" opacity=".3"/><path d="M39.043 34.537c1.298-1.503 3.058-2.53 4.855-3.379 1.16-.548 2.111-.636 3.648-.243l1.596.574c1.426.859 2.319 1.635 2.668 3.238.324 1.488-.242 3.07-1.223 4.234-.982 1.165-2.338 1.954-3.74 2.55a18.613 18.613 0 01-4.947 1.33c-.949.12-1.745.082-2.593-.357-.935-.486-1.204-1.448-1.417-2.481-.399-1.944-.145-3.964 1.153-5.466zM81.09 65.014c.148-.455.404-.892.804-1.152.555-.361 1.274-.317 1.93-.23.511.054.95.47 1.351 1.072.438.643.637 1.458.479 2.22-.16.76-.695 1.447-1.42 1.728-.934.361-2.07-.013-2.694-.795-.626-.779-.76-1.892-.45-2.843z" fill="#63C3D1"/><path d="M80.951 64.996c.149-.454.402-.891.804-1.152.556-.36 1.275-.316 1.93-.23.512.055.951.47 1.352 1.073.437.643.637 1.458.478 2.219-.16.76-.695 1.448-1.42 1.73-.934.36-2.067-.014-2.694-.796-.625-.78-.76-1.892-.45-2.844z" fill="#000" opacity=".3"/><path d="M80.655 65.034c.136-.417.37-.82.74-1.059.51-.331 1.172-.29 1.775-.21.47.05.873.43 1.242.985.402.59.586 1.34.439 2.04-.147.7-.639 1.333-1.307 1.59-.858.332-1.9-.012-2.475-.73-.576-.72-.698-1.743-.414-2.616z" fill="#63C3D1"/><path d="M80.655 65.034c.136-.417.37-.82.74-1.059.51-.331 1.172-.29 1.775-.21.47.05.873.43 1.242.985.402.59.586 1.34.439 2.04-.147.7-.639 1.333-1.307 1.59-.858.332-1.9-.012-2.475-.73-.576-.72-.698-1.743-.414-2.616z" fill="#000" opacity=".2"/><path d="M85.01 39.43c.119-.365.323-.717.645-.926.447-.29 1.024-.256 1.552-.184.41.044.765.378 1.086.863.352.517.512 1.172.383 1.783-.128.611-.559 1.164-1.143 1.39-.752.292-1.661-.01-2.164-.638-.5-.63-.608-1.523-.36-2.289z" fill="#63C3D1"/><path d="M84.9 39.416c.12-.364.324-.717.646-.926.446-.29 1.024-.255 1.552-.184.41.044.765.378 1.085.863.353.517.513 1.173.383 1.784-.127.61-.558 1.164-1.143 1.39-.75.291-1.662-.01-2.165-.638-.5-.63-.606-1.523-.358-2.29z" fill="#000" opacity=".3"/><path d="M84.661 39.445c.109-.336.298-.659.595-.851.41-.267.942-.235 1.427-.17.378.04.702.347.998.793.324.474.47 1.077.353 1.64-.117.562-.514 1.07-1.051 1.278-.69.267-1.528-.01-1.99-.587-.462-.579-.56-1.4-.332-2.103z" fill="#63C3D1"/><path d="M84.661 39.445c.109-.336.298-.659.595-.851.41-.267.942-.235 1.427-.17.378.04.702.347.998.793.324.474.47 1.077.353 1.64-.117.562-.514 1.07-1.051 1.278-.69.267-1.528-.01-1.99-.587-.462-.579-.56-1.4-.332-2.103z" fill="#000" opacity=".2"/><path d="M62.31 26.582c.156-.478.425-.94.847-1.213.585-.38 1.343-.334 2.035-.242.538.058 1.001.494 1.422 1.13.462.677.671 1.537.504 2.338-.168.802-.732 1.525-1.497 1.821-.983.382-2.177-.013-2.837-.837-.657-.824-.799-1.994-.473-2.997z" fill="#63C3D1"/><path d="M62.165 26.563c.155-.478.424-.94.846-1.213.586-.38 1.343-.334 2.034-.242.539.058 1.002.494 1.423 1.13.462.678.671 1.537.504 2.339-.168.801-.732 1.524-1.497 1.82-.983.382-2.177-.013-2.837-.837-.66-.822-.799-1.994-.473-2.997z" fill="#000" opacity=".3"/><path d="M61.853 26.602c.143-.439.39-.864.779-1.114.538-.35 1.233-.308 1.87-.223.496.052.92.454 1.309 1.038.424.623.616 1.412.463 2.15-.153.736-.675 1.402-1.377 1.674-.904.35-2.001-.012-2.608-.77-.606-.757-.737-1.834-.436-2.755z" fill="#63C3D1"/><path d="M61.853 26.602c.143-.439.39-.864.779-1.114.538-.35 1.233-.308 1.87-.223.496.052.92.454 1.309 1.038.424.623.616 1.412.463 2.15-.153.736-.675 1.402-1.377 1.674-.904.35-2.001-.012-2.608-.77-.606-.757-.737-1.834-.436-2.755z" fill="#000" opacity=".2"/><path d="M70.662 28.07c.079-.239.213-.47.423-.606.293-.191.671-.167 1.017-.121.27.029.501.247.712.565.23.338.336.767.252 1.169a1.256 1.256 0 01-.748.91c-.492.191-1.088-.006-1.419-.418-.329-.412-.4-1-.237-1.5z" fill="#63C3D1"/><path d="M70.593 28.061c.078-.238.213-.47.422-.606.293-.19.671-.167 1.017-.12.27.028.501.246.712.564.23.339.336.768.252 1.17a1.256 1.256 0 01-.747.91c-.493.19-1.09-.007-1.42-.419-.33-.413-.4-.999-.236-1.499z" fill="#000" opacity=".3"/><path d="M70.435 28.08c.072-.22.196-.433.388-.559.27-.175.617-.153.936-.11.247.027.46.226.654.519.211.311.308.706.232 1.076a1.158 1.158 0 01-.689.837c-.453.175-1.001-.007-1.305-.385-.301-.38-.366-.917-.216-1.378z" fill="#63C3D1"/><path d="M70.435 28.08c.072-.22.196-.433.388-.559.27-.175.617-.153.936-.11.247.027.46.226.654.519.211.311.308.706.232 1.076a1.158 1.158 0 01-.689.837c-.453.175-1.001-.007-1.305-.385-.301-.38-.366-.917-.216-1.378zM49.793 73.969c-.618 5.073 2.683 9.648 7.762 10.266 5.078.617 9.426-3.379 10.044-8.452.619-5.073-2.73-9.263-7.81-9.88-5.078-.619-9.378 2.993-9.996 8.066zm25.265 5.527c.406-1.943 1.443-3.694 2.602-5.308.748-1.041 1.535-1.58 3.07-1.982l1.674-.274c1.665.06 2.824.304 3.907 1.536 1.005 1.144 1.283 2.802.99 4.296-.293 1.494-1.094 2.842-2.03 4.044a18.604 18.604 0 01-3.676 3.563c-.771.565-1.484.92-2.441.947-1.054.028-1.758-.681-2.445-1.481-1.294-1.508-2.056-3.399-1.65-5.34zm-12.82 15.407c-1.562.14-3.106-.161-4.566-.566-.942-.262-1.51-.65-2.12-1.54l-.543-1.006c-.286-1.066-.328-1.849.397-2.786.673-.87 1.883-1.382 3.079-1.501 1.197-.12 2.385.114 3.487.462 1.239.392 2.402.933 3.448 1.604.585.374.995.754 1.206 1.353.232.662-.17 1.252-.644 1.85-.892 1.125-2.182 1.99-3.744 2.13zM39.043 34.537c1.298-1.503 3.058-2.53 4.855-3.379 1.16-.548 2.111-.636 3.648-.243l1.596.574c1.426.859 2.319 1.635 2.668 3.238.324 1.488-.242 3.07-1.223 4.234-.982 1.165-2.338 1.954-3.74 2.55a18.613 18.613 0 01-4.947 1.33c-.949.12-1.745.082-2.593-.357-.935-.486-1.204-1.448-1.417-2.481-.399-1.944-.145-3.964 1.153-5.466z" fill="#000" opacity=".2"/><path d="M95.799 81.911l.005-.006c-.06-.046.506-1.085 1.365-3.035a45.62 45.62 0 002.755-8.574 42.94 42.94 0 00.705-13.353c-.535-5.029-2.034-10.53-4.857-15.721l.42.23h-.006l-.278.02-.152-.262c-.548-.952-1.088-1.993-1.71-2.996-1.678-2.673-3.683-5.03-5.782-7.136a44.68 44.68 0 00-6.733-5.304c-4.637-2.93-9.329-4.672-13.346-5.693a50.231 50.231 0 00-9.728-1.445c-2.327-.078-3.623-.061-3.627-.138-.002-.03.32-.066.935-.107.615-.025 1.527-.12 2.7-.099 2.345.014 5.762.237 9.868 1.181 4.089.957 8.883 2.664 13.633 5.611a44.558 44.558 0 016.9 5.373c2.154 2.143 4.21 4.551 5.93 7.29.637 1.027 1.19 2.093 1.747 3.068l-.427-.242h.007l.286-.022.136.252c2.88 5.315 4.375 10.933 4.874 16.066a42.22 42.22 0 01-.908 13.562 40.814 40.814 0 01-3.046 8.582c-.482.96-.877 1.694-1.177 2.173-.293.485-.458.734-.487.724-.002.003-.002.001-.002.001z" fill="#fff"/><path d="M113.696 74.975c2.018-.82 4.574 1.116 4.327 3.28-.247 2.162-3.174 3.474-4.956 2.222-1.782-1.255-1.533-4.449.422-5.41" fill="#63C3D1"/></svg>