<svg width="130" height="130" fill="none" xmlns="http://www.w3.org/2000/svg"><path d="M120.021 1.327H9.978c-4.77 0-8.652 3.88-8.652 8.651v110.044c0 4.77 3.881 8.652 8.652 8.652H120.02c4.771 0 8.652-3.882 8.652-8.652V9.978c0-4.77-3.881-8.651-8.652-8.651zm0 124.694H9.978a6.005 6.005 0 01-5.999-5.999v-93.13h8.748V24.24H3.979V9.978A6.005 6.005 0 019.978 3.98H120.02a6.005 6.005 0 015.999 5.998V24.24H20.229v2.653H126.02v93.129a6.006 6.006 0 01-5.999 5.999z" fill="#73DCEB"/><path d="M11.94 83.219H9.285v7.244h2.653v-7.244zm0 29.171V96.472H9.285v15.918c0 4.59 3.734 8.325 8.325 8.325h7.886v-2.654H17.61a5.678 5.678 0 01-5.672-5.671zm24.428 5.671h-7.07v2.653h7.07v-2.653zm78.886-97.982a5.976 5.976 0 005.969-5.97 5.976 5.976 0 00-5.969-5.969 5.976 5.976 0 00-5.97 5.97 5.976 5.976 0 005.97 5.969zm0-9.286a3.32 3.32 0 013.316 3.317 3.32 3.32 0 01-3.316 3.316 3.32 3.32 0 01-3.317-3.316 3.32 3.32 0 013.317-3.317zM100.38 20.08a5.976 5.976 0 005.97-5.97 5.976 5.976 0 00-5.97-5.969 5.976 5.976 0 00-5.97 5.97 5.976 5.976 0 005.97 5.969zm0-9.286a3.32 3.32 0 013.316 3.317 3.32 3.32 0 01-3.316 3.316 3.32 3.32 0 01-3.316-3.316 3.32 3.32 0 013.316-3.317zM85.507 20.08a5.976 5.976 0 005.97-5.97 5.976 5.976 0 00-5.97-5.969 5.976 5.976 0 00-5.97 5.97 5.976 5.976 0 005.97 5.969zm0-9.286a3.32 3.32 0 013.316 3.317 3.32 3.32 0 01-3.316 3.316 3.32 3.32 0 01-3.316-3.316 3.32 3.32 0 013.316-3.317zm-9.043 93.376l-.765.232-1.847 9.506H61.424l-1.846-9.506-.766-.232a29.637 29.637 0 01-5.48-2.28l-.707-.382-8.04 5.428-8.793-8.791 5.429-8.041-.382-.707a29.747 29.747 0 01-2.281-5.481l-.232-.765-9.506-1.847V68.876l9.506-1.847.232-.764a30.3 30.3 0 012.275-5.486l.377-.705-5.418-8.038 8.792-8.792 8.032 5.42.706-.382a29.68 29.68 0 015.49-2.28l.766-.233 1.846-9.497h12.428l1.847 9.497.765.232a29.72 29.72 0 015.49 2.28l.707.382 8.031-5.419 8.792 8.792-5.42 8.032.382.706a29.71 29.71 0 012.28 5.49l.233.765 9.497 1.847v12.428l-9.497 1.847-.232.765a30.3 30.3 0 01-2.283 5.495l2.34 1.251a33.157 33.157 0 002.24-5.21l10.085-1.96V66.687l-10.086-1.96a32.39 32.39 0 00-1.867-4.499l5.75-8.523L91.021 39.82l-8.523 5.75A32.378 32.378 0 0078 43.705l-1.96-10.087H59.237l-1.96 10.086a32.331 32.331 0 00-4.498 1.867l-8.524-5.75L32.37 51.705l5.753 8.535a32.976 32.976 0 00-1.861 4.487l-10.095 1.961V83.49l10.095 1.962a32.376 32.376 0 001.868 4.488l-5.76 8.533 11.885 11.885 8.533-5.76a32.227 32.227 0 004.488 1.867l1.961 10.095h16.802L78 106.465a32.88 32.88 0 005.2-2.23l-1.25-2.34a30.201 30.201 0 01-5.486 2.274z" fill="#73DCEB"/><path d="M91.556 85.6a25.936 25.936 0 002.201-10.511c0-14.402-11.717-26.12-26.12-26.12-14.401 0-26.118 11.718-26.118 26.12 0 14.402 11.717 26.119 26.119 26.119 4.056 0 7.944-.905 11.554-2.689l-1.174-2.378a23.23 23.23 0 01-10.38 2.414c-12.94 0-23.466-10.527-23.466-23.466 0-12.94 10.526-23.466 23.466-23.466 12.94 0 23.466 10.526 23.466 23.466 0 3.285-.665 6.462-1.977 9.442l2.43 1.07z" fill="#73DCEB"/><path d="M82.665 79.903c1.847-5.58.57-11.975-3.86-16.406a15.914 15.914 0 00-11.325-4.696c-2.153 0-3.459.405-5.38.717l8.223 8.224-.294 9.67-9.664.29-8.229-8.23c.018.89-3.22 9.519 3.979 16.716 4.418 4.42 10.76 5.749 16.414 3.87l24.886 24.885a7.168 7.168 0 0010.145 0c2.797-2.796 2.797-7.347 0-10.145L82.665 79.903zm-24.674 4.409a13.38 13.38 0 01-3.916-9.15l5.224 5.226 13.306-.4.405-13.311-5.22-5.22a13.274 13.274 0 019.14 3.916c5.22 5.221 5.22 13.718 0 18.939-5.235 5.234-13.705 5.234-18.94 0zm47.694 28.755c-1.709 1.708-4.686 1.708-6.394 0L75.15 88.925a16.11 16.11 0 003.656-2.737 15.977 15.977 0 002.73-3.663l24.15 24.149a4.527 4.527 0 010 6.393z" fill="#73DCEB"/><path d="M101.846 111.535a2.305 2.305 0 100-4.61 2.305 2.305 0 000 4.61zm-17.089-17.56l8.185 8.186 1.876-1.876-8.184-8.185-1.877 1.876zm-1.365-5.118l-1.876 1.876 1.589 1.589 1.876-1.876-1.59-1.59zM119.4 56.959h-2.653V94.88h2.653V56.959zm0-10.665h-2.653v4.691h2.653v-4.691zM58.871 12.782H51.32v2.653h7.552v-2.653zm-12.547 0H12.727v2.653h33.597v-2.653z" fill="#73DCEB"/></svg>