<svg width="100" height="100" fill="none" xmlns="http://www.w3.org/2000/svg"><path d="M85.417 12.5H68.542a10.417 10.417 0 00-20.417 0H31.25A6.25 6.25 0 0025 18.75V54.5h4.167V18.75a2.083 2.083 0 012.083-2.083h8.333v10.416a2.083 2.083 0 002.084 2.084H75a2.083 2.083 0 002.083-2.084V16.667h8.334A2.083 2.083 0 0187.5 18.75v70.833a2.083 2.083 0 01-2.083 2.084H43.75v4.166h41.667a6.25 6.25 0 006.25-6.25V18.75a6.25 6.25 0 00-6.25-6.25zM72.917 25H43.75v-8.333H50a2.083 2.083 0 002.083-2.084 6.25 6.25 0 1112.5 0 2.083 2.083 0 002.084 2.084h6.25V25zm8.333 29.167H58.333V50H81.25v4.167zm0 8.333H58.333v-4.167H81.25V62.5zm0 8.333H58.333v-4.166H81.25v4.166zm0 8.334H58.333V75H81.25v4.167zm-22.917 4.166H81.25V87.5H58.333v-4.167zM81.25 35.417a2.083 2.083 0 00-2.083-2.084H37.5a2.083 2.083 0 00-2.083 2.084v8.333a2.083 2.083 0 002.083 2.083h41.667a2.083 2.083 0 002.083-2.083v-8.333zm-4.167 6.25h-37.5V37.5h37.5v4.167zM56.25 14.583h4.167v6.25H56.25v-6.25zM43.75 75H29.167V60.417a2.083 2.083 0 00-2.084-2.084 18.75 18.75 0 1018.75 18.75A2.083 2.083 0 0043.75 75zM27.083 91.667A14.584 14.584 0 0125 62.646v14.437a2.083 2.083 0 002.083 2.084h14.438a14.583 14.583 0 01-14.438 12.5zm6.25-39.584V68.75a2.083 2.083 0 002.084 2.083h16.666a2.083 2.083 0 002.084-2.083A18.75 18.75 0 0035.417 50a2.083 2.083 0 00-2.084 2.083zm4.167 2.23a14.583 14.583 0 0112.354 12.354H37.5V54.312z" fill="#70D2E4"/></svg>