<svg width="106" height="106" fill="none" xmlns="http://www.w3.org/2000/svg"><g clip-path="url(#clip0_714_19108)" fill="#73DCEB"><path d="M99.706 8.612H87.12V5.134C87.119 2.32 84.8.166 82.15.166h-.331c-2.816 0-4.969 2.318-4.969 4.968v3.478H29.316V5.134c0-2.815-2.32-4.968-4.97-4.968h-.33c-2.816 0-4.97 2.318-4.97 4.968v3.478H6.295C2.816 8.612 0 11.594 0 15.072v84.634A6.291 6.291 0 006.294 106h93.412A6.291 6.291 0 00106 99.706V15.072c0-3.478-2.816-6.46-6.294-6.46zm-17.887-5.3h.331c.994 0 1.822.829 1.822 1.822v10.269c0 .994-.828 1.822-1.822 1.822h-.331a1.838 1.838 0 01-1.822-1.822V5.134c0-.993.828-1.822 1.822-1.822zm-57.969 0h.331c.994 0 1.822.829 1.822 1.822v10.269c0 .994-.828 1.822-1.822 1.822h-.331a1.838 1.838 0 01-1.822-1.822V5.134c0-.993.828-1.822 1.822-1.822zM6.294 11.925H18.88v3.478c0 2.816 2.319 4.969 4.969 4.969h.331c2.816 0 4.969-2.319 4.969-4.969v-3.478h47.534v3.478c0 2.816 2.32 4.969 4.97 4.969h.33c2.816 0 4.97-2.319 4.97-4.969v-3.478H99.54c1.656 0 3.147 1.325 3.147 3.147v13.912H3.147V15.072c0-1.822 1.49-3.147 3.147-3.147zm93.412 90.762H6.294c-1.656 0-3.147-1.325-3.147-3.147V32.131h99.541v67.575c.165 1.491-1.325 2.981-2.982 2.981z"/><path d="M53 38.26c-4.472 0-7.95 3.643-7.95 7.95 0 4.306 3.644 7.95 7.95 7.95 4.472 0 7.95-3.644 7.95-7.95 0-4.307-3.478-7.95-7.95-7.95zm0 12.918a4.807 4.807 0 01-4.803-4.803A4.807 4.807 0 0153 41.572a4.807 4.807 0 014.803 4.803c0 2.484-2.153 4.803-4.803 4.803zm31.8-12.919c-4.472 0-7.95 3.644-7.95 7.95s3.644 7.95 7.95 7.95c4.472 0 7.95-3.643 7.95-7.95 0-4.306-3.478-7.95-7.95-7.95zm0 12.919a4.807 4.807 0 01-4.803-4.803 4.807 4.807 0 014.803-4.803 4.807 4.807 0 014.803 4.803c0 2.484-2.153 4.803-4.803 4.803zm-63.6 8.116c-4.472 0-7.95 3.643-7.95 8.115s3.644 7.95 7.95 7.95 7.95-3.643 7.95-7.95c.166-4.472-3.478-8.115-7.95-8.115zm0 12.918a4.807 4.807 0 01-4.803-4.803 4.807 4.807 0 014.803-4.803 4.807 4.807 0 014.803 4.803 4.807 4.807 0 01-4.803 4.803zM53 59.294c-4.472 0-7.95 3.643-7.95 7.95 0 4.472 3.644 7.95 7.95 7.95 4.472 0 7.95-3.644 7.95-7.95 0-4.307-3.478-7.95-7.95-7.95zm0 12.918a4.807 4.807 0 01-4.803-4.803A4.807 4.807 0 0153 62.606a4.807 4.807 0 014.803 4.803A4.807 4.807 0 0153 72.212zm31.8-12.918c-4.472 0-7.95 3.643-7.95 7.95 0 4.472 3.644 7.95 7.95 7.95 4.472 0 7.95-3.644 7.95-7.95 0-4.307-3.478-7.95-7.95-7.95zm0 12.918a4.807 4.807 0 01-4.803-4.803 4.807 4.807 0 014.803-4.803 4.807 4.807 0 014.803 4.803 4.807 4.807 0 01-4.803 4.803zm-63.6 8.116c-4.472 0-7.95 3.644-7.95 7.95 0 4.472 3.644 7.95 7.95 7.95s7.95-3.644 7.95-7.95c.166-4.306-3.478-7.95-7.95-7.95zm0 12.919a4.807 4.807 0 01-4.803-4.803A4.807 4.807 0 0121.2 83.64a4.807 4.807 0 014.803 4.803 4.807 4.807 0 01-4.803 4.803zM53 80.328c-4.472 0-7.95 3.644-7.95 7.95 0 4.472 3.644 7.95 7.95 7.95 4.472 0 7.95-3.644 7.95-7.95s-3.478-7.95-7.95-7.95zm0 12.919a4.807 4.807 0 01-4.803-4.803A4.807 4.807 0 0153 83.64a4.807 4.807 0 014.803 4.803A4.807 4.807 0 0153 93.247zm31.8-12.919c-4.472 0-7.95 3.644-7.95 7.95 0 4.472 3.644 7.95 7.95 7.95 4.472 0 7.95-3.644 7.95-7.95s-3.478-7.95-7.95-7.95zm0 12.919a4.807 4.807 0 01-4.803-4.803A4.807 4.807 0 0184.8 83.64a4.807 4.807 0 014.803 4.803 4.807 4.807 0 01-4.803 4.803z"/><path d="M53.497 65.09l-1.325 1.16c-.663-.331-1.49-.331-1.988.166-.662.662-.662 1.656 0 2.319l.829.828c.33.33.662.496 1.159.496s.828-.165 1.16-.496l2.318-2.32c.663-.662.663-1.655 0-2.318-.663-.662-1.49-.497-2.153.166z"/></g><defs><clipPath id="clip0_714_19108"><path fill="#fff" d="M0 0h106v106H0z"/></clipPath></defs></svg>