<svg width="15" height="16" fill="none" xmlns="http://www.w3.org/2000/svg"><path d="M2.986 3.289C4.318 1.93 5.923 1.251 7.801 1.251c1.878 0 3.483.68 4.815 2.038 1.332 1.359 1.998 2.996 1.998 4.911 0 1.915-.667 3.552-1.998 4.911-1.332 1.359-2.937 2.038-4.815 2.038-1.878 0-3.483-.68-4.815-2.038C1.654 11.752.988 10.115.988 8.2c0-1.915.666-3.552 1.998-4.911zm.393 9.421c1.223 1.247 2.697 1.87 4.422 1.87 1.725 0 3.199-.623 4.421-1.87 1.223-1.247 1.835-2.75 1.835-4.51 0-1.76-.612-3.263-1.835-4.51C11 2.443 9.527 1.82 7.801 1.82s-3.199.623-4.422 1.87C2.156 4.937 1.545 6.44 1.545 8.2c0 1.76.611 3.263 1.834 4.51zM7.801 8.2V3.924h.557v4.844H4.657V8.2H7.8z" fill="#EAEAEA"/><path fill-rule="evenodd" clip-rule="evenodd" d="M7.8 1.506c-1.81 0-3.352.652-4.637 1.963C1.878 4.78 1.238 6.352 1.238 8.2c0 1.848.64 3.42 1.925 4.73 1.285 1.312 2.827 1.964 4.638 1.964s3.353-.652 4.638-1.963c1.285-1.311 1.925-2.883 1.925-4.731 0-1.848-.64-3.42-1.925-4.73C11.154 2.157 9.612 1.505 7.8 1.505zM2.81 3.11C4.187 1.702 5.856.996 7.8.996c1.945 0 3.614.706 4.992 2.113 1.379 1.406 2.072 3.108 2.072 5.091s-.693 3.685-2.072 5.091c-1.378 1.406-3.047 2.113-4.991 2.113-1.944 0-3.613-.707-4.992-2.113C1.431 11.885.74 10.183.74 8.2s.692-3.685 2.07-5.091zm.392.4c1.27-1.294 2.807-1.945 4.599-1.945 1.791 0 3.329.65 4.598 1.946 1.27 1.294 1.908 2.863 1.908 4.69 0 1.827-.638 3.395-1.908 4.69-1.27 1.295-2.807 1.946-4.598 1.946-1.792 0-3.329-.65-4.599-1.946-1.27-1.295-1.907-2.863-1.907-4.69 0-1.827.638-3.396 1.907-4.69zm4.599-1.435c-1.659 0-3.069.597-4.245 1.796-1.176 1.2-1.76 2.638-1.76 4.33 0 1.692.584 3.13 1.76 4.33 1.176 1.2 2.586 1.796 4.245 1.796 1.658 0 3.069-.597 4.245-1.796 1.176-1.2 1.76-2.638 1.76-4.33 0-1.692-.584-3.13-1.76-4.33C10.87 2.67 9.459 2.074 7.8 2.074zm-.25 1.595h1.057v5.354H4.407V7.945H7.55V3.669zm.5.51v4.276H4.907v.058h3.2V4.179h-.056z" fill="#EAEAEA"/></svg>