<svg width="111" height="111" fill="none" xmlns="http://www.w3.org/2000/svg"><path d="M69.944 95.626c22.32-8.008 33.914-32.573 25.899-54.868-8.016-22.295-32.607-33.877-54.927-25.87-22.319 8.008-33.914 32.573-25.898 54.869 8.015 22.295 32.607 33.877 54.926 25.87z" fill="#7C6EB0"/><path d="M28.802 88.814h.007c.43.359.87.696 1.317 1.028.35.263.705.522 1.064.776a36.131 36.131 0 001.868 1.234c-.033-.077-.067-.147-.1-.223-.923-2.126-.941-5.178 1.108-6.2.39-.196.835-.303 1.159-.605.916-.862.194-2.673 1.11-3.538.517-.48 1.314-.435 1.951-.72 1.143-.52 1.528-2 1.455-3.277-.08-1.27-.475-2.536-.317-3.804.247-1.918 1.741-3.85.917-5.592-.925-1.945-3.687-1.665-5.619-2.555-2.697-1.244-3.496-4.678-5.239-7.119-1.562-2.181-5.24-4.602-8.068-3.982-2.05.447-2.765 1.681-2.993 3.205-.089-.016-.17-.031-.26-.045-.754-.092-1.64-.143-2.047-.786-.475-.747.014-1.845-.475-2.578-.254-.385-.702-.557-1.067-.83-.364-.268-.673-.772-.443-1.17.188-.337.666-.402.908-.711a.717.717 0 00-.003-.867c-.765-.944-1.653.952-2.087 1.398a3.88 3.88 0 01-.351.328v.007c-.009.083-.015.16-.017.243-.014.26-.015.526-.022.79-.007.264-.019.526-.022.79-.002.214.001.427.003.641.002.215-.002.43.004.642-.002.104-.002.2.003.304.114 4.876.923 9.701 2.487 14.066.712 1.992 1.508 3.843 2.503 5.691a36.19 36.19 0 001.342 2.366c.588.956 1.336 2.007 2 2.908.617.867 1.261 1.644 1.953 2.458.947 1.127 1.96 2.16 3.018 3.184.93.916 1.933 1.72 2.953 2.543zM95.826 40.52c-.213-.419-.286-.945-.433-1.372-1.62-4.755-5.785-6.945-8.373-10.664-.845-1.21-1.501-2.209-3.017-2.46-2.244-.38-3.397.91-4.967-1.279-.422-.587-1.165-1.137-1.802-.796.158.466.324.932.48 1.406a.677.677 0 01.052.306c-.038.325-.517.41-.786.226-.27-.19-.404-.517-.591-.79-.697-1.04-2.358-1.19-3.233-.307a1.26 1.26 0 00-.704-1.035c-.099.853-1.067 1.472-1.867 1.191-.125-.424.618-.492.882-.849.242-.337-.039-.812-.342-1.1a4.68 4.68 0 00-2.95-1.204c-.69-.023-1.434.102-2.028-.266-.346-.21-.586-.562-.939-.766-.751-.446-1.702-.054-2.47.368-1.05.577-2.135 1.307-2.515 2.46-.388 1.148.418 2.717 1.605 2.584.3-.037.615-.18.906-.093.421.122.607.624.636 1.068.029.438-.024.91.182 1.299.2.39.818.592 1.06.226.564-.534.508-1.443.373-2.214-.128-.77-.274-1.639.182-2.265.464-.626 1.757-.41 1.658.366-.06.456-.574.783-.559 1.249.015.471.578.728 1.04.713.464-.008.936-.177 1.384-.053.455.116.81.724.479 1.059-.572.645-2.032-.488-2.334.32-.084.207-.005.444-.029.665-.063.68-.903.92-1.57.994-.668.068-1.379.13-1.982-.168-.603-.298-1.009-1.115-.656-1.692-.337-.253-.859-.01-1.046.376-.187.38-.14.837-.089 1.261-.707-.166-1.347.436-1.756 1.033-.416.606-.813 1.309-1.502 1.515-.697.208-1.648-.095-2.016.538-.48.827.87 1.896.385 2.716-.278.461-.932.44-1.451.58-1.374.38-1.874 2.412-.954 3.511.913 1.1 2.788 1.059 3.787.03.697-.706.986-1.708 1.494-2.562.507-.848 1.456-1.614 2.393-1.324.367.116.677.383.968.635.452.393.905.786 1.356 1.187.29.254.607.569.576.957-.03.311-.273.551-.378.842-.297.836.887 1.646 1.642 1.198.761-.449.85-1.62.348-2.346-.697-1.006-2.292-1.525-2.237-2.758.824-.67 2.104.06 2.57 1.029.466.961.467 2.1.857 3.095.39 1.003 1.505 1.896 2.45 1.423-.235-.863-.463-1.719-.7-2.573.605-.451 1.278.888 1.995.674.438-.135.5-.771.313-1.204-.178-.432-.514-.796-.59-1.262-.127-.848.809-1.593 1.645-1.445.83.148 1.426.966 1.574 1.807.058.334.067.688.206.994.305.669 1.114.88 1.779 1.164.671.284 1.358.98 1.072 1.656-.133.296-.444.577-.338.883.099.273.493.395.49.686-.01.194-.209.323-.388.398-.451.182-.943.239-1.381.45-.438.202-.838.628-.81 1.114.047.695.854 1.037 1.229 1.615.361.552.298 1.28.523 1.907.211.578.656 1.033 1.01 1.53 1.113 1.579 1.356 3.599 1.886 5.464.235.84.675 1.784 1.518 1.952.462.089.927-.087 1.366-.255 1.225-.478 2.498-.99 3.362-1.986.87-1.002 1.175-2.643.308-3.644-.107-.133-.249-.252-.412-.276-.232-.03-.438.126-.644.222-.624.284-1.384.032-1.896-.438-.506-.463-.811-1.111-1.111-1.739-.326-.69-.653-1.387-.985-2.085.406-.342 1.044-.189 1.457.155.405.344.65.84.98 1.26 1 1.301 2.662 1.889 4.274 2.101.408.053.83.094 1.21.27 1.199.576 1.526 2.39 2.795 2.794.353.115.748.098 1.08.262.5.248.746.834.89 1.383.267 1.023.35 2.099.76 3.074.404.975 1.246 1.865 2.282 1.89.647.023 1.12-.171 1.595-.63l-.058-.123c.064-.957.192-1.76.204-2.73.002-.2-.06-.463-.071-.664.003-.631.02-1.23-.005-1.853-.026-.623-.113-1.387-.168-2.005-.042-.5-.105-.888-.168-1.382-.061-.52-.174-1.055-.252-1.57-.237-1.548-.905-4.334-1.3-5.824M82.124 78.94c-.695.09-1.51-.268-2.042.195-.31.27-.384.72-.511 1.115-.176.55-.508 1.067-.999 1.355-.492.289-1.155.306-1.603-.048-.448-.354-.577-1.1-.203-1.532.17-.197.416-.313.605-.492.93-.874.319-2.523 1.033-3.568.42-.616 1.076-1.24 1.538-1.862.354-.48.487-.863 1.13-.984 2.809-.53 4.008 5.434 1.052 5.82zM45.663 22.771c-.859.509-1.324 1.484-1.99 2.233-.666.75-1.854 1.276-2.622.636-.37-.308-.533-.811-.57-1.296a3.351 3.351 0 01.488-2.002c.378-.61.95-1.087 1.271-1.73.322-.644.268-1.592-.371-1.903-.346-.169-.786-.11-1.09-.344-.55-.422-.142-1.4.505-1.642.648-.242 1.362-.041 2.048.012 2.494.19 4.348-1.452 6.239-2.812 1.472-1.057 4.593-2.29 6.27-1.174.669.446.917 1.574.277 2.06-.286.219-.678.263-.946.506-.32.291-.371.773-.557 1.166-.483 1.023-1.85 1.38-2.3 2.418-.27.625-.161 1.408-.574 1.947-.327.427-.889.572-1.409.691l-3.262.75c-.486.115-.978.23-1.407.484zm-30.28 19.236c.813-.69 2.203-.759 2.813.123.436.63.324 1.48.2 2.241a457.358 457.358 0 01-.513 3.072c-.051.305-.096.637.03.922.293.656 1.343.543 1.752-.035.415-.584.376-1.375.276-2.083-.1-.715-.235-1.466.044-2.13.7-1.642 3.116-1.364 4.532-2.423.879-.655 1.28-1.766 1.809-2.738.53-.972 1.405-1.939 2.494-1.877.368.018.727.16 1.095.151 1.077-.022 1.723-1.617.968-2.401-.155-.169-.364-.303-.47-.506-.186-.369.024-.839.353-1.084.328-.238.746-.303 1.148-.36a341.49 341.49 0 012.763-.412c1.017-.148 2.324-.668 2.193-1.702-.113-.895-1.3-1.312-1.467-2.2-.046-.217-.015-.452-.11-.654-.272-.572-1.113-.353-1.653-.055-.208-.827-1.362-1.215-2.016-.682-.55.45-.627 1.254-.826 1.938-.469 1.66-1.784 2.905-3.038 4.063-.419.383-.894.794-1.46.815-.565.022-1.151-.603-.886-1.106.181-.346.675-.54.63-.93-.062-.486-.894-.46-1.052-.927.342-1.368 1.896-1.92 3.09-2.641a7.514 7.514 0 003.172-3.874c.1-.255.178-.56.05-.803-.174-.349-.629-.409-1.017-.414-.913-.024-2.051.087-2.395.95-.183.463-.06.99-.174 1.476-.338 1.438-2.28 1.575-3.476 2.421-.466.327-.833.788-1.347 1.038-.556.264-1.201.237-1.816.278-.11.005-.218.019-.327.03a41.477 41.477 0 00-2.128 3.27 43.615 43.615 0 00-3.83 8.429 42.39 42.39 0 00-.92 3.15 45.276 45.276 0 00-.687 3.246c.433-.884.636-1.976.81-2.75.235-1.044.58-2.135 1.386-2.826z" fill="#000" opacity=".3"/><path d="M52.369 13.277h-.009c-.003.071-1.155.207-3.208.624a45.321 45.321 0 00-8.477 2.653 42.95 42.95 0 00-11.239 7.022c-3.794 3.295-7.44 7.655-10.087 12.941l-.053-.475.003.005.178.215-.13.272c-.445.933-.903 1.89-1.366 2.866-.43.989-.767 2.035-1.162 3.069-2.06 6.342-2.423 12.86-1.535 18.572a45.76 45.76 0 004.707 14.582c2.043 3.892 4.237 6.718 5.8 8.618.795.94 1.478 1.613 1.9 2.108.433.485.653.75.63.773-.02.022-.28-.2-.756-.647-.465-.456-1.192-1.094-2.032-2.006a45.014 45.014 0 01-6.096-8.552c-2.134-3.896-4.068-8.921-4.962-14.757-.95-5.81-.608-12.478 1.5-18.97.404-1.057.75-2.13 1.191-3.14l1.406-2.931.048.487-.004-.006-.182-.22.128-.254c2.72-5.4 6.465-9.818 10.365-13.14a42.266 42.266 0 0111.521-6.973 40.7 40.7 0 018.644-2.425c1.045-.157 1.856-.259 2.411-.29.554-.04.847-.049.855-.021h.01z" fill="#fff"/><path d="M98.48 55.416a39 39 0 00-.014-.893c0-.048 0-.089-.007-.138v-.082c-.014-.31-.027-.62-.047-.929a18.31 18.31 0 00-.062-.88c-.034-.44-.075-.866-.124-1.3a37.937 37.937 0 00-.482-3.198c-.02-.144-.055-.296-.084-.44a30.893 30.893 0 00-.083-.412 42.22 42.22 0 00-4.602-12.228 33.31 33.31 0 00-1.039-1.726c-.131-.226-.276-.447-.42-.667 0 0 0-.007-.006-.007-.104-.165-.213-.323-.324-.488-.054-.075-.102-.152-.165-.227-.213-.323-.441-.64-.668-.95a7.751 7.751 0 00-.235-.323c-.054-.076-.117-.151-.172-.226-.11-.145-.213-.29-.33-.427a34.85 34.85 0 00-1.404-1.733l-.07-.081a33.51 33.51 0 00-1.252-1.382l-.392-.412c-.102-.11-.193-.2-.297-.303l-.013-.014a40.188 40.188 0 00-2.424-2.27 25.047 25.047 0 00-.922-.785c-.337-.282-.681-.55-1.026-.818l-.282-.22h-.007a19.474 19.474 0 00-.51-.377c0-.007-.006-.007-.006-.007a42.825 42.825 0 00-4.324-2.786c.276.178.55.364.82.556.02.007.04.02.06.041a22.59 22.59 0 01.868.62c.172.124.337.246.51.377h.006l.283.22c.344.269.688.536 1.025.819.186.151.365.302.544.454.131.11.254.22.378.33a39.59 39.59 0 012.424 2.27l.014.014a41.109 41.109 0 011.942 2.098l.07.084c.061.068.124.145.179.212a42.37 42.37 0 011.555 1.948c.055.074.118.15.172.226.084.11.159.213.235.323.159.22.317.44.469.66.124.172.249.344.364.516.111.165.22.324.324.489.007 0 .007.006.007.006.22.337.434.674.64 1.018.276.44.544.887.8 1.341.344.6.667 1.203.977 1.823.283.556.544 1.115.8 1.685.212.468.42.943.613 1.424.097.24.192.482.29.729a41.693 41.693 0 012.025 7.015c.027.117.048.233.068.35.138.695.254 1.389.344 2.099.062.391.11.791.152 1.19.082.72.145 1.444.186 2.18.02.302.034.598.047.9v.027c.014.37.02.742.02 1.115.007.158.008.316.008.474 0 .131 0 .263-.007.385 0 .24 0 .482-.007.722a35.73 35.73 0 01-.152 2.614c-.04.495-.088.99-.151 1.479-.014.097-.02.192-.041.289a40.739 40.739 0 01-.379 2.449l-.144.708a42.296 42.296 0 01-3.876 10.943c-.014.02-.02.047-.034.068-.262.502-.53.99-.806 1.479a40.41 40.41 0 01-2.492 3.851 42.266 42.266 0 01-2.891 3.583 49.297 49.297 0 01-1.943 2.015h-.007a43.203 43.203 0 01-4.461 3.783h-.007a42.769 42.769 0 01-7.663 4.498h-.007a42.46 42.46 0 01-6.065 2.214 40.18 40.18 0 01-4.668 1.024c-2.25.371-4.557.564-6.913.564-4.688 0-9.198-.757-13.418-2.153a37.007 37.007 0 01-2.685-.99 40.39 40.39 0 01-2.1-.914 51.644 51.644 0 01-2.031-1.032 32.851 32.851 0 01-.874-.488 33 33 0 001.39.873c.2.13.392.241.591.357a.877.877 0 00.118.068c.061.048.131.082.2.118.377.226.764.44 1.156.647a40.678 40.678 0 004.131 1.946c.881.365 1.777.695 2.685.99a42.657 42.657 0 0013.418 2.154 42.575 42.575 0 0012.283-1.796c.482-.138.958-.289 1.433-.454.455-.152.908-.317 1.363-.489a41.933 41.933 0 006.768-3.26 41.928 41.928 0 005.047-3.522 43.014 43.014 0 004.805-4.545 45.925 45.925 0 001.7-2.002 41.968 41.968 0 003.01-4.278c.24-.392.481-.791.708-1.19.276-.488.543-.977.806-1.479.42-.811.82-1.637 1.184-2.476h.007a42.292 42.292 0 003.153-11.01l.061-.448c.028-.172.048-.351.069-.523.034-.255.06-.502.088-.757l.062-.758c.02-.171.034-.343.047-.515.027-.378.048-.75.07-1.129a40.336 40.336 0 00.048-2.044 8.696 8.696 0 00-.005-.473z" fill="#000" opacity=".4"/></svg>