<svg width="24" height="24" fill="none" xmlns="http://www.w3.org/2000/svg"><path fill-rule="evenodd" clip-rule="evenodd" d="M16.707 7.293a1 1 0 010 1.414l-14 14a1 1 0 01-1.414-1.414l14-14a1 1 0 011.414 0z" fill="#A7A7A7"/><path fill-rule="evenodd" clip-rule="evenodd" d="M11.043 3.043a7.003 7.003 0 019.905 9.903v.001l-6.74 6.76A1 1 0 0113.5 20H5a1 1 0 01-1-1v-8.5a1 1 0 01.293-.707l6.75-6.75zm4.952-.051c-1.327 0-2.6.527-3.538 1.465L6 10.914V18h7.085l6.447-6.466v-.001a5.003 5.003 0 00-3.537-8.541z" fill="#A7A7A7"/><path fill-rule="evenodd" clip-rule="evenodd" d="M8 15a1 1 0 011-1h8a1 1 0 010 2H9a1 1 0 01-1-1z" fill="#A7A7A7"/></svg>