<svg xmlns="http://www.w3.org/2000/svg" width="12" height="12" version="1.1" id="svg4" fill="none"><path d="M8.208 7.067c0 .728-.198 1.285-.595 1.671-.393.381-.95.572-1.672.572-.717 0-1.292-.25-1.726-.75-.429-.505-.644-1.19-.644-2.057v-.786c0-.838.217-1.507.651-2.007.439-.505 1.012-.757 1.72-.757.73 0 1.292.195 1.684.585.393.39.59.94.59 1.65h-1c0-.471-.11-.807-.33-1.007-.214-.205-.53-.307-.945-.307-.429 0-.767.164-1.013.493-.247.328-.37.786-.37 1.371v.807c0 .572.123 1.022.37 1.35.246.329.584.493 1.013.493.42 0 .735-.1.946-.3.214-.2.321-.54.321-1.021zm-6.253-.943c0 .819.183 1.578.548 2.278.365.696.86 1.24 1.486 1.636a3.77 3.77 0 002.041.593 3.74 3.74 0 002.035-.593A4.202 4.202 0 009.55 8.402c.365-.7.548-1.459.548-2.278 0-.81-.18-1.56-.541-2.25A4.145 4.145 0 008.07 2.246c-.625-.4-1.305-.6-2.04-.6-.731 0-1.412.197-2.042.592a4.13 4.13 0 00-1.493 1.629 4.828 4.828 0 00-.541 2.257zm-.788 0c0-.962.213-1.855.637-2.679a4.925 4.925 0 011.774-1.942A4.526 4.526 0 016.03.788c.877 0 1.692.238 2.446.715a4.876 4.876 0 011.767 1.942 5.71 5.71 0 01.644 2.679c0 .938-.206 1.817-.617 2.636a5.031 5.031 0 01-1.753 1.978 4.433 4.433 0 01-2.487.743 4.48 4.48 0 01-2.486-.736 5.05 5.05 0 01-1.753-1.971 5.774 5.774 0 01-.624-2.65zm24.726 5.207H19.36v-.95l3.452-4c.512-.605.863-1.095 1.055-1.471a2.543 2.543 0 00.251-1.645 1.78 1.78 0 00-.43-.87c-.314-.347-.734-.52-1.26-.52-.63 0-1.12.187-1.472.563-.347.372-.52.89-.52 1.557h-1.268c0-.957.295-1.73.884-2.32.594-.591 1.386-.887 2.377-.887.927 0 1.66.255 2.198.765.54.504.809 1.178.809 2.021 0 1.024-.626 2.243-1.877 3.657l-2.671 3.021h5.006zm7.596-4.436c0 1.548-.253 2.698-.76 3.45-.507.753-1.299 1.129-2.377 1.129-1.064 0-1.851-.367-2.363-1.1-.511-.738-.776-1.838-.794-3.3V5.31c0-1.529.253-2.665.76-3.407.507-.743 1.301-1.115 2.384-1.115 1.073 0 1.863.36 2.37 1.079.506.714.767 1.819.78 3.314zm-1.267-1.807c0-1.119-.15-1.933-.452-2.443-.301-.514-.778-.77-1.431-.77-.649 0-1.121.254-1.418.763-.297.51-.45 1.293-.459 2.35v2.115c0 1.123.155 1.954.466 2.492.315.534.79.8 1.424.8.626 0 1.09-.252 1.39-.757.307-.505.466-1.3.48-2.385zm9.425 6.243h-6.534v-.95l3.452-4c.511-.605.863-1.095 1.054-1.471.197-.381.295-.774.295-1.179 0-.543-.158-.988-.473-1.335-.315-.348-.735-.522-1.26-.522-.63 0-1.12.188-1.473.564-.346.372-.52.89-.52 1.557h-1.267c0-.957.294-1.73.883-2.32.594-.591 1.386-.887 2.377-.887.927 0 1.66.255 2.199.765.539.504.808 1.178.808 2.021 0 1.024-.626 2.243-1.877 3.657l-2.67 3.021h5.006zm5.507 0H45.88V2.524l-2.555.979v-1.2L46.955.88h.199zm11 0V.931h3.26c1.082 0 1.895.234 2.438.7.548.467.822 1.157.822 2.072 0 .485-.132.916-.397 1.292-.265.372-.626.66-1.082.865a2.29 2.29 0 011.274.9c.315.438.472.962.472 1.571 0 .933-.29 1.667-.87 2.2-.58.533-1.399.8-2.458.8zm1.315-4.864v3.743h2.171c.612 0 1.094-.165 1.445-.493.356-.334.535-.79.535-1.372 0-1.252-.653-1.878-1.96-1.878zm0-1.1h1.986c.576 0 1.034-.15 1.377-.45.347-.3.52-.707.52-1.222 0-.57-.16-.985-.479-1.242-.32-.262-.806-.393-1.459-.393H59.47zM73.914.93v7.071c-.004.981-.301 1.784-.89 2.408-.585.623-1.38.973-2.384 1.05l-.35.014c-1.09 0-1.96-.307-2.609-.922-.648-.614-.977-1.46-.986-2.535V.93h1.301v7.043c0 .752.199 1.338.596 1.757.397.414.964.621 1.699.621.744 0 1.313-.207 1.705-.621.398-.414.596-.998.596-1.75V.931zm9.438 9.036c-.337.504-.81.883-1.417 1.135-.603.248-1.306.372-2.11.372-.813 0-1.534-.198-2.164-.593-.63-.4-1.119-.967-1.466-1.7-.343-.733-.518-1.583-.527-2.55v-.907c0-1.567.349-2.78 1.048-3.643.703-.862 1.689-1.293 2.958-1.293 1.041 0 1.88.279 2.514.836.635.552 1.023 1.338 1.164 2.357h-1.315c-.246-1.376-1.032-2.064-2.356-2.064-.881 0-1.55.324-2.007.971-.452.643-.68 1.576-.685 2.8v.85c0 1.167.256 2.095.768 2.786.511.686 1.203 1.028 2.075 1.028a4.4 4.4 0 001.294-.171c.37-.114.676-.307.918-.579V7.267h-2.308V6.153h3.616zm3.521.243h4.726v1.121h-6.048V.931h1.322zm13.445-3.743c0 1.019-.164 1.91-.493 2.671-.329.757-.794 1.336-1.397 1.736-.603.4-1.306.6-2.11.6-.785 0-1.481-.2-2.089-.6-.607-.405-1.08-.979-1.418-1.722-.333-.747-.504-1.611-.513-2.592v-.75c0-1 .166-1.884.5-2.65.333-.767.803-1.353 1.41-1.757.613-.41 1.311-.615 2.097-.615.799 0 1.502.203 2.11.608.611.4 1.081.983 1.41 1.75.329.761.493 1.65.493 2.664zm-1.308-.672c0-1.233-.237-2.178-.712-2.835-.475-.662-1.14-.993-1.993-.993-.832 0-1.487.33-1.966.993-.475.657-.72 1.571-.733 2.743v.764c0 1.195.24 2.135.72 2.821.483.681 1.147 1.022 1.992 1.022.85 0 1.507-.322 1.973-.965.466-.647.705-1.573.719-2.778zm10.952.672c0 1.019-.165 1.91-.493 2.671-.329.757-.795 1.336-1.397 1.736-.603.4-1.307.6-2.11.6-.786 0-1.482-.2-2.09-.6-.606-.405-1.08-.979-1.417-1.722-.333-.747-.504-1.611-.513-2.592v-.75c0-1 .166-1.884.5-2.65.333-.767.804-1.353 1.41-1.757.612-.41 1.311-.615 2.097-.615.798 0 1.502.203 2.109.608.612.4 1.082.983 1.41 1.75.33.761.494 1.65.494 2.664zm-1.308-.672c0-1.233-.237-2.178-.712-2.835-.475-.662-1.14-.993-1.993-.993-.832 0-1.487.33-1.966.993-.475.657-.72 1.571-.733 2.743v.764c0 1.195.24 2.135.719 2.821.484.681 1.148 1.022 1.993 1.022.85 0 1.507-.322 1.973-.965.466-.647.705-1.573.72-2.778zm6.22.9c-1.129-.338-1.95-.752-2.466-1.242a2.443 2.443 0 01-.768-1.829c0-.819.313-1.495.939-2.028.63-.539 1.447-.808 2.452-.808.685 0 1.294.139 1.828.415.54.276.955.657 1.247 1.143.297.485.446 1.016.446 1.592h-1.323c0-.628-.191-1.121-.575-1.478-.384-.362-.925-.543-1.623-.543-.649 0-1.156.15-1.521.45-.361.295-.541.707-.541 1.236 0 .423.171.783.514 1.078.346.29.933.557 1.76.8.83.243 1.479.512 1.945.807.47.29.817.631 1.04 1.022.23.39.344.85.344 1.378 0 .843-.315 1.52-.945 2.029-.63.504-1.473.757-2.528.757a4.561 4.561 0 01-1.918-.407c-.593-.277-1.052-.653-1.377-1.129a2.842 2.842 0 01-.479-1.621h1.322c0 .628.221 1.126.664 1.493.448.361 1.044.542 1.788.542.694 0 1.226-.147 1.596-.442.37-.296.555-.698.555-1.208s-.171-.902-.514-1.178c-.343-.281-.963-.557-1.863-.829z" id="path2" opacity=".703" fill="#63c3d1" stroke-width="1.023"/></svg>