<svg width="655" height="1320" fill="none" xmlns="http://www.w3.org/2000/svg"><path d="M398.388 704.485c0 116.744-10.093 211.396-22.55 211.396-12.458 0-22.551-94.652-22.551-211.396 0-116.745 10.093-211.397 22.551-211.397 12.457 0 22.55 94.652 22.55 211.397z" fill="url(#paint0_radial_1310_7691)"/><path d="M522.551 929.489c12.454 0 22.55-185.034 22.55-413.284 0-228.251-10.096-413.285-22.55-413.285-12.455 0-22.551 185.034-22.551 413.285 0 228.25 10.096 413.284 22.551 413.284z" fill="url(#paint1_radial_1310_7691)"/><path d="M147.383 826.569c12.454 0 22.55-185.034 22.55-413.285C169.933 185.034 159.837 0 147.383 0c-12.455 0-22.551 185.034-22.551 413.284 0 228.251 10.096 413.285 22.551 413.285z" fill="url(#paint2_radial_1310_7691)"/><path d="M177.433 854.356c12.455 0 22.551-185.033 22.551-413.284S189.888 27.788 177.433 27.788c-12.454 0-22.55 185.033-22.55 413.284s10.096 413.284 22.55 413.284z" fill="url(#paint3_radial_1310_7691)"/><path d="M22.55 843.489c12.455 0 22.551-185.034 22.551-413.284 0-228.251-10.096-413.285-22.55-413.285C10.096 16.92 0 201.954 0 430.205c0 228.25 10.096 413.284 22.55 413.284z" fill="url(#paint4_radial_1310_7691)"/><path opacity=".2" d="M39.383 1006.64c12.454 0 22.55-185.03 22.55-413.281s-10.096-413.284-22.55-413.284c-12.455 0-22.551 185.033-22.551 413.284s10.096 413.281 22.55 413.281z" fill="url(#paint5_radial_1310_7691)"/><path opacity=".2" d="M137.951 413.284c0 228.252-10.093 413.285-22.551 413.285-12.457 0-22.55-185.033-22.55-413.285C92.85 185.032 102.943 0 115.4 0c12.432 0 22.551 185.032 22.551 413.284z" fill="url(#paint6_radial_1310_7691)"/><path d="M222.56 886.72c12.455 0 22.551-185.033 22.551-413.284 0-228.25-10.096-413.284-22.551-413.284-12.454 0-22.55 185.034-22.55 413.284 0 228.251 10.096 413.284 22.55 413.284z" fill="url(#paint7_radial_1310_7691)"/><path d="M206.823 854.382c6.852 0 12.406-101.714 12.406-227.184s-5.554-227.184-12.406-227.184-12.407 101.714-12.407 227.184 5.555 227.184 12.407 227.184z" fill="url(#paint8_radial_1310_7691)"/><path d="M366.407 1069.29c6.852 0 12.406-101.715 12.406-227.185 0-125.471-5.554-227.185-12.406-227.185S354 716.634 354 842.105c0 125.47 5.555 227.185 12.407 227.185z" fill="url(#paint9_radial_1310_7691)"/><path d="M437.566 641.994c0 151.27-10.093 273.887-22.551 273.887-12.457 0-22.55-122.617-22.55-273.887 0-151.27 10.093-273.887 22.55-273.887 12.458 0 22.551 122.617 22.551 273.887z" fill="url(#paint10_radial_1310_7691)"/><path d="M415.016 666.248c0 151.27-7.449 273.887-16.627 273.887-9.178 0-16.627-122.617-16.627-273.887 0-151.27 7.449-273.887 16.627-273.887 9.178 0 16.627 122.643 16.627 273.887z" fill="url(#paint11_radial_1310_7691)"/><path d="M470.551 886.695c12.454 0 22.55-122.624 22.55-273.887 0-151.264-10.096-273.888-22.55-273.888-12.455 0-22.551 122.624-22.551 273.888 0 151.263 10.096 273.887 22.551 273.887z" fill="url(#paint12_radial_1310_7691)"/><path d="M264.586 1138.72c12.454 0 22.55-187.779 22.55-419.413 0-231.635-10.096-419.411-22.55-419.411-12.455 0-22.551 187.776-22.551 419.411 0 231.634 10.096 419.413 22.551 419.413z" fill="url(#paint13_radial_1310_7691)"/><path d="M118.551 1227.74c12.454 0 22.55-187.77 22.55-419.408 0-231.635-10.096-419.412-22.55-419.412C106.096 388.92 96 576.697 96 808.332c0 231.638 10.096 419.408 22.551 419.408z" fill="url(#paint14_radial_1310_7691)"/><path d="M262.101 857.332c0 231.638-10.093 419.408-22.55 419.408-12.458 0-22.551-187.77-22.551-419.408 0-231.634 10.093-419.412 22.551-419.412 12.457 0 22.55 187.778 22.55 419.412z" fill="url(#paint15_radial_1310_7691)"/><path d="M316.551 1319.74c12.454 0 22.55-187.77 22.55-419.408 0-231.635-10.096-419.412-22.55-419.412-12.455 0-22.551 187.777-22.551 419.412 0 231.638 10.096 419.408 22.551 419.408z" fill="url(#paint16_radial_1310_7691)"/><path opacity=".2" d="M610.904 1311.7c9.211 0 16.678-58.71 16.678-131.13 0-72.43-7.467-131.14-16.678-131.14-9.211 0-16.677 58.71-16.677 131.14 0 72.42 7.466 131.13 16.677 131.13z" fill="url(#paint17_radial_1310_7691)"/><path opacity=".2" d="M654.047 1168.95c0 72.4-7.474 131.13-16.678 131.13-9.203 0-16.678-58.7-16.678-131.13 0-72.41 7.475-131.14 16.678-131.14 9.204 0 16.678 58.7 16.678 131.14z" fill="url(#paint18_radial_1310_7691)"/><path opacity=".2" d="M608.793 1149.12c0 72.4-7.474 131.13-16.678 131.13-9.203 0-16.677-58.7-16.677-131.13 0-72.41 7.474-131.14 16.677-131.14 9.229.03 16.678 58.73 16.678 131.14z" fill="url(#paint19_radial_1310_7691)"/><path opacity=".2" d="M602.209 1291.18c9.211 0 16.678-58.71 16.678-131.13 0-72.43-7.467-131.14-16.678-131.14-9.211 0-16.678 58.71-16.678 131.14 0 72.42 7.467 131.13 16.678 131.13z" fill="url(#paint20_radial_1310_7691)"/><path opacity=".5" d="M610.904 1117.69c8.284 0 15-81.52 15-182.081 0-100.561-6.716-182.083-15-182.083-8.284 0-15 81.522-15 182.083 0 100.561 6.716 182.081 15 182.081z" fill="url(#paint21_radial_1310_7691)"/><path opacity=".5" d="M588.353 1097.96c8.285 0 15-81.52 15-182.079 0-100.561-6.715-182.083-15-182.083-8.284 0-14.999 81.522-14.999 182.083 0 100.559 6.715 182.079 14.999 182.079z" fill="url(#paint22_radial_1310_7691)"/><path opacity=".5" d="M620.691 924.068c0 100.552-6.712 182.082-15 182.082s-15-81.51-15-182.082c0-100.55 6.712-182.083 15-182.083 8.263 0 15 81.533 15 182.083z" fill="url(#paint23_radial_1310_7691)"/><path opacity=".5" d="M583.726 909.525c0 100.555-4.652 182.085-10.373 182.085-5.72 0-10.373-81.51-10.373-182.085 0-100.549 4.653-182.083 10.373-182.083 5.721 0 10.373 81.508 10.373 182.083z" fill="url(#paint24_radial_1310_7691)"/><path opacity=".5" d="M617 850.189c0 153.121-6.712 277.271-15 277.271s-15-124.15-15-277.271c0-153.126 6.712-277.269 15-277.269s15 124.143 15 277.269z" fill="url(#paint25_radial_1310_7691)"/><path opacity=".5" d="M573.353 880.339c0 100.55-6.712 182.081-15 182.081s-14.999-81.506-14.999-182.081c0-100.55 6.711-182.083 14.999-182.083s15 81.508 15 182.083z" fill="url(#paint26_radial_1310_7691)"/><defs><radialGradient id="paint0_radial_1310_7691" cx="0" cy="0" r="1" gradientUnits="userSpaceOnUse" gradientTransform="matrix(22.559 0 0 211.425 375.832 704.481)"><stop stop-color="#62D1C2" stop-opacity=".5"/><stop offset=".141" stop-color="#62D1C2" stop-opacity=".429"/><stop offset="1" stop-color="#62D1C2" stop-opacity="0"/></radialGradient><radialGradient id="paint1_radial_1310_7691" cx="0" cy="0" r="1" gradientUnits="userSpaceOnUse" gradientTransform="matrix(22.5591 0 0 413.359 522.555 516.192)"><stop stop-color="#62D1C2" stop-opacity=".5"/><stop offset=".141" stop-color="#62D1C2" stop-opacity=".429"/><stop offset="1" stop-color="#62D1C2" stop-opacity="0"/></radialGradient><radialGradient id="paint2_radial_1310_7691" cx="0" cy="0" r="1" gradientUnits="userSpaceOnUse" gradientTransform="matrix(22.5591 0 0 413.358 147.37 413.291)"><stop stop-color="#62D1C2" stop-opacity=".5"/><stop offset=".141" stop-color="#62D1C2" stop-opacity=".429"/><stop offset="1" stop-color="#62D1C2" stop-opacity="0"/></radialGradient><radialGradient id="paint3_radial_1310_7691" cx="0" cy="0" r="1" gradientUnits="userSpaceOnUse" gradientTransform="matrix(22.5591 0 0 413.358 177.439 441.081)"><stop stop-color="#62D1C2" stop-opacity=".5"/><stop offset=".141" stop-color="#62D1C2" stop-opacity=".429"/><stop offset="1" stop-color="#62D1C2" stop-opacity="0"/></radialGradient><radialGradient id="paint4_radial_1310_7691" cx="0" cy="0" r="1" gradientUnits="userSpaceOnUse" gradientTransform="matrix(22.5591 0 0 413.358 22.55 430.202)"><stop stop-color="#62D1C2" stop-opacity=".5"/><stop offset=".141" stop-color="#62D1C2" stop-opacity=".429"/><stop offset="1" stop-color="#62D1C2" stop-opacity="0"/></radialGradient><radialGradient id="paint5_radial_1310_7691" cx="0" cy="0" r="1" gradientUnits="userSpaceOnUse" gradientTransform="matrix(22.5591 0 0 413.359 39.39 593.359)"><stop stop-color="#62D1C2" stop-opacity=".5"/><stop offset=".141" stop-color="#62D1C2" stop-opacity=".429"/><stop offset="1" stop-color="#62D1C2" stop-opacity="0"/></radialGradient><radialGradient id="paint6_radial_1310_7691" cx="0" cy="0" r="1" gradientUnits="userSpaceOnUse" gradientTransform="matrix(22.559 0 0 413.357 115.383 413.291)"><stop stop-color="#62D1C2" stop-opacity=".5"/><stop offset=".141" stop-color="#62D1C2" stop-opacity=".429"/><stop offset="1" stop-color="#62D1C2" stop-opacity="0"/></radialGradient><radialGradient id="paint7_radial_1310_7691" cx="0" cy="0" r="1" gradientUnits="userSpaceOnUse" gradientTransform="matrix(22.559 0 0 413.357 222.565 473.427)"><stop stop-color="#62D1C2" stop-opacity=".5"/><stop offset=".141" stop-color="#62D1C2" stop-opacity=".429"/><stop offset="1" stop-color="#62D1C2" stop-opacity="0"/></radialGradient><radialGradient id="paint8_radial_1310_7691" cx="0" cy="0" r="1" gradientUnits="userSpaceOnUse" gradientTransform="matrix(12.4006 0 0 227.22 206.812 627.187)"><stop stop-color="#62D1C2" stop-opacity=".5"/><stop offset=".141" stop-color="#62D1C2" stop-opacity=".429"/><stop offset="1" stop-color="#62D1C2" stop-opacity="0"/></radialGradient><radialGradient id="paint9_radial_1310_7691" cx="0" cy="0" r="1" gradientUnits="userSpaceOnUse" gradientTransform="matrix(12.4006 0 0 227.22 366.401 842.114)"><stop stop-color="#62D1C2" stop-opacity=".5"/><stop offset=".141" stop-color="#62D1C2" stop-opacity=".429"/><stop offset="1" stop-color="#62D1C2" stop-opacity="0"/></radialGradient><radialGradient id="paint10_radial_1310_7691" cx="0" cy="0" r="1" gradientUnits="userSpaceOnUse" gradientTransform="matrix(22.5591 0 0 273.924 415.012 641.992)"><stop stop-color="#62D1C2" stop-opacity=".5"/><stop offset=".141" stop-color="#62D1C2" stop-opacity=".429"/><stop offset="1" stop-color="#62D1C2" stop-opacity="0"/></radialGradient><radialGradient id="paint11_radial_1310_7691" cx="0" cy="0" r="1" gradientUnits="userSpaceOnUse" gradientTransform="matrix(16.616 0 0 273.891 398.395 666.252)"><stop stop-color="#62D1C2" stop-opacity=".5"/><stop offset=".141" stop-color="#62D1C2" stop-opacity=".429"/><stop offset="1" stop-color="#62D1C2" stop-opacity="0"/></radialGradient><radialGradient id="paint12_radial_1310_7691" cx="0" cy="0" r="1" gradientUnits="userSpaceOnUse" gradientTransform="matrix(22.5592 0 0 273.924 470.538 612.81)"><stop stop-color="#62D1C2" stop-opacity=".5"/><stop offset=".141" stop-color="#62D1C2" stop-opacity=".429"/><stop offset="1" stop-color="#62D1C2" stop-opacity="0"/></radialGradient><radialGradient id="paint13_radial_1310_7691" cx="0" cy="0" r="1" gradientUnits="userSpaceOnUse" gradientTransform="matrix(22.5591 0 0 419.49 264.575 719.308)"><stop stop-color="#62D1C2" stop-opacity=".5"/><stop offset=".141" stop-color="#62D1C2" stop-opacity=".429"/><stop offset="1" stop-color="#62D1C2" stop-opacity="0"/></radialGradient><radialGradient id="paint14_radial_1310_7691" cx="0" cy="0" r="1" gradientUnits="userSpaceOnUse" gradientTransform="matrix(22.5591 0 0 419.49 118.545 808.339)"><stop stop-color="#62D1C2" stop-opacity=".5"/><stop offset=".141" stop-color="#62D1C2" stop-opacity=".429"/><stop offset="1" stop-color="#62D1C2" stop-opacity="0"/></radialGradient><radialGradient id="paint15_radial_1310_7691" cx="0" cy="0" r="1" gradientUnits="userSpaceOnUse" gradientTransform="matrix(22.559 0 0 419.488 239.549 857.344)"><stop stop-color="#62D1C2" stop-opacity=".5"/><stop offset=".141" stop-color="#62D1C2" stop-opacity=".429"/><stop offset="1" stop-color="#62D1C2" stop-opacity="0"/></radialGradient><radialGradient id="paint16_radial_1310_7691" cx="0" cy="0" r="1" gradientUnits="userSpaceOnUse" gradientTransform="matrix(22.5591 0 0 419.49 316.545 900.322)"><stop stop-color="#62D1C2" stop-opacity=".5"/><stop offset=".141" stop-color="#62D1C2" stop-opacity=".429"/><stop offset="1" stop-color="#62D1C2" stop-opacity="0"/></radialGradient><radialGradient id="paint17_radial_1310_7691" cx="0" cy="0" r="1" gradientUnits="userSpaceOnUse" gradientTransform="matrix(16.686 0 0 131.115 610.897 1180.56)"><stop stop-color="#62D1C2" stop-opacity=".5"/><stop offset=".141" stop-color="#62D1C2" stop-opacity=".429"/><stop offset="1" stop-color="#62D1C2" stop-opacity="0"/></radialGradient><radialGradient id="paint18_radial_1310_7691" cx="0" cy="0" r="1" gradientUnits="userSpaceOnUse" gradientTransform="matrix(16.6859 0 0 131.115 637.364 1168.94)"><stop stop-color="#62D1C2" stop-opacity=".5"/><stop offset=".141" stop-color="#62D1C2" stop-opacity=".429"/><stop offset="1" stop-color="#62D1C2" stop-opacity="0"/></radialGradient><radialGradient id="paint19_radial_1310_7691" cx="0" cy="0" r="1" gradientUnits="userSpaceOnUse" gradientTransform="matrix(16.686 0 0 131.115 592.12 1149.12)"><stop stop-color="#62D1C2" stop-opacity=".5"/><stop offset=".141" stop-color="#62D1C2" stop-opacity=".429"/><stop offset="1" stop-color="#62D1C2" stop-opacity="0"/></radialGradient><radialGradient id="paint20_radial_1310_7691" cx="0" cy="0" r="1" gradientUnits="userSpaceOnUse" gradientTransform="matrix(16.6861 0 0 131.116 602.201 1160.06)"><stop stop-color="#62D1C2" stop-opacity=".5"/><stop offset=".141" stop-color="#62D1C2" stop-opacity=".429"/><stop offset="1" stop-color="#62D1C2" stop-opacity="0"/></radialGradient><radialGradient id="paint21_radial_1310_7691" cx="0" cy="0" r="1" gradientUnits="userSpaceOnUse" gradientTransform="matrix(14.9978 0 0 182.11 610.896 935.614)"><stop stop-color="#62D1C2" stop-opacity=".5"/><stop offset=".141" stop-color="#62D1C2" stop-opacity=".429"/><stop offset="1" stop-color="#62D1C2" stop-opacity="0"/></radialGradient><radialGradient id="paint22_radial_1310_7691" cx="0" cy="0" r="1" gradientUnits="userSpaceOnUse" gradientTransform="matrix(14.9977 0 0 182.109 588.345 915.872)"><stop stop-color="#62D1C2" stop-opacity=".5"/><stop offset=".141" stop-color="#62D1C2" stop-opacity=".429"/><stop offset="1" stop-color="#62D1C2" stop-opacity="0"/></radialGradient><radialGradient id="paint23_radial_1310_7691" cx="0" cy="0" r="1" gradientUnits="userSpaceOnUse" gradientTransform="matrix(14.9978 0 0 182.11 605.678 924.072)"><stop stop-color="#62D1C2" stop-opacity=".5"/><stop offset=".141" stop-color="#62D1C2" stop-opacity=".429"/><stop offset="1" stop-color="#62D1C2" stop-opacity="0"/></radialGradient><radialGradient id="paint24_radial_1310_7691" cx="0" cy="0" r="1" gradientUnits="userSpaceOnUse" gradientTransform="matrix(10.3745 0 0 182.129 573.345 909.516)"><stop stop-color="#62D1C2" stop-opacity=".5"/><stop offset=".141" stop-color="#62D1C2" stop-opacity=".429"/><stop offset="1" stop-color="#62D1C2" stop-opacity="0"/></radialGradient><radialGradient id="paint25_radial_1310_7691" cx="0" cy="0" r="1" gradientUnits="userSpaceOnUse" gradientTransform="matrix(14.9977 0 0 277.324 601.993 850.199)"><stop stop-color="#62D1C2" stop-opacity=".5"/><stop offset=".141" stop-color="#62D1C2" stop-opacity=".429"/><stop offset="1" stop-color="#62D1C2" stop-opacity="0"/></radialGradient><radialGradient id="paint26_radial_1310_7691" cx="0" cy="0" r="1" gradientUnits="userSpaceOnUse" gradientTransform="matrix(14.9977 0 0 182.109 558.344 880.336)"><stop stop-color="#62D1C2" stop-opacity=".5"/><stop offset=".141" stop-color="#62D1C2" stop-opacity=".429"/><stop offset="1" stop-color="#62D1C2" stop-opacity="0"/></radialGradient></defs></svg>