<svg width="24" height="24" fill="none" xmlns="http://www.w3.org/2000/svg"><path fill-rule="evenodd" clip-rule="evenodd" d="M12 3c-2.444 0-2.75.01-3.71.054-.959.044-1.613.196-2.185.419A4.411 4.411 0 004.51 4.51c-.5.5-.809 1.002-1.038 1.594-.223.572-.375 1.226-.419 2.184C3.01 9.25 3 9.556 3 12s.01 2.75.054 3.71c.044.959.196 1.613.419 2.185a4.41 4.41 0 001.038 1.595c.5.5 1.002.808 1.594 1.038.572.222 1.226.374 2.184.418C9.25 20.99 9.556 21 12 21s2.75-.01 3.71-.054c.959-.044 1.613-.196 2.185-.419a4.412 4.412 0 001.595-1.038c.5-.5.808-1.002 1.038-1.594.222-.572.374-1.226.418-2.184.044-.96.054-1.267.054-3.711s-.01-2.75-.054-3.71c-.044-.959-.196-1.613-.419-2.185A4.412 4.412 0 0019.49 4.51c-.5-.5-1.002-.809-1.594-1.038-.572-.223-1.226-.375-2.184-.419C14.75 3.01 14.444 3 12 3zm0 1.622c2.403 0 2.688.009 3.637.052.877.04 1.354.187 1.67.31.421.163.72.358 1.036.673.315.315.51.615.673 1.035.123.317.27.794.31 1.671.043.95.052 1.234.052 3.637s-.009 2.688-.052 3.637c-.04.877-.187 1.354-.31 1.67a2.79 2.79 0 01-.673 1.036c-.315.315-.615.51-1.035.673-.317.123-.794.27-1.671.31-.95.043-1.234.052-3.637.052s-2.688-.009-3.637-.052c-.877-.04-1.354-.187-1.67-.31a2.788 2.788 0 01-1.036-.673 2.79 2.79 0 01-.673-1.035c-.123-.317-.27-.794-.31-1.671-.043-.95-.052-1.234-.052-3.637s.009-2.688.052-3.637c.04-.877.187-1.354.31-1.67a2.79 2.79 0 01.673-1.036c.315-.315.615-.51 1.035-.673.317-.123.794-.27 1.671-.31.95-.043 1.234-.052 3.637-.052zM7.378 12a4.622 4.622 0 119.244 0 4.622 4.622 0 01-9.244 0zM12 15a3 3 0 110-6 3 3 0 010 6zm4.804-6.724a1.08 1.08 0 100-2.16 1.08 1.08 0 000 2.16z" fill="#63C3D1"/></svg>