<svg width="120" height="78" viewBox="0 0 185 98" fill="none" xmlns="http://www.w3.org/2000/svg"><path d="M96.666 96.354c27.937 0 50.584-21.486 50.584-47.99 0-26.505-22.647-47.991-50.584-47.991-27.937 0-50.584 21.486-50.584 47.99 0 26.505 22.647 47.99 50.584 47.99z" fill="#63C3D1"/><g opacity=".2"><path d="M81.478 6.77c2.83 3.727 6.101 6.083 10.142 8.472.93.55 1.765-.715 1.27-1.45-2.155-3.2-4.119-6.305-6.577-9.327-.665-.818-1.32-1.73-2-2.64-1.78.424-3.546.937-5.288 1.552.738 1.21 1.665 2.356 2.453 3.392z" fill="#000"/><path d="M78.22 15.174c6.308 8.177 14.672 14.799 23.942 19.765 9.355 5.01 19.999 8.258 30.659 9.49 4.078.473 9.265.826 14.291.401a45.675 45.675 0 00-.661-4.946c-3.963.503-8.005.45-11.972.067-8.956-.866-17.734-3.27-25.884-6.871-7.926-3.502-15.254-8.091-21.493-13.925-3.97-3.71-9.18-8.864-11.532-14.405a51.062 51.062 0 00-3.017 1.434c1.488 3.437 3.949 6.763 5.668 8.99zm37.26-1.912c4.374 2.68 13.655 6.066 19.627 3.917a49.35 49.35 0 00-3.603-3.616 10.6 10.6 0 01-1.07.133c-3.745.248-7.492-.97-10.821-2.46-3.893-1.742-9.954-5.442-12.879-9.89a53.008 53.008 0 00-3.148-.512c1.819 5.193 7.637 9.821 11.894 12.428z" fill="#fff"/><path d="M69.723 30.864c8.412 9.289 19.248 15.912 30.71 21.367 10.457 4.977 21.697 8.533 33.433 9.191 3.739.21 7.694.25 11.524-.176a45.987 45.987 0 001.816-11.069c-5.322.433-10.781.198-15.492-.444-9.741-1.328-19.034-4.68-27.765-8.908-9.164-4.438-18.06-9.79-25.208-16.887-3.504-3.478-6.637-7.416-9.323-11.495a64.938 64.938 0 01-1.975-3.249A50 50 0 0059.41 15.9c2.632 5.561 6.501 10.756 10.313 14.964zm-6.799 33.629c-5.78-4.143-11.55-8.543-16.758-13.428.074 1.274.206 2.546.389 3.815 11.554 11.47 26.53 20.485 40.962 27.328 9.14 4.334 18.701 7.867 28.544 10.474a51.105 51.105 0 002.827-1.206c-10.22-2.733-20.115-6.538-29.538-11.173a187.677 187.677 0 01-26.426-15.81z" fill="#000"/><path d="M112.247 20.22c6.201 3.7 13.159 6.398 20.532 6.822 2.557.147 5.817.073 8.926-.51a47.599 47.599 0 00-2.335-3.881c-2.434.507-4.973.626-7.448.456-6.181-.423-12.124-2.584-17.436-5.543-7.602-4.233-15.16-9.966-19.834-17.148-1.18.044-2.36.12-3.537.241 4.591 8.258 14.004 15.312 21.132 19.563zm17.369 64.55c-4.491-.395-8.97-.902-13.46-1.803-8.861-1.778-17.531-4.365-25.711-8.08-8.724-3.962-16.721-9.181-24.143-15.037-6.884-5.43-14.64-11.467-19.623-18.77a45.952 45.952 0 00-.429 3.389c3.96 5.505 10.112 10.156 14.98 14.317 7.848 6.707 16.361 12.773 25.726 17.447 11.429 5.706 24.95 9.932 38.418 11.632.126-.083.255-.157.381-.241a50.752 50.752 0 003.861-2.854z" fill="#fff"/><path d="M91.044 70.677c11.719 5.386 24.463 9.411 37.415 10.935 1.409.166 2.827.301 4.248.413 4.618-4.439 8.177-9.595 10.617-15.146a79.68 79.68 0 01-14.565-.74c-11.117-1.576-21.741-5.081-31.811-9.773-10.444-4.865-20.266-11.2-28.28-19.257-4.283-4.306-8.093-9.19-11.245-14.295a62.783 62.783 0 01-1.593-2.775 46.854 46.854 0 00-8.092 16.175 78.898 78.898 0 008.487 10.437c9.79 10.144 21.804 18.045 34.82 24.026z" fill="#fff"/><path d="M127.084 29.917c-3.998-1.267-8.073-1.433-11.981-3.243-3.995-1.85-7.584-4.8-11.903-5.866-2.14-.528-3.034 2.211-1.663 3.431 3.49 3.104 9.057 5.23 13.421 7.112 3.551 1.533 8.355 2.676 12.018.975.934-.433 1.377-2.009.108-2.41z" fill="#000"/><path d="M74.458 83.134a12.68 12.68 0 00-2.772-.674c-1.004-.127-1.575 1.293-.547 1.674.75.278 1.474.611 2.129 1.058.712.485 1.437.635 2.245.922.746.266 1.369-.461.968-1.104-.523-.84-1.035-1.513-2.023-1.876z" fill="#fff"/><path d="M102.206 91.001c-5.25-1.93-10.414-5.37-15.97-6.281-1.252-.206-2.455 1.301-1.552 2.321 3.912 4.418 10.747 6.567 16.29 8.535.466.166.932.318 1.397.477a52.648 52.648 0 009.55-1.927c-3.283-.94-6.542-1.957-9.715-3.125z" fill="#000"/><path d="M65.358 77.48c1.64.4 2.151-1.612 1.227-2.533-3.197-3.184-7.836-5.145-11.495-7.918a186.31 186.31 0 01-7.11-5.638 46.15 46.15 0 002.574 6.69c4.336 4.296 9.405 8.088 14.804 9.399z" fill="#fff"/></g><path d="M74.257 88.052c-.02.046-.544-.162-1.475-.581-.938-.402-2.245-1.097-3.809-2.041-3.118-1.89-7.175-5.014-10.757-9.317a46.692 46.692 0 01-4.468-6.47c-1.15-2.127-2.083-4.103-2.682-5.83-.34-.847-.561-1.646-.771-2.34-.22-.69-.37-1.296-.467-1.796-.216-.998-.312-1.551-.263-1.562.136-.034.627 2.167 1.983 5.512.652 1.682 1.62 3.606 2.785 5.682a50.648 50.648 0 004.446 6.337c3.523 4.234 7.46 7.369 10.473 9.35 3.02 1.983 5.065 2.933 5.005 3.056z" fill="#fff"/><path d="M144.49 55.594c.013.253-1.305.509-3.728.757l-2.02.185c-.739.038-1.542.018-2.406.022-1.728-.026-3.711.037-5.876-.227l-3.412-.329c-1.186-.127-2.399-.39-3.667-.595-2.549-.37-5.199-1.101-8.004-1.816-5.549-1.63-11.514-3.936-17.414-7.09-5.864-3.223-11.051-6.964-15.445-10.723-2.128-1.96-4.187-3.78-5.888-5.715-.865-.95-1.746-1.824-2.499-2.747l-2.136-2.679c-1.402-1.67-2.43-3.365-3.393-4.798-.469-.725-.923-1.388-1.293-2.028l-.947-1.792c-1.112-2.164-1.614-3.408-1.396-3.534.217-.126 1.134.873 2.59 2.765l1.19 1.583c.448.569.974 1.159 1.508 1.811 1.096 1.285 2.234 2.826 3.721 4.34l2.244 2.443c.783.845 1.687 1.64 2.568 2.513 1.732 1.78 3.794 3.45 5.9 5.27 4.35 3.48 9.383 6.988 15.017 10.085 5.669 3.029 11.354 5.332 16.645 7.077 2.676.772 5.202 1.589 7.638 2.07 1.212.263 2.373.586 3.509.78l3.273.549c2.081.42 3.995.533 5.671.75.838.093 1.619.212 2.342.276.716.05 1.375.093 1.978.135 2.379.189 3.716.412 3.73.662z" fill="#63C3D1"/><path d="M116.496 92.287c-.004-.011.102-.079.317-.2.252-.138.568-.312.962-.526l3.753-1.972.082-.018c-.033-.028-.158.058-.141.113l.068-.104c.183-.11.389-.235.599-.364l.041-.025.05.004h.007l-.091.021c3.259-2.044 7.817-5.362 12.134-10.671l.225-.094c-.068-.05-.302.116-.272.22l.057-.134c3.803-4.698 7.397-11.075 9.216-18.786 1.858-7.663 1.848-16.656-.956-25.372l.308.249-.007-.002-.235-.025-.076-.235c-.665-2.072-1.411-4.276-2.47-6.37-4.567-9.54-12.486-16.514-20.563-20.673-8.135-4.218-16.452-5.768-23.346-5.859A49.734 49.734 0 0080.011 3.87c-1.839.613-3.25 1.146-4.183 1.562l-1.076.446c-.244.096-.371.14-.377.129 0 0 1.87-1.096 5.545-2.406C83.588 2.324 89.154.907 96.163.95a52.624 52.624 0 0123.649 5.777c4.109 2.114 8.175 4.879 11.787 8.397 3.626 3.492 6.818 7.73 9.127 12.557 1.077 2.13 1.836 4.373 2.511 6.481l-.312-.259.007.002.237.025.072.224c2.842 8.86 2.825 17.986.906 25.75a47.434 47.434 0 01-9.459 18.96l.056-.132c.024.11-.216.279-.289.234l.223-.094a47.848 47.848 0 01-12.382 10.595l-.044.026-.047-.005-.007-.002.091-.02-.614.355.068-.104c.012.06-.119.152-.157.128l.082-.018-3.831 1.864-.993.464c-.226.1-.342.144-.348.133z" fill="#fff"/><path d="M52.833 24.283c.281-.502.6-.987.901-1.478-22.52-9.097-34.516-11.662-38.144-10.479-.303.1-.515.222-.566.328l-.07.128c-.088.151.005.483.048.619.807 2.517 8.433 13.164 72.75 44.484 38.721 18.857 69.715 28.651 80.358 29.814 1.306.143 2.081-1.353 1.163-2.244-3.747-3.632-12.352-9.98-26.101-18.282-.191.389-.362.784-.565 1.168 11.278 6.89 17.795 11.994 16.879 13.686-1.835 3.398-32.901-8.227-69.384-25.968C53.618 38.32 25.53 21.184 27.367 17.785c1.01-1.862 10.813.799 25.466 6.499z" fill="#63C3D1"/><path d="M145.218 62.432c-.124.34-.275.674-.406 1.013 17.59 10.53 29.23 19.28 30.597 23.54.456 1.42.083 2.739-1.025 3.617-1.129.894-4.56 3.617-31.242-5.33-17.191-5.764-37.539-14.237-57.296-23.86-8.325-4.054-17.109-8.451-25.615-12.918-24.542-12.888-46.8-26.369-49.227-33.94-.531-1.656-.162-2.882.26-3.634.394-.77 1.226-1.779 2.967-2.346 6.484-2.116 23.789 3.537 41.77 10.85.147-.198.276-.404.425-.599C25.953 6.748 4.306 1.781.886 6.391-6.48 16.326 33.02 41.296 83.634 65.906c50.613 24.61 96.658 36.791 100.539 29.606 2.574-4.766-13.244-17.717-38.954-33.08z" fill="#63C3D1"/><path d="M148.612 75.425c.276.286-3.068-.018-3.164-.036-1.234-.229-2.482-.685-3.676-1.054-3.265-1.008-6.485-2.18-9.651-3.433-4.479-1.774-8.8-4.126-13.5-5.314-.533-.134-.712.529-.325.795 7.506 5.163 18.591 9.102 27.664 10.882 1.295.253 3.285.802 4.096-.6.538-.928.198-1.662-.734-2.145-.609-.316-1.161.437-.71.905z" fill="#63C3D1"/><g opacity=".3" fill="#000"><path d="M52.83 24.283c.282-.502.6-.987.902-1.478-22.52-9.097-34.516-11.662-38.144-10.479-.303.1-.514.222-.566.328l-.07.128c-.088.151.005.483.049.619.806 2.517 8.432 13.164 72.75 44.484 38.72 18.857 69.714 28.651 80.357 29.814 1.306.143 2.081-1.353 1.163-2.244-3.747-3.632-12.352-9.98-26.101-18.282-.191.389-.362.784-.565 1.168 11.278 6.89 17.795 11.994 16.879 13.686-1.835 3.398-32.901-8.227-69.384-25.968-36.484-17.74-64.572-34.875-62.735-38.275 1.01-1.862 10.813.799 25.466 6.499z"/><path d="M148.61 75.425c.276.286-3.068-.018-3.163-.037-1.235-.228-2.483-.684-3.677-1.053-3.265-1.009-6.485-2.18-9.651-3.433-4.479-1.774-8.799-4.126-13.5-5.314-.533-.134-.712.528-.325.794 7.506 5.164 18.591 9.103 27.664 10.882 1.295.254 3.285.803 4.096-.6.538-.927.198-1.66-.734-2.144-.609-.317-1.161.437-.71.905z"/></g><path d="M145.218 62.432c-.124.34-.275.674-.406 1.013 17.59 10.53 29.23 19.28 30.597 23.54.456 1.42.083 2.739-1.025 3.617-1.129.894-4.56 3.617-31.242-5.33-17.191-5.764-37.539-14.237-57.296-23.86-8.325-4.054-17.109-8.451-25.615-12.918-24.542-12.888-46.8-26.369-49.227-33.94-.531-1.656-.162-2.882.26-3.634.394-.77 1.226-1.779 2.967-2.346 6.484-2.116 23.789 3.537 41.77 10.85.147-.198.276-.404.425-.599C25.953 6.748 4.306 1.781.886 6.391-6.48 16.326 33.02 41.296 83.634 65.906c50.613 24.61 96.658 36.791 100.539 29.606 2.574-4.766-13.244-17.717-38.954-33.08z" fill="#000" opacity=".3"/></svg>