<svg width="174" height="173" fill="none" xmlns="http://www.w3.org/2000/svg"><path d="M148.466 111.485c13.782-33.942-2.589-72.618-36.566-86.386-33.978-13.768-72.694 2.586-86.476 36.528-13.782 33.942 2.589 72.618 36.566 86.386 33.977 13.768 72.693-2.586 86.476-36.528z" fill="#63C3D1"/><path d="M149.306 63.795a29.289 29.289 0 00-.492-1.302l-.072-.202c-.18-.448-.359-.896-.55-1.338-.198-.463-.395-.928-.598-1.379-.261-.578-.519-1.155-.801-1.727a56.614 56.614 0 00-2.126-4.04c-8.451 2.604-20.174 6.788-30.745 12.565-19.364 10.577-25.815 26.125-48.789 36.154-22.96 10.036-34.314-1.256-29.87-8.535 4.435-7.274 32.695-21.644 62.897-32.623 20.595-7.493 35.182-11.9 42.384-13.952a64.187 64.187 0 00-3.855-4.794c-.334-.37-.673-.75-1.017-1.118-.221-.24-.441-.48-.673-.716-.054-.06-.124-.126-.179-.188a43.769 43.769 0 00-1.564-1.572c-.223-.216-.451-.443-.684-.655-.241-.234-.493-.463-.733-.697-10.632 6.604-32.045 18.716-60.462 28.798-24.045 8.533-40.918 13.732-50.845 16.595a57.086 57.086 0 00-.088 4.523c.003.815.03 1.634.066 2.45.022.287.034.578.055.865.006.18.025.366.035.555l.004.01c.088 1.059.187 2.112.322 3.176.037.395.087.797.148 1.197l.003.01c.092.682.205 1.358.322 2.042.045.257.087.504.142.756.105.62.233 1.245.373 1.865l.003.01c.133.635.274 1.265.438 1.887.102.453.218.911.344 1.365a58.3 58.3 0 00.964 3.224c.055.185.104.36.17.543a61.784 61.784 0 001.072 2.981c.127.33.253.659.397.972.092.262.195.521.307.776.353.841.712 1.668 1.097 2.473a66.05 66.05 0 009.33 14.636c15.211-7.723 54.754-27.688 73.726-36.119 14.049-6.25 31.73-10.926 43.241-13.584a62.12 62.12 0 00-.893-5.926 13.359 13.359 0 00-.149-.684c-.034-.227-.089-.446-.133-.669-.092-.422-.198-.85-.302-1.278-.087-.378-.189-.763-.29-1.145l-.206-.78c-.155-.57-.317-1.125-.482-1.692a62.246 62.246 0 00-.432-1.39c-.179-.54-.36-1.087-.552-1.632-.084-.232-.166-.463-.258-.691zM29.468 83.426a3.2 3.2 0 014.083 1.957 3.197 3.197 0 11-6.033 2.119 3.19 3.19 0 011.95-4.076zm11.493 35.632a4.195 4.195 0 11-2.786-7.915 4.199 4.199 0 015.344 2.569 4.191 4.191 0 01-2.558 5.346zm68.714-37.038a3.2 3.2 0 11-2.125-6.036 3.197 3.197 0 014.074 1.96 3.19 3.19 0 01-1.949 4.076zm8.903 5.133a1.601 1.601 0 01-1.063-3.019 1.6 1.6 0 111.063 3.02z" fill="#fff" opacity=".13"/><path d="M99.368 118.047c-26.238 9.078-48.802 13.949-59.075 15.923.107.11.22.206.327.316.145.153.297.293.458.429.048.039.09.094.138.133.172.167.341.323.52.475.378.366.787.721 1.186 1.08a65.5 65.5 0 004.13 3.348c.074.053.154.116.23.168 1.32.977 2.665 1.9 4.052 2.774.24.166.501.324.746.475a68.77 68.77 0 007.893 4.138c2.8 1.24 5.689 2.29 8.646 3.145l.02-.007c.45.148.904.272 1.355.398l.112.029c.95.245 1.905.476 2.858.664.262.066.505.117.761.163l.01-.003c.099.022.184.037.283.059.187.048.371.085.56.109.673.138 1.35.252 2.033.352 1.288.206 2.584.375 3.877.499 13.14-5.577 24.879-10.199 28.48-10.613 4.16-.473-3.169 4.515-12.684 10.262a67.276 67.276 0 0012.658-3.105 66.27 66.27 0 0016.178-8.302c.419-.295.847-.592 1.259-.907a61.211 61.211 0 001.533-1.163 52.38 52.38 0 001.748-1.419 65.83 65.83 0 008.43-8.508l.01-.003a67.121 67.121 0 005.496-7.68c.281-.462.557-.933.831-1.415-3.17 1.51-7.726 3.632-14.274 6.612-19.742 8.986-54.237 18.511-54.271 15.734-.04-2.788 18.627-13.767 43.981-21.84 11.867-3.77 21.614-6.728 28.631-8.796.436-1.084.845-2.18 1.24-3.282a67.463 67.463 0 002.568-9.773c.151-.859.293-1.713.419-2.586.213-1.459.366-2.93.47-4.408a1.6 1.6 0 00.007-.206c-9.161 6.17-28.473 17.953-53.83 26.731zm-31.88 20.508c-5.862 2.057-11.097 2.377-11.684.711-.586-1.666 3.7-4.69 9.56-6.748 5.862-2.058 11.097-2.377 11.683-.711.588 1.664-3.697 4.688-9.559 6.748z" fill="#fff" opacity=".25"/><path d="M116.761 27.32c-8.176 6.002-22.878 15.306-42.97 22.031-19.373 6.485-37.637 11.151-49.059 13.835a64.64 64.64 0 014.05-8.727c11.377-1.295 24.607-3.32 34.768-6.457 22.195-6.852 42.529-20.606 37.75-21.798C96.527 25 81.291 34.4 60.209 40.633c-9.515 2.808-18.963 4.81-26.47 6.164A65.325 65.325 0 0141.636 38c.032-.034.07-.06.104-.094.06-.054.11-.107.174-.151 8.385-1.629 19.363-4.576 33.135-9.808a1355.04 1355.04 0 0018.989-7.349c.73.074 1.453.159 2.182.266.014.007.028.014.038.01 1.2.18 2.392.375 3.58.626a.25.25 0 01.113.03 63.76 63.76 0 016.225 1.556s.01-.003.014.007c.317.094.623.19.944.293l.01-.003c.181.06.347.115.528.177.644.216 1.288.432 1.928.672.351.126.692.257 1.033.386.249.094.487.193.726.29a61.172 61.172 0 014.729 2.083l.027.013c.205.099.382.184.591.291l.055.026z" fill="#fff" opacity=".13"/><path d="M149.273 63.698a56.145 56.145 0 00-.482-1.305 1.35 1.35 0 00-.082-.2l-.042-.12c-.181-.448-.36-.894-.551-1.338a29.36 29.36 0 00-.545-1.261 61.026 61.026 0 00-.853-1.845 58.303 58.303 0 00-2.36-4.447c-.105-.2-.233-.405-.349-.604l-.334-.563a47.665 47.665 0 00-.947-1.529 66.018 66.018 0 00-6.115-8.083 69.205 69.205 0 00-1.603-1.752 71.827 71.827 0 00-2.414-2.408 61.043 61.043 0 00-1.988-1.809 53.28 53.28 0 00-2.417-1.998c-.309-.265-.636-.514-.961-.762 0 0-.004-.01-.014-.007-.237-.189-.48-.364-.727-.55-.119-.083-.23-.168-.36-.248a37.89 37.89 0 00-1.47-1.05 15.028 15.028 0 00-.511-.354c-.119-.084-.25-.162-.37-.245-.236-.155-.461-.315-.705-.456a53.78 53.78 0 00-2.957-1.821l-.145-.085a53.134 53.134 0 00-2.554-1.384l-.789-.403a14.642 14.642 0 00-.591-.292l-.027-.013a62.202 62.202 0 00-4.73-2.083c-.238-.097-.477-.196-.725-.29-.341-.129-.682-.26-1.033-.386-.64-.24-1.284-.456-1.928-.672l-.528-.177-.01.003a38.88 38.88 0 00-.944-.292c-.004-.01-.014-.007-.014-.007a66.684 66.684 0 00-7.785-1.86c.497.12.996.252 1.49.395a.25.25 0 01.112.029c.527.142 1.055.287 1.58.454 0 0 .01-.003.013.007.317.093.624.189.944.292l.01-.003.529.177c.644.216 1.288.432 1.928.672.351.126.692.256 1.033.387.248.093.487.192.725.289a61.155 61.155 0 014.73 2.083l.027.014c.204.098.381.183.591.29a62.934 62.934 0 013.342 1.787l.144.086c.126.07.257.148.373.22a64.908 64.908 0 013.289 2.057c.12.083.251.161.37.245.177.119.343.231.511.354.346.241.692.483 1.029.728.271.19.542.378.803.569.247.185.49.36.727.55.01-.004.014.006.014.006.497.381.984.766 1.465 1.164a48.891 48.891 0 011.865 1.557 55.567 55.567 0 012.377 2.172 57.742 57.742 0 012.042 2.063 50.087 50.087 0 011.634 1.773 64.983 64.983 0 017.062 9.612l.334.563c.1.157.191.319.283.48a47.78 47.78 0 011.589 2.902c.293.543.571 1.105.837 1.668a59.377 59.377 0 011.398 3.104c.188.434.36.861.537 1.297l.013.04c.212.538.414 1.08.607 1.626.092.228.174.461.256.693.068.192.134.383.189.568.124.354.248.706.362 1.064.425 1.303.805 2.61 1.128 3.914.196.749.38 1.5.542 2.248.029.148.07.293.089.446.274 1.264.516 2.53.708 3.79l.154 1.115a65.711 65.711 0 01-.038 18.06c-.008.037-.005.082-.015.12a74.23 74.23 0 01-.419 2.584 63.73 63.73 0 01-1.67 6.939 66.052 66.052 0 01-2.393 6.749 76.966 76.966 0 01-1.81 3.959l-.01.003a67.192 67.192 0 01-4.595 7.853l-.01.003a66.669 66.669 0 01-8.925 10.553l-.01.004a64.917 64.917 0 01-3.218 2.888c-.58.487-1.161.963-1.748 1.419a59.617 59.617 0 01-2.793 2.07 63.168 63.168 0 01-6.322 3.911 65.932 65.932 0 01-9.855 4.39 66.35 66.35 0 01-20.81 3.756 57.487 57.487 0 01-4.453-.069 59.426 59.426 0 01-3.556-.261 78.242 78.242 0 01-3.515-.468c-.516-.08-1.025-.173-1.535-.265a51.65 51.65 0 002.493.565c.361.088.7.151 1.053.219.075.019.136.033.207.041.116.039.236.055.355.068a36.2 36.2 0 002.032.352c2.334.371 4.692.622 7.069.729a56.99 56.99 0 004.453.07 66.378 66.378 0 0020.81-3.756 66.278 66.278 0 0016.179-8.302c.312-.211.62-.432.925-.666a42.145 42.145 0 001.868-1.404c.589-.456 1.17-.932 1.747-1.419a65.205 65.205 0 008.251-8.274 65.473 65.473 0 005.59-7.771 66.465 66.465 0 004.705-9.151 74.23 74.23 0 001.464-3.814 65.485 65.485 0 002.206-7.83c.151-.7.298-1.41.426-2.112.151-.86.293-1.714.419-2.585a64.15 64.15 0 00.46-4.245l.01-.003a65.645 65.645 0 00-1.06-17.788c-.044-.223-.092-.456-.139-.688-.048-.267-.111-.54-.169-.803-.082-.391-.169-.77-.259-1.157-.097-.374-.199-.76-.3-1.142-.058-.264-.128-.522-.196-.783-.155-.57-.317-1.125-.482-1.692-.14-.46-.279-.922-.433-1.39-.178-.538-.359-1.088-.552-1.632-.083-.226-.165-.458-.257-.686z" fill="#fff" opacity=".4"/><path d="M58.935 27.789l-.013.003c.005.03-.382.252-1.125.652-.75.388-1.828 1-3.21 1.806a67.976 67.976 0 00-10.896 8.08 65.63 65.63 0 00-12.675 15.804c-3.813 6.673-6.88 14.802-8.038 23.773l-.208-.43.009.004.24.145-.032.3-.521 4.76c-.135 1.62-.084 3.281-.137 4.947.167 5.077.707 10.063 2.069 14.682l.444 1.738.58 1.681c.386 1.115.77 2.218 1.15 3.31l1.374 3.145.68 1.544.787 1.47c4.087 7.849 9.244 14.075 14.143 18.626 4.915 4.562 9.514 7.506 12.737 9.421 1.623.939 2.952 1.549 3.816 2.032.874.465 1.329.722 1.317.751-.012.027-.49-.176-1.394-.589-.89-.433-2.25-.994-3.908-1.893-3.291-1.829-7.978-4.716-12.993-9.261-4.999-4.532-10.267-10.783-14.444-18.709-.265-.492-.533-.987-.804-1.486l-.695-1.56-1.405-3.179c-.389-1.105-.78-2.223-1.178-3.35l-.59-1.701-.456-1.762c-1.388-4.678-1.949-9.74-2.116-14.895.053-1.691.002-3.378.14-5.023.182-1.643.361-3.26.537-4.834l.206.445-.009-.006-.245-.15.038-.282c1.19-9.103 4.328-17.32 8.233-24.052a64.825 64.825 0 0112.958-15.85 63.429 63.429 0 0111.13-7.922c1.412-.768 2.521-1.336 3.295-1.678.768-.352 1.178-.526 1.197-.505l.012-.002z" fill="#fff"/></svg>