<svg width="185" height="85" fill="none" xmlns="http://www.w3.org/2000/svg"><path d="M11.99 66.787a3.691 3.691 0 01-3.695 3.695 3.696 3.696 0 113.696-3.695zM7.391 39.558a3.691 3.691 0 01-3.695 3.695A3.691 3.691 0 010 39.558a3.696 3.696 0 017.391 0zM30.98 3.696a3.691 3.691 0 01-3.696 3.695 3.691 3.691 0 01-3.696-3.695 3.696 3.696 0 017.391 0zm34.132 7.39a3.691 3.691 0 01-3.696 3.696 3.691 3.691 0 01-3.695-3.696 3.696 3.696 0 017.391 0zm101.446 52.005a3.691 3.691 0 01-3.696 3.696 3.691 3.691 0 01-3.695-3.696 3.696 3.696 0 017.391 0zm18.029-7.391a3.691 3.691 0 01-3.696 3.696 3.691 3.691 0 01-3.695-3.696 3.691 3.691 0 013.695-3.696 3.701 3.701 0 013.696 3.696z" fill="#D8D8D8"/><path d="M7.092 66.834L3.397 39.597l.605-.079 3.696 27.23-.606.086z" fill="#D8D8D8"/><path d="M27.021 3.557L3.461 39.436l.513.337 23.56-35.88-.513-.336z" fill="#D8D8D8"/><path d="M27.37 3.374l-.129.599 34.137 7.39.13-.599-34.137-7.39z" fill="#D8D8D8"/><path d="M61.574 10.802l-.28.545 101.451 52.008.28-.545-101.45-52.008z" fill="#D8D8D8"/><path d="M162.58 62.97l-19.519 54.062.576.209 19.52-54.063-.577-.208z" fill="#D8D8D8"/><path d="M180.746 55.397l-18.024 7.396.232.568 18.025-7.396-.233-.568zM8.42 66.521l-.206.577 71.34 25.612.207-.577-71.34-25.612z" fill="#D8D8D8"/></svg>