<svg width="185" height="156" fill="none" xmlns="http://www.w3.org/2000/svg"><path d="M12.347 66.844a3.691 3.691 0 01-3.695 3.695 3.696 3.696 0 113.696-3.695zm-4.6-27.229a3.691 3.691 0 01-3.695 3.695 3.691 3.691 0 01-3.696-3.695 3.696 3.696 0 017.391 0zM31.336 3.753a3.691 3.691 0 01-3.696 3.695 3.691 3.691 0 01-3.695-3.695 3.696 3.696 0 017.391 0zm34.132 7.391a3.691 3.691 0 01-3.695 3.695 3.691 3.691 0 01-3.696-3.695 3.696 3.696 0 017.391 0zm18.218 81.309a3.691 3.691 0 01-3.695 3.695 3.691 3.691 0 01-3.696-3.695 3.696 3.696 0 017.391 0zm63.673 24.744a3.692 3.692 0 01-3.695 3.696 3.692 3.692 0 01-3.696-3.696 3.696 3.696 0 017.391 0zm-9.207 34.903a3.692 3.692 0 01-3.696 3.696 3.696 3.696 0 113.696-3.696zm28.762-88.952a3.691 3.691 0 01-3.696 3.696 3.691 3.691 0 01-3.695-3.696 3.696 3.696 0 017.391 0zm18.029-7.391a3.691 3.691 0 01-3.695 3.696 3.691 3.691 0 01-3.696-3.696 3.691 3.691 0 013.696-3.695 3.701 3.701 0 013.695 3.695z" fill="#D8D8D8"/><path d="M7.448 66.89L3.753 39.655l.605-.078 3.696 27.228-.606.087z" fill="#D8D8D8"/><path d="M27.378 3.614l-23.56 35.88.512.336L27.89 3.95l-.512-.336z" fill="#D8D8D8"/><path d="M27.727 3.43l-.13.6 34.137 7.39.13-.599-34.137-7.39z" fill="#D8D8D8"/><path d="M61.93 10.859l-.28.546 101.452 52.008.279-.546-101.45-52.008z" fill="#D8D8D8"/><path d="M162.936 63.027l-19.519 54.063.577.208 19.519-54.063-.577-.208z" fill="#D8D8D8"/><path d="M143.365 117.102l-9.172 34.914.593.156 9.172-34.914-.593-.156zm37.738-61.648l-18.025 7.396.233.568 18.024-7.396-.232-.568zM8.777 66.578l-.207.578 71.34 25.611.208-.577-71.34-25.612z" fill="#D8D8D8"/><path d="M80.11 92.189l-.222.572 63.666 24.739.222-.571-63.666-24.74z" fill="#D8D8D8"/></svg>