<svg width="235" height="204" fill="none" xmlns="http://www.w3.org/2000/svg"><g opacity=".5" fill="#D8D8D8"><path d="M41.6 13.37c0 2.6-2.1 4.7-4.7 4.7s-4.7-2.1-4.7-4.7 2.1-4.7 4.7-4.7a4.7 4.7 0 014.7 4.7zm-32.2 80c0 2.6-2.1 4.7-4.7 4.7S0 95.97 0 93.37s2.1-4.7 4.7-4.7 4.7 2.1 4.7 4.7zm76.59 105.85c0 2.6-2.1 4.7-4.7 4.7s-4.7-2.1-4.7-4.7 2.1-4.7 4.7-4.7a4.7 4.7 0 014.7 4.7zm15.12-50.73c0 2.6-2.1 4.7-4.7 4.7s-4.7-2.1-4.7-4.7 2.1-4.7 4.7-4.7 4.7 2.1 4.7 4.7zm68.78 0c0 2.6-2.1 4.7-4.7 4.7s-4.7-2.1-4.7-4.7 2.1-4.7 4.7-4.7a4.7 4.7 0 014.7 4.7zm47.31 41.33c0 2.6-2.1 4.7-4.7 4.7s-4.7-2.1-4.7-4.7 2.1-4.7 4.7-4.7 4.7 2.1 4.7 4.7zM192.33 45.07c0 2.6-2.1 4.7-4.7 4.7s-4.7-2.1-4.7-4.7 2.1-4.7 4.7-4.7c2.59 0 4.7 2.11 4.7 4.7zm-73.17 9.4c0 2.6-2.1 4.7-4.7 4.7s-4.7-2.1-4.7-4.7 2.1-4.7 4.7-4.7c2.59 0 4.7 2.11 4.7 4.7z"/><path d="M126.831-53.072L36.619 13.077l.46.629 90.213-66.15-.461-.628z"/><path d="M36.533 13.186L4.335 93.18l.724.291 32.198-79.995-.724-.291z"/><path d="M5.05 93.108l-.632.457 76.588 105.853.632-.458L5.05 93.108z"/><path d="M96.032 148.337l-15.114 50.738.747.223 15.114-50.738-.747-.223z"/><path d="M165.19 148.1H96.41v.78h68.78v-.78z"/><path d="M165.477 148.236l-.513.587 47.317 41.336.513-.587-47.317-41.336zM37.1 12.99l-.366.69 77.563 41.107.365-.69L37.1 12.992z"/><path d="M187.507 44.655l-73.157 9.457.1.774 73.157-9.457-.1-.774z"/></g></svg>