<svg width="27" height="27" fill="none" xmlns="http://www.w3.org/2000/svg"><g clip-path="url(#clip0_255_4338)"><path d="M7.094 11.785l-.257.257.165.324a17.542 17.542 0 007.631 7.631l.324.166.258-.257 2.475-2.475a.616.616 0 01.632-.15h0l.005.001a13.33 13.33 0 004.173.667c.343 0 .625.282.625.625V22.5a.628.628 0 01-.625.625c-10.288 0-18.625-8.337-18.625-18.625 0-.343.282-.625.625-.625h3.938c.342 0 .624.282.624.625 0 1.458.234 2.86.666 4.17a.629.629 0 01-.16.64l-2.474 2.475z" fill="#63C3D1" stroke="#63C3D1"/></g><defs><clipPath id="clip0_255_4338"><path fill="#fff" d="M0 0h27v27H0z"/></clipPath></defs></svg>