<svg width="103" height="103" fill="none" xmlns="http://www.w3.org/2000/svg"><path d="M51.21 102.177c27.979 0 50.661-22.659 50.661-50.609C101.871 23.618 79.189.96 51.21.96 23.23.96.549 23.618.549 51.568c0 27.95 22.681 50.609 50.66 50.609z" fill="#7C6EB0"/><path d="M29.042 81.761c9.162 3.955 18.678 6.083 28.517 7.505 7.286 1.054 14.225 2.182 20.6 5.223a50.606 50.606 0 01-4.153 2.346c-7.273-1.55-14.885-2.01-22.13-2.931-10.021-1.273-19.723-3.768-28.887-8.063a85.57 85.57 0 01-16.246-9.958 50.23 50.23 0 01-5.022-13.465c.9 1.02 1.824 2.02 2.802 2.985 7.046 6.95 15.437 12.439 24.519 16.358z" fill="#000" opacity=".3"/><path d="M18.295 87.48c1.064-.33 2.693.736 2.257 1.934-.138.38-.482.724-.92.7-.116-.007-.204-.044-.305-.066-.037.006-.072.02-.112.023-.937.065-1.609-.745-1.666-1.613-.03-.453.34-.853.746-.978z" fill="#000" opacity=".1"/><path d="M65.074 84.452c6.145 1.35 11.724 4.443 17.476 6.942a51.064 51.064 0 006.453-6.052 50.628 50.628 0 005.609-7.572c-1.94-.529-3.822-1.225-5.556-2.209-3.528-2.001-5.922-5.162-8.26-8.388-4.962-6.854-10.577-12.478-18.87-15.046-4.256-1.32-9.016-.892-13.018-3-2.143-1.127-3.922-2.782-5.647-4.49a70.46 70.46 0 003.356 1.344c5.218 1.908 10.276 1.99 15.769 1.625 4.64-.306 8.726-.11 12.923 2.046 7.8 4.006 14.052 12.034 23.184 13.072a16.61 16.61 0 002.136.092 50.604 50.604 0 001.192-8.688 11.452 11.452 0 01-1.197-.123c-4.61-.754-8.437-4.191-11.985-6.95-4.374-3.4-8.883-6.613-14.195-8.385-5.373-1.792-10.77-1.076-16.299-1.04-5.305.034-9.559-2.103-14.319-4.158-4.213-1.819-8.327-2.571-12.758-3.626-8.063-1.92-11.697-9.45-12.282-17.073a50.99 50.99 0 00-8.916 9.653c1.96 5.79 5.466 10.934 10.75 14.452 1.386.924 2.816 1.574 4.279 2.09 1.12.667 2.27 1.295 3.389 1.967 4.006 2.403 6.875 5.123 9.959 8.584 3.106 3.486 6.457 6.585 10.908 8.227 4.508 1.665 9.343 1.835 13.6 4.25 7.502 4.256 10.467 12.708 16.669 18.327.761.69-.815-.579 0 0-3.193-2.668-5.036-2.726-9.67-3.94-6.673-1.746-14.815-1.343-21.543-2.818-20.068-4.406-35.946-17.573-46.018-34.692a50.644 50.644 0 00-1.59 11.165 72.83 72.83 0 004.674 6.565c6.886 8.584 13.65 17.144 23.672 21.652 5.068 2.28 10.964 4.43 16.412 5.562 5.892 1.224 13.836-.657 19.713.635zm-36.38-11.775c-2.34.29-4.809-1.993-6.492-3.403-2.28-1.907-3.789-4.286-5.719-6.495-.622-.712.147-1.697.995-1.289 2.394 1.154 3.981 3.222 5.964 4.927 1.793 1.542 4.94 2.78 6.031 4.905.336.659-.097 1.27-.778 1.355zm-.509-38.509a.49.49 0 01-.432.26.413.413 0 01-.184-.05 26.739 26.739 0 01-1.689-.972A25.414 25.414 0 0123.838 32a21.647 21.647 0 01-3.568-3.415 18.972 18.972 0 01-1.451-2.015 21.881 21.881 0 01-1.355-2.509 16.476 16.476 0 01-.252-.585c-.16-.397-.305-.8-.424-1.205a7.816 7.816 0 01-.325-1.8c-.046-.97.162-1.864.783-2.555a.203.203 0 01.15-.061c.056 0 .113.02.15.06.847.908.76 1.612 1.048 2.843a17.323 17.323 0 001.489 4.001c.22.422.455.835.707 1.239 1.9 3.04 4.65 5.347 7.312 7.689a.367.367 0 01.083.482zm29.923 23.85a.538.538 0 01-.215-.005c-4.804-1.067-9.86-3.131-13.736-6.206-4.229-3.355-7.022-8.295-11.83-10.949a.406.406 0 01-.14-.12c-.21-.283-.017-.776.329-.798a.44.44 0 01.186.032c.545.216 1.061.456 1.553.716a17.41 17.41 0 012.718 1.8 28.6 28.6 0 012.385 2.166c.383.383.761.774 1.14 1.172.758.795 1.517 1.615 2.316 2.434 1.661 1.7 3.474 2.988 5.384 4.07 2.547 1.444 5.27 2.52 8.043 3.721.693.3 1.388.608 2.087.933.528.243.255.95-.22 1.034zM69.98 83.092c-4.387-.967-8.881-1.276-13.35-1.627-7.752-.61-16.941-.93-23.144-6.214-.823-.7.056-2.08 1.04-1.783 4.367 1.326 8.613 2.816 13.15 3.535 4.776.755 9.62.912 14.426 1.392 6.714.67 16.823 1.57 21.101 7.556.516.723-.335 1.642-1.106 1.438-4.148-1.097-7.853-3.358-12.117-4.297z" fill="#000" opacity=".2"/><path d="M92.325 41.631c1.35 1.576 2.402 3.426 3.942 4.835-.032-.029 2.198 1.203 2.132 1.802l-.016.136c-.066.598-.502.948-1.104.841-2.768-.49-5.187-2.896-7.213-4.676-1.458-1.282-2.93-2.4-4.675-3.282-1.872-.944-3.761-1.356-5.373-2.716-1.23-1.038-.148-2.87 1.223-2.95 4.086-.24 8.55 3.047 11.084 6.01zM31.32 56.938c1.164 1.382.076 3.477-1.781 3.055-8.56-1.946-14.565-7.397-19.696-14.378-2.175-2.958-4.535-6.569-6.552-10.408 1.676-3.574 2.051-5.725 4.106-9.066 2.542 4.19 2.905 9.915 5.468 13.799 4.546 6.887 13.15 10.706 18.454 16.998zm-5.195 34.495c6.686 2.011 13.446 3.49 20.309 4.826 5.24 1.021 10.732 1.517 15.024 4.544-2.844.96-5.68.509-8.726.952-.082-.014-.166-.171-.245-.184-3.503-.593-7.144.252-10.618-.504-6.087-1.322-12.184-3.596-16.603-8.162-.598-.616-.005-1.733.859-1.472zM79.262 59.25c-.572-1.637 1.348-2.61 2.644-2.03 3.818 1.707 6.344 5.826 9.757 8.242 2.063 1.462 4.557 2.762 7.138 3.593a50.097 50.097 0 01-1.716 4.081c-2.189-.422-4.334-1.358-6.38-2.54-4.255-2.453-9.777-6.57-11.443-11.346z" fill="#000" opacity=".3"/><path d="M86.804 20.858c-4.574.504-8.29-.917-12.586-2.223-4.16-1.262-8.798-1.324-12.696-3.349C57.374 13.13 51.317 6.99 54.058 2.58c.01-.058 1.07-1.332 1.084-1.39 8.456.412 13.612 2.767 18.782 5.13 6.985 3.193 13.137 8.924 17.134 13.971-.823.023-1.47.147-2.307.014a6.42 6.42 0 01-1.946.553z" fill="#000" opacity=".1"/><path d="M99.26 40.654c.501.065.971.084 1.428.08a50.146 50.146 0 00-2.537-8.157c-1.85-.805-3.698-2.187-5.313-3.123-1.982-1.149-3.96-2.31-6.03-3.291-3.678-1.746-7.591-3.055-11.695-3.184-2.177-.068-4.315.3-6.457.636-.194-.047-.392-.085-.583-.138-4.49-1.254-8.933-3.94-12.143-7.32-3.177-3.345-6.026-7.425-7.614-11.778-.354-.968-.623-2.071-.911-3.188-.89.067-1.77.155-2.646.266.44.284.782.706.905 1.271.611 2.813 2.27 5.593 1.85 8.523-.085.6-.89 1.215-1.497 1.139-4.537-.569-5.525-5.928-4.924-9.662.044-.28.143-.52.274-.73-1.08.213-2.148.461-3.203.74.094 5.98 2.725 11.687 6.858 16.134-2.796-1.373-5.418-2.927-7.677-4.566-3.664-2.658-4.336-5.315-2.966-9.435.116-.35.213-.706.3-1.062a50.731 50.731 0 00-4.61 1.848c.675 1.6.983 3.457 1.528 5.164.182.568.39 1.121.646 1.642 1.466 2.98 3.352 5.085 5.622 7.46.627.658.145 1.56-.62 1.66-.11.014-.225.012-.343-.008a10.987 10.987 0 01-2.973-1.02 13.22 13.22 0 01-1.395-.813 15.69 15.69 0 01-4.501-4.612 13.792 13.792 0 01-.755-1.35 17.12 17.12 0 01-.453-1.052c-.492-1.259-1.05-3.065-1.221-4.743a49.778 49.778 0 00-3.373 2.165 16.31 16.31 0 001.001 3.29c2.092 4.879 6.283 8.572 10.847 11.125 9.18 5.134 21.969 9.755 32.586 7.997 2.826-.468 5.555-1.501 8.448-1.47 3.075.03 6.104 1.147 8.855 2.423 4.885 2.262 9.842 6.435 15.292 7.14zM51.57 16.426a.927.927 0 01-.079.361.907.907 0 01-.485.465 1.258 1.258 0 01-.355.09c-.415.044-.778-.146-1.148-.311-.497-.225-.8-.513-1.131-.953-.244-.327-.5-.652-.601-1.054-.094-.372-.13-.774-.176-1.154-.043-.349.167-.631.455-.786a1.01 1.01 0 01.707-.099c.077.02.15.051.218.094.135.085.273.163.412.24.14.078.278.155.413.24.08.051.143.122.214.185.213.19.404.404.602.604.485.494.97 1.359.954 2.079zm6.456 5.66c.02.374-.195.685-.604.85-.224.09-.494.118-.784.097-.29-.02-.6-.087-.903-.184-.605-.19-1.186-.498-1.526-.776-.217-.177-.402-.386-.603-.58a14.162 14.162 0 01-1.648-1.89c-.262-.363-.221-.717-.027-.981s.543-.44.901-.448a1.01 1.01 0 01.678.232c.733.613 1.53 1.057 2.367 1.504.402.216.652.524 1.003.802.102.08.204.151.305.22.1.067.198.132.288.204.182.14.342.306.453.556.061.136.094.269.1.393zm39.656 13.983a.519.519 0 01-.242.281 4.653 4.653 0 01-1.748.584c-.38.044-.755.036-1.123-.017-2.03-.283-3.904-1.855-5.69-3.1a78.694 78.694 0 00-1.662-1.13 43.347 43.347 0 00-3.437-2.067 29.4 29.4 0 00-1.785-.88c-1.66-.747-3.387-1.315-5.208-1.596a16.576 16.576 0 00-1.855-.179c-.459-.017-.915.005-1.373.009-3.203.025-6.387.488-9.59.69-.658.043-1.317.072-1.978.084a29.74 29.74 0 01-1.985-.029 39.938 39.938 0 01-4.913-.53 26.533 26.533 0 01-4.733-1.269 21.59 21.59 0 01-2.993-1.385.815.815 0 01-.235-.2.958.958 0 01-.196-.56 1.09 1.09 0 01.138-.578.76.76 0 01.438-.36.796.796 0 01.322-.026c1.434.17 2.862.391 4.286.62.768.122 1.537.246 2.305.364 2.307.354 4.618.656 6.961.711 3.399.08 6.772-.477 10.155-.659.564-.03 1.128-.049 1.692-.054.564-.005 1.13.007 1.695.037.402.022.794.09 1.191.136.397.046.799.07 1.19.137 2.008.343 3.94.973 5.788 1.843.617.29 1.223.606 1.82.948 1.141.653 2.34 1.62 3.58 2.64 2.234 1.837 4.606 3.849 7.032 4.526a6.12 6.12 0 001.623.237.54.54 0 01.348.126c.184.156.26.423.182.646z" fill="#000" opacity=".1"/><path d="M28.295 47.703c.01.002.02-.001.03 0 .045.014.06.02-.03 0z" fill="#000"/><path d="M41.099 64.845c.206-1.21.872-2.312 1.733-3.188.577-.589 1.383-1.04 2.172-1.145l-.123-.023c.043.006.092.016.136.02a1.881 1.881 0 011.075.163c2.084.343 4.37 1.053 5.578 2.593.976 1.246 1.596 3.026.799 4.393-.8 1.371-2.605 1.698-4.183 1.884-2.207.26-4.787.39-6.277-1.256-.825-.91-1.116-2.23-.91-3.441z" fill="#000" opacity=".1"/><path d="M3.566 33.299s-.002-.009.007-.01C5.689 27.901 8.745 22.9 12.527 18.52l.009-.001c.167-.193.328-.376.497-.562-.002-.008.007-.01.007-.01a50.52 50.52 0 014.327-4.275c-.588.594-1.164 1.2-1.722 1.824 0 0-.009.002-.007.01-.169.186-.33.37-.498.562l-.008.002c-3.782 4.375-6.84 9.384-8.954 14.767-.009.002-.007.01-.007.01C-2.755 52.63 6.11 79.62 26.204 91.87l.008-.002a51.168 51.168 0 006.086 3.295l.008-.001c17.631 8.296 40.037 4.926 54.414-8.129-20.726 22.213-60.102 19.196-77.171-5.97l-.008.002c-4.006-5.552-6.936-12.218-8.353-19.017-2.016-9.552-1.196-19.673 2.378-28.75z" fill="#000" opacity=".4"/><path d="M71.318 97.689c-.005-.014.107-.087.335-.22l1.023-.565 3.988-2.108.1-.023c-.04-.032-.192.072-.172.14l.084-.126.637-.388.05-.03.06.005h.01l-.112.025c3.466-2.18 8.31-5.716 12.899-11.367l.272-.114c-.083-.06-.366.142-.332.27l.07-.162c4.043-5.002 7.864-11.79 9.794-19.994 1.973-8.15 1.957-17.711-1.022-26.973l.375.303h-.007l-.275-.029-.103-.287-1.13-3.113c-.398-1.055-.719-2.167-1.301-3.17-.63-1.238-1.258-2.467-1.881-3.689-.726-1.162-1.515-2.275-2.26-3.403-.701-1.163-1.604-2.162-2.471-3.173-.898-.982-1.646-2.091-2.654-2.939l-2.842-2.668c-.958-.858-2.026-1.566-3.017-2.345l-1.503-1.135c-.51-.36-1.06-.654-1.583-.98l-3.134-1.895c-8.558-4.505-17.318-6.282-24.602-6.317a49.402 49.402 0 00-16.975 2.913c-1.927.688-3.324 1.474-4.328 1.876-.456.199-.828.359-1.13.492-.256.107-.391.154-.4.14-.006-.013.113-.088.357-.22l1.092-.572c.98-.456 2.363-1.295 4.284-2.04A48.071 48.071 0 0150.615.592c7.379-.045 16.279 1.69 24.99 6.225l3.192 1.908c.533.33 1.092.628 1.611.99l1.532 1.147c1.01.788 2.097 1.507 3.075 2.376l2.898 2.706c1.027.861 1.794 1.988 2.709 2.987.886 1.03 1.804 2.046 2.523 3.228.761 1.15 1.564 2.284 2.303 3.469.636 1.245 1.276 2.498 1.918 3.76.593 1.024.922 2.157 1.328 3.233l1.148 3.175-.379-.314h.009l.288.03.087.272c3.027 9.437 3.01 19.16.962 27.435a50.486 50.486 0 01-10.088 20.204l.068-.162c.029.133-.261.34-.35.283l.271-.114a50.805 50.805 0 01-13.2 11.27l-.053.033-.058-.007h-.008l.11-.024-.654.376.084-.126c.013.073-.145.182-.191.155l.099-.022-4.084 1.976-1.06.488c-.245.106-.37.153-.376.14z" fill="#fff"/></svg>