<svg width="60" height="60" viewBox="0 0 100 100" fill="none" xmlns="http://www.w3.org/2000/svg"><mask id="mask0_2284_8873" style="mask-type:alpha" maskUnits="userSpaceOnUse" x="0" y="0" width="100" height="100"><circle cx="50" cy="50" r="50" fill="#C4C4C4"/></mask><g mask="url(#mask0_2284_8873)"><circle cx="50" cy="50" r="50" fill="#63C3D1"/><path d="M81.164 68.41s1.053-.809 2.403.381c7.193 6.335 6.502 17.359 6.401 20.188-.1 2.826 2.484 13.147 3.843 17.019 1.36 3.872 3.005 6.163 4.01 12.902 1.005 6.739-.002 20.062.112 21.705.115 1.643 1.43 9.616 2.12 11.803.514 1.635-.081 6.601-1.872 7.399-1.792.798-2.955 1.838-9.55 1.02-6.594-.818-4.906-3.008-5.014-6.059-.108-3.048-1.066-5.771-1.095-7.131-.03-1.357-.291-3.922-.28-7.331.012-3.409.249-2.085-.417-5.386-.666-3.301-5.449-19.996-3.716-24.107 1.733-4.111-4.755-17.895-4.651-18.934.106-1.04-1.565-10.485-1.565-10.485s1.42-4.444 3.684-7.618c2.266-3.172 5.262-4.93 5.587-5.367z" fill="#1A1A1A"/><path d="M26.675 54.352S24.97 43.646 29.14 38.145c4.172-5.502 2.843-10.216 2.843-12.77 0-2.553.759-10.607 4.36-13.553 3.603-2.947 5.12-9.43 16.875-7.074 0 0 3.034-1.768 10.807-.786C71.799 4.943 75.02 15.159 75.4 17.32c.379 2.162 1.137 6.68 3.034 8.84 1.896 2.16 3.793 7.072 2.464 11.982-1.326 4.911-1.388 5.893.443 10.413 1.83 4.518.883 5.794.883 5.794s-22.182 9.138-55.55.002z" fill="#2B1A00"/><path d="M64.878 62.603H46.37l1.885-12.937.127-.865.264-1.815h13.957l.297 2.04.545 3.737 1.434 9.84z" fill="#F8BD8C"/><path d="M63.444 52.763c-1.051 1.377-2.605 2.544-4.636 2.74-4.216.413-8.328-3.43-10.554-5.835l.127-.865c.19.075.404.152.645.229 1.708.555 4.318 1.13 7.791 1.128 2.517-.004 4.44-.524 5.83-1.128l.252-.004.545 3.735z" fill="#EAB186"/><path d="M54.994 51.7c8.718 0 15.787-9.577 15.787-21.39 0-11.814-7.069-21.39-15.787-21.39-8.719 0-15.787 9.576-15.787 21.39S46.275 51.7 54.994 51.7z" fill="#F8BD8C"/><path d="M44.046 34.05c.816 2.219.11 4.558-1.579 5.223-1.688.667-3.718-.59-4.534-2.808-.816-2.217-.11-4.556 1.579-5.222 1.688-.667 3.717.59 4.534 2.808zm24.023.003c-.815 2.217-.108 4.556 1.58 5.222 1.689.665 3.718-.592 4.532-2.812.815-2.217.108-4.556-1.58-5.222-1.689-.665-3.718.594-4.532 2.812z" fill="#F8BD8C"/><path d="M44.1 26.13a.854.854 0 01-.786-.539.898.898 0 01.453-1.16c4.1-1.802 7.215-.122 7.346-.05a.903.903 0 01.353 1.197.838.838 0 01-1.152.366c-.119-.063-2.57-1.338-5.88.118a.904.904 0 01-.334.067zm15.148 0a.854.854 0 01-.785-.539.898.898 0 01.452-1.16c4.1-1.802 7.216-.122 7.347-.05a.902.902 0 01.352 1.197.837.837 0 01-1.151.366c-.12-.063-2.57-1.338-5.88.118a.896.896 0 01-.335.067zm-10.603 4.595c0 1.008-.624 1.824-1.392 1.824-.768 0-1.392-.818-1.392-1.824 0-1.009.624-1.825 1.392-1.825.768 0 1.392.818 1.392 1.825zm15.35 0c0 1.008-.624 1.824-1.392 1.824-.768 0-1.392-.818-1.392-1.824 0-1.009.624-1.825 1.392-1.825.768 0 1.392.818 1.392 1.825z" fill="#1A1A1A"/><path d="M53.22 10.84s-9.292 13.29-10.618 20.2c-1.326 6.91-8.912 4.75-9.67 4.947-.759.197 4.55-22.002 4.55-22.002L53.22 7.109v3.73z" fill="#2A1900"/><path d="M53.219 6.247v4.593c2.077 4.358 4.691 8.452 7.816 12.08 3.313 3.846 7.449 7.2 11.496 10.174.687.506 1.696 1.057 2.329 1.62-.568-3.359-1.608-6.71-2.243-10.06-.57-3.01-.937-6.209-1.862-9.198-.282-.441-17.536-9.21-17.536-9.21z" fill="#2A1900"/><path d="M45.297 53.584s-.86 1.692-.86 3.292c0 1.6 1.376 5.872-2.232 6.05-3.606.177-15.443 8.005-18.54 10.317-3.096 2.314-2.237 7.295-2.237 7.295s6.353 64.452 7.383 65.518c1.03 1.068 15.84-14.277 21.377-13.61 5.537.667 3.778 1.913 6.011 1.736 2.231-.178 3.09-1.958 3.777-1.869.688.089 3.005.534 4.122 1.334 1.117.801 5.41-.445 8.329 2.224 2.918 2.669 14.595 11.564 14.595 11.564s1.546-12.633-1.03-16.547c-2.576-3.914 1.03-38.43 0-39.677-1.03-1.245-1.889-22.061-1.889-22.061s-10.86-5.828-14.339-5.96c-3.477-.134-2.576-8.541-2.576-8.541l-21.892-1.065zm9.693-8.517a7.13 7.13 0 01-2.456-.445.192.192 0 01-.114-.247c.037-.1.148-.15.247-.114 2.422.89 5.003.34 6.278-1.336a.193.193 0 01.306.233c-.94 1.236-2.528 1.91-4.26 1.91zm14.948-.171c-.039 0-.08 0-.118-.002a2.746 2.746 0 01-2.314-1.385.142.142 0 01.052-.196.145.145 0 01.198.052 2.462 2.462 0 002.076 1.24 2.698 2.698 0 002.326-1.148c.78-1.13.899-2.801.284-3.974-.423-.81-1.137-1.255-2.01-1.255a.145.145 0 01-.144-.145c0-.079.066-.145.145-.145.985 0 1.79.502 2.265 1.412.66 1.263.534 3.062-.304 4.273a3.003 3.003 0 01-2.456 1.273zm-29.934 0c-.976 0-1.91-.483-2.457-1.275-.731-1.059-.79-2.532-.15-3.754.568-1.086 1.583-1.734 2.715-1.734.078 0 .144.066.144.145a.146.146 0 01-.144.144c-1.038 0-1.935.577-2.459 1.58-.591 1.128-.539 2.483.133 3.455a2.707 2.707 0 002.326 1.147 2.467 2.467 0 002.077-1.24.145.145 0 01.25.145 2.746 2.746 0 01-2.314 1.385c-.042.002-.08.002-.121.002zm15.09-7.769h-.231c-.767 0-1.386-.644-1.386-1.437V31.5c0-.131.104-.24.23-.24.128 0 .232.109.232.24v3.95c0 .662.517 1.198 1.155 1.198.127 0 .23.108.23.24 0 .13-.103.239-.23.239z" fill="#1A1A1A"/><path d="M23.667 73.245S5.539 90.44 3.849 93.035C2.257 95.48 1.194 96.072.085 96.939c-1.109.868-.766 1.574-4.542 7.833-2.816 4.669-4.5 12.411-2.564 17.762 2.004 5.534 7.34 9.313 12.287 12.011 5.361 2.923 6.386 3.87 10.663 6.477 4.28 2.609 5.4 3.105 7.738 5.606 1.396 1.494 4.713 2.206 6.713 2.856.88.285 1.958-.702 2.218-1.618l3.88-13.188s-3.352-8.293-10.06-11.66c-3.825-1.921-8.294-3.928-10.479-5.86-1.775-1.568 4.648-4.904 5.98-6.053 1.097-.947 5.338-4.769 6.095-5.029.755-.261 3.02-11.15 3.02-11.312 0-.162-7.367-21.518-7.367-21.518z" fill="#1A1A1A"/><path d="M24.692 109.257a.385.385 0 01-.239-.689c2.267-1.797 4.284-3.986 5.998-6.506.294-.434.577-.945.876-1.487.7-1.27 1.426-2.584 2.493-3.245a.385.385 0 01.404.656c-.895.553-1.57 1.778-2.224 2.962-.308.557-.598 1.083-.912 1.546-1.756 2.584-3.827 4.83-6.155 6.678a.378.378 0 01-.24.085z" fill="#333"/></g></svg>