<svg width="80" height="80" viewBox="0 0 104 102" fill="none" xmlns="http://www.w3.org/2000/svg"><path d="M68.218 83.984c18.349-9.456 25.55-31.982 16.083-50.312-9.467-18.33-32.016-25.523-50.364-16.066-18.35 9.457-25.55 31.983-16.083 50.312 9.466 18.33 32.015 25.523 50.364 16.066z" fill="#7C6EB0"/><path d="M47.87 13.504c.161.73.297 1.38.425 1.85-1.867.32-3.922.749-5.05 2.27-1.137 1.537-.935 3.649-1.401 5.502-.14.552-.386 1.139-.9 1.382-.428.203-.93.116-1.392.015-2.707-.595-5.831-1.473-8.017.229-1.27.987-2.08 2.774-3.677 2.971-1.684.21-2.897-1.523-3.407-3.174C30.78 18.097 39.14 14.277 47.87 13.504z" fill="#000" opacity=".3"/><path d="M32.758 32.304a.425.425 0 01-.25-.06c-3.372-1.672 1.352-7.506 4.153-7 1.733.313 2.126 2.188 1.238 3.536-1.122 1.705-3.499 1.884-4.86 3.327-.08.085-.167.18-.281.197zm-9.3 5.154c-.473.153-.955-.216-1.257-.613-1.04-1.368-1.105-3.4-.152-4.83 1.646-2.47 6.292-2.726 6.91.732.222 1.237-.471 2.635-1.662 3.04-.655.223-1.385.153-2.026.406-.525.208-.94.615-1.37.98-.134.116-.276.23-.443.285zm-.008 10.764c-.506.027-1.004-.439-1.472-.243-.406.168-.56.769-.999.815-.392.04-.649-.4-.75-.781a5.003 5.003 0 01.47-3.688c.108-.194.236-.387.417-.516.526-.376 1.531-.396 1.531-.396.687.022 1.281.544 1.566 1.169.284.624.308 1.334.267 2.018-.04.703-.327 1.585-1.03 1.622zm4.481-5.458c2-1.574 5.057.2 6.304 1.908.976 1.338 1.688 5.349-1.22 4.986a3.379 3.379 0 01-2.405-1.53c-.369-.585-.564-1.3-1.09-1.75a1.845 1.845 0 00-.127-.1c-.57-.406-1.353-.512-1.823-1.034-.63-.696-.375-1.901.361-2.48zm.442 6.263c.006.33-.07.691-.326.9-.202.167-.487.206-.746.165-.773-.12-1.335-.993-1.126-1.746.172-.623.838-1.036 1.474-.997.438.446.71 1.052.724 1.678zm-.333-1.6a1.245 1.245 0 00-.392-.08c-.046-.047-.085-.102-.136-.146l.528.226zM17.696 38.57c.363.785.595 1.694.319 2.516-.227.674-.76 1.198-1.079 1.833-1.046 2.085.35 5.002-1.196 6.748-.508.573-1.232.876-1.988 1.067a37.093 37.093 0 012.687-13.926c.538.481.952 1.1 1.257 1.761zm-1.334 25.815a37.516 37.516 0 01-2.422-9.951c1.925-1.673 3.642-3.16 6.584-2.684 1.576.272 3.123 1.397 3.354 2.978.116.79-.1 1.586-.315 2.355-.231.828-.461 1.656-.693 2.483-.094.332-.194.68-.433.93-.736.766-2.014.087-3.07.202-.789.087-1.458.649-1.898 1.31-.44.661-.695 1.423-1.003 2.155-.032.073-.07.147-.104.222zm11.572-3.176c-.19-.48-.097-1.021-.151-1.534-.077-.72-.441-1.373-.658-2.064-.216-.69-.25-1.526.242-2.057.152-.164.361-.293.586-.288.242.005.453.16.636.32 1.088.951 1.785 2.262 2.456 3.54l-.36-.43c.289.437.475.937.468 1.458-.01.791-.49 1.588-1.23 1.865-.745.277-1.697-.073-1.988-.81zm39.02-35.133c-.207-.157-.417-.33-.672-.387-.735-.161-1.28.68-1.99.926-.731.254-1.564-.196-1.971-.854-2.02-3.271 2.79-5.514 5.412-4.199 2.654 1.331 3.344 7.604-.779 4.514zm-4.477 18.262a16.279 16.279 0 01-.692-3.701c-.07-1.008-.032-2.075.48-2.946.87-1.48 2.79-1.932 4.505-2.044 1.475-.097 3.04-.029 4.303.742.82.5 1.445 1.256 2.152 1.908 1.172 1.082 2.58 1.884 3.768 2.947.828.742 1.554 1.675 1.905 2.71 1.601 2.498 2.356 5.54 2.043 8.495-.137 1.279-.517 2.628-1.518 3.435-1.859 1.497-4.808.42-6.873 1.62-1.81 1.053-2.514 3.625-4.516 4.241-1.942.597-3.827-1.006-5.123-2.57-1.821-2.197-3.482-5.105-2.46-7.77.681-1.776 2.482-3.152 2.482-5.053-.003-.69-.252-1.353-.456-2.014zm18.081-4.6l-2.693-1.756c-.257-.169-.525-.346-.682-.61-.361-.61.073-1.47.741-1.71.67-.238 1.435.03 1.971.494.537.464.891 1.1 1.234 1.72l-.653-.77c.528.76.585 1.844.082 2.632zm3.486 6.728c-.15.554-.816.999-1.31.706-.272-.162-.402-.48-.513-.776l-.858-2.293c-.09-.241-.183-.505-.1-.75.108-.323.503-.487.84-.422.335.065.612.301.829.567.617.755.843 1.748 1.053 2.7l-.188-1.405c.198.538.397 1.12.247 1.673zm-50.819-7.635c-1.118-.672-.075-2.41 1.046-1.736 1.117.672.075 2.408-1.046 1.736zm3.403-5.934c1.438.864.097 3.097-1.344 2.233-1.438-.865-.097-3.098 1.344-2.233zm.836 10.798c-1.213-2.338-1.53-5.053.582-7.184 1.18-1.19 3.087-1.78 4.22-.212 1.131 1.564.447 3.483-.337 4.98-.67 1.28-.34 1.854-.04 3.158.174.752.309 1.564.065 2.32-.451 1.397-2.068 2.236-3.315 1.233-1.1-.884-1.148-2.748-1.175-4.295zM29.22 51.28c.915.124 2.113.409 2.905 1.037.104.06.208.122.31.195.85.61 1.598 1.72 1.024 2.776-.5.923-1.68 1.15-2.559.62-.44-.266-.676-.668-.985-1.057a5.774 5.774 0 00-1.354-1.253c-.932-.62-.663-2.498.66-2.318zm5.61 1.302a1.16 1.16 0 01-.347-.652c-.19-.679.637-1.354 1.288-.951.419.26.68.757.49 1.248-.236.619-.928.816-1.43.355zm21.592-3.557c-1.79-.573-1.924-2.535-2.123-4.094-.2-1.556-.618-3.367.784-4.505 1.342-1.09 3.259-.375 4.134.934.873 1.305 1.137 3.2.733 4.706-.075.28-.201.526-.348.754-.03.146-.064.29-.114.432-.444 1.26-1.7 2.212-3.066 1.773zm-.534 4.151a1.026 1.026 0 01-.068-.419l.01-.086c-.17-.47-.001-.974.362-1.392.395-.455 1.29-.416 1.662.04.578.71.81 1.745.07 2.448-.707.672-1.753.263-2.036-.591zm-3.566.294c-1.299-.15-1.736-1.33-2.16-2.392-.438-1.098-1.045-2.238-1.268-3.406-.186-.971-.019-2.066.86-2.65.818-.542 1.873-.226 2.39.562.616.933.607 2.155.812 3.218.03.159.076.308.117.46.017.013.036.02.051.035 1.26 1.115 1.753 4.466-.802 4.174zm35.805-8.18c-1.695-.644-3.21-1.699-4.081-3.361-1.05-2.004-1.547-5.344-.411-7.443-.036-.621.05-1.208.288-1.725a37.475 37.475 0 014.204 12.529zm-14.54 22.546c-.073-.012-.14-.04-.21-.061-.844.963-2.139 1.671-3.343 1.577-.406.405-1.084.53-1.512.02-.434-.517-.627-1.068-.598-1.621-.196-.613-.134-1.302.15-1.92.525-1.143 1.501-1.523 2.477-2.19.024-.017.045-.036.069-.054.419-.467.85-.926 1.19-1.45.196-.303.367-.632.627-.882.816-.783 2.254-.482 3.036.337.102.107.196.221.281.339.508.143.65.786.661 1.347.152.455.263.93.361 1.396l-.366-.95c-.02.902-.076 1.821-.463 2.631-.428.899-1.377 1.632-2.36 1.481zM61.924 31.828c1.21.046 1.778 1.385 1.126 2.345-.276.407-.72.655-1.13.909-.102.063-.216.124-.325.189-.04.09-.085.182-.1.221-.17.424-.382.795-.737 1.09-.783.65-2.31.237-2.197-.959.068-.733.35-1.382.863-1.901.024-.04.058-.075.084-.112.393-1.008 1.247-1.826 2.416-1.782zm3.306 44.536c.401-1.868 2.589-1.93 3.967-2.685 1.474-.81 1.71-3.07 3.617-3.181 1.4-.082 2.151 1.213 1.949 2.468-.225 1.39-1.05 2.654-2.162 3.665-1.297 1.81-3.184 3.166-5.365 2.633-1.242-.304-2.293-1.572-2.007-2.9zm12.144-9.338c.463-.688 1.737-.659 1.9.284.132.783.16 1.571-.084 2.337-.225.71-.82 1.598-1.637 1.58-.063 0-.118-.018-.174-.032a1.88 1.88 0 01-1.22-.076c-.949-.412-1.32-1.501-.939-2.439.184-.453.517-.822.961-1.031.428-.204.91-.203 1.193-.623zm.467-3.661c-.018-.367.147-.618.448-.815.278-.182.607-.055.833.13.292.237.28.564.229.901-.056.373-.513.603-.85.548-.389-.061-.64-.37-.66-.764zm3.659 7.98c1.347-2.614.933-4.598.43-7.335-.27-1.475-.395-2.999.246-4.403 1.07-2.345 3.559-3.257 5.995-3.742a37.205 37.205 0 01-4.997 14.085 37.278 37.278 0 01-1.75 2.629 1.557 1.557 0 01.075-1.234zm3.602-16.818c-.734.293-1.58.17-1.991-.582-.012-.02-.017-.044-.028-.066a1.332 1.332 0 01-.293-.448c-.257-.689.028-1.322.62-1.725.304-.206.63-.344.965-.438 1.24-.55 2.828-1.157 4.141-1.046a37.395 37.395 0 01-.128 3.652c-1.126.01-2.236.206-3.286.653zm.32-7.784c.298-.531 1.158-.676 1.458-.04.05.106.092.214.131.322.019.031.046.055.063.087.136.27.147.55.061.8-.027.235-.11.465-.272.681a1.05 1.05 0 01-.22.214c-.04.046-.075.1-.12.14-.279.253-.77.279-1.03-.026-.35-.41-.632-.866-.525-1.427.057-.297.222-.562.454-.751zm-4.107 11.546c-.274.287-.52.474-.896.52-.603 1.164-2.047 2.157-3.043 1.083-.586-.633-.267-1.506.341-1.978.694-.54 1.709-.78 2.518-1.104.94-.376 1.845.679 1.08 1.479zM22.812 39.056c.462-.766 1.28-.914 2.113-.858.85.058 1.618.02 2.399-.357.948-.462 1.89.532 1.4 1.458-.49.928-1.431 1.523-2.448 1.728-.828.165-1.89.24-2.532-.368a3.02 3.02 0 01-.61-.308c-.424-.284-.596-.842-.322-1.295zM21.14 30.72c-.659.688-1.503 1.213-2.412 1.392.127-.22.244-.44.375-.658a37.555 37.555 0 013.736-5.147c.017.038.038.072.048.114.423 1.591-.688 3.193-1.748 4.3zm10.255 40.26c-.235-1.337 1.179-2.278 2.302-2.588 1.63-.449 3.151-.047 4.652-1.016 1.18-.762 2.394-1.803 3.9-1.678 1.065.089 2.04.822 2.247 1.891.19.99-.201 1.865-.88 2.614-.28.91-.85 1.75-1.67 2.4-1.72 1.361-4.069 1.508-6.036.68-1.886.26-4.172-.353-4.515-2.304z" fill="#000" opacity=".3"/><path d="M36.378 66.483c-.404-.424-.402-1.152-.108-1.637.37-.608 1.212-.996 1.888-.776.293-.017.584.071.848.349.874.919-.078 2.24-1.11 2.44-.51.099-1.145.016-1.518-.376zm8.418 6.521c-.3-.07-.629-.37-.67-.689-.103-.791.09-1.484.655-2.062.54-.553 1.414-.198 1.622.471.39.373.492.979.243 1.479-.346.698-1.114.978-1.85.801z" fill="#000" opacity=".3"/><path d="M40.302 15.117a37.228 37.228 0 00-11.47 11.947c-10.643 17.676-4.926 40.62 12.766 51.252 9.428 5.664 20.354 6.687 30.115 3.734-11.637 7.645-27.101 8.458-39.834.807C14.187 72.225 8.469 49.28 19.112 31.605c4.971-8.254 12.632-13.899 21.19-16.488z" fill="#000" opacity=".2"/><path d="M75.341 78.593l.007-.005c-.043-.056.673-.8 1.852-2.241a40.662 40.662 0 004.354-6.59 38.458 38.458 0 003.825-11.14c.777-4.398.864-9.445-.254-14.578l.34.337-.005-.002-.274-.056-.07-.294-.642-2.705c-.242-.912-.594-1.81-.89-2.733-2.086-5.533-5.45-10.255-9.235-13.719a40.567 40.567 0 00-11.361-7.485c-3.58-1.558-6.672-2.297-8.81-2.741-2.155-.364-3.362-.524-3.356-.598.002-.03.307-.023.886.014.578.051 1.436.083 2.528.243a39.47 39.47 0 018.999 2.506c3.654 1.506 7.8 3.91 11.671 7.462 3.895 3.503 7.369 8.328 9.512 14.008.305.946.663 1.869.911 2.805l.655 2.777-.343-.348.005.001.281.058.06.28c1.131 5.266 1.005 10.421.162 14.904a37.715 37.715 0 01-4.075 11.278 36.076 36.076 0 01-4.627 6.518c-.636.693-1.142 1.216-1.51 1.547-.36.337-.562.506-.584.489-.012.01-.012.008-.012.008z" fill="#fff"/><path d="M97.875 39.888c2.455-.997 5.562 1.356 5.262 3.988-.3 2.63-3.859 4.225-6.026 2.702-2.167-1.525-1.863-5.409.515-6.578m-7.27-8.887c1.406-.572 3.184.776 3.012 2.282-.172 1.507-2.208 2.419-3.45 1.547-1.24-.873-1.066-3.095.295-3.764" fill="#7C6EB0"/></svg>