<svg width="80" height="80" fill="none" xmlns="http://www.w3.org/2000/svg"><path d="M66.228 45.006H52.496a3.745 3.745 0 01-3.745-3.745v-9.987a3.745 3.745 0 013.745-3.745H65.79a1.247 1.247 0 001.024-.525 1.249 1.249 0 00.15-1.136 6.968 6.968 0 00-.35-.836 8.738 8.738 0 00-7.877-4.994H33.77a1.249 1.249 0 00-1.249 1.248v2.872a1.06 1.06 0 010 .287 2.495 2.495 0 01-.112.437c0 .112-.075.225-.125.337-.05.112-.062.15-.087.212l-.138.25c-.223.376-.51.71-.848.986l-.25.187a3.98 3.98 0 01-.5.288l-.174.074-.337.125a1.245 1.245 0 01-.287.075 2.41 2.41 0 01-.45.075l-.437.038h-14.98a1.249 1.249 0 00-1.25 1.248v24.968a8.74 8.74 0 008.74 8.739h37.452a8.74 8.74 0 008.739-8.74v-7.49a1.248 1.248 0 00-1.249-1.248zm-1.248 8.739a6.242 6.242 0 01-6.242 6.242H21.286a6.242 6.242 0 01-6.242-6.242v-23.72h13.732c.225.013.45.013.674 0h.312c.157-.016.311-.045.462-.087h.163c.22-.058.437-.128.649-.212.231-.089.456-.193.674-.312.208-.11.409-.236.6-.375.193-.127.376-.27.548-.424l.088-.088c.121-.098.234-.207.337-.324a3.27 3.27 0 00.274-.313c.113-.124.213-.274.325-.411l.1-.15.225-.387c.061-.1.115-.205.162-.312 0-.125.112-.25.162-.375.156-.382.269-.78.337-1.186.033-.13.054-.265.063-.4.056-.291.086-.588.087-.886v-1.248h23.72a6.241 6.241 0 014.993 2.497H52.496a6.242 6.242 0 00-6.242 6.242v9.987a6.242 6.242 0 006.242 6.242H64.98v6.242z" fill="#ADA4CD"/><path d="M48.6 69.974l-.91-7.278v-.212l-.188-1.399a1.248 1.248 0 00-1.248-1.098H33.77a1.248 1.248 0 00-1.248 1.098l-.163 1.399-.936 7.49-.137 1.099a1.248 1.248 0 001.236 1.398h14.98a1.25 1.25 0 001.19-.88 1.25 1.25 0 00.046-.518l-.137-1.099zm-14.668 0l.936-7.49h10.287l.3 2.497.637 4.993h-12.16z" fill="#ADA4CD"/><path d="M52.496 71.223a1.248 1.248 0 01-1.249 1.248h-22.47a1.248 1.248 0 110-2.497h22.47a1.249 1.249 0 011.249 1.249zm13.732-18.726H13.795a1.249 1.249 0 010-2.497h52.433a1.249 1.249 0 110 2.497z" fill="#ADA4CD"/><path d="M40.011 57.49a1.248 1.248 0 100-2.496 1.248 1.248 0 000 2.496z" fill="#63C3D1"/><path d="M70.599 25.868a6.243 6.243 0 00-3.121-.836H52.497a6.242 6.242 0 00-6.242 6.242v9.987a6.242 6.242 0 006.242 6.242h14.98a6.242 6.242 0 006.243-6.242v-9.987a6.242 6.242 0 00-3.121-5.406zm.624 15.393a3.746 3.746 0 01-3.745 3.745H52.497a3.745 3.745 0 01-3.745-3.745v-9.987a3.745 3.745 0 013.745-3.745h14.98a3.745 3.745 0 013.746 3.745v9.987z" fill="#ADA4CD"/><path d="M56.242 42.51a1.249 1.249 0 01-1.093-.642 1.249 1.249 0 01-.156-.607v-9.987a1.249 1.249 0 01.6-1.061 1.25 1.25 0 011.248 0l9.987 5.093a1.248 1.248 0 01.482 1.779 1.247 1.247 0 01-.507.456l-9.987 4.894a1.25 1.25 0 01-.574.075zm1.248-9.201v5.955l5.942-2.922-5.942-3.033zm-24.619-5.43a1.248 1.248 0 01-.886-.363l-4.457-4.47-1.985 1.986a2.497 2.497 0 01-3.52 0L17.54 20.55l-6.953 6.979a1.263 1.263 0 01-1.786-1.785l6.979-6.954a2.497 2.497 0 013.52 0l4.482 4.482 1.985-1.985a2.497 2.497 0 013.52 0l4.482 4.457a1.248 1.248 0 01-.414 2.05c-.154.06-.319.088-.485.084zm-7.215-9.09a3.122 3.122 0 110-6.242 3.122 3.122 0 010 6.243zm0-3.744a.624.624 0 100 1.248.624.624 0 000-1.248zm14.356 21.223H21.286a1.248 1.248 0 110-2.497h18.726a1.248 1.248 0 110 2.496zm0 4.993H21.286a1.248 1.248 0 110-2.497h18.726a1.248 1.248 0 110 2.497zm-4.993 4.994H21.286a1.248 1.248 0 110-2.497H35.02a1.248 1.248 0 110 2.497z" fill="#63C3D1"/><path d="M28.776 7.554h-14.98a6.242 6.242 0 00-6.242 6.242v9.987a6.305 6.305 0 001.098 3.546 6.243 6.243 0 003.895 2.497c.41.086.83.127 1.249.124h14.98c.225.013.45.013.675 0h.312c.156-.015.31-.045.462-.087h.162a5.8 5.8 0 00.65-.212c.23-.089.456-.193.673-.312.209-.11.41-.236.6-.375.193-.127.377-.27.549-.424l.087-.088.337-.324a3.27 3.27 0 00.275-.312c.112-.125.212-.275.325-.412l.1-.15.224-.387c.061-.1.116-.204.162-.312 0-.125.113-.25.163-.375.155-.381.268-.78.337-1.186.033-.13.054-.264.062-.4a4.69 4.69 0 00.088-.81v-9.988a6.242 6.242 0 00-6.242-6.242zm3.746 16.23v.374a1.06 1.06 0 010 .287 2.503 2.503 0 01-.113.437 2.7 2.7 0 01-.124.337c0 .075-.063.15-.088.212a1.691 1.691 0 01-.137.25 3.7 3.7 0 01-.85.986l-.249.187a3.93 3.93 0 01-.5.288l-.174.074c-.11.05-.222.091-.337.125a1.245 1.245 0 01-.287.075c-.147.04-.298.064-.45.075l-.437.038h-14.98a3.745 3.745 0 01-2.372-.85 3.745 3.745 0 01-1.249-2.234 3.823 3.823 0 01-.125-.662v-9.987a3.745 3.745 0 013.746-3.745h14.98a3.746 3.746 0 013.746 3.745v9.987z" fill="#ADA4CD"/><path opacity=".3" d="M37.915 72.47l-1.248 1.25A21.486 21.486 0 116.306 43.307l6.242-6.242v16.679a8.74 8.74 0 008.739 8.739H32.36l-.936 7.49h-2.647a1.248 1.248 0 100 2.497h9.138zM73.72 36.668v-5.393a6.242 6.242 0 00-6.242-6.242h-.861a8.738 8.738 0 00-7.877-4.994H35.02v-5.393l8.29-8.34a21.486 21.486 0 1130.41 30.362z" fill="#63C3D1"/></svg>