<svg width="49" height="48" fill="none" xmlns="http://www.w3.org/2000/svg"><path d="M32.642 15.298a2.815 2.815 0 01-.18-.33 2.257 2.257 0 01-.12-.27c0-.052-.038-.105-.06-.165-.023-.06-.06-.18-.083-.27a4.147 4.147 0 01-.127-.765v-.434a2.474 2.474 0 01-.667 1.882 2.511 2.511 0 01-4.379-1.717v-.487c.002.266-.023.532-.075.794.005.065.005.13 0 .195a1.42 1.42 0 01-.067.255c-.022.087-.05.172-.082.255a3.605 3.605 0 01-.24.57l-.128.225-.067.104a2.832 2.832 0 01-.165.24 3.825 3.825 0 01-.368-.712 3.867 3.867 0 01-.307-1.034 3.596 3.596 0 010-.405v-.487a2.998 2.998 0 11-5.998 0v.487c.001.498-.093.991-.277 1.454 0 .068-.052.143-.09.21a3.47 3.47 0 01-.27.487 2.696 2.696 0 01-.165-.24l-.067-.104-.128-.225-.037-.075a3.605 3.605 0 01-.203-.495 1.998 1.998 0 01-.082-.255 1.412 1.412 0 01-.067-.255 1.509 1.509 0 010-.195 3.97 3.97 0 01-.113-.794v.487a2.511 2.511 0 01-3.066 2.451l-.165-.045a1.755 1.755 0 01-.457-.195l-1.087 1.087c.41.29.874.496 1.364.608l.172.037a2.941 2.941 0 00.728.045c.134.008.27.008.405 0 .125-.01.25-.027.374-.052a3.9 3.9 0 001.462-.615c.053 0 .105-.075.158-.113a1.66 1.66 0 00.187-.15 2.63 2.63 0 00.337-.322c.075-.082.15-.165.218-.255.079-.097.152-.2.217-.307l.045.052a4.586 4.586 0 00.765.802 4.5 4.5 0 005.653 0 4.51 4.51 0 00.562-.517c.078-.085.15-.175.217-.27l.045-.052a4.01 4.01 0 002.594 1.777c.124.025.25.043.375.052.135.008.27.008.405 0a4.025 4.025 0 003.268-1.687 2.969 2.969 0 01-.164-.262zm-6.365 16.186a.75.75 0 01.75.66l.097.84h1.402v-1.5h-2.25zm6.807-10.031a.749.749 0 01.69-.465h-1.5a3.748 3.748 0 00-3.748 3.748v2.25h.75a.75.75 0 00.75-.75v-1.5a2.249 2.249 0 012.248-2.249h1.185l-.218-.217a.75.75 0 01-.157-.817zm5.54-6.148a.75.75 0 00-.75 0c-.4.264-.87.405-1.349.405h-.435a2.512 2.512 0 01-2.504-2.346v-.435a.75.75 0 00-1.5.052v.045a2.473 2.473 0 01-.666 1.882 2.512 2.512 0 01-4.394-1.68v-.486a.75.75 0 00-1.499 0 2.998 2.998 0 11-5.998 0 .75.75 0 00-1.499 0v.487a2.511 2.511 0 01-3.066 2.451l-.165-.045a1.755 1.755 0 01-.457-.195 1.701 1.701 0 01-.33-.202l-.12-.098a2.474 2.474 0 01-.877-2.077v-.044a.75.75 0 00-1.423-.336.748.748 0 00-.077.283v.435a2.512 2.512 0 01-2.534 2.34h-.434a2.504 2.504 0 01-1.357-.406.75.75 0 00-.75 0 .75.75 0 00-.405.63v11.77a5.128 5.128 0 00.975 2.999l.142.195c.135.165.285.337.443.502l.12.105c.14.136.29.262.45.375l.134.097c.193.136.396.256.607.36l.098.053c.172.084.35.157.532.217a.747.747 0 00.173.06c.218.071.44.126.667.165h.165c.244.059.492.099.742.12h17.992a.75.75 0 00.75-.75v-7.496a2.249 2.249 0 012.25-2.25h5.997a.749.749 0 00.532-.217.748.748 0 00.157-.24.428.428 0 000-.105.517.517 0 00.06-.187v-5.773a.75.75 0 00-.397-.66zm-6.35 5.683a3.748 3.748 0 00-3.748 3.748v6.748H11.283a4.126 4.126 0 01-.532-.045h-.135a3.213 3.213 0 01-.48-.113h-.097a2.19 2.19 0 01-.405-.165l-.083-.045-.352-.202-.165-.18-.307-.262-.06-.06a4.115 4.115 0 01-.338-.375l-.585.457.525-.54a3.696 3.696 0 01-.734-2.219V17.112h.052a.918.918 0 00.195.045h1.177a3.89 3.89 0 001.664-.367 2.17 2.17 0 00.255-.128c.138-.05.274-.107.405-.172l.307-.247c.239-.203.45-.434.63-.69.102.146.215.283.337.412.077.086.16.166.248.24.074.075.157.14.247.195l.173.127c.41.29.874.496 1.364.608l.172.037a2.941 2.941 0 00.728.045c.135.008.27.008.404 0 .127-.01.252-.027.375-.052a3.899 3.899 0 001.462-.615c.053 0 .105-.075.158-.113a1.66 1.66 0 00.187-.15 2.72 2.72 0 00.338-.322c.075-.082.15-.165.217-.255.08-.097.152-.2.217-.307l.045.052a4.586 4.586 0 00.765.802 4.499 4.499 0 005.653 0 4.55 4.55 0 00.592-.517c.078-.085.15-.175.217-.27l.045-.052a4.01 4.01 0 002.594 1.777c.124.025.25.043.375.052.135.008.27.008.405 0a4.025 4.025 0 003.268-1.687c.068.098.143.188.218.278l.172.18a.458.458 0 00.12.12.873.873 0 00.12.112l.338.24c.114.084.234.159.36.225l.307.15c.514.238 1.075.36 1.642.36h.779a4.04 4.04 0 00.42-.06.918.918 0 00.195-.045h.045v3.868h-5.248zm.368-5.69a2.815 2.815 0 01-.18-.33 2.257 2.257 0 01-.12-.27c0-.052-.038-.105-.06-.165-.023-.06-.06-.18-.083-.27a4.147 4.147 0 01-.127-.765v-.434a2.474 2.474 0 01-.667 1.882 2.511 2.511 0 01-4.379-1.717v-.487c.002.266-.023.532-.075.794.005.065.005.13 0 .195a1.42 1.42 0 01-.067.255c-.022.087-.05.172-.082.255a3.605 3.605 0 01-.24.57l-.128.225-.067.104a1.246 1.246 0 01-.165.24 3.825 3.825 0 01-.368-.712 3.867 3.867 0 01-.307-1.034 3.596 3.596 0 010-.405v-.487a2.998 2.998 0 11-5.998 0v.487c.001.498-.093.991-.277 1.454 0 .068-.052.143-.09.21a3.47 3.47 0 01-.27.487 1.24 1.24 0 01-.165-.24l-.067-.104-.128-.225-.037-.075a3.605 3.605 0 01-.203-.495 1.998 1.998 0 01-.082-.255 1.412 1.412 0 01-.067-.255 1.509 1.509 0 010-.195 3.97 3.97 0 01-.113-.794v.487a2.511 2.511 0 01-3.066 2.451l-.165-.045a1.755 1.755 0 01-.457-.195l-1.087 1.087c.41.29.874.496 1.364.608l.172.037a2.941 2.941 0 00.728.045c.134.008.27.008.405 0 .125-.01.25-.027.374-.052a3.9 3.9 0 001.462-.615c.053 0 .105-.075.158-.113a1.66 1.66 0 00.187-.15 2.63 2.63 0 00.337-.322c.075-.082.15-.165.218-.255.079-.097.152-.2.217-.307l.045.052a4.586 4.586 0 00.765.802 4.5 4.5 0 005.653 0 4.51 4.51 0 00.562-.517c.078-.085.15-.175.217-.27l.045-.052a4.01 4.01 0 002.594 1.777c.124.025.25.043.375.052.135.008.27.008.405 0a4.025 4.025 0 003.268-1.687 2.969 2.969 0 01-.164-.262z" fill="#ADA4CD"/><path d="M27.777 38.14l-.09-.659-.562-4.498-.098-.84a.75.75 0 00-.75-.66h-7.496a.75.75 0 00-.75.66l-.098.84-.562 4.498-.082.66a.749.749 0 00.742.84h8.996a.763.763 0 00.308-.068.63.63 0 00.255-.187.794.794 0 00.127-.195.69.69 0 00.06-.39zm-8.899-.659l.562-4.498h6.178l.562 4.498h-7.302z" fill="#ADA4CD"/><path d="M30.025 38.23a.75.75 0 01-.75.75H15.782a.75.75 0 010-1.499h13.495a.75.75 0 01.75.75zm-.75-11.244H6.786a.75.75 0 010-1.5h22.49a.75.75 0 010 1.5z" fill="#ADA4CD"/><path d="M22.529 29.984a.75.75 0 100-1.5.75.75 0 000 1.5zM8.982 17.24h-.435a4.018 4.018 0 01-4.01-4.011v-.165a4.07 4.07 0 01.074-.75.39.39 0 010-.082l1.56-5.076a3.748 3.748 0 013.613-2.661h2.999a.75.75 0 01.707.5c.034.097.049.2.042.302l-.547 8.194a4.018 4.018 0 01-4.003 3.748zm-2.909-4.641c-.023.154-.035.31-.037.465v.165a2.526 2.526 0 002.511 2.511h.435a2.512 2.512 0 002.504-2.346l.494-7.4H9.784A2.25 2.25 0 007.64 7.591L6.073 12.6z" fill="#63C3D1"/><path d="M15.519 17.24a4.02 4.02 0 01-4.004-4.281l.518-7.767a.75.75 0 01.75-.697h5.997a.75.75 0 01.75.75v7.984a4.018 4.018 0 01-4.011 4.01zm-2.04-11.246l-.464 7.07a2.474 2.474 0 00.667 1.882 2.512 2.512 0 004.348-1.717V5.994h-4.55z" fill="#63C3D1"/><path d="M26.277 4.495H18.78a.75.75 0 00-.75.75v7.497c-.001.266.024.532.075.794-.004.065-.004.13 0 .195.015.087.037.172.068.255.022.087.05.172.082.255.055.17.123.335.203.495l.037.075.128.225.067.105c.05.082.106.162.165.24l.045.052a4.587 4.587 0 00.765.802 4.498 4.498 0 005.653 0 4.58 4.58 0 00.584-.495c.078-.085.151-.175.217-.27l.046-.052c.059-.077.114-.157.164-.24l.068-.105.127-.225a3.592 3.592 0 00.24-.57c.033-.083.06-.168.083-.255a1.42 1.42 0 00.067-.254c.004-.065.004-.13 0-.195.067-.273.105-.552.113-.832V5.245a.75.75 0 00-.75-.75zM22.529 15.74a2.998 2.998 0 01-3-2.998V5.994h5.998v6.748a2.999 2.999 0 01-2.998 2.998z" fill="#63C3D1"/><path d="M33.077 5.994l-.053-.802a.75.75 0 00-.75-.697h-5.997a.75.75 0 00-.75.75v7.984c-.007.135-.007.27 0 .405.035.354.118.702.248 1.034 0 .075.06.15.097.225.078.169.168.332.27.487a4.01 4.01 0 002.594 1.777c.124.026.249.043.375.053.135.007.27.007.405 0a4.025 4.025 0 003.268-1.687 4.04 4.04 0 00.75-2.594l-.457-6.935zm-1.702 8.952a2.512 2.512 0 01-4.348-1.717V5.994h4.55l.398 6.08.067.945v.045a2.476 2.476 0 01-.667 1.882z" fill="#63C3D1"/><path d="M40.446 12.292a.392.392 0 000-.083l-1.56-5.053a3.748 3.748 0 00-3.613-2.661h-2.998a.75.75 0 00-.707.5.749.749 0 00-.043.302l.045.697.405 6.08.067.945v.48a4.147 4.147 0 00.128.764c0 .09.052.18.082.27.03.09.038.113.06.165.034.093.074.183.12.27.053.114.113.224.18.33a3.882 3.882 0 00.382.532l.173.18a.457.457 0 00.12.12.868.868 0 00.12.112l.367.248c.114.084.235.159.36.225l.307.15c.515.238 1.075.36 1.642.36h.78a4.04 4.04 0 00.42-.06.918.918 0 00.194-.045h.046c.41-.11.799-.285 1.154-.518a3.99 3.99 0 001.844-3.366v-.165c0-.261-.025-.522-.075-.78zm-1.424.937a2.498 2.498 0 01-1.162 2.106c-.4.264-.87.405-1.35.405h-.434a2.512 2.512 0 01-2.504-2.346v-.435l-.495-6.965h2.249a2.25 2.25 0 012.144 1.597l1.552 5.008c.01.155.01.31 0 .465v.165z" fill="#63C3D1"/><path d="M43.145 23.102a3.749 3.749 0 00-3.373-2.114h-7.497a3.749 3.749 0 00-3.749 3.748V39.73a3.748 3.748 0 003.749 3.749h7.497a3.749 3.749 0 003.748-3.749V24.737c0-.567-.128-1.125-.375-1.635zM42.021 39.73a2.25 2.25 0 01-2.25 2.25h-7.496a2.25 2.25 0 01-2.25-2.25V24.737a2.25 2.25 0 012.25-2.25h7.497a2.25 2.25 0 012.204 1.785c.03.153.045.308.045.465V39.73zm-8.937-18.277a.749.749 0 01.69-.465h-1.5a3.749 3.749 0 00-3.748 3.748v12.745h.24l1.26-1.26V24.738a2.25 2.25 0 012.249-2.25h1.184l-.217-.217a.75.75 0 01-.157-.817z" fill="#ADA4CD"/><path d="M36.023 40.48a.75.75 0 100-1.5.75.75 0 000 1.5z" fill="#63C3D1"/><path d="M37.522 23.237h-2.999a.749.749 0 01-.532-.217l-.75-.75a.75.75 0 01-.157-.817.75.75 0 01.69-.465h4.498a.75.75 0 01.69.465.75.75 0 01-.158.817l-.75.75a.75.75 0 01-.532.217z" fill="#ADA4CD"/><path d="M37.522 36.732h-2.998a2.249 2.249 0 01-2.25-2.25v-3.748a.75.75 0 01.75-.75h5.998a.75.75 0 01.75.75v3.748a2.25 2.25 0 01-2.25 2.25zm-3.748-5.248v2.998a.75.75 0 00.75.75h2.998a.75.75 0 00.75-.75v-2.998h-4.498z" fill="#63C3D1"/><path d="M37.522 31.386h-2.999a.652.652 0 01-.652-.652v-.75a2.152 2.152 0 014.303 0v.75a.652.652 0 01-.652.652zm-2.346-1.304h1.694v-.098a.847.847 0 10-1.694 0v.098z" fill="#63C3D1"/><path opacity=".3" d="M27.267 38.98l-5.248 5.248A12.903 12.903 0 013.787 25.966l2.249-2.25v4.02a5.128 5.128 0 00.974 2.998l.143.195c.135.165.285.337.442.502l.12.105c.14.136.29.262.45.375l.135.097c.193.136.396.256.607.36l.097.053c.173.084.35.157.533.217a.752.752 0 00.172.06c.218.071.441.126.667.165h.165c.244.059.492.099.742.12h6.65l-.562 4.498h-1.59a.75.75 0 100 1.5h11.486zm20.751-26.089a12.85 12.85 0 01-3.748 9.117l-1.125 1.094a3.749 3.749 0 00-3.373-2.114h-.75v-4.64a3.99 3.99 0 001.5-3.12v-.164a4.076 4.076 0 00-.076-.75.391.391 0 000-.082l-1.559-5.076a3.748 3.748 0 00-3.614-2.661h-9.985l.75-.75a12.895 12.895 0 0121.98 9.146zM28.526 32.983v4.498h-.84l-.562-4.498h1.402z" fill="#63C3D1"/></svg>