<svg xmlns="http://www.w3.org/2000/svg" width="122" height="128" version="1.1" id="svg10" fill="none"><path d="M112.523 124.351H9.545c-.966 0-1.761-.924-1.761-2.083V7.003c0-1.142.78-2.083 1.76-2.083h102.993c.966 0 1.76.924 1.76 2.083v115.265c-.013 1.16-.794 2.083-1.774 2.083zm-101.232-4.15h99.47V9.086h-99.47z" id="path2" fill="#70d2e4"/><path d="M71.031 23.4H10.638c-.965 0-1.76-.924-1.76-2.083 0-1.16.78-2.083 1.76-2.083h60.393c.966 0 1.76.924 1.76 2.083 0 1.16-.794 2.083-1.76 2.083zm40.939 0H99.602c-.966 0-1.761-.924-1.761-2.083 0-1.16.78-2.083 1.76-2.083h12.369c.965 0 1.76.924 1.76 2.083 0 1.16-.795 2.083-1.76 2.083zm-22.351 0h-8.605c-.966 0-1.761-.924-1.761-2.083 0-1.16.78-2.083 1.76-2.083h8.606c.966 0 1.76.924 1.76 2.083 0 1.16-.794 2.083-1.76 2.083zm-29.99 51.845H19.37c-.965 0-1.76-.924-1.76-2.083V34.236c0-1.142.78-2.083 1.76-2.083h40.257c.966 0 1.761.924 1.761 2.083V73.18c0 1.142-.78 2.066-1.76 2.066zm-38.511-4.15h36.75V36.304h-36.75z" id="path4" fill="#70d2e4"/><path d="M20.223 74.338c-.483 0-.966-.252-1.307-.723-.582-.857-.483-2.1.242-2.805L57.71 33.514c.724-.69 1.775-.572 2.371.285.582.857.483 2.1-.241 2.806L21.288 73.884c-.313.302-.682.454-1.065.454z" id="path6" fill="#70d2e4"/><path d="M57.868 71.096a1.51 1.51 0 01-1.037-.42L19.173 35.832c-.725-.672-.867-1.932-.284-2.788.568-.874 1.633-1.025 2.357-.336L58.89 67.534c.724.672.866 1.932.284 2.789-.312.504-.81.773-1.306.773zm44.758 3.36H66.941c-.965 0-1.76-.924-1.76-2.084V59.1c0-1.142.78-2.083 1.76-2.083h35.685c.965 0 1.761.924 1.761 2.083v13.272c0 1.16-.796 2.084-1.76 2.084zm-33.924-4.15h32.177V61.2H68.702zm33.924 25.167H19.357c-.965 0-1.76-.924-1.76-2.083V83.242c0-1.142.78-2.083 1.76-2.083h83.27c.964 0 1.76.924 1.76 2.083V93.39c0 1.142-.796 2.083-1.76 2.083zm-81.522-4.167h79.761v-5.997H21.104zm81.522-38.674H66.941c-.965 0-1.76-.924-1.76-2.083 0-1.159.78-2.083 1.76-2.083h35.685c.965 0 1.761.924 1.761 2.083 0 1.16-.796 2.083-1.76 2.083zM55.141 114.34h-35.67c-.966 0-1.761-.924-1.761-2.083v-9.895c0-1.143.781-2.083 1.76-2.083h35.685c.966 0 1.761.924 1.761 2.083v9.895c-.014 1.142-.795 2.083-1.775 2.083zm-33.924-4.166h32.178v-5.746H21.217zm81.41-5.73H64.683c-.966 0-1.761-.923-1.761-2.082 0-1.143.78-2.083 1.76-2.083h37.943c.965 0 1.761.924 1.761 2.083 0 1.142-.796 2.083-1.76 2.083zm0 9.678H64.683c-.966 0-1.761-.924-1.761-2.083 0-1.16.78-2.084 1.76-2.084h37.943c.965 0 1.761.924 1.761 2.084 0 1.159-.796 2.083-1.76 2.083zm.056-70.04H66.941c-.965 0-1.76-.924-1.76-2.083 0-1.16.78-2.083 1.76-2.083h35.742c.965 0 1.76.924 1.76 2.083 0 1.16-.795 2.083-1.76 2.083zm-17.821-8.568h-17.92c-.966 0-1.761-.924-1.761-2.083 0-1.16.78-2.083 1.76-2.083h17.92c.966 0 1.762.924 1.762 2.083 0 1.16-.796 2.083-1.761 2.083z" id="path8" fill="#70d2e4"/></svg>