<svg width="80" height="80" fill="none" xmlns="http://www.w3.org/2000/svg"><path opacity=".3" d="M5.403 48.46l13.926-12.487c0 1.424-1.007 10.805 0 11.812v12.886c.609 1.283-.537 1.074.537 3.759.537 1.128.728 1.07 2.148 1.073H34.9l5.369.537-8.708 8.536A18.482 18.482 0 115.403 48.461zm69.195-16.92l-4.262 3.896c0-1.424-7.517-2.684-12.886-1.61-3.759-1.074-3.759 2.009-3.759-2.287V21.476c-.608-1.282 1.074 0 0-2.684-.537-1.129-3.949-5.366-5.369-5.37l-3.221 1.075-5.37-.537 8.709-8.536a18.482 18.482 0 1126.158 26.115z" fill="#63C3D1"/><path d="M47.249 68.725H25.772a7.517 7.517 0 01-7.517-7.517V20.403a7.516 7.516 0 017.517-7.517H47.25a7.516 7.516 0 017.516 7.517v1.074a1.074 1.074 0 11-2.147 0v-1.074a5.37 5.37 0 00-5.37-5.37H25.773a5.37 5.37 0 00-5.369 5.37v40.805a5.37 5.37 0 005.37 5.37H47.25a5.37 5.37 0 005.369-5.37V59.06h-9.665a1.074 1.074 0 01-.988-.665 1.074 1.074 0 01.226-1.17l5.058-5.048V39.731a7.367 7.367 0 011.256-4.155 7.517 7.517 0 014.113-3.05v-6.754a1.074 1.074 0 112.147 0v7.613a1.073 1.073 0 01-.902 1.074 5.37 5.37 0 00-4.467 5.272v12.886a1.075 1.075 0 01-.311.763l-3.544 3.533h8.15a1.074 1.074 0 011.074 1.074v3.221a7.517 7.517 0 01-7.516 7.517z" fill="#ADA4CD"/><path d="M47.248 64.43H25.773a3.221 3.221 0 01-3.221-3.222v-6.443a1.074 1.074 0 012.147 0v6.443a1.074 1.074 0 001.074 1.074H47.25a1.074 1.074 0 001.073-1.074V59.06h-5.369a1.073 1.073 0 01-.988-.665 1.074 1.074 0 01.226-1.17l5.057-5.048V39.731a7.335 7.335 0 011.074-3.865V20.403a1.074 1.074 0 00-1.074-1.074h-3.64l-.193.386a3.222 3.222 0 01-2.867 1.762h-8.075a3.221 3.221 0 01-2.867-1.772l-.194-.376h-3.64a1.074 1.074 0 00-1.074 1.074V45.1a1.074 1.074 0 11-2.148 0V20.403a3.221 3.221 0 013.222-3.222h4.295a1.073 1.073 0 01.956.58l.494.977a1.074 1.074 0 00.956.59h8.075a1.074 1.074 0 00.956-.59l.494-.977a1.074 1.074 0 01.955-.58h4.295a3.221 3.221 0 013.222 3.222v15.774c0 .214-.063.424-.182.602a5.25 5.25 0 00-.892 2.952v12.886a1.075 1.075 0 01-.311.763l-3.544 3.533h3.855a1.074 1.074 0 011.074 1.074v3.221a3.221 3.221 0 01-3.221 3.222z" fill="#ADA4CD"/><path d="M23.624 51.544a1.074 1.074 0 01-1.073-1.074v-1.074a1.074 1.074 0 012.147 0v1.074a1.074 1.074 0 01-1.074 1.074zm42.953 7.516H64.43a1.074 1.074 0 110-2.147h2.147a5.369 5.369 0 005.37-5.37V39.732a5.37 5.37 0 00-5.37-5.369H54.765a5.893 5.893 0 00-.88.075 5.37 5.37 0 00-3.597 2.33 5.369 5.369 0 00-.892 2.964v12.886a1.075 1.075 0 01-.311.763l-3.544 3.533h14.593a1.074 1.074 0 110 2.147h-17.18a1.073 1.073 0 01-.989-.665 1.074 1.074 0 01.226-1.17l5.057-5.048V39.731a7.366 7.366 0 011.257-4.155 7.517 7.517 0 015.015-3.222c.41-.08.827-.127 1.245-.14h11.812a7.517 7.517 0 017.517 7.517v11.813a7.517 7.517 0 01-7.517 7.516zM36.51 44.027a5.37 5.37 0 01-5.369-5.37v-6.442a5.369 5.369 0 0110.738 0v6.443a5.37 5.37 0 01-5.369 5.369zm0-15.034a3.222 3.222 0 00-3.221 3.222v6.443a3.222 3.222 0 006.443 0v-6.443a3.221 3.221 0 00-3.222-3.222z" fill="#63C3D1"/><path d="M36.51 48.322a9.664 9.664 0 01-9.664-9.664v-1.074a1.074 1.074 0 012.148 0v1.074a7.516 7.516 0 1015.033 0v-1.074a1.074 1.074 0 112.148 0v1.074a9.664 9.664 0 01-9.665 9.664z" fill="#63C3D1"/><path d="M36.51 54.765a1.074 1.074 0 01-1.073-1.074v-6.443a1.074 1.074 0 012.147 0v6.443a1.074 1.074 0 01-1.074 1.074z" fill="#63C3D1"/><path d="M39.732 54.765h-6.443a1.074 1.074 0 110-2.148h6.443a1.074 1.074 0 110 2.148zM28.994 38.658H27.92a1.074 1.074 0 010-2.148h1.074a1.074 1.074 0 110 2.148zm16.107 0h-1.074a1.074 1.074 0 010-2.148h1.074a1.074 1.074 0 110 2.148zm21.154 13.96a1.784 1.784 0 01-.43 0 2.45 2.45 0 01-1.642-1.074 4.736 4.736 0 00-3.952-2.148h-1.17a1.074 1.074 0 01-1.074-1.074V41.88a1.074 1.074 0 011.074-1.074h1.17a4.757 4.757 0 003.963-2.147 2.427 2.427 0 011.632-1.074c.143-.018.287-.018.43 0a2.47 2.47 0 012.47 2.47v10.094a2.47 2.47 0 01-2.47 2.47zm-6.12-5.37h.096a6.863 6.863 0 015.745 3.082.3.3 0 00.226.129h.053a.322.322 0 00.323-.322V40.054a.312.312 0 00-.312-.323h-.064a.29.29 0 00-.215.119 6.883 6.883 0 01-5.756 3.103h-.096v4.295z" fill="#63C3D1"/><path d="M59.06 49.396h-2.147a4.296 4.296 0 110-8.59h2.148a1.074 1.074 0 011.074 1.073v6.443a1.074 1.074 0 01-1.074 1.074zm-2.147-6.443a2.147 2.147 0 100 4.295h1.074v-4.295h-1.074z" fill="#63C3D1"/><path d="M59.06 54.765a1.074 1.074 0 01-.998-.676l-2.148-5.37a1.075 1.075 0 111.998-.794l2.147 5.369a1.075 1.075 0 01-.998 1.471z" fill="#63C3D1"/></svg>